<?xml version="1.0" encoding="utf-8"?>
<!-- Generator: Adobe Illustrator 18.1.1, SVG Export Plug-In . SVG Version: 6.00 Build 0)  -->
<svg version="1.1" id="Layer_1" xmlns="http://www.w3.org/2000/svg" xmlns:xlink="http://www.w3.org/1999/xlink" x="0px" y="0px"
	 viewBox="0 0 2000 910" enable-background="new 0 0 2000 910" xml:space="preserve">
<g>
	<path fill="#FFFFFF" d="M2001,722c0,63,0,126,0,189c-666.7,0-1333.3,0-2000,0c0-36,0-72,0-108c2.2,0.9,4.4,2.2,6.7,2.8
		c3.6,0.9,7.2,1.8,10.8,2c7.2,0.2,14.4-0.1,21.6-0.1c5.7,0,11.9,1.6,16.9-0.3c9.1-3.5,20.1-2.9,26,4.4c5.2,6.5,11.5,8.4,19,6.6
		c1-1.4,2-2.9,3.4-3.3c4.7-1.5,9.4-2.8,14.2-3.9c4.8-1.1,10-2.7,14,1.7c4.8,5.3,10.5,7,17.4,6.1c7-0.8,13.2,0.6,17.2,7.4
		c1.5,2.6,4,2.6,6.4,0.7c3.8-2.9,7.6-5.8,11.5-8.5c2.9-2,5.9-3.4,9.7-1.7c6.1,2.8,12.3,5.4,18.6,7.8c3,1.1,6.3,1.5,9.5,2.3
		c4.7,1.2,9.4,2.5,14.1,3.7c0,0.4,0,0.8-0.1,1.2c-2.3,0.8-4.5,1.6-6.8,2.4c0,1.7-0.6,3.4-1.6,3.7c-7.1,2.1-14.2,4.4-21.4,5.7
		c-8.6,1.6-17.4,3.1-26,3.1c-19.8,0-39.8,2-59.3-3.8c-1.1-0.3-2.4,0.2-3.6,0.3c-0.1,0.5-0.2,1-0.3,1.6c4.8,1.7,9.5,4.1,14.5,4.8
		c11.2,1.8,22.6,2.8,33.9,4.2c21.3,2.7,42.4,1.9,62.5-6.4c7.3-3,13.6-2.2,20.3,0.7c3.5,1.6,7.4,2.4,11.1,3.5c3,0.9,6,1.7,9,2.6
		c-0.1,0.5-0.1,1-0.2,1.5c3.5-1.6,7-3.3,10.7-5c-0.6,7.2,1.2,8.8,8.2,7.6c1.3-0.2,2.6,0,3.9,0c12,0.1,24,0.5,35.9,0.2
		c1.5,0,3.8-3,4.1-4.9c0.6-3.4-2.5-2.6-4.5-2.6c-3.1,0-6.1,0-9.2,0c0-0.6-0.1-1.2-0.1-1.8c5.5-2.9,10.9-5.7,17.6-9.2
		c-1.4,2.9-2.1,4.3-3,6.1c3.2,1.2,5.9,2.9,8.7,3c3.6,0.1,7.2-1.2,10.7-1.9c3.1-0.6,5.8-0.6,7.4,3c2,4.4,6,6.1,10.7,5.6
		c3.9-0.4,7.8-1.1,11.7-1.9c1.8-0.3,3.4-1.2,5.3-1.8c-5.1-6.9-15.4-3.8-19.4-12c7.1,2,9.2,1.3,13.3-4.8c2.8-4.2,6.3-6.4,11.4-7.8
		c8-2.2,15.9-1.5,23.7-0.3c6.9,1.1,13.5,3.7,17.3,10.4c2.3,4.1,5.6,5.6,10.3,5.4c11.3-0.5,22.6-0.6,33.9-0.9
		c3.8-0.1,6.6,0.9,8.8,4.3c2.4,3.8,5.4,3.6,8.3-0.2c2.4-3.2,4.7-6.5,7.4-9.4c1.4-1.4,3.9-2.8,5.8-2.7c6.7,0.4,13.5,1,20.1,2.2
		c11.7,2.1,23.3,5.1,34.9-0.9c1.5-0.8,4-0.3,5.7,0.3c6.5,2.4,13,4.8,19.3,7.6c9.8,4.3,18.6,3,27.5-3c6.5-4.4,14.1-6.5,22.5-5.7
		c4.8,0.5,10.1-1,14.6-2.9c3.3-1.4,5.4-1.6,7.7,0.9c12.9,13.8,17.9,12.9,32,3.8c4.3-2.8,9.1-4.1,14.6-2.9
		c10.5,2.4,18.9,6.6,21.6,18.2c0.8,3.3,3.6,6.6,7.9,4.5c8.9-4.5,18.5-4.1,27.7-3c8.3,0.9,16.4,4.2,24.6,6.4c3.7,1,7.4,2.4,11.1,3.3
		c5.9,1.4,12.2,1.6,17.5,4.2c7.7,3.7,10.5,4.1,16.3-2.4c2.4-2.6,4.8-3.3,7.9-2.5c7,1.7,13.9,3.9,21,5.3c8.8,1.8,17.8,3.2,26.7,4.4
		c4.3,0.6,6.9-1.5,6.9-6.3c0-1.9,1.1-3.8,1.8-6.1c3.2,1.6,5.7,2.6,7.9,3.9c6.3,3.7,8.4,3.1,11.1-3.7c6.6,0.8,12.6,2.5,16,9
		c3.6,7,5.3,7.9,12.6,5.1c5.7-2.2,11.1-2.8,16.7,0.2c4,2.1,7,0.4,9.4-2.9c1.2-1.6,2.3-3.4,2.9-5.2c1.2-3.5,3.8-4.6,7-4.3
		c4.6,0.5,9.7-0.4,13.6,3.5c0.9,0.9,3.2,1.1,4.7,0.8c10.7-2.3,21.1,0.1,31.3,2.5c4.5,1.1,8.3,0.2,11.1-3.3c1.8-2.1,3.5-3,5.9-1.4
		c7.6,5.1,16.2,4.9,24.7,5.2c8.6,0.4,16.4-2.6,24.6-4.6c8.2-2.1,14.9-5.7,21.4-10.7c7.8-6,16.2-7.7,25.3-2.7
		c6.8,3.7,14.1,5.4,21.9,5.1c4.2-0.2,8.3,0.1,12.5,0.2c10.6,0.3,21.1,4,31.9,0.9c0.6-0.2,1.4,0.6,2.2,0.7c3.3,0.6,6.6,2,9.7,1.5
		c8.4-1.3,15.5-5.4,21.1-12c1.1-1.3,3.7-2,5.5-1.7c3.8,0.7,7.4,2.4,11.1,3.3c4.6,1.2,9.5,1.5,14,3c5.2,1.7,9.1,0.3,13.4-2.7
		c2.1-1.5,5.4-1.8,8.1-1.8c2.4,0,4.7,1.2,7.1,2c5.1,1.7,10.2,1.9,14.7-1.6c10.6-8.3,22.6-10.1,35-6.5c7.2,2.1,12.1,0.3,16.6-4.8
		c1.2-1.4,3.3-3,4.7-2.9c6.4,0.6,12.6,2,19,2.9c4.1,0.6,8.7,2.2,12.2,0.9c7.7-2.9,16.7-4.8,19.5-14.6c0.5-1.7,1.9-3.1,2.6-4.8
		c1-2.2,2.3-2.9,5-2.4c6.3,1.2,11.7,0,16.4-5.4c4.2-4.7,10-7.3,17-6.3c3.4,0.5,7,0.1,10.5,0.1c4,0.1,7-1.3,9-5
		c0.9-1.7,2.3-3.5,4-4.2c7.9-3.3,15.9-5.9,24.9-5.5c5.1,0.2,10.3-1.4,12.8-7.5c1-2.3,4.3-4.9,6.6-5c4.9-0.1,8.5-1.8,12-4.8
		c4-3.4,8.2-6.6,12.5-9.6c2.8-1.9,5.9-3.6,9.1-4.8c5.5-2,11.3-3.1,16.6-5.4c6.5-2.7,12.4-7.5,19.1-9.1c6.8-1.6,14.4-1.2,21.5-0.4
		c5.2,0.6,10.1,3.8,15.2,5.2c10.7,2.9,21.6,5.3,32.7,8c0.3,1.6,0.7,3.4,1,4.8c-4.8,0-9.5-0.8-13.8,0.1
		c-12.7,2.8-22.4,10.6-30.1,20.8c-3.3,4.4-5.9,9.2-8.8,13.8c-3.8,6.1-4.3,13.1-3.7,19.9c0.3,3,3.8,7.5,6.6,8.1
		c4.8,1.1,9.8,0.8,14.2,3.5c0.5,0.3,1.5-0.3,2.2-0.6c5.2-2.3,10.5-4.4,15.4-7.1c3.7-2,7.2-4.7,10.4-7.4c3.6-3.1,7-6.4,10-10
		c1.6-1.9,2.7-4.4,3.6-6.8c1.2-3.2,2.1-6.6,3.1-9.9c3.5,1.3,6.1,3.2,8.3,2.9c10.1-1.6,20.1-3.8,30.5-2.8c2.6,0.2,5.3-1.4,8.1-1.8
		c9.5-1.4,19.3-0.5,28.5-4.3c0.9-0.4,2.1,0.1,3.2,0c2.6-0.1,5.3-0.2,7.9-0.3c3-0.1,6.1-1,8.8-0.2c4.2,1.3,6.7-0.2,8-3.6
		c2.8-7.2,5.6-14.5,7.4-22c0.7-2.9,1.7-4.4,4.1-5.2c4.8-1.6,9.8-2.9,14.6-4.7c1.9-0.7,3.6-2.2,5.2-3.5c3.3-2.6,6.2-6.3,10-7.9
		c9.6-4.1,19.6-7.4,29.5-10.9c9.9-3.6,19.7-7.4,29.6-10.7c6.5-2.2,12.9-2.7,19.3,1.9c3.1,2.2,7.7,2.5,11.7,3.2
		c3.9,0.7,7.8,0.9,10.1,5c1,1.7,3.2,2.8,5.1,3.8c7.2,3.9,14.8,7.3,21.8,11.6c10.6,6.5,14.2,6.5,23.2-1.8
		C1984.5,728.4,1992.1,724,2001,722z M1599.9,850.1c-0.9-13-1.7-25.5-2.5-37.9c-0.7,0-1.3,0.1-2,0.1c0.6,12.5,1.2,25,1.8,37.5
		c-0.7,0.1-1.3,0.2-2,0.4c-0.4-1.3-1.1-2.5-1.2-3.8c-0.3-4-0.3-8-0.6-11.9c-0.1-0.9-1.2-1.7-1.8-2.6c-0.3,0.2-0.6,0.4-0.9,0.6
		c0.4,5.7,0.7,11.4,1.1,17.7c-7.5,0-14.4-0.2-21.4,0.1c-1.5,0.1-2.8,2-4.3,3.1c1.3,1.5,2.4,3.3,4,4.3c1.1,0.7,2.9,0.2,4.4,0.2
		c5.8,0,11.6,0,17.5,0c0,0.6,0.1,1.1,0.1,1.7c-1.1,0.3-2.2,0.8-3.4,0.8c-9.5,0.2-18.9,0.3-28.4,0.6c-1.5,0-2.9,0.7-4.3,1.1
		c0.1,0.4,0.2,0.9,0.3,1.3c11.8,0,23.6,0,35.7,0c0.4,5.7,0.3,11.4,1.4,16.9c0.4,2.1,3.4,3.7,5.2,5.6c0.8-1.9,2.2-3.9,2.2-5.8
		c-0.1-5.6-0.7-11.1-1.1-17.2c4.3,0,8,0.3,11.5-0.1c1.3-0.2,3.5-1.9,3.5-2.9c-0.1-1.4-1.6-3.6-2.8-3.9c-2.6-0.7-5.6-0.5-8.4-0.7
		c-1.2-0.1-2.3-0.4-3.5-0.5c0-0.6,0.1-1.2,0.1-1.8c4.4,0,8.8,0.1,13.1,0c4.4-0.2,8.7-0.6,13.1-1c0-0.6,0-1.2-0.1-1.8
		C1617.6,850.1,1608.9,850.1,1599.9,850.1z M1693.8,837.8c-2.9-1.9-5.5-3.9-8.4-5.6c-14.3-8.5-28.1,2.6-30.3,16
		c-1.1,6.5,0.7,9.2,6.8,11.5c11.1,4.2,22.1,5.6,32.7-1.9c1.2-0.8,3.6-0.7,5.1-0.1c6.7,2.7,12.8,1.2,18.1-3c1.8-1.4,3-4.4,3.1-6.8
		c0.3-5.8-6.7-14.2-12.3-16C1701.9,829.8,1697.6,833.3,1693.8,837.8z M1509.8,824.1c4.6,0.8,9.2-2,13.2-5.4c3-2.5,5.2-6.2,3.5-10.2
		c-5.1-12.1-15-17.9-26.7-6.8c-4.5,4.3-7,10-5.1,16.1c2,6.2,8,6,13.3,6.2C1508.3,824.1,1508.5,824.1,1509.8,824.1z M1738.2,828.3
		c9.6-0.7,15.8-3.3,20.8-8c7.2-6.8,4.1-14.5,0.7-21.8c-2.2-4.6-6.8-1.8-10.4-2.5c-0.5-0.1-1-0.1-1.5,0c-9.7,1.6-18.1,5.4-23.2,14.3
		c-2.8,4.9-2.3,10.4,1.4,12.5C1730.5,825.4,1735.5,827.1,1738.2,828.3z M1876,772.5c0.9-4.2-3-6.8-5.1-10.5c-1.9-3.1-3.9-5-6.8-3.8
		c-6.2,2.5-12.5,5.1-17.9,8.8c-4.7,3.2-5.1,9.1-3.6,14.2c1.3,4.5,5.9,6.6,10.3,6.4c5.5-0.3,11.2-1.2,16.3-3.2
		C1873.4,782.7,1876.3,778.6,1876,772.5z M1546.2,795c8.9,0,15.9-9.2,13.2-17.4c-0.1-0.4-0.4-1-0.2-1.3c2-5.2-2-4.5-4.4-4
		c-7,1.3-12.4,5.8-14.2,12.3C1538.6,791.2,1539.4,795.4,1546.2,795z M481,867.9c0,1.3,0,1.8,0,2.3c0.1,7,3,9.9,9.5,9.8
		c5.9-0.1,9.2-4.1,9.5-10.3c0.3-5.5-2.7-9.3-5.7-13.3c-2-2.6-4.1-2.8-6.9-1.4C481.6,857.8,480.6,862.8,481,867.9z M1834.5,760.2
		c0.8-0.7,3.4-2.1,4.3-4.1c1.8-4.4,2.9-9.2,3.7-13.9c0.3-1.9-0.8-4.1-1.3-6.2c-1.5,0.5-3.1,0.8-4.6,1.5c-4.1,1.9-6.1,7.2-12.1,6.5
		c-3.3-0.4-4.7,2.8-4.1,6C1821.2,755.1,1827.4,760.1,1834.5,760.2z M569.2,876c7.4,0,11.6-3.4,11.6-9.4c0-5-6.1-10.2-12.1-10.3
		c-5.6-0.1-11.4,5.7-11.3,11.2C557.6,873,561.7,876,569.2,876z M404.1,845.7c-2.3,1.8-4.3,2.7-5.4,4.3c-0.7,1-0.8,3.4,0,4.4
		c2.2,2.9,11.4,1.5,13.3-1.7c1-1.8,2.3-3.4,3.7-4.9c2.2-2.5,1.9-4.3-1.2-5.8c-1.3-0.6-3.2-1.7-3.3-2.8c-0.6-4.4-3.2-4.8-6.4-3.7
		c-3.9,1.4-2.9,4.6-2.1,7.5C403,844,403.7,844.9,404.1,845.7z M1810.5,752.1c-3.6,1.8-7.5,3.3-10.8,5.5c-2.8,1.9-2.2,4.5,0.2,6.7
		c5.2,4.7,13.3,3.1,16.3-3.3C1818.5,756.1,1816.5,753,1810.5,752.1z M1555,819.4c5.3-2.8,10.4-4.7,14.6-7.8c4.1-3,4-8.3,0.7-12.4
		c-3.1-3.9-7.1-3.2-10.7-1.2c-3.6,2-6.7,4.6-10,7.1c-3,2.2-3.8,5.6-2.1,8.4C1549,815.7,1552,817.1,1555,819.4z M423.8,860.3
		c0.2,5.9,3.5,8.9,8.2,7.5c3.3-1,6.8-6.6,6.9-10.7c0.1-5-3.1-7.7-7-9.2c-1.6-0.6-5.3,0.9-6,2.4C424.5,853.3,424.5,856.9,423.8,860.3
		z M216.7,841.1c2.7-1.9,5.2-3.1,6.9-5.1c0.7-0.9,0.2-4.3-0.7-4.8c-4.6-2.4-9.4-4.5-14.4-6c-1.3-0.4-3.9,1.6-4.8,3.1
		c-0.5,0.9,1.2,3.1,2.1,4.6c0.7,1.1,1.6,2.1,2.7,2.8C210.9,837.5,213.5,839.1,216.7,841.1z M708.6,848c-3.9-0.9-6.9,2.9-7.5,9.7
		c-0.4,5.3,2.4,8.9,6.4,9c3.6,0.1,7.4-4.7,7.4-9.3C714.9,851.8,712.4,848,708.6,848z M1894,736.3c0,5.6,2.1,7.7,7.8,7.7
		c6.2,0,10.1-3.4,10.2-8.9c0.1-5.6-3.2-9-8.7-9.1C1897.6,725.9,1894.1,729.9,1894,736.3z M872,885.2c0,4.6,3.1,7.4,8.5,7.6
		c5.4,0.2,10.4-4.3,10.3-9.2c-0.1-4.1-5.4-9.9-9.1-10C877.7,873.5,872,880.3,872,885.2z M622.2,849c-6.1-0.1-9.6,3.7-9.8,10.4
		c-0.1,4.3,2.3,6.6,7.3,6.7c6.5,0.1,12.2-4,12.3-8.9C632,852.2,628.2,849.1,622.2,849z M669.1,859.2c0.4,2.2,0.3,4.1,1,5.5
		c1,2,2.3,4.7,4,5.2c1.8,0.5,4.7-0.7,6.2-2.1c2.2-2,2-10-0.2-11.9c-1.1-1-3.7-1.2-5.1-0.6C672.8,856.1,670.9,857.9,669.1,859.2z
		 M768.4,880.3c1.8-0.5,5.1-0.8,7.6-2.4c1.8-1.1,3.6-3.9,3.6-5.9c0-1.6-2.3-3.9-4.1-4.9c-5.5-3.1-13-0.9-16.4,4.4
		c-2.2,3.4-1.2,6.6,2.6,7.9C763.3,879.9,765.2,879.9,768.4,880.3z M142.1,833.8c0.1,6.5,1.9,9.3,5.9,9.4c3.5,0.1,5.8-3.2,5.8-8.4
		c0-4.2-3.2-7.8-7.4-7.7C142,827.3,141.8,830.6,142.1,833.8z M1444.1,828.4c0.4,0.6,1.2,2.8,2.5,3c2.5,0.5,5.9,1,7.7-0.3
		c2.8-1.9,5.7-5.1,6.2-8.1c0.3-2-3.1-5.5-5.7-6.7C1452.3,815.1,1444.2,823.9,1444.1,828.4z M555,850.7c1,0.7,2.5,2.7,4.4,3.1
		c3.5,0.8,8-3.7,7.2-7.5c-0.4-1.9-2.9-4.3-4.9-4.8C558.5,840.7,555.1,844.9,555,850.7z M132.1,825.3c-0.9-1-2.1-3.3-4-4.2
		c-2.3-1.1-6.8,3.2-7,6.2c-0.2,3.1,1.4,5.2,4.5,5.5C130,833.3,130.9,829.9,132.1,825.3z M1638.1,764c4,0,8,0.2,8.1-5.1
		c0.1-4.3-3.2-6.9-8-6.9c-4.4,0.1-7.4,2.5-7.2,6.5C1631.4,762.9,1634.3,764.3,1638.1,764z M1865,731.9c0.1-4.4-2.4-7.4-6.3-7.3
		c-3.2,0-6.7,4.5-6.7,8.6c-0.1,4,2.7,5,5.8,5.2C1861.6,738.7,1865,735.5,1865,731.9z M350.5,849.2c-1.9,2.3-3.6,3.4-3.7,4.6
		c-0.4,4.4,2.7,7.6,6.9,7c1.9-0.3,3.4-2.6,5.1-4C356.3,854.5,353.8,852.2,350.5,849.2z M259.9,865c-2.3-2.7-4.1-6.1-7-7.7
		c-2.4-1.3-8,5.4-7.8,9.1c0.2,4,2.3,6.4,6.4,6.6C255.3,873.1,258.9,869.5,259.9,865z M1587.8,770.5c-0.7-0.5-2.1-2.2-3.6-2.5
		c-2.8-0.4-6.4,4-5.9,7.8c0.2,1.5,2.1,3.6,3.5,3.9C1584.3,780.4,1587.7,775.6,1587.8,770.5z M1798.3,786c4.8-0.1,8.6-3.4,8.1-6.8
		c-0.5-3-1.1-6.6-5.2-6.9c-3.1-0.2-8.3,5-8.1,8.1C1793.3,784.3,1795.8,785.8,1798.3,786z M520.1,857c4.7,0,6.8-1.6,6.8-5.3
		c0-3.7-3.8-7.3-7.5-7.1c-4.4,0.3-5.1,3.6-5.3,7.1C513.9,855.8,516.4,857.2,520.1,857z M1617,757.8c-6.9-1.5-10.7,1.4-10.7,7.1
		c0,1.3,0.6,3.3,1.5,3.6c1,0.4,3.3-0.1,3.9-1C1613.6,764.7,1615.1,761.4,1617,757.8z M1773.7,809.1c0.8,0,1.6,0,2.4,0
		c1.6-2.3,4.1-4.6,4.4-7c0.2-1.8-2.2-4.8-4.2-5.7c-2.6-1.1-6.7,4-6.1,7.6C1770.6,805.9,1772.5,807.5,1773.7,809.1z M1691,832.7
		c2.6-3.5,4.3-5.8,6-8.1c-1.4-1-3.1-3.2-4.2-2.9c-2.6,0.6-6.3,1.3-5.6,5.4C1687.4,828.6,1689.1,830,1691,832.7z M395.9,837.4
		c-0.8-0.7-2.1-2.8-3.9-3.3c-2.6-0.7-7,4.3-7.1,7.4c0,2.7,0.8,4.5,3.9,4.4C392.4,845.9,395.9,842.3,395.9,837.4z M311.2,867.2
		c-3.1-2.1-4.9-4.2-6.3-4c-1.7,0.2-3.1,2.5-4.6,3.8c1.5,1.5,2.8,4,4.5,4.3C306.1,871.7,308,869.4,311.2,867.2z M1623,757.1
		c2.4-2.9,5-5.2,4.7-5.9c-1.1-2-3.4-3.4-5.2-5c-1.1,1.6-3,3.1-3.1,4.8C1619.3,752.5,1621.1,754.1,1623,757.1z M196.9,831.6
		c1.8-2.2,4-3.8,3.8-5c-0.2-1.6-2.9-4.3-3.5-4c-2,0.9-3.5,2.8-5.3,4.3C193.3,828.2,194.6,829.5,196.9,831.6z M379.2,868.1
		c2.3-2.2,4-3.8,5.7-5.4c-1.5-1.2-3.3-3.8-4.3-3.4c-2,0.6-3.7,2.6-4.9,4.4C375.5,864.1,377.6,866.1,379.2,868.1z M1838.6,775.6
		c-2.5-1.7-4.8-3.7-5.3-3.4c-1.7,1.3-3.2,3.2-4,5.2c-0.3,0.6,2.6,3.4,2.9,3.2C1834.2,779.6,1835.8,777.9,1838.6,775.6z M265,857.6
		c-0.7,0.2-1.4,0.4-2.1,0.6c-0.3,2.5-0.9,5-0.8,7.4c0,0.4,3,1.5,4.2,1c1.2-0.5,2.7-2.7,2.4-3.7C268,860.9,266.3,859.3,265,857.6z
		 M647.6,843.6c-2,3-3.7,4.7-4.2,6.6c-0.2,0.8,2.9,3.4,3.7,3.1c1.6-0.6,3.3-2.5,3.6-4.1C650.9,847.9,649.2,846.3,647.6,843.6z
		 M811.9,871.4c-1.6,2.6-3.1,4.1-3.6,5.9c-0.2,0.8,1.7,2.1,2.7,3.2c1.6-1.6,3.3-3.2,4.6-5C815.9,875.3,813.9,873.6,811.9,871.4z
		 M1886.1,735.6c-2.1-1.5-3.8-3.2-4.4-2.9c-1.8,1-3.1,2.7-4.6,4.2c1.2,1,2.7,3,3.6,2.8C1882.4,739.3,1883.8,737.5,1886.1,735.6z
		 M244.4,860.4c1.7-2.2,3.5-4.1,3.3-4.3c-1.4-1.5-3.1-2.9-4.9-3.9c-0.2-0.1-2.5,2.3-2.3,2.9C241.1,856.8,242.6,858.1,244.4,860.4z
		 M1473.4,813.2c-2.5-1.5-4.2-3.3-5.1-3c-1.4,0.5-2.5,2.4-3,3.9c-0.2,0.6,2,2.7,2.6,2.6C1469.5,816.3,1470.9,814.9,1473.4,813.2z"/>
	<path fill="#222222" d="M2001,722c-8.9,2-16.5,6.4-23.2,12.6c-8.9,8.3-12.6,8.2-23.2,1.8c-7-4.3-14.5-7.7-21.8-11.6
		c-1.9-1-4.1-2.1-5.1-3.8c-2.4-4.1-6.2-4.3-10.1-5c-4-0.7-8.6-1-11.7-3.2c-6.4-4.6-12.8-4.1-19.3-1.9c-10,3.3-19.8,7.1-29.6,10.7
		c-9.8,3.6-19.8,6.8-29.5,10.9c-3.8,1.6-6.6,5.3-10,7.9c-1.6,1.3-3.3,2.8-5.2,3.5c-4.8,1.8-9.7,3-14.6,4.7c-2.4,0.8-3.4,2.3-4.1,5.2
		c-1.8,7.5-4.6,14.8-7.4,22c-1.3,3.4-3.8,4.9-8,3.6c-2.7-0.8-5.9,0-8.8,0.2c-2.6,0.1-5.3,0.2-7.9,0.3c-1.1,0-2.3-0.4-3.2,0
		c-9.2,3.8-19,2.9-28.5,4.3c-2.7,0.4-5.5,2-8.1,1.8c-10.4-1-20.4,1.2-30.5,2.8c-2.2,0.4-4.8-1.6-8.3-2.9c-1,3.3-1.8,6.7-3.1,9.9
		c-0.9,2.4-1.9,4.9-3.6,6.8c-3.1,3.6-6.5,6.9-10,10c-3.2,2.8-6.7,5.4-10.4,7.4c-5,2.7-10.3,4.8-15.4,7.1c-0.7,0.3-1.8,0.9-2.2,0.6
		c-4.4-2.7-9.5-2.4-14.2-3.5c-2.8-0.6-6.3-5.1-6.6-8.1c-0.7-6.7-0.1-13.7,3.7-19.9c2.9-4.7,5.5-9.5,8.8-13.8
		c7.7-10.2,17.4-18,30.1-20.8c4.3-0.9,9-0.1,13.8-0.1c-0.3-1.4-0.6-3.2-1-4.8c-11.1-2.7-22-5.1-32.7-8c-5.2-1.4-10-4.5-15.2-5.2
		c-7.1-0.9-14.7-1.3-21.5,0.4c-6.7,1.6-12.6,6.3-19.1,9.1c-5.3,2.2-11.2,3.4-16.6,5.4c-3.2,1.2-6.3,2.9-9.1,4.8
		c-4.3,3-8.5,6.2-12.5,9.6c-3.5,3-7.1,4.7-12,4.8c-2.3,0-5.7,2.7-6.6,5c-2.5,6-7.7,7.7-12.8,7.5c-8.9-0.4-16.9,2.2-24.9,5.5
		c-1.6,0.7-3.1,2.5-4,4.2c-2,3.7-5,5-9,5c-3.5-0.1-7,0.4-10.5-0.1c-6.9-1-12.8,1.6-17,6.3c-4.8,5.4-10.2,6.5-16.4,5.4
		c-2.7-0.5-4,0.2-5,2.4c-0.8,1.6-2.1,3.1-2.6,4.8c-2.8,9.8-11.8,11.7-19.5,14.6c-3.5,1.3-8.1-0.3-12.2-0.9c-6.3-0.9-12.6-2.3-19-2.9
		c-1.5-0.1-3.5,1.5-4.7,2.9c-4.6,5.2-9.4,7-16.6,4.8c-12.4-3.7-24.4-1.8-35,6.5c-4.4,3.4-9.5,3.2-14.7,1.6c-2.3-0.8-4.7-2-7.1-2
		c-2.7,0-6,0.3-8.1,1.8c-4.3,2.9-8.2,4.4-13.4,2.7c-4.5-1.5-9.3-1.9-14-3c-3.8-0.9-7.4-2.6-11.1-3.3c-1.7-0.3-4.4,0.4-5.5,1.7
		c-5.6,6.6-12.7,10.7-21.1,12c-3.1,0.5-6.5-0.9-9.7-1.5c-0.8-0.1-1.6-0.9-2.2-0.7c-10.7,3.1-21.3-0.6-31.9-0.9
		c-4.2-0.1-8.3-0.4-12.5-0.2c-7.8,0.3-15.1-1.5-21.9-5.1c-9.2-5-17.5-3.3-25.3,2.7c-6.5,4.9-13.2,8.6-21.4,10.7
		c-8.2,2.1-15.9,5-24.6,4.6c-8.6-0.4-17.2-0.1-24.7-5.2c-2.4-1.6-4.1-0.7-5.9,1.4c-2.9,3.4-6.6,4.3-11.1,3.3
		c-10.3-2.4-20.6-4.8-31.3-2.5c-1.5,0.3-3.8,0.1-4.7-0.8c-3.9-4-8.9-3-13.6-3.5c-3.1-0.4-5.8,0.7-7,4.3c-0.6,1.9-1.7,3.6-2.9,5.2
		c-2.4,3.3-5.4,5-9.4,2.9c-5.6-3-11-2.4-16.7-0.2c-7.3,2.8-9,1.9-12.6-5.1c-3.4-6.5-9.4-8.2-16-9c-2.7,6.8-4.8,7.5-11.1,3.7
		c-2.3-1.3-4.7-2.3-7.9-3.9c-0.7,2.3-1.8,4.2-1.8,6.1c0,4.8-2.6,6.9-6.9,6.3c-8.9-1.2-17.9-2.6-26.7-4.4c-7.1-1.4-14-3.5-21-5.3
		c-3.1-0.8-5.6-0.1-7.9,2.5c-5.9,6.5-8.6,6.1-16.3,2.4c-5.3-2.5-11.7-2.7-17.5-4.2c-3.8-0.9-7.4-2.3-11.1-3.3
		c-8.2-2.3-16.3-5.5-24.6-6.4c-9.2-1-18.8-1.5-27.7,3c-4.3,2.2-7.1-1.1-7.9-4.5c-2.7-11.7-11.1-15.8-21.6-18.2
		c-5.5-1.3-10.2,0.1-14.6,2.9c-14.1,9.1-19.1,9.9-32-3.8c-2.4-2.5-4.4-2.3-7.7-0.9c-4.5,1.9-9.9,3.4-14.6,2.9
		c-8.4-0.8-16,1.3-22.5,5.7c-8.9,6-17.7,7.3-27.5,3c-6.3-2.8-12.8-5.2-19.3-7.6c-1.7-0.6-4.2-1.1-5.7-0.3c-11.5,5.9-23.1,3-34.9,0.9
		c-6.6-1.2-13.4-1.8-20.1-2.2c-1.9-0.1-4.3,1.2-5.8,2.7c-2.8,2.8-5,6.2-7.4,9.4c-2.9,3.8-5.8,4-8.3,0.2c-2.2-3.4-5-4.4-8.8-4.3
		c-11.3,0.3-22.6,0.5-33.9,0.9c-4.7,0.2-7.9-1.3-10.3-5.4c-3.8-6.6-10.4-9.3-17.3-10.4c-7.8-1.2-15.6-1.9-23.7,0.3
		c-5.1,1.4-8.6,3.6-11.4,7.8c-4,6.1-6.1,6.8-13.3,4.8c4,8.3,14.3,5.1,19.4,12c-1.9,0.7-3.6,1.5-5.3,1.8c-3.9,0.8-7.8,1.5-11.7,1.9
		c-4.7,0.5-8.6-1.2-10.7-5.6c-1.7-3.6-4.3-3.6-7.4-3c-3.6,0.7-7.2,2-10.7,1.9c-2.8-0.1-5.5-1.8-8.7-3c0.9-1.8,1.6-3.2,3-6.1
		c-6.7,3.5-12.2,6.4-17.6,9.2c0,0.6,0.1,1.2,0.1,1.8c3.1,0,6.1,0,9.2,0c2,0,5.2-0.8,4.5,2.6c-0.3,1.9-2.7,4.9-4.1,4.9
		c-12,0.3-24-0.1-35.9-0.2c-1.3,0-2.6-0.2-3.9,0c-7,1.2-8.8-0.3-8.2-7.6c-3.7,1.7-7.2,3.4-10.7,5c0.1-0.5,0.1-1,0.2-1.5
		c-3-0.9-6-1.7-9-2.6c-3.7-1.1-7.6-1.9-11.1-3.5c-6.8-3-13.1-3.7-20.3-0.7c-20.1,8.2-41.2,9-62.5,6.4c-11.3-1.4-22.7-2.4-33.9-4.2
		c-5-0.8-9.6-3.2-14.5-4.8c0.1-0.5,0.2-1,0.3-1.6c1.2-0.1,2.5-0.6,3.6-0.3c19.5,5.8,39.5,3.8,59.3,3.8c8.7,0,17.4-1.6,26-3.1
		c7.2-1.3,14.3-3.6,21.4-5.7c1-0.3,1.6-2,1.6-3.7c2.3-0.8,4.5-1.6,6.8-2.4c0-0.4,0-0.8,0.1-1.2c-4.7-1.2-9.4-2.5-14.1-3.7
		c-3.1-0.8-6.4-1.2-9.5-2.3c-6.3-2.4-12.5-5-18.6-7.8c-3.8-1.7-6.8-0.3-9.7,1.7c-3.9,2.7-7.7,5.6-11.5,8.5c-2.4,1.9-4.9,1.8-6.4-0.7
		c-4-6.8-10.1-8.2-17.2-7.4c-6.9,0.8-12.6-0.8-17.4-6.1c-4-4.4-9.2-2.8-14-1.7c-4.8,1.1-9.5,2.4-14.2,3.9c-1.4,0.5-2.5,1.9-3.4,3.3
		c-7.5,1.7-13.8-0.2-19-6.6c-5.8-7.3-16.9-7.8-26-4.4c-4.9,1.9-11.2,0.3-16.9,0.3c-7.2,0-14.4,0.4-21.6,0.1c-3.6-0.1-7.3-1.1-10.8-2
		c-2.3-0.6-4.5-1.8-6.7-2.8c0-2.3,0-4.7,0-7c3.5,1.5,6.9,3.1,10.4,4.4c1.7,0.7,4,1.7,5.4,1.1c8.9-3.4,17.7-0.1,26.6,0.1
		c4.5,0.1,8.4,0.8,13.1-1.2c4.6-2,10.7-0.8,16.1-1c9.4-0.3,14.3,6.6,18.7,11.5c12.7-2.4,24.4-4.8,36.2-6.8c4.8-0.8,8.8,1.3,11.9,4.9
		c2.2,2.5,4.6,3.4,7.8,3.1c9.5-0.6,18.6,0.1,25.4,8.4c2.5-1.9,4.8-3.2,6.7-5c6.4-6.3,13.6-6.8,21.6-3.9c3.4,1.2,6.9,2.4,10.1,4
		c5.2,2.7,10.2,4.7,16.4,4.8c4.8,0,9.6,2.6,14.9,4.2c1.8-7.2,2.5-14,5.2-19.9c2-4.4,6.2-8.2,10.2-11.1c5.3-3.8,11.6-6.2,17.1-9.8
		c10-6.5,20.3-5.6,31.4-1.7c0.5-5.2,5.2-9.6,0.8-15.3c-1.1-1.5-0.9-4.7-0.2-6.7c1.4-4.3,2.8-9,5.6-12.5c4.6-5.7,10-4.7,14.5,1.8
		c7.5-0.8,14.9-1.6,22.3-2.5c1.6-0.2,3.7-0.6,4.7-1.7c4.6-4.9,10.1-4.9,14.2,0.3c4.5,5.8,4.2,19.4-0.5,25.2
		c-0.8,0.9-1.4,2.3-1.4,3.5c0.4,11.2,1.4,22.5,1.4,33.7c0,5.7-2.3,11.4,0.4,17c1.6,3.2,3.3,6.4,5.1,10c1.6-1.3,2.3-1.6,2.5-2.1
		c5.5-11.5,16.3-12.2,26.9-12.8c10.9-0.6,21.5,0.6,30.9,6.9c1.5,1,3.4,2,4.2,3.4c2.9,5.4,7.4,6.1,12.9,5.8
		c8.3-0.5,16.6-0.7,24.9-0.3c5.4,0.2,10.8,1.7,16.1,2.6c0,0.5,0,1-0.1,1.5c2.1-2.4,4.5-4.5,6.1-7.2c2.3-3.8,5.4-5.2,9.6-4.7
		c11.1,1.3,22.2,2.8,33.4,3.7c4.9,0.4,10.3,1,14.7-0.7c8.8-3.4,16.7-2.3,24.8,1.5c4.5,2.1,9.2,3.6,13.7,5.6
		c5.9,2.7,11.2,1.5,16.4-1.8c9.4-6,19.5-9.3,30.9-8.2c3.3,0.3,7.1-1.2,10.2-2.7c4.8-2.3,9.4-1.8,14.1,2.4c2.6,2.3,5.3,4.5,7.8,7
		c2.9,2.9,5.8,2.5,9,0.7c3.3-1.9,6.6-3.8,10-5.5c15.9-7.9,36.8,0.8,42.6,17.6c0.3,0.7,0.5,1.5,0.4,1.3c8.3-0.7,16.1-1.9,23.9-1.8
		c12.6,0.2,24.9,1.8,36.1,8.7c3,1.8,7.4,1.2,11,2.1c5.8,1.5,11.5,3.5,17.3,4.9c1.6,0.4,4.4-0.1,5.3-1.2c4.1-5.3,9-6.4,15.4-4.8
		c12.7,3.1,25.5,5.6,38.2,8.5c6.5,1.5,7.4,1.1,8.9-5.1c1-4,5.5-6.9,9.6-6.1c1.9,0.4,3.8,1.1,5.9,1.7c2.2-6.3,6.8-3.6,10.8-2.9
		c9.3,1.4,18.3,3.5,23.2,13c0.4,0.8,2.5,1.6,3.5,1.3c6.6-2.3,13-3.3,19.8-0.5c0.9,0.4,3.2-0.9,3.7-2c2.2-4.2,4.3-9.2,9.3-9.4
		c6.5-0.3,13,1,19.5,1.9c2.2,0.3,4.3,1.6,6.5,1.7c9.9,0.2,19.9-0.6,29.5,2.8c1.5,0.5,4.6-0.8,5.8-2.2c3-3.7,6.5-4.3,10.6-2.9
		c2.5,0.8,4.8,2.3,7.3,3.1c3.1,1,6.3,2,9.4,2.2c7.2,0.5,14.5,2,21.5-0.9c9.8-4.1,20.6-5.5,29.3-13c9.4-8.2,20.6-7.9,32.1-2.9
		c5.9,2.6,12.5,4.1,19,4.8c11.8,1.2,23.8,1.6,35.7,2.1c1.8,0.1,3.6-1.4,5.5-1.6c2.4-0.3,6.1-1.1,7.2,0.1c3.8,4,7.6,2.6,11.3,0.9
		c3.2-1.5,6.1-3.8,9-6c2.5-1.9,4.5-4.7,7.3-5.9c2.4-1,6.4-1.5,8.3-0.2c5.3,3.8,11.2,3.4,17,4.3c2.8,0.4,5.4,1.6,8.2,2
		c1.8,0.2,4.5,0.4,5.5-0.7c5.2-5.9,11.4-5,17.8-3.2c2.2,0.6,4.4,1.6,6.6,1.8c2.2,0.2,5,0.3,6.5-0.8c12.1-8.6,25.2-11.7,39.6-7.6
		c5.6,1.6,9.6,1,13.3-4.2c1.6-2.3,6.1-3.9,9.1-3.6c7.3,0.6,14.5,2.7,21.8,3.8c3.1,0.4,6.4,0.1,9.4-0.5c8.5-1.8,12-8.6,15.5-15.7
		c3.4-6.9,4.9-7,12.6-5.4c2.1,0.5,5.3-0.1,6.7-1.6c7.7-8.2,17.1-10.9,27.9-9.9c5.3,0.5,9.1-0.7,13.1-5.3c5.4-6.2,14-7.4,22-8.6
		c2.3-0.4,4.7-0.1,7-0.1c4.4-0.1,8-0.8,10.8-5.3c2.9-4.6,7.6-6.9,13.5-8.1c5.4-1.1,10.8-5,15-9c6.6-6.2,13.6-10.3,22.7-10.6
		c1.5-0.1,3.1-1,4.6-1.7c7.7-3.8,15.1-8.5,23.1-11.3c9.2-3.3,19.1-3.8,28.1,0.6c11.9,5.8,24.4,8.9,38,10.7
		c-0.4-5.5-0.5-10.8-1.4-15.9c-2-11.1,1-20.2,8.1-28.9c4.4-5.4,8.6-6,14.6-4.7c2.5,0.5,5.2-0.2,7.8-0.5c17.2-2,34.6-1.2,51.3-7.4
		c4.5-1.7,10.1-0.6,15.2-0.5c2.9,0,5.9,1.1,8.8,0.8c5.2-0.4,8.6,2.2,11.4,5.9c5.9,7.9,8.6,17,10.2,26.6c1,6,2.7,11.8,4,17.2
		c3.6,0,6.6,0.2,9.5-0.1c1.2-0.1,2.8-1.1,3.4-2.1c5.4-8.4,13.1-12.6,22.6-15.4c11.6-3.5,22.6-9.1,33.9-13.7c10-4.1,20.1-7.6,31-7.2
		c2.7,0.1,5.4,1.3,8,2.1c5.3,1.6,10.7,3,15.8,4.9c3.5,1.3,6.9,3.2,10.2,5.1c5.6,3.3,11,7,16.6,10.4c3.8,2.3,7.9,4,11.6,6.5
		c4.5,3,8.4,2.4,12-1.3c7.5-7.7,16.9-11.9,26.8-15.4c0.8-0.3,1.6-0.2,2.4-0.3C2001,717.3,2001,719.7,2001,722z M206.2,847.5
		c-4.5,0.4-9.1,0.9-13.6,1.3c0,0.6,0.1,1.2,0.1,1.8c5.4,0.5,10.7,1,16.1,1.4c0.1-0.5,0.2-0.9,0.3-1.4c-0.9-0.9-1.8-1.9-2.6-2.8
		c1.8,0.6,3.7,1.1,5.5,1.7c-0.1,0.5-0.2,1-0.3,1.5c0.9-0.3,1.8-0.5,2.8-0.8c0.8-0.3,1.7-0.5,2.7-0.8
		C214.3,845.3,210,844.7,206.2,847.5z M1690.2,709.5c-1.9-4.8-6-6.1-9.5-2.7c-2.2,2.1-4.2,4.7-5.6,7.5c-4.9,9.5-3.7,19.8-2.5,29.8
		c0.9,8,3.4,15.9,5.2,24c-0.9-0.6-2.1-1-2.6-1.8c-1.9-3.2-4.2-4.6-7.7-2.5c-0.6,0.4-1.7,0.3-2.4,0.1c-8-2-13.5,3.9-20.3,6
		c-0.4,0.1-0.7,0.7-1.1,1c-2.6,2.3-5.2,4.6-7.6,7c-1.2,1.2-1.9,2.8-3,4.2c-3.1,3.8-6.9,7.2-7.4,12.6c0,0.4-1.2,0.6-1.6,1.1
		c-0.7,0.9-1.6,1.8-1.9,2.8c-2.1,7.3-5.7,14.7,0.9,21.5c1.2,1.3,3.1,2.1,4.9,2.6c1.2,0.3,3.2-0.9,3.8-0.3c5.1,4.7,10.2,1.6,15.1-0.1
		c2.6-0.8,4.7-3.1,7.3-3.8c5.4-1.5,9.2-5,12.7-9.1c2.5-2.9,5.5-5.5,8.1-8.4c1.3-1.4,2.5-3,3.2-4.8c1.3-3.3,2.3-6.7,3-10.1
		c0.8-3.7,2.7-3.3,4.9-1.5c3.8,3.2,6.9,2.4,9.7-1.3c0.4-0.6,1.1-0.9,2-1.6c-0.1,1.4-0.2,2.3-0.3,3.4c6.3-0.7,12.4-1.4,18.4-2
		c6.9-0.7,13.9-0.8,20.8-1.9c7.6-1.1,15.6-0.4,22.8-4c0.7-0.3,1.9,0.4,2.9,0.5c1.6,0.1,3.3,0.1,4.9,0.1c4-0.1,7.9-0.1,11.9-0.6
		c2-0.2,5.1-0.9,5.6-2.2c2.9-7.3,6.7-14.8,7.2-22.4c1-14.8-3.6-29.1-8.3-43c-1.5-4.4-5.4-8.3-9.1-11.4c-1.7-1.4-5.6-0.4-8.4-0.2
		c-13.4,1-26.8,1.9-40.1,3.3c-11.4,1.1-22.8,2.7-34.6,4.1c0.9,1.8,1.7,3.3,2.4,5c0.1,0.2-1.1,0.8-1.7,1.2
		C1691.3,710.9,1690.8,710.2,1690.2,709.5z M358.3,773.5c-0.5-0.2-1.1-0.3-1.6-0.5c0.8-1.7,1.2-4.1,2.6-5c5.6-3.5,7.8-8.3,5.1-14.1
		c-0.9-1.9-2.8-3.2-4.3-4.8c-1.3,1.6-2.7,3-3.8,4.7c-1.7,2.7-3.1,5.5-4.6,8.3c-0.5-0.3-1-0.6-1.5-0.9c0.5-1.4,1-2.7,1.5-4.3
		c-8.3-2.4-16.1-5.6-23,1.8c0.3,1.1,0.8,2.5,1.2,3.9c-0.6,0.3-1.3,0.7-1.9,1c-2-2.9-4.1-5.8-6-8.7c-2.4-3.7-4.3-4-6.7-0.4
		c-1.5,2.3-3.3,5.4-2.7,7.6c0.8,3.1,3.7,5.7,5.5,8.3c-1.7,3.5-3.8,7.3-5.4,11.3c-2,5.1-5.2,6.9-10.3,5.2c-1.4-0.4-2.9-0.7-4.3-0.7
		c-4.7-0.1-9.4,0-15.5,0c-2.2,1.3-5.6,4.4-9.5,5.6c-9.1,2.9-15.2,9.4-21.2,16c-1.2,1.3-1.6,3.6-1.9,5.5c-0.7,4.1-1,8.2-1.6,12.3
		c-1.1,7.4-7.2,9.9-13.5,13.3c4.8,2.3,9.1,4.4,13.4,6.4c0.5-0.5,0.9-1.1,1.4-1.6c-2.1-1-4.1-2-6.2-3c0.4-0.5,0.9-0.9,1.3-1.4
		c5.9,0,11.7,0,17.6,0c0,0.7,0,1.3-0.1,2c-3.1,0-6.1,0-9.2,0c-0.2,0.5-0.4,1-0.6,1.5c2.9,2.5,5.7,4.9,8.3,7.1
		c4.3-0.3,8.2-0.6,11.2-0.8c2.6,0.6,4.5,1,6.9,1.5c-1.3-3.4-2.1-5.6-3-7.9c9.8,14.4,32.7,14.9,41.3,0.3c0.3,1.7,0.5,2.9,0.7,4
		c8.9-4.4,17.8-8.6,26.4-13.1c3.1-1.6,5.7-1.2,7.6,1.2c3.5,4.4,6.3,9.2,9.8,13.6c1.5,1.9,3.9,4.1,6,4.2c4.9,0.3,9.9-0.6,14.8-0.9
		c0.1-0.5,0.1-0.9,0.2-1.4c-1.6-0.6-3.2-1.5-4.9-1.7c-8.3-1-11.4-6.4-13-13.8c-2-9.2-4.7-18.2-7.1-27.1c0.9,0.9,2.1,2,4.6,4.3
		c-0.4-9.6-0.8-17.7-1.1-25.9c-0.6-0.2-1.3-0.4-1.9-0.6c-1.2,1-3.2,2-3.4,3.1c-0.3,2.4,0.6,5-3,5.8c-2.3,0.5-4.5,2-6.7,2
		c-5.3,0-8.3,3.2-7.1,8.3c0.3,1.1,0.9,2.4,0.5,3.3c-1.6,3.6-3.6,7.1-5.7,11.2c-1.5-1.6-2.9-3.2-4.4-4.8c1.5-0.3,2.9-0.5,3.8-0.7
		c0.4-3.6,0.8-7,1.2-10.4c0.4,0.1,0.8,0.1,1.2,0.2c0.7-2.8,1.5-5.5,1.9-7.3c2.3-1.2,4-2.1,6.1-3.3c0.5,0.4,1.6,1.2,2.3,1.7
		c1.8-1,3.5-2.8,4.4-2.4c5.4,1.9,4.6-1.5,4.4-4.6c0-1.3-0.1-3.3,0.7-3.8c5.3-3.5,4.6-8.6,4.2-13.7c0-0.2-0.4-0.3-0.7-0.5
		C358.9,771.1,358.6,772.3,358.3,773.5z M298.4,857c5,0,9.6,0,14.1,0c5.1,0,10.3,0.1,15.4-0.1c1,0,2-1.2,3-1.9
		c-0.6-0.7-1.3-2-1.7-1.9c-6.1,1.1-12-3.6-18.3-0.3C307.2,854.7,302.9,855.5,298.4,857z M357.5,844.4c-5.3-1.1-10.3,1.1-13.3-3.7
		c-2.1-3.4-4.6-2.9-7.7-0.4c2.4,1.9,1,6.9,5.6,6.6C346.9,846.5,351.6,845.4,357.5,844.4z M342.7,838.5c4.5,1.6,8,2.8,12.4,4.4
		C351.1,835,348.5,833.9,342.7,838.5z"/>
	<path fill="#222222" d="M1599.9,850.1c9,0,17.7,0,26.4,0c0,0.6,0,1.2,0.1,1.8c-4.4,0.3-8.7,0.8-13.1,1c-4.4,0.2-8.8,0-13.1,0
		c0,0.6-0.1,1.2-0.1,1.8c1.2,0.2,2.3,0.5,3.5,0.5c2.8,0.2,5.7,0,8.4,0.7c1.3,0.4,2.8,2.5,2.8,3.9c0.1,0.9-2.1,2.7-3.5,2.9
		c-3.6,0.4-7.2,0.1-11.5,0.1c0.4,6.1,1.1,11.6,1.1,17.2c0,1.9-1.4,3.9-2.2,5.8c-1.8-1.8-4.8-3.5-5.2-5.6c-1.1-5.5-1-11.2-1.4-16.9
		c-12.1,0-23.9,0-35.7,0c-0.1-0.4-0.2-0.9-0.3-1.3c1.4-0.4,2.9-1.1,4.3-1.1c9.5-0.3,18.9-0.4,28.4-0.6c1.1,0,2.2-0.5,3.4-0.8
		c0-0.6-0.1-1.1-0.1-1.7c-5.8,0-11.6,0-17.5,0c-1.5,0-3.3,0.5-4.4-0.2c-1.6-1-2.7-2.8-4-4.3c1.4-1.1,2.8-3.1,4.3-3.1
		c6.9-0.3,13.9-0.1,21.4-0.1c-0.4-6.4-0.7-12.1-1.1-17.7c0.3-0.2,0.6-0.4,0.9-0.6c0.6,0.9,1.8,1.7,1.8,2.6c0.4,4,0.3,8,0.6,11.9
		c0.1,1.3,0.8,2.5,1.2,3.8c0.7-0.1,1.3-0.2,2-0.4c-0.6-12.5-1.2-25-1.8-37.5c0.7,0,1.3-0.1,2-0.1
		C1598.3,824.7,1599.1,837.1,1599.9,850.1z M1569.9,853c0,0.7,0,1.4,0,2.1c6.8,0.3,13.6,0.6,20.4,0.7c0.5,0,1.6-1.1,1.5-1.4
		c-0.2-0.8-0.9-2-1.5-2C1583.5,852.5,1576.7,852.8,1569.9,853z M1597.2,863c-0.9,0.1-1.7,0.3-2.6,0.4c0.6,6.1,1.2,12.2,1.8,18.3
		c0.6-0.1,1.2-0.1,1.7-0.2C1597.8,875.3,1598.5,869.1,1597.2,863z"/>
	<path fill="#222222" d="M1693.8,837.8c3.8-4.5,8.1-8,14.9-5.9c5.6,1.8,12.7,10.2,12.3,16c-0.1,2.4-1.3,5.4-3.1,6.8
		c-5.3,4.1-11.4,5.6-18.1,3c-1.5-0.6-3.9-0.7-5.1,0.1c-10.6,7.5-21.6,6.1-32.7,1.9c-6.2-2.3-7.9-5-6.8-11.5
		c2.1-13.3,15.9-24.5,30.3-16C1688.3,833.9,1690.9,835.9,1693.8,837.8z M1677.7,861c6.5,0,11.7-2.2,16.2-6.3c1.1-1,2.4-3.5,1.9-4.5
		c-2.1-4.6-3.9-9.9-7.6-13c-11.2-9.5-22.9-6.7-29.8,7.3c-3.1,6.4-2,9.9,4.6,12.7C1667.7,859.1,1672.8,859.8,1677.7,861z
		 M1699.8,855.3c2.9,0.2,6.5,1,9.9,0.5c4.1-0.6,8.1-2.3,8.6-7.5c0.5-4.5-4.9-11.9-9.8-13.8c-5-1.9-8.4-0.6-12.2,4.4
		C1697.4,844.4,1698.5,849.3,1699.8,855.3z"/>
	<path fill="#222222" d="M1509.8,824.1c-1.4-0.1-1.5-0.1-1.7-0.1c-5.3-0.2-11.3,0-13.3-6.2c-1.9-6.1,0.5-11.8,5.1-16.1
		c11.6-11,21.6-5.2,26.7,6.8c1.7,3.9-0.5,7.6-3.5,10.2C1519,822.1,1514.4,824.9,1509.8,824.1z M1510.4,800.2
		c-3.5,2.4-6.9,4.2-9.7,6.6c-3.9,3.4-4,10.8-0.4,12.5c6.2,2.8,12.5,2.7,18.3-1.4c3-2.1,5.8-4.7,4.2-8.6c-1.3-3.2-3.8-5.9-5.7-8.7
		c-0.7,2.8-0.7,5.1-1.8,6.2c-1,0.9-3.3,0.5-5,0.7C1510.4,805.5,1510.4,803.5,1510.4,800.2z"/>
	<path fill="#222222" d="M1738.2,828.3c-2.7-1.2-7.7-2.9-12.2-5.4c-3.8-2.1-4.3-7.6-1.4-12.5c5.1-8.9,13.5-12.7,23.2-14.3
		c0.5-0.1,1-0.1,1.5,0c3.5,0.6,8.2-2.1,10.4,2.5c3.4,7.2,6.6,14.9-0.7,21.8C1754,825,1747.8,827.7,1738.2,828.3z M1743.9,825.3
		c2.6-1.3,7.9-3.3,12.5-6.5c4.5-3.1,5.4-8.6,3.6-12.8c-2-4.6-10-8.7-14.9-7.1c-3.7,1.2-7.4,2.8-10.7,4.8
		c-6.3,3.7-10.1,10.4-8.9,14.2C1727,822.1,1733.7,825.4,1743.9,825.3z"/>
	<path fill="#222222" d="M1876,772.5c0.3,6.2-2.6,10.2-6.9,11.9c-5.1,2-10.8,2.9-16.3,3.2c-4.4,0.2-9-1.9-10.3-6.4
		c-1.5-5-1.1-11,3.6-14.2c5.5-3.7,11.7-6.4,17.9-8.8c3-1.2,5,0.7,6.8,3.8C1873,765.6,1876.8,768.3,1876,772.5z M1855.8,785
		c0.1,0.3,0.2,0.6,0.3,0.9c4.1-1.4,8.6-2.2,12.3-4.3c3.6-2,5.9-5.4,4.8-10.4c-1.1-5-4.1-8-8.6-9.1c-7.4-1.9-17.6,4.7-19.8,12.2
		c-1.5,5.4,1.4,9.9,7,10.6C1853.1,785.2,1854.4,785,1855.8,785z"/>
	<path fill="#222222" d="M1546.2,795c-6.8,0.4-7.6-3.8-5.7-10.4c1.9-6.5,7.2-11,14.2-12.3c2.4-0.5,6.4-1.1,4.4,4
		c-0.1,0.4,0.1,0.9,0.2,1.3C1562.1,785.8,1555.1,795,1546.2,795z M1544.1,790.7c5.1,0.5,10.6-2.4,12.4-6.5c0.9-2,1.2-3.6-1.9-4.3
		C1547.7,778.2,1543.3,782.4,1544.1,790.7z"/>
	<path fill="#222222" d="M481,867.9c-0.5-5,0.6-10.1,6.5-13c2.8-1.4,4.9-1.2,6.9,1.4c3,4,5.9,7.8,5.7,13.3
		c-0.3,6.2-3.6,10.2-9.5,10.3c-6.5,0.2-9.3-2.8-9.5-9.8C481,869.6,481,869.1,481,867.9z M484,869.1c0,5.6,1.5,7.3,6.3,7.2
		c4.4-0.1,6.1-2,6.1-7c0-4.9-2.6-9.4-5.4-9.4C486.5,859.8,483.9,863.3,484,869.1z"/>
	<path fill="#222222" d="M1834.5,760.2c-7.1-0.1-13.3-5.1-14.1-10.1c-0.5-3.2,0.9-6.4,4.1-6c5.9,0.7,8-4.6,12.1-6.5
		c1.4-0.7,3-1,4.6-1.5c0.5,2.1,1.7,4.3,1.3,6.2c-0.8,4.7-1.9,9.5-3.7,13.9C1837.9,758.1,1835.3,759.4,1834.5,760.2z M1835.8,756.5
		c-0.4-1-0.5-1.7-0.9-2.2c-2.3-2.5-4.5-5.1-7-7.3c-0.7-0.6-2.7-0.8-3.4-0.3c-0.8,0.6-1.4,2.3-1.3,3.4c0.3,3,6.5,7.8,9.6,7.7
		C1833.8,757.8,1834.7,757.1,1835.8,756.5z M1830.1,745.1c2.9,2.4,4.9,3.9,7,5.6c2.5-3.7,1.6-6.5-1.5-8.2
		C1834.6,742,1832.4,743.9,1830.1,745.1z"/>
	<path fill="#222222" d="M569.2,876c-7.5,0-11.6-2.9-11.8-8.5c-0.2-5.5,5.7-11.3,11.3-11.2c6,0.1,12.1,5.4,12.1,10.3
		C580.8,872.6,576.7,875.9,569.2,876z M570.6,873c1-0.7,4.5-1.8,4.9-3.6c0.9-4.4-3-8.4-7-8.3c-4.2,0.1-7.5,2.7-7.5,6.2
		C561,870.5,564.4,873,570.6,873z"/>
	<path fill="#222222" d="M404.1,845.7c-0.4-0.8-1.2-1.7-1.5-2.7c-0.9-2.9-1.9-6.1,2.1-7.5c3.2-1.1,5.9-0.7,6.4,3.7
		c0.1,1.1,2,2.2,3.3,2.8c3.1,1.5,3.3,3.3,1.2,5.8c-1.3,1.5-2.6,3.2-3.7,4.9c-1.9,3.2-11,4.6-13.3,1.7c-0.7-1-0.7-3.4,0-4.4
		C399.9,848.5,401.9,847.5,404.1,845.7z M409.9,853.2c-4.7-5.5-7.2-5.4-10.3,0C403.4,853.2,406.6,853.2,409.9,853.2z"/>
	<path fill="#222222" d="M1810.5,752.1c5.9,0.9,7.9,4,5.6,8.9c-3,6.4-11.1,8-16.3,3.3c-2.4-2.2-3-4.8-0.2-6.7
		C1803.1,755.4,1806.9,753.9,1810.5,752.1z"/>
	<path fill="#222222" d="M1555,819.4c-3-2.3-6-3.7-7.4-6c-1.7-2.8-0.9-6.2,2.1-8.4c3.3-2.4,6.5-5.1,10-7.1c3.6-2,7.6-2.7,10.7,1.2
		c3.2,4.1,3.3,9.4-0.7,12.4C1565.4,814.7,1560.3,816.6,1555,819.4z M1554.1,815.4c7.1-0.7,12-2.4,15-7.4c2.3-3.8,0.6-6.7-3.8-7.2
		c-5.2-0.5-9.4,1.7-12.9,5.1c-1.5,1.4-3.3,4.2-2.8,5.5C1550.4,813.3,1553.1,814.5,1554.1,815.4z"/>
	<path fill="#222222" d="M423.8,860.3c0.6-3.4,0.7-7,2.1-9.9c0.7-1.5,4.4-3,6-2.4c3.9,1.4,7.1,4.2,7,9.2c-0.1,4.2-3.7,9.7-6.9,10.7
		C427.3,869.2,424.1,866.2,423.8,860.3z M427.8,859.9c0.4,1.7-1,6.2,3.3,4.3c2.3-1,3.5-5.3,4.4-8.4c0.2-0.8-2.9-2.5-4.4-3.8
		c-1,1.5-2.2,2.9-3,4.4C427.6,857.3,427.8,858.5,427.8,859.9z"/>
	<path fill="#222222" d="M216.7,841.1c-3.1-2-5.7-3.6-8.2-5.3c-1-0.7-2-1.8-2.7-2.8c-0.9-1.5-2.6-3.8-2.1-4.6
		c0.9-1.5,3.5-3.5,4.8-3.1c5,1.5,9.8,3.6,14.4,6c0.9,0.5,1.4,3.9,0.7,4.8C221.9,838,219.3,839.2,216.7,841.1z M208.7,831.8
		c3.1,5.6,7.5,7.4,10.8,5.3c0.8-0.5,1.5-1.6,1.7-2.6c0.1-0.4-1.3-1.5-2.1-1.6C215.9,832.4,212.6,832.2,208.7,831.8z"/>
	<path fill="#222222" d="M708.6,848c3.9,0,6.4,3.8,6.3,9.4c0,4.6-3.8,9.4-7.4,9.3c-4-0.1-6.8-3.7-6.4-9
		C701.7,850.9,704.7,847.1,708.6,848z M703,858.4c1.8,2,3.1,3.3,4.4,4.7c1.3-1.8,3.5-3.5,3.6-5.3c0.1-1.9-2-3.8-3.2-5.7
		C706.4,854,704.9,855.9,703,858.4z"/>
	<path fill="#222222" d="M1894,736.3c0-6.4,3.6-10.3,9.3-10.3c5.5,0,8.8,3.5,8.7,9.1c-0.1,5.5-4,8.9-10.2,8.9
		C1896.1,744,1894,741.9,1894,736.3z M1901.5,741.1c4.6,0,9.2-3.3,7.9-5.9c-1.3-2.7-4.6-5.6-7.4-6c-4.6-0.7-5.2,4.1-5.6,7.3
		C1896,739.9,1898.3,741.6,1901.5,741.1z"/>
	<path fill="#222222" d="M872,885.2c0-4.9,5.6-11.7,9.7-11.6c3.7,0.1,8.9,5.8,9.1,10c0.2,4.9-4.9,9.4-10.3,9.2
		C875.1,892.6,872,889.9,872,885.2z M880.7,890c4.5,0,7.6-2.5,7.3-6.2c-0.3-3.8-2.3-6-6.5-5.9c-3.8,0.1-7.8,3.6-7.4,7
		C874.5,888.6,876.9,890.3,880.7,890z"/>
	<path fill="#222222" d="M622.2,849c6,0.1,9.8,3.3,9.7,8.1c-0.1,4.9-5.7,9-12.3,8.9c-4.9-0.1-7.4-2.3-7.3-6.7
		C612.6,852.7,616.1,848.9,622.2,849z M618,863.7c6.1,0.1,11.4-3.6,11.1-7c-0.4-5.6-5.5-4.3-8.7-5.4c-2.4-0.8-5.9,4.1-5.3,7.6
		C615.4,860.9,617.3,862.6,618,863.7z"/>
	<path fill="#222222" d="M669.1,859.2c1.8-1.3,3.6-3.1,5.9-4c1.5-0.6,4-0.3,5.1,0.6c2.3,1.9,2.5,9.9,0.2,11.9
		c-1.6,1.4-4.5,2.6-6.2,2.1c-1.7-0.5-3-3.2-4-5.2C669.4,863.3,669.5,861.4,669.1,859.2z M675.8,859.3c-1.3,2.6-2.4,3.8-2.5,5.1
		c0,0.8,1.5,1.7,2.3,2.5c0.9-1.1,2.2-2.2,2.6-3.5C678.4,862.8,677.2,861.6,675.8,859.3z"/>
	<path fill="#222222" d="M768.4,880.3c-3.2-0.4-5.1-0.4-6.7-0.9c-3.8-1.2-4.8-4.5-2.6-7.9c3.4-5.3,10.9-7.5,16.4-4.4
		c1.8,1,4.2,3.2,4.1,4.9c0,2-1.8,4.8-3.6,5.9C773.4,879.4,770.2,879.8,768.4,880.3z M766.8,878.3c3.3-1.2,6.3-1.8,8.6-3.3
		c2.5-1.6,2-5-0.8-5.7c-2.5-0.7-5.5-1.3-7.7-0.4c-2.6,1.1-4.6,3.8-6.8,5.8C762.3,875.9,764.5,877.1,766.8,878.3z"/>
	<path fill="#222222" d="M142.1,833.8c-0.3-3.2-0.1-6.5,4.3-6.6c4.2-0.1,7.5,3.5,7.4,7.7c0,5.1-2.3,8.5-5.8,8.4
		C144,843.1,142.2,840.3,142.1,833.8z M143.5,832.7c1.7,2.9,2.9,5.1,4.2,7.3c0.9-1.5,2.3-3,2.5-4.6
		C150.8,831.7,148.3,831.5,143.5,832.7z"/>
	<path fill="#222222" d="M1444.1,828.4c0.1-4.5,8.2-13.3,10.7-12.1c2.5,1.2,6,4.8,5.7,6.7c-0.5,3-3.5,6.2-6.2,8.1
		c-1.8,1.3-5.2,0.8-7.7,0.3C1445.3,831.1,1444.5,828.9,1444.1,828.4z M1453.5,819.7c-1.3,1.1-3.5,2.6-5.4,4.5
		c-1.6,1.5-2.9,3.5-0.4,5.3c2.3,1.7,7.5-0.5,9.4-4.4c0.6-1.2-0.5-3.3-0.9-4.9C1456.3,820,1455.4,820,1453.5,819.7z"/>
	<path fill="#222222" d="M555,850.7c0.1-5.8,3.5-10,6.7-9.2c2,0.5,4.6,2.9,4.9,4.8c0.8,3.8-3.7,8.3-7.2,7.5
		C557.6,853.4,556,851.4,555,850.7z"/>
	<path fill="#222222" d="M132.1,825.3c-1.3,4.6-2.1,8-6.6,7.5c-3-0.3-4.6-2.4-4.5-5.5c0.2-3.1,4.7-7.3,7-6.2
		C130,822,131.2,824.3,132.1,825.3z"/>
	<path fill="#222222" d="M1638.1,764c-3.8,0.3-6.7-1.1-7-5.5c-0.2-3.9,2.8-6.4,7.2-6.5c4.8-0.1,8,2.6,8,6.9
		C1646.1,764.2,1642.1,764,1638.1,764z M1643.7,759.5c-1.6-3.1-7.1-5.8-8.6-4c-0.8,1-1,3.5-0.3,4.8
		C1636.4,763,1640.3,762.5,1643.7,759.5z"/>
	<path fill="#222222" d="M1865,731.9c0,3.5-3.4,6.8-7.2,6.5c-3.1-0.2-5.9-1.3-5.8-5.2c0.1-4.1,3.6-8.6,6.7-8.6
		C1862.6,724.6,1865.1,727.5,1865,731.9z M1859,726.3c-1.8,3-3.3,4.7-3.8,6.7c-0.2,0.7,1.8,2,2.7,3c1.5-1.6,3.3-3.1,4.4-5
		C1862.5,730.4,1860.8,728.7,1859,726.3z"/>
	<path fill="#222222" d="M350.5,849.2c3.3,3,5.8,5.3,8.3,7.6c-1.7,1.4-3.3,3.8-5.1,4c-4.2,0.6-7.3-2.6-6.9-7
		C346.9,852.6,348.6,851.5,350.5,849.2z"/>
	<path fill="#222222" d="M259.9,865c-0.9,4.5-4.6,8.1-8.3,7.9c-4.2-0.2-6.2-2.6-6.4-6.6c-0.2-3.6,5.3-10.4,7.8-9.1
		C255.8,858.9,257.6,862.3,259.9,865z M258.7,865.7c-3.2-2.2-5-4.4-7.1-4.6c-2.8-0.3-5.3,2-4.5,5c0.6,2,3.1,4.6,4.9,4.7
		C253.8,870.8,255.7,868.1,258.7,865.7z"/>
	<path fill="#222222" d="M1587.8,770.5c-0.1,5.2-3.5,9.9-6,9.3c-1.5-0.4-3.3-2.4-3.5-3.9c-0.5-3.8,3.1-8.2,5.9-7.8
		C1585.7,768.2,1587,769.9,1587.8,770.5z"/>
	<path fill="#222222" d="M1798.3,786c-2.5-0.2-5-1.7-5.2-5.5c-0.2-3.1,5.1-8.3,8.1-8.1c4.1,0.3,4.7,3.9,5.2,6.9
		C1806.9,782.6,1803.1,785.9,1798.3,786z M1805.4,779.5c-2.3-1.6-4-3.6-4.8-3.3c-1.8,0.6-3.2,2.5-4.7,3.9c1.1,1.2,2.5,3.6,3.2,3.5
		C1801,783,1802.7,781.4,1805.4,779.5z"/>
	<path fill="#222222" d="M520.1,857c-3.8,0.2-6.2-1.2-6-5.3c0.2-3.5,0.9-6.8,5.3-7.1c3.7-0.2,7.5,3.4,7.5,7.1
		C526.9,855.4,524.8,857,520.1,857z M517.1,848.1c-0.3,3.1-1.7,6.4,2.7,6.7c1.3,0.1,3.9-1.7,4-2.8
		C524.1,847.6,520.6,848,517.1,848.1z"/>
	<path fill="#222222" d="M1617,757.8c-1.9,3.6-3.4,6.9-5.3,9.7c-0.6,0.9-2.9,1.4-3.9,1c-0.9-0.4-1.5-2.4-1.5-3.6
		C1606.3,759.2,1610.1,756.3,1617,757.8z"/>
	<path fill="#222222" d="M1773.7,809.1c-1.2-1.7-3.2-3.2-3.5-5.1c-0.6-3.6,3.6-8.7,6.1-7.6c2,0.8,4.4,3.9,4.2,5.7
		c-0.3,2.5-2.8,4.7-4.4,7C1775.3,809.1,1774.5,809.1,1773.7,809.1z M1775.3,798.5c-1.4,2.4-2.5,3.8-2.9,5.3
		c-0.1,0.5,1.4,1.4,2.1,2.2c1.1-1.2,2.5-2.3,3.3-3.7C1778.1,801.9,1776.7,800.5,1775.3,798.5z"/>
	<path fill="#222222" d="M1691,832.7c-1.9-2.8-3.6-4.1-3.8-5.7c-0.7-4,3-4.8,5.6-5.4c1.2-0.2,2.8,1.9,4.2,2.9
		C1695.3,826.9,1693.6,829.3,1691,832.7z"/>
	<path fill="#222222" d="M395.9,837.4c0,4.8-3.6,8.4-7,8.5c-3.1,0.1-4-1.7-3.9-4.4c0-3.1,4.4-8.1,7.1-7.4
		C393.8,834.7,395.2,836.7,395.9,837.4z M389,845c1.8-2.5,3.2-4.6,4.7-6.7c-1.3-0.2-2.8-0.9-3.9-0.6C386.5,838.8,386.1,841,389,845z
		"/>
	<path fill="#222222" d="M311.2,867.2c-3.2,2.2-5,4.4-6.5,4.2c-1.7-0.3-3-2.8-4.5-4.3c1.5-1.4,2.9-3.6,4.6-3.8
		C306.3,863.1,308.1,865.2,311.2,867.2z"/>
	<path fill="#222222" d="M1623,757.1c-1.9-3-3.7-4.6-3.6-6.2c0.1-1.6,2-3.2,3.1-4.8c1.8,1.6,4.1,3,5.2,5
		C1628,751.9,1625.4,754.2,1623,757.1z"/>
	<path fill="#222222" d="M196.9,831.6c-2.2-2.1-3.6-3.4-5-4.6c1.7-1.5,3.3-3.4,5.3-4.3c0.5-0.2,3.3,2.5,3.5,4
		C200.8,827.8,198.7,829.4,196.9,831.6z"/>
	<path fill="#222222" d="M379.2,868.1c-1.6-2-3.7-4-3.4-4.4c1.2-1.8,2.9-3.8,4.9-4.4c0.9-0.3,2.8,2.2,4.3,3.4
		C383.2,864.3,381.5,865.9,379.2,868.1z"/>
	<path fill="#222222" d="M1838.6,775.6c-2.8,2.3-4.4,4-6.4,5.1c-0.3,0.2-3.2-2.6-2.9-3.2c0.8-2,2.3-3.9,4-5.2
		C1833.8,771.9,1836,773.9,1838.6,775.6z"/>
	<path fill="#222222" d="M265,857.6c1.3,1.7,3,3.4,3.6,5.3c0.3,1-1.2,3.2-2.4,3.7c-1.1,0.5-4.2-0.6-4.2-1c-0.1-2.5,0.5-5,0.8-7.4
		C263.6,858,264.3,857.8,265,857.6z"/>
	<path fill="#222222" d="M647.6,843.6c1.6,2.7,3.3,4.3,3.1,5.6c-0.3,1.6-2,3.5-3.6,4.1c-0.8,0.3-3.8-2.3-3.7-3.1
		C643.9,848.3,645.6,846.6,647.6,843.6z"/>
	<path fill="#222222" d="M811.9,871.4c2,2.1,3.9,3.9,3.8,4.1c-1.3,1.8-3,3.4-4.6,5c-1-1.1-2.9-2.4-2.7-3.2
		C808.8,875.6,810.3,874,811.9,871.4z"/>
	<path fill="#222222" d="M1886.1,735.6c-2.3,1.9-3.6,3.6-5.3,4.1c-0.9,0.2-2.4-1.8-3.6-2.8c1.5-1.5,2.8-3.2,4.6-4.2
		C1882.2,732.4,1883.9,734.1,1886.1,735.6z"/>
	<path fill="#222222" d="M244.4,860.4c-1.8-2.3-3.3-3.7-3.9-5.3c-0.2-0.6,2.1-3,2.3-2.9c1.8,1.1,3.5,2.4,4.9,3.9
		C247.8,856.3,246.1,858.3,244.4,860.4z"/>
	<path fill="#222222" d="M1473.4,813.2c-2.5,1.7-3.9,3.1-5.5,3.5c-0.6,0.2-2.8-2-2.6-2.6c0.5-1.5,1.7-3.5,3-3.9
		C1469.2,809.9,1470.9,811.7,1473.4,813.2z"/>
	<path fill="#FFFFFF" d="M1691.9,711.6c0.6-0.4,1.7-1,1.7-1.2c-0.6-1.7-1.5-3.2-2.4-5c11.8-1.4,23.1-3,34.6-4.1
		c13.4-1.3,26.8-2.2,40.1-3.3c2.9-0.2,6.7-1.2,8.4,0.2c3.7,3.1,7.6,7,9.1,11.4c4.7,13.9,9.3,28.2,8.3,43c-0.5,7.6-4.3,15.1-7.2,22.4
		c-0.5,1.3-3.6,2-5.6,2.2c-3.9,0.5-7.9,0.4-11.9,0.6c-1.6,0.1-3.3,0-4.9-0.1c-1-0.1-2.2-0.8-2.9-0.5c-7.2,3.6-15.2,2.9-22.8,4
		c-6.9,1-13.9,1.2-20.8,1.9c-6,0.6-12.1,1.3-18.4,2c0.1-1.1,0.2-2,0.3-3.4c-0.9,0.7-1.6,1.1-2,1.6c-2.8,3.7-5.9,4.4-9.7,1.3
		c-2.2-1.8-4-2.3-4.9,1.5c-0.8,3.4-1.8,6.8-3,10.1c-0.7,1.7-1.9,3.4-3.2,4.8c-2.6,2.9-5.6,5.4-8.1,8.4c-3.5,4.1-7.3,7.6-12.7,9.1
		c-2.6,0.7-4.7,2.9-7.3,3.8c-4.9,1.6-10,4.8-15.1,0.1c-0.6-0.6-2.6,0.6-3.8,0.3c-1.7-0.5-3.7-1.3-4.9-2.6c-6.5-6.8-3-14.3-0.9-21.5
		c0.3-1,1.2-2,1.9-2.8c0.4-0.5,1.6-0.7,1.6-1.1c0.5-5.4,4.3-8.7,7.4-12.6c1.1-1.3,1.8-3,3-4.2c2.4-2.4,5.1-4.7,7.6-7
		c0.4-0.3,0.7-0.9,1.1-1c6.7-2.1,12.3-8,20.3-6c0.8,0.2,1.8,0.3,2.4-0.1c3.6-2,5.8-0.6,7.7,2.5c0.5,0.8,1.7,1.2,2.6,1.8
		c-1.8-8.2-4.3-16-5.2-24c-1.1-10-2.4-20.3,2.5-29.8c1.4-2.7,3.4-5.4,5.6-7.5c3.6-3.4,7.6-2.1,9.5,2.7c-3.4-2.3-6.8-3.7-9.6,0.9
		c5.9-2.4,10.4,1,9.7,7.3c-1.8,17,0,33.7,5.3,50c1.6,4.8-0.9,8.6-3.4,11.8c-1.1,1.3-4.8,0.6-8.1,0.8c1.7,1.2,3.8,3.6,4.9,3.2
		c2.5-1,5.5-2.8,6.6-5.1c6.8-13.9,5.9-28.5,2.5-43C1696.4,727.3,1694,719.5,1691.9,711.6z M1656.1,774c-3.6,1.4-8,2-10.6,4.5
		c-5.2,4.8-9.5,10.7-14.1,16.2c-0.4,0.5-0.5,1.2-0.8,1.8c-1.9,3.9-4.2,7.9-1,12c3.4,4.4,8.7,5.9,13.8,5.3
		c11.5-1.3,24.8-13.8,24.6-27.1C1667.9,778.3,1664.5,774.8,1656.1,774z M1743.2,706.3c2.4,7.2,5.4,14.3,7.3,21.7
		c2,7.5,3,15.3,4.4,23.1C1759.6,746.9,1749.9,710.9,1743.2,706.3z M1760.2,750.9c0.4-0.1,0.9-0.2,1.3-0.2
		c1.9-12.2-6.2-40.2-13.4-44.5c3.1,7.6,6.7,14.6,8.7,21.9C1758.8,735.5,1759.2,743.3,1760.2,750.9z M1736.2,705.5
		c6.7,12.3,10.2,25.6,10.7,40.3C1752.5,741.2,1743.4,708.9,1736.2,705.5z M1741.2,746c0.8-0.1,1.6-0.1,2.3-0.2
		c-0.2-2.3-0.3-4.6-0.6-6.8c-1.8-11.3-4.5-22.2-10.7-32.1c-0.5-0.8-1.6-1.3-2.5-1.9C1736.7,718.1,1739.8,731.8,1741.2,746z
		 M1712.7,708.5c2.3,6.5,5,12.9,6.7,19.5c1.7,6.7,2.4,13.6,3.7,20.4c0.2,1,1.1,1.9,1.7,2.9c0.4-0.2,0.8-0.4,1.2-0.6
		C1724.3,735.8,1721.8,721.1,1712.7,708.5z M1734.9,748.2c0.5,0,1,0.1,1.5,0.1c0.5-0.7,1.5-1.5,1.4-2.1c-2.6-13-4.5-26.3-11.3-38.1
		c-0.5-0.8-1.7-1.3-2.5-1.9C1730.9,719.6,1733.6,733.7,1734.9,748.2z M1718.1,748.9c1.7-11-5.5-37.8-9.8-40.9
		C1711.4,721.1,1714.7,735,1718.1,748.9z M1771.5,744.9c3.5-8-4.9-36.9-12.6-41.4C1767.1,717,1769.6,730.8,1771.5,744.9z
		 M1755.1,703.6c3.9,13.7,7.6,26.4,11.2,38.9C1769.5,739.6,1762.8,714.3,1755.1,703.6z M1718.8,707.9c3.9,12.6,7.9,25.2,11.8,37.8
		C1730.3,731.8,1726.2,719.1,1718.8,707.9z M1774.1,742.5c5.3-4.4-0.4-29.7-8.5-37.3C1769,718,1776.3,729.1,1774.1,742.5z"/>
	<path fill="#FFFFFF" d="M358.3,773.5c0.3-1.2,0.6-2.3,0.9-3.6c0.3,0.2,0.6,0.3,0.7,0.5c0.4,5.1,1.1,10.2-4.2,13.7
		c-0.7,0.5-0.7,2.5-0.7,3.8c0.1,3.1,1,6.5-4.4,4.6c-0.9-0.3-2.6,1.4-4.4,2.4c-0.7-0.5-1.8-1.3-2.3-1.7c-2.1,1.1-3.8,2-6.1,3.3
		c-0.5,1.7-1.2,4.5-1.9,7.3c-0.4-0.1-0.8-0.1-1.2-0.2c-0.4,3.4-0.8,6.8-1.2,10.4c-0.9,0.2-2.4,0.4-3.8,0.7c1.4,1.6,2.9,3.2,4.4,4.8
		c2.1-4.1,4.1-7.6,5.7-11.2c0.4-0.8-0.2-2.2-0.5-3.3c-1.3-5.1,1.7-8.3,7.1-8.3c2.2,0,4.4-1.5,6.7-2c3.6-0.8,2.7-3.4,3-5.8
		c0.2-1.2,2.2-2.1,3.4-3.1c0.6,0.2,1.3,0.4,1.9,0.6c0.4,8.1,0.7,16.3,1.1,25.9c-2.5-2.3-3.7-3.4-4.6-4.3c2.4,8.9,5.1,18,7.1,27.1
		c1.6,7.5,4.7,12.8,13,13.8c1.7,0.2,3.3,1.1,4.9,1.7c-0.1,0.5-0.1,0.9-0.2,1.4c-4.9,0.4-9.9,1.2-14.8,0.9c-2.1-0.1-4.5-2.3-6-4.2
		c-3.5-4.3-6.4-9.2-9.8-13.6c-1.9-2.4-4.5-2.8-7.6-1.2c-8.7,4.5-17.5,8.7-26.4,13.1c-0.2-1.1-0.4-2.3-0.7-4
		c-8.6,14.6-31.5,14.1-41.3-0.3c0.9,2.2,1.7,4.5,3,7.9c-2.4-0.5-4.3-1-6.9-1.5c-3,0.2-6.8,0.5-11.2,0.8c-2.6-2.2-5.5-4.7-8.3-7.1
		c0.2-0.5,0.4-1,0.6-1.5c3.1,0,6.1,0,9.2,0c0-0.7,0-1.3,0.1-2c-5.9,0-11.7,0-17.6,0c-0.4,0.5-0.9,0.9-1.3,1.4c2.1,1,4.1,2,6.2,3
		c-0.5,0.5-0.9,1.1-1.4,1.6c-4.3-2.1-8.6-4.1-13.4-6.4c6.3-3.4,12.5-5.9,13.5-13.3c0.6-4.1,0.9-8.2,1.6-12.3
		c0.3-1.9,0.7-4.1,1.9-5.5c6.1-6.6,12.1-13.1,21.2-16c3.9-1.2,7.3-4.3,9.5-5.6c6.2,0,10.8-0.1,15.5,0c1.5,0,2.9,0.3,4.3,0.7
		c5,1.6,8.3-0.1,10.3-5.2c1.6-4,3.7-7.8,5.4-11.3c-1.8-2.6-4.7-5.2-5.5-8.3c-0.6-2.2,1.3-5.3,2.7-7.6c2.4-3.6,4.2-3.3,6.7,0.4
		c1.9,2.9,4,5.8,6,8.7c0.6-0.3,1.3-0.7,1.9-1c-0.4-1.4-0.9-2.8-1.2-3.9c6.9-7.4,14.7-4.3,23-1.8c-0.6,1.5-1.1,2.9-1.5,4.3
		c0.5,0.3,1,0.6,1.5,0.9c1.5-2.8,3-5.6,4.6-8.3c1.1-1.7,2.5-3.2,3.8-4.7c1.5,1.6,3.5,3,4.3,4.8c2.7,5.9,0.6,10.7-5.1,14.1
		c-1.4,0.8-1.8,3.3-2.6,5C357.2,773.2,357.8,773.3,358.3,773.5z M318.4,830.5c-1.6-1.6-3.2-3.3-4.9-4.9c-2.1,4-4.1,7.9-6.7,12.9
		c-2.8-5-4.8-6-6.9-1.7c-0.8-0.3-1.6-0.7-2.4-0.7c-2,0-4,0-5.8,0.7c-0.5,0.2-0.2,2.7-0.3,4.1c3-2,8.2,1.4,8.4-4.2
		c6.2,2.6,10.3,0.7,12.6-5.6c0.1-0.2,0.6-0.2,0.9-0.3c0.8,1.1,1.6,2.2,2.8,3.9C317.1,832.9,317.7,831.7,318.4,830.5
		c2.7-1.7,5.5-3.4,8.2-5.1c-0.4-0.5-1-1.2-1.6-1.7c-0.7-0.6-1.4-1.1-2-1.6c-1,1.5-1.9,2.7-2.6,4
		C319.7,827.6,319.1,829.1,318.4,830.5z M275.9,839.7c2.7-1.2,4.2-2,6-2.8c0.2,1.1,0.3,2,0.5,2.8c0.4,0,0.8-0.1,1.2-0.1
		c0.1-2.1,0.3-4.1,0.4-6.1c-7.4-1.1-13.6-1.1-18.4,4.6c3.7-1.3,7.4-2.5,11.4-3.9C276.6,835.9,276.4,837.2,275.9,839.7z"/>
	<path fill="#222222" d="M1691.9,711.6c2.1,7.9,4.5,15.8,6.3,23.8c3.3,14.6,4.3,29.1-2.5,43c-1.1,2.3-4.1,4.1-6.6,5.1
		c-1,0.4-3.1-2-4.9-3.2c3.3-0.2,7.1,0.5,8.1-0.8c2.5-3.2,4.9-6.9,3.4-11.8c-5.3-16.3-7.1-32.9-5.3-50c0.7-6.3-3.8-9.7-9.7-7.3
		c2.8-4.6,6.1-3.2,9.6-0.9C1690.8,710.2,1691.3,710.9,1691.9,711.6z M1692.4,729.7c-0.7,0.1-1.3,0.1-2,0.2
		c1.8,11.9,3.6,23.7,5.4,35.6c0.7-0.1,1.5-0.2,2.2-0.3C1696.2,753.3,1694.3,741.5,1692.4,729.7z"/>
	<path fill="#FFFFFF" d="M298.4,857c4.5-1.5,8.8-2.3,12.5-4.2c6.3-3.3,12.2,1.4,18.3,0.3c0.5-0.1,1.2,1.3,1.7,1.9
		c-1,0.7-2,1.8-3,1.9c-5.1,0.2-10.3,0.1-15.4,0.1C307.9,857,303.4,857,298.4,857z"/>
	<path fill="#FFFFFF" d="M357.5,844.4c-6,1-10.6,2.1-15.3,2.5c-4.6,0.4-3.2-4.6-5.6-6.6c3.1-2.5,5.6-2.9,7.7,0.4
		C347.2,845.5,352.2,843.3,357.5,844.4z"/>
	<path fill="#FFFFFF" d="M206.5,847.8c0.9,0.9,1.8,1.9,2.6,2.8c-0.1,0.5-0.2,0.9-0.3,1.4c-5.4-0.5-10.7-1-16.1-1.4
		c0-0.6-0.1-1.2-0.1-1.8c4.5-0.4,9.1-0.9,13.6-1.3C206.2,847.5,206.5,847.8,206.5,847.8z"/>
	<path fill="#FFFFFF" d="M342.7,838.5c5.8-4.6,8.3-3.5,12.4,4.4C350.8,841.3,347.3,840.1,342.7,838.5z"/>
	<path fill="#FFFFFF" d="M206.5,847.8c0,0-0.3-0.3-0.3-0.3c3.8-2.8,8.1-2.2,11,1.9c-1,0.3-1.8,0.6-2.7,0.8c-0.9,0.3-1.8,0.5-2.8,0.8
		c0.1-0.5,0.2-1,0.3-1.5C210.2,848.9,208.3,848.4,206.5,847.8z"/>
	<path fill="#FFFFFF" d="M1569.9,853c6.8-0.2,13.6-0.5,20.4-0.6c0.5,0,1.3,1.2,1.5,2c0.1,0.4-1,1.5-1.5,1.4
		c-6.8-0.2-13.6-0.5-20.4-0.7C1569.9,854.4,1569.9,853.7,1569.9,853z"/>
	<path fill="#FFFFFF" d="M1597.2,863c1.3,6.1,0.6,12.4,1,18.5c-0.6,0.1-1.2,0.1-1.7,0.2c-0.6-6.1-1.2-12.2-1.8-18.3
		C1595.5,863.3,1596.3,863.1,1597.2,863z"/>
	<path fill="#FFFFFF" d="M1677.7,861c-4.9-1.2-10-1.9-14.6-3.8c-6.6-2.8-7.7-6.4-4.6-12.7c6.8-14,18.6-16.8,29.8-7.3
		c3.6,3.1,5.4,8.5,7.6,13c0.5,1-0.8,3.4-1.9,4.5C1689.5,858.7,1684.2,861,1677.7,861z"/>
	<path fill="#FFFFFF" d="M1699.8,855.3c-1.3-6-2.4-10.9-3.5-16.3c3.9-5,7.2-6.4,12.2-4.4c5,1.9,10.3,9.2,9.8,13.8
		c-0.5,5.1-4.6,6.8-8.6,7.5C1706.3,856.3,1702.7,855.5,1699.8,855.3z"/>
	<path fill="#FFFFFF" d="M1510.4,800.2c0,3.3,0,5.3,0,7.4c1.7-0.2,4,0.2,5-0.7c1.1-1.1,1.1-3.4,1.8-6.2c1.9,2.9,4.4,5.6,5.7,8.7
		c1.5,3.8-1.3,6.5-4.2,8.6c-5.8,4.1-12,4.2-18.3,1.4c-3.6-1.6-3.5-9.1,0.4-12.5C1503.5,804.4,1506.8,802.6,1510.4,800.2z
		 M1518.2,816.4c1.7-2.4,3.5-3.9,3.5-5.3c0-1.3-1.9-2.6-3-3.8c-1.2,1.5-2.8,2.9-3.4,4.6C1515,812.7,1516.7,814.2,1518.2,816.4z"/>
	<path fill="#FFFFFF" d="M1743.9,825.3c-10.2,0.1-16.9-3.2-18.3-7.4c-1.3-3.9,2.6-10.5,8.9-14.2c3.3-2,7-3.6,10.7-4.8
		c4.9-1.6,12.9,2.4,14.9,7.1c1.8,4.3,0.8,9.7-3.6,12.8C1751.8,822,1746.4,824,1743.9,825.3z"/>
	<path fill="#FFFFFF" d="M1855.8,785c-1.3,0-2.7,0.1-4,0c-5.6-0.7-8.5-5.2-7-10.6c2.1-7.5,12.3-14,19.8-12.2
		c4.6,1.1,7.5,4.2,8.6,9.1c1.1,4.9-1.2,8.3-4.8,10.4c-3.7,2.1-8.2,2.9-12.3,4.3C1856,785.6,1855.9,785.3,1855.8,785z"/>
	<path fill="#FFFFFF" d="M1544.1,790.7c-0.8-8.3,3.6-12.5,10.6-10.9c3.1,0.7,2.7,2.4,1.9,4.3
		C1554.7,788.3,1549.2,791.2,1544.1,790.7z"/>
	<path fill="#FFFFFF" d="M484,869.1c0-5.8,2.6-9.3,7-9.3c2.8,0,5.5,4.6,5.4,9.4c0,5-1.7,7-6.1,7C485.5,876.3,484,874.7,484,869.1z"
		/>
	<path fill="#FFFFFF" d="M1835.8,756.5c-1.1,0.5-2.1,1.3-3,1.3c-3.1,0.2-9.2-4.7-9.6-7.7c-0.1-1.1,0.4-2.8,1.3-3.4
		c0.7-0.5,2.7-0.4,3.4,0.3c2.5,2.2,4.7,4.8,7,7.3C1835.3,754.8,1835.4,755.5,1835.8,756.5z"/>
	<path fill="#FFFFFF" d="M1830.1,745.1c2.4-1.2,4.6-3.1,5.5-2.6c3.1,1.7,3.9,4.5,1.5,8.2C1834.9,749,1833,747.4,1830.1,745.1z"/>
	<path fill="#FFFFFF" d="M570.6,873c-6.3,0-9.7-2.4-9.6-5.7c0-3.5,3.3-6.2,7.5-6.2c4,0,7.9,3.9,7,8.3
		C575.2,871.1,571.6,872.3,570.6,873z"/>
	<path fill="#FFFFFF" d="M409.9,853.2c-3.3,0-6.5,0-10.3,0C402.7,847.8,405.2,847.6,409.9,853.2z"/>
	<path fill="#FFFFFF" d="M1554.1,815.4c-1.1-0.8-3.8-2-4.5-4c-0.5-1.3,1.4-4.1,2.8-5.5c3.5-3.4,7.7-5.6,12.9-5.1
		c4.3,0.4,6.1,3.4,3.8,7.2C1566.1,813,1561.2,814.7,1554.1,815.4z"/>
	<path fill="#FFFFFF" d="M427.8,859.9c0.1-1.5-0.2-2.6,0.2-3.4c0.8-1.6,2-3,3-4.4c1.6,1.3,4.6,3,4.4,3.8c-0.8,3.1-2.1,7.4-4.4,8.4
		C426.8,866.1,428.2,861.7,427.8,859.9z"/>
	<path fill="#FFFFFF" d="M208.7,831.8c3.9,0.4,7.2,0.6,10.5,1.1c0.8,0.1,2.2,1.2,2.1,1.6c-0.2,1-0.9,2-1.7,2.6
		C216.2,839.2,211.8,837.3,208.7,831.8z"/>
	<path fill="#FFFFFF" d="M703,858.4c1.9-2.5,3.4-4.4,4.8-6.3c1.1,1.9,3.2,3.8,3.2,5.7c0,1.8-2.3,3.5-3.6,5.3
		C706.1,861.7,704.8,860.4,703,858.4z"/>
	<path fill="#FFFFFF" d="M1901.5,741.1c-3.2,0.5-5.5-1.2-5-4.7c0.4-3.2,1-8,5.6-7.3c2.8,0.4,6,3.4,7.4,6
		C1910.7,737.8,1906.1,741.1,1901.5,741.1z"/>
	<path fill="#FFFFFF" d="M880.7,890c-3.8,0.3-6.2-1.4-6.6-5.1c-0.4-3.5,3.5-6.9,7.4-7c4.1-0.1,6.2,2.2,6.5,5.9
		C888.3,887.5,885.2,890,880.7,890z"/>
	<path fill="#FFFFFF" d="M618,863.7c-0.7-1.1-2.5-2.8-2.8-4.7c-0.6-3.6,2.9-8.4,5.3-7.6c3.2,1,8.3-0.2,8.7,5.4
		C629.3,860.1,624.1,863.8,618,863.7z"/>
	<path fill="#FFFFFF" d="M675.8,859.3c1.3,2.3,2.6,3.4,2.3,4.1c-0.4,1.3-1.7,2.3-2.6,3.5c-0.8-0.8-2.3-1.7-2.3-2.5
		C673.4,863.1,674.5,861.9,675.8,859.3z"/>
	<path fill="#FFFFFF" d="M766.8,878.3c-2.3-1.3-4.5-2.5-6.7-3.7c2.2-2,4.2-4.7,6.8-5.8c2.2-0.9,5.2-0.2,7.7,0.4
		c2.8,0.8,3.4,4.1,0.8,5.7C773,876.5,770.1,877.1,766.8,878.3z"/>
	<path fill="#FFFFFF" d="M143.5,832.7c4.8-1.2,7.2-1,6.7,2.7c-0.2,1.6-1.7,3.1-2.5,4.6C146.4,837.8,145.2,835.6,143.5,832.7z"/>
	<path fill="#FFFFFF" d="M1453.5,819.7c1.9,0.3,2.7,0.3,2.8,0.5c0.4,1.7,1.5,3.7,0.9,4.9c-1.9,3.9-7.1,6.1-9.4,4.4
		c-2.5-1.9-1.2-3.8,0.4-5.3C1450.1,822.4,1452.2,820.8,1453.5,819.7z"/>
	<path fill="#FFFFFF" d="M1643.7,759.5c-3.4,3-7.3,3.5-8.9,0.8c-0.7-1.2-0.6-3.7,0.3-4.8C1636.6,753.7,1642.1,756.4,1643.7,759.5z"
		/>
	<path fill="#FFFFFF" d="M1859,726.3c1.8,2.4,3.6,4.2,3.3,4.7c-1.1,1.9-2.9,3.4-4.4,5c-1-1-2.9-2.3-2.7-3
		C1855.7,731,1857.2,729.3,1859,726.3z"/>
	<path fill="#FFFFFF" d="M258.7,865.7c-3,2.4-4.9,5.1-6.7,5c-1.8-0.1-4.3-2.7-4.9-4.7c-0.9-3,1.7-5.3,4.5-5
		C253.7,861.3,255.6,863.5,258.7,865.7z"/>
	<path fill="#FFFFFF" d="M1805.4,779.5c-2.8,1.9-4.4,3.5-6.3,4c-0.7,0.2-2.1-2.2-3.2-3.5c1.6-1.4,2.9-3.2,4.7-3.9
		C1801.5,775.9,1803.2,777.9,1805.4,779.5z"/>
	<path fill="#FFFFFF" d="M517.1,848.1c3.5-0.1,7-0.5,6.7,3.9c-0.1,1.1-2.7,2.9-4,2.8C515.4,854.5,516.9,851.2,517.1,848.1z"/>
	<path fill="#FFFFFF" d="M1775.3,798.5c1.4,2,2.8,3.3,2.5,3.8c-0.8,1.4-2.2,2.5-3.3,3.7c-0.8-0.7-2.3-1.7-2.1-2.2
		C1772.8,802.3,1773.9,801,1775.3,798.5z"/>
	<path fill="#FFFFFF" d="M389,845c-2.9-3.9-2.5-6.1,0.8-7.2c1.1-0.4,2.6,0.4,3.9,0.6C392.2,840.4,390.8,842.4,389,845z"/>
	<path fill="#222222" d="M1656.1,774c8.5,0.8,11.8,4.4,11.9,12.7c0.1,13.3-13.1,25.8-24.6,27.1c-5.1,0.6-10.3-0.8-13.8-5.3
		c-3.2-4.1-0.9-8.1,1-12c0.3-0.6,0.4-1.3,0.8-1.8c4.6-5.5,8.9-11.3,14.1-16.2C1648.1,776,1652.5,775.4,1656.1,774z M1666.2,786.4
		c0.1-7.4-4.5-10.9-11.6-8.7c-11.3,3.6-19,11-23.6,21.7c-2.8,6.5-0.2,9.9,6.8,11.7C1649.8,814.2,1666.2,800.2,1666.2,786.4z"/>
	<path fill="#222222" d="M1743.2,706.3c6.7,4.6,16.4,40.5,11.7,44.8c-1.4-7.8-2.4-15.6-4.4-23.1
		C1748.6,720.6,1745.7,713.5,1743.2,706.3z"/>
	<path fill="#222222" d="M1760.2,750.9c-1.1-7.6-1.4-15.4-3.4-22.8c-2-7.4-5.6-14.3-8.7-21.9c7.2,4.3,15.2,32.3,13.4,44.5
		C1761.1,750.7,1760.7,750.8,1760.2,750.9z"/>
	<path fill="#222222" d="M1736.2,705.5c7.1,3.5,16.2,35.7,10.7,40.3C1746.5,731,1742.9,717.8,1736.2,705.5z"/>
	<path fill="#222222" d="M1741.2,746c-1.4-14.2-4.5-27.9-11.5-40.9c0.8,0.6,2,1.1,2.5,1.9c6.1,9.8,8.8,20.8,10.7,32.1
		c0.4,2.3,0.4,4.6,0.6,6.8C1742.8,745.8,1742,745.9,1741.2,746z"/>
	<path fill="#222222" d="M1712.7,708.5c9,12.6,11.5,27.3,13.3,42.2c-0.4,0.2-0.8,0.4-1.2,0.6c-0.6-1-1.5-1.8-1.7-2.9
		c-1.3-6.8-2-13.7-3.7-20.4C1717.7,721.3,1715,715,1712.7,708.5z"/>
	<path fill="#222222" d="M1734.9,748.2c-1.3-14.5-4-28.6-11-42c0.9,0.6,2,1.1,2.5,1.9c6.8,11.8,8.7,25.1,11.3,38.1
		c0.1,0.6-0.9,1.4-1.4,2.1C1735.9,748.3,1735.4,748.2,1734.9,748.2z"/>
	<path fill="#222222" d="M1718.1,748.9c-3.3-13.9-6.7-27.8-9.8-40.9C1712.5,711.1,1719.8,737.9,1718.1,748.9z"/>
	<path fill="#222222" d="M1771.5,744.9c-2-14-4.5-27.9-12.6-41.4C1766.7,708,1775,736.8,1771.5,744.9z"/>
	<path fill="#222222" d="M1755.1,703.6c7.6,10.8,14.4,36.1,11.2,38.9C1762.7,730,1759.1,717.3,1755.1,703.6z"/>
	<path fill="#222222" d="M1718.8,707.9c7.4,11.2,11.5,23.9,11.8,37.8C1726.6,733.1,1722.7,720.5,1718.8,707.9z"/>
	<path fill="#222222" d="M1774.1,742.5c2.2-13.4-5-24.5-8.5-37.3C1773.7,712.8,1779.4,738.1,1774.1,742.5z"/>
	<path fill="#222222" d="M275.9,839.7c0.5-2.5,0.7-3.8,1.1-5.4c-4,1.4-7.7,2.6-11.4,3.9c4.8-5.8,11.1-5.7,18.4-4.6
		c-0.1,1.9-0.3,4-0.4,6.1c-0.4,0-0.8,0.1-1.2,0.1c-0.1-0.8-0.3-1.7-0.5-2.8C280.2,837.7,278.6,838.4,275.9,839.7z"/>
	<path fill="#222222" d="M299.9,836.8c2.1-4.3,4.1-3.2,6.9,1.7c2.6-5,4.6-8.9,6.7-12.9c1.6,1.7,3.3,3.3,4.9,4.9c0,0,0,0,0,0
		c-0.7,1.2-1.3,2.4-2.3,4c-1.2-1.6-2-2.8-2.8-3.9c-0.4,0.1-0.9,0.1-0.9,0.3c-2.2,6.3-6.4,8.2-12.6,5.6L299.9,836.8z"/>
	<path fill="#222222" d="M299.8,836.6c-0.1,5.7-5.4,2.2-8.4,4.2c0.1-1.4-0.3-3.9,0.3-4.1c1.8-0.7,3.8-0.6,5.8-0.7
		c0.8,0,1.6,0.5,2.4,0.7C299.9,836.8,299.8,836.6,299.8,836.6z"/>
	<path fill="#222222" d="M318.4,830.5c0.7-1.5,1.3-3,2.1-4.4c0.7-1.3,1.6-2.4,2.6-4c0.6,0.5,1.4,1,2,1.6c0.6,0.5,1.1,1.2,1.6,1.7
		C323.8,827.1,321.1,828.8,318.4,830.5C318.4,830.5,318.4,830.5,318.4,830.5z"/>
	<path fill="#FFFFFF" d="M1692.4,729.7c1.9,11.8,3.8,23.6,5.7,35.4c-0.7,0.1-1.5,0.2-2.2,0.3c-1.8-11.9-3.6-23.7-5.4-35.6
		C1691.1,729.8,1691.8,729.8,1692.4,729.7z"/>
	<path fill="#222222" d="M1518.2,816.4c-1.5-2.3-3.2-3.7-2.9-4.5c0.6-1.7,2.2-3.1,3.4-4.6c1.1,1.3,3.1,2.6,3,3.8
		C1521.7,812.6,1519.9,814,1518.2,816.4z"/>
	<path fill="#FFFFFF" d="M1666.2,786.4c0,13.8-16.4,27.8-28.4,24.8c-6.9-1.8-9.5-5.2-6.8-11.7c4.6-10.7,12.3-18.2,23.6-21.7
		C1661.7,775.5,1666.3,779,1666.2,786.4z M1659.9,788.1c0-0.7,0.4-2.5-0.3-3.6c-1.5-2.3-2.3-6.9-6.6-4.6c-7.4,4-14.5,8.8-18.1,16.9
		c-1.1,2.4-1.6,6.7-0.2,8c2.1,2.2,6.2,3.9,9.1,3.6C1652.4,807.2,1659.9,797.6,1659.9,788.1z"/>
	<path fill="#222222" d="M1659.9,788.1c0,9.5-7.5,19.2-16.2,20.2c-2.9,0.4-7-1.4-9.1-3.6c-1.3-1.4-0.8-5.7,0.2-8
		c3.6-8.1,10.6-12.9,18.1-16.9c4.3-2.3,5.1,2.3,6.6,4.6C1660.3,785.5,1659.8,787.4,1659.9,788.1z M1658.1,789.4
		c0.1-7.4-2.6-9.5-8.5-5.3c-5.1,3.6-9.5,8.5-13.4,13.4c-3.2,4.1-1.4,7.2,3.8,8.7C1647.6,808.3,1658,798.6,1658.1,789.4z"/>
	<path fill="#FFFFFF" d="M1658.1,789.4c-0.1,9.3-10.5,18.9-18.1,16.8c-5.2-1.4-7-4.6-3.8-8.7c3.9-5,8.3-9.8,13.4-13.4
		C1655.5,779.9,1658.2,781.9,1658.1,789.4z"/>
</g>
</svg>
