<?xml version="1.0" encoding="utf-8"?>
<!-- Generator: Adobe Illustrator 18.1.1, SVG Export Plug-In . SVG Version: 6.00 Build 0)  -->
<svg version="1.1" id="Layer_1" xmlns="http://www.w3.org/2000/svg" xmlns:xlink="http://www.w3.org/1999/xlink" x="0px" y="0px"
	 viewBox="0 0 2000 910" enable-background="new 0 0 2000 910" xml:space="preserve">
<g>
	<path fill="#FFFFFF" d="M1296,911c-431.7,0-863.3,0-1295,0c0-80.7,0-161.3,0-242c4,2,7.8,4.3,12,5.8c4.6,1.6,7.4,4.3,9.2,8.7
		c0.7,1.7,2.9,3.6,4.7,3.9c4.6,0.7,9.3,0.7,11.7,5.8c0.3,0.6,1.8,0.9,2.7,0.8c5.9-0.3,9.4,3.2,12.5,7.7c0.8,1.1,2.9,2.2,4.2,2
		c7.6-1.1,15.8,4.1,17.1,11.5c0.6,3.7,2,3.9,5.4,3.1c3-0.7,6.9-0.7,9.5,0.7c5.5,3,9.8,8.7,17.2,7c0.1,0,0.4,0,0.5,0.1
		c4,5.4,10.9,5,16.2,7.9c3.4,1.9,6.9,3.9,5.5,9.1c-0.8,2.8,1.1,4.2,3.7,3.7c4.6-0.9,6,2,7.7,5.3c3.4,6.7,7.1,13.4,10.7,20
		c1.9,3.5,4.4,4.8,8.1,2.2c0.9-0.6,2.2-1.3,3.1-1.1c6.8,1.1,13.5,2.4,20.3,3.5c1.4,0.2,3.2,0.3,4.3-0.4c7.1-4.4,14-2.5,20.9,0.3
		c5.9,2.4,11.9,3.6,18.4,2.4c2.6-0.5,5.5-0.3,8.2-0.1c5.1,0.4,10.2,1.7,15.2,1.5c3.3-0.2,6.5-2.7,9.4,1c0.3,0.4,1.6,0.3,2.3,0
		c3.6-1.5,7.1-3.3,10.8-4.7c2.3-0.8,5-1.5,7.4-1.3c6.5,0.4,12.9,0.9,17.5-5.1c0.7-0.9,2.3-1,3.6-1.5c7.3-2.8,15.8,1.2,22.7-3.9
		c0.1-0.1,0.3,0,0.5,0c6,0,9.9-4.1,14-7.5c3.1-2.5,5.2-6.4,7.7-9.7c6.1-7.8,13.3-13.6,23.9-13.9c11.9-0.3,16.6-4.5,19.5-16.2
		c0.5-1.9,2.6-4.1,4.5-4.6c5.8-1.8,12.3-1.8,17.5-4.4c9.7-4.9,18.2-4.2,27.5,0.9c7,3.8,14.9,7,22.7,8c8.9,1.1,16.3,4.1,23.2,9.6
		c-7.5,8.4-14.5,17.1-22.4,24.9c-3.6,3.6-5.6,7.1-5.5,12.1c0,1.5-1.2,4.1-2.2,4.3c-5.5,1.1-7.2,4.8-7.9,9.7
		c-0.2,1.4-1.2,2.7-2.1,3.9c-3.8,5.2-3.3,6.8,3.1,7.7c2.2,0.3,4.7,0.2,6.9-0.6c3.4-1.1,6.5-3,9.9-4.4c6.7-2.7,10.7-7.7,12.3-14.5
		c2.2-8.8,2.1-8.9-7.1-7.6c0.5-2.2,0.2-4.7,1.4-6.1c7.8-9.5,15.9-18.7,24-28c0.7-0.8,1.8-1.3,2.8-1.7c5.2-1.9,8.6,0.5,13.2,3.3
		c9.6,5.8,16.7,13.3,22.2,22.7c0.6,1.1,1.6,2.1,2.6,2.8c10.4,7.4,18.6,16.8,24.7,28c3.1,5.7,7.7,8.9,14.2,10.5
		c6.7,1.7,13,5,19.6,7.4c1.3,0.5,3.6,0.5,4.2-0.3c3.4-4.3,7.6-4.2,11.9-2.5c6.3,2.5,12.2,5.8,18.5,8c3.7,1.3,8.2,2.2,11.8,1.3
		c5.8-1.5,10.7-1.3,15.6,2c6.7,4.6,13.3,4.9,20.5,0.7c5.5-3.2,11.7-3.2,18.1-3.1c9.1,0.2,18.1,0.5,26.8,3.2
		c4.3,1.3,8.4,3.2,12.6,4.9c2.5,1,5.1,1.9,7.5,3.1c2.8,1.4,6.3,2.4,8,4.6c2.7,3.6,5.2,5,9.1,2.6c3.5-2.1,6.4-0.8,9.7,0.8
		c5,2.4,10.3,4,15.3,6.4c4.7,2.3,9.1,6.3,14.5,1.6c0.1-0.1,0.3,0,0.5,0c5.4,0.5,11,0.4,16.3,1.7c9.6,2.4,19,5.3,28.4,8.5
		c8.1,2.8,15.6,2.7,23.5-1.1c3.4-1.6,7.9-1.3,11.9-1.4c6.4-0.1,12.8,0.3,19.2,0.2c3.6,0,8.1-2,10.7-0.5c6.3,3.8,11.1,6,19.4,3.1
		c8.7-3,19.1-1.4,28.7-1.6c8.9-0.2,17.8-0.2,26.7-0.2c3.7,0,7.5-0.4,11.2,0.1c5.5,0.7,10.9,2.4,16.5,2.9c7.4,0.7,14.9,0.7,22.4,1.1
		c1.8,0.1,4.1,0.4,5.1,1.5c4.8,5.6,9.8,4.9,15.4,1.5c0.9-0.6,2.2-0.9,3.3-1c9.8-1.4,19.6-3,29.5-3.8c4.6-0.4,9.3,0.8,13.9,1.7
		c12.6,2.5,25.1,4.4,37.6-0.5c3.9-1.5,8.4-2.1,12.6-2.1c4,0.1,6.8-1.3,9.8-3.6c5.8-4.5,12-8.5,18.1-12.7c-0.7,2.7-1.9,5.4-1.8,8
		c0,1.7,1.7,4.2,3.1,4.7c5.5,2,11.5-1.7,12.8-7.5c1.1-4.6-0.6-7-5.3-7.2c-2.3-0.1-4.6,0.1-6.9,0.1c10.8-13.5,25.8-15.6,41.5-14.7
		c3.6,0.2,6.6,0.5,9.8-1.5c4.2-2.6,9.9-4,13.3-0.3c4.4,4.7,9.2,5,14.6,5.5c7.3,0.7,14.6,1.9,22.5,3c-2.6,6.2-4.8,11.5-6.9,16.9
		c-1.4,3.4-2.9,6-7.5,5.4c-2.1-0.3-4.5,1-6.5,2.1c-4.4,2.3-7.7,8.1-6.8,11.9c1.2,5,5,7,9.6,7.2c4.7,0.2,7.1,2.8,8.9,6.7
		c1.6,3.4,3,6.9,4.9,10.2c1.5,2.6,1.4,4.8-0.1,7.3c-2.1,3.7-2.3,9,1.5,10.1C1288,898.9,1291.8,905,1296,911z M433.5,744.2
		c-6.2,0.5-6.2,0.5-6.2,5.9c0,0.4-0.1,1-0.3,1.3c-4.8,7.5-9.7,14.9-14.5,22.4c-1.3,2.1-6.9,1.1-4.6,5.2c0.9,1.7,4.9,1.8,7.5,2.5
		c3.8,1,5.6-0.7,5.4-4.6c-0.1-1.6,0-3.5,0.8-4.9c3-5.3,6.2-10.5,9.5-15.7c1-1.5,2.5-2.6,3.7-4c1.5-1.7,2.8-3.5,4.2-5.3
		C437.2,746.1,435.4,745.2,433.5,744.2z M127.3,752c0.7-3.8-2.3-6.2-6.9-6.8c-4.2-0.6-7.9,0.8-9.7,5.1c-1.6,3.8,0.2,9,3.8,11.3
		c4,2.7,8.1,1.9,12.8-2.5c3,2,6.2,3.6,8.9-0.2c1.9-2.6,1.9-6.1-0.8-7.4C133.3,750.4,130,751.7,127.3,752z M399.3,749.5
		c3.7,4.8,7.4,9.7,11.1,14.6c3.8-2.6,10-4.7,10.6-7.9c0.7-3.6,1.4-7,2.8-10.5c1.9-4.8-1.3-10-6-9.4c-6.2,0.8-11.9,3.1-16.1,8
		C400.7,745.5,400.4,747.2,399.3,749.5z M440.2,834.9c3.8-1.4,7.8-2.5,11.3-4.4c4.8-2.7,5.4-6.5,3.4-11.5c-2.8-6.9-8.6-6.9-14.4-7
		c-8.7-0.1-13.5,4.4-13.4,12.3C427.1,830.9,431.4,834.1,440.2,834.9z M216.3,785.3c0-0.1,0-0.2,0-0.2c-1,0-2.1-0.3-3,0.1
		c-1.8,0.8-4.4,1.7-4.9,3.2c-0.7,2-0.5,5,0.6,6.8c1.8,3.1,11.6,4.4,14.8,2.6c2.9-1.6,5.9-3,8.7-4.8c1.2-0.8,2.7-2.8,2.4-3.6
		c-0.4-1.3-2.2-2.9-3.6-3.1C226.3,785.5,221.3,785.5,216.3,785.3z M185.1,790.1c-0.9-5.8-3.3-8.2-10.5-8.6c-4-0.2-7.1,1.7-8.4,5.6
		c-1.4,4.4,0.4,8.6,4.1,10.7c4.7,2.6,10,1.3,13.4-2.5c2.8,1,5.1,1.7,7.4,2.5c0.5-1.4,1.6-3.8,1.2-4.1
		C190.4,792.5,188.1,791.6,185.1,790.1z M397,795.9c5,0.1,8.6-3.2,8.9-6.7c0.3-4.1-1.3-6.6-5.6-7.4c-1.4-0.3-2.5-2.2-4-2.9
		c-2.2-1.1-5-2.9-6.8-2.4c-1.9,0.6-4.2,3.8-4.1,5.8c0.1,1.9,2.7,4.6,4.7,5.3c2.7,0.9,3.7,1.8,4.1,4.6
		C394.5,793.9,396.4,795.2,397,795.9z M147.9,783c0.4-0.1,3.2-0.5,3.5-1.6c0.5-1.6-0.5-4-1.4-5.7c-1.5-2.7-3.5-5.2-5.3-7.7
		c-2.2-3.1-6.3-3.9-9.1-1.7c-3.5,2.7-2.7,5.1,0.4,7.5c0.6,0.4,0.9,1.3,1.1,2C138.5,781.3,140.5,782.9,147.9,783z M714.1,817.1
		c2.1,0.3,4.2,0.5,6.2,0.7c0.1-1.4,0.2-2.8,0.3-4.2c-2.2,0-4.4,0-7.4,0c-3.6-3.6-8.1-4.8-11.8-2.7c-3.6,2-4.1,5.3-3.1,8.6
		c1.5,4.8,5.8,4.7,9.9,4.5C713,823.7,713.8,820.2,714.1,817.1z M456.5,801c-0.2-0.3-0.3-0.6-0.5-0.9c-1.6,1.2-3.4,2.3-4.6,3.8
		c-0.3,0.4,0.6,2.7,1.5,3.2c3.1,1.6,6.3,3.1,9.7,3.8c2.2,0.5,5.4,0.1,6.9-1.2c1.6-1.4,2.3-4.5,2.3-6.8c0-1-2.6-2.9-4.1-3
		C464,799.8,460.2,800.6,456.5,801z M388.4,812.1c6.2,0.1,9.5-3,9.5-8.7c0-4.8-2.7-7.6-7.4-7.3c-7.4,0.5-11.6,3.5-11.5,8.3
		C379.1,809.4,382.2,812,388.4,812.1z M521,806.7c-0.1-6.9-1.9-8.2-6.4-6.6c-1.8,0.7-3.6,1.5-5.3,2.4c-3.8,2.2-5.1,8.1-1.9,9.2
		c2.8,1,6.6,1,9.3-0.1C518.9,810.8,520.2,807.7,521,806.7z M820.1,841c-4.8,0-8.5,2.9-8.6,6.9c-0.2,3.8,4.7,7.1,10.4,7
		c3.7-0.1,7.1-0.8,7.1-5.6C829,844.1,825.7,841,820.1,841z M1218.3,829.9c5.6,0,10.6-4.2,10.6-9c0-4.2-3.2-7-8-6.9
		c-4.6,0.1-10.2,5.4-10.2,9.8C1210.8,827.6,1213.6,829.9,1218.3,829.9z M430.3,709.8c-1.9,0.3-4.4,0.1-5.7,1.2
		c-2,1.6-4.3,4.1-4.3,6.2c0,1.7,2.9,4.2,5.1,4.9c2,0.7,4.7-0.3,7-0.9c3.4-0.9,6.3-2.8,5.4-7C437,710.2,433.7,709.8,430.3,709.8z
		 M947,861c5.9-0.1,11.6-4.4,10.6-7.2c-0.8-2.2-3.2-5-5.4-5.4c-4.8-0.9-11,3.9-9.9,7.3C943.1,858.2,946,859.9,947,861z M647.9,822.9
		c3.4,0.1,7,0.2,7.1-4.6c0.1-4.5-3.9-7.2-9.8-7.4c-3.9-0.1-6.5,1.3-7,5.2C637.7,819.9,642.2,822.9,647.9,822.9z M603,808.1
		c0.3,5.6,3.1,9,7.1,8.8c4.2-0.2,7.1-3.9,6.8-8.7c-0.3-4.3-4.1-7.8-8.5-7.2C604.4,801.5,602.1,803.7,603,808.1z M545.1,807.6
		c-0.2,4.2,1.3,6.4,5.1,6.4c4.5,0,8.7-3.5,8.7-7.1c0-4.6-3.3-8.7-7-8.6C548.2,798.4,545.1,802.9,545.1,807.6z M526.1,789
		c0.1,3.8,3.7,7.2,7.7,6.8c3.6-0.3,5.8-2.6,6-6.2c0.2-4-3.2-7.7-6.9-7.6C528.9,782.1,526.1,785,526.1,789z M738.2,834.1
		c-0.1,6.9,0.9,8.7,4.4,8.8c3.3,0.1,6.6-3.4,6.7-7.2c0.1-3.5-3.7-7.6-7.2-7.5C737.3,828.5,738,832.1,738.2,834.1z M205,784.5
		c-0.6-3.4-2.1-6.3-6.1-6.5c-3.9-0.2-7.9,3.3-7.9,6.5c0.1,3.3,4,6.9,7.4,6.3C201.8,790.2,204.9,788.9,205,784.5z M382.6,751.8
		c1.7-2.3,5.1-5.1,4.6-6.7c-0.8-2.7-4.1-4.8-6.4-7.1c-2.3,2.3-5.2,4.3-6.6,7.1C373.2,747.4,378,751,382.6,751.8z M466.6,728.4
		c-3.4,0-6.7,2.9-6.3,6.2c0.4,3.7,3.1,5.6,6.6,5.2c3.2-0.4,6.7-1.2,7-5.5C474.1,731.2,470.6,728.4,466.6,728.4z M515.8,756
		c3.7,0,7.9-0.7,7.8-4.7c0-2.6-2.9-6.1-5.5-7.5c-2.5-1.4-8.1,4.5-8,7.8C510.1,755.2,512.5,756.2,515.8,756z M759.2,839.7
		c2,1.7,3.7,4.3,5.9,5c3.2,1,6.2-3.2,5.6-8.5c-0.2-1.9-2.4-4.3-4.3-5.1C764,830.1,760.2,835,759.2,839.7z M868.7,860.8
		c2.7-3,4.5-5,6.3-7c-2.6-2.2-4.8-5.7-7.8-6.4c-3.3-0.8-6.2,2.9-5.5,6C862.3,856,865.6,857.8,868.7,860.8z M1269.9,830
		c0.9-0.6,3.7-1.7,4.7-3.7c1.2-2.4-3.7-6.1-8-6.3c-3-0.1-6.2-0.4-6.6,4C1259.9,827.7,1262.5,829.6,1269.9,830z M494.8,760.7
		c3.3-2.9,5.7-5.1,8.2-7.3c-1.1-1.1-2.9-3.4-3.3-3.2c-3,1.6-5.7,3.7-8.6,5.7C492,757.1,492.9,758.3,494.8,760.7z M442.8,764.7
		c2.5-2.8,4.3-4.7,6-6.7c-1.6-1.3-3.9-4.1-4.7-3.7c-2.4,1.2-4.2,3.5-6.2,5.4C439.2,761.1,440.5,762.4,442.8,764.7z M408.8,723.5
		c-2.8-2.2-5.2-4.5-5.4-4.2c-2.3,1.9-4.2,4.3-6.3,6.5c1.2,1.1,2.8,3.2,3.5,3C403.1,727.7,405.3,725.8,408.8,723.5z M245.3,793.9
		c2.5-2.7,5.6-4.7,5.2-5.8c-0.6-2-2.9-4.3-4.9-4.7c-1.2-0.3-3.8,2.6-4.4,4.5C241,789.1,243.3,791.1,245.3,793.9z M382.9,776
		c-1.9-1.8-3.5-4.5-5.8-5.3c-2.9-1-6.1,2.8-6.1,6.2c0,3.8,2.4,5.7,5.5,5.8C379.8,782.9,381.9,780.6,382.9,776z M531.1,824
		c1.6-1.5,4.1-2.7,4.6-4.5c0.8-2.8-3.7-6.4-7.4-6.4c-2.9,0-5.4,0.7-5.3,4.3C523.2,821.9,526.2,823,531.1,824z M492,807
		c2.3-2.9,5-5.1,4.6-6.3c-0.6-1.8-3.1-3.7-5.2-4.2c-3.1-0.7-4.4,2.4-4.1,4.6C487.5,802.9,489.7,804.3,492,807z M677.7,823.3
		c1.8-0.5,3.1-0.4,3.6-1c1.3-1.3,2.3-3,3.5-4.5c-1.8-0.6-3.6-1.4-5.4-1.8c-0.7-0.2-1.6,0.4-2.3,0.8c-1.4,0.9-2.7,1.9-4,2.8
		C674.8,820.9,676.4,822.3,677.7,823.3z M539,764.9c-2.2-2.4-3.6-3.9-5.1-5.5c-1.6,1.7-3.7,3.2-4.4,5.2c-0.3,0.9,2.2,4.1,3.4,4.1
		C534.7,768.5,536.5,766.6,539,764.9z M624,819.1c-2.4,2.4-3.5,3.7-4.7,4.9c1.8,1.6,3.4,3.7,5.5,4.7c0.7,0.3,4-2.5,3.8-3
		C627.8,823.6,626.1,821.9,624,819.1z M411.8,787.3c0.7,3.3-3.6,7.5,2.1,9.4c1.2,0.4,4.3-1.8,4.8-3.4
		C419.9,790.1,416.7,787.5,411.8,787.3z M121.5,782.9c2-3,4-4.8,4.1-6.6c0.1-1.3-2.5-2.7-3.8-4.1c-1.6,1.9-3.5,3.6-4.5,5.8
		C117.1,778.6,119.4,780.4,121.5,782.9z M1077.8,856.9c-1.7-2.3-2.9-3.8-4-5.3c-1.5,1.9-3.3,3.6-4.3,5.7c-0.3,0.6,2.3,3.6,2.8,3.4
		C1074.2,860,1075.7,858.5,1077.8,856.9z M569.3,808.1c0.7,4.7,0.6,8.6,5.5,8.8c3.4,0.1,4.2-2,4.1-4.9c-0.1-4.1-2.4-6.1-6.4-5.8
		C571.2,806.4,570,807.7,569.3,808.1z M961.6,849.5c-0.2,1.1-0.4,2.2-0.7,3.3c2.3,0.9,4.6,1.9,6.9,2.8c0.7-2.2,1.4-4.4,2-6.6
		C967.2,849.2,964.4,849.3,961.6,849.5z M410,814c1.9-2.7,3.8-4.2,3.7-5.6c-0.1-1.4-2.1-2.8-3.2-4.1c-1.5,1.5-3.4,2.9-4.2,4.7
		C406,809.7,408.1,811.5,410,814z M436.1,775.5c-0.7,0-1.3,0-2,0c-0.9,1.7-2.6,3.4-2.5,5c0.1,1.3,2.2,3.1,3.8,3.5
		c0.8,0.2,3.4-2,3.3-3C438.5,779.1,437.1,777.3,436.1,775.5z M456.9,721.4c-2,2.4-3.3,3.9-4.5,5.4c1.3,1,2.9,3.2,3.7,2.9
		c1.8-0.7,3.3-2.5,4.9-3.9C459.8,724.6,458.8,723.5,456.9,721.4z M1013,849.1c-0.6,0-1.3,0-1.9,0.1c-0.6,1.4-2,3-1.7,4.2
		c0.4,1.7,2,3,3.1,4.5c1.1-1,3.1-2.2,3-3.1C1015.3,852.9,1013.9,851,1013,849.1z M726.8,816.2c-1.2,2.3-2.8,4-2.4,5
		c0.5,1.5,2.5,3.6,3.6,3.5c1.4-0.2,2.6-2.4,3.9-3.7C730.5,819.7,729.1,818.4,726.8,816.2z M592,807.9c-2.7-2-4.1-3.8-5.3-3.7
		c-1.6,0.2-3,1.9-4.5,2.9c1.3,1.2,2.4,3.2,3.9,3.5C587.4,811,589.1,809.4,592,807.9z M1245.3,818.3c-2.2-2.2-3.6-3.6-5.1-5
		c-1.1,1.4-2.8,2.7-3.1,4.3c-0.2,0.9,1.7,3,2.9,3.2C1241.3,820.9,1242.9,819.5,1245.3,818.3z M500.9,761c-2.1,2.1-5.4,3.5-2.9,7.1
		c0.5,0.7,3.4,0.6,4.2-0.1C504.5,765.5,503.9,763.1,500.9,761z M689.4,808.7c-1.4,1.8-2.9,3-2.9,4.2c0,1,2.3,3.1,2.6,2.9
		c1.7-1,3-2.4,4.5-3.7C692.5,811.2,691.4,810.3,689.4,808.7z M1201.1,819.7c-1.7,1.8-3.7,3.2-3.4,3.8c0.5,1.4,2.1,3.3,3.2,3.2
		c1.4,0,2.7-1.8,4-2.9C1203.7,822.7,1202.7,821.5,1201.1,819.7z M779.2,841c-0.6,0.9-1.2,1.8-1.7,2.7c1.7,1.4,3.4,2.8,5.1,4.1
		c0.8-1.3,1.5-2.6,2.3-3.9C783,842.9,781.1,842,779.2,841z M484.3,816.7c-3.1,0.6-5,0.6-6.6,1.4c-0.8,0.4-1.5,2.1-1.5,3.2
		c0,0.8,1.3,1.6,2,2.4c0.9-0.8,1.8-1.6,2.6-2.4C481.8,820.2,482.5,819.1,484.3,816.7z M536.7,808.3c1.3-1.7,3-2.9,2.9-4
		c-0.1-1-2-2.7-3.1-2.7c-1.1,0-2.2,1.7-3.4,2.6C534.2,805.4,535.2,806.5,536.7,808.3z M900.2,848.9c1.9,3,4.1,3.6,6.3,1.2
		c0.5-0.5,0.3-2.7-0.3-3.2C903.6,845,901.7,846.1,900.2,848.9z M624.1,808.5c-0.7,0.6-1.4,1.1-2.1,1.7c1.1,1.5,2.1,3.2,3.4,4.5
		c0.2,0.2,2.1-1.4,3.3-2.1C627.1,811.2,625.6,809.8,624.1,808.5z M882.7,847.4c-0.6-0.7-1.2-1.3-1.9-2c-1.4,1-2.9,2-4.3,3
		c1,1.1,1.9,2.2,2.9,3.2C880.5,850.2,881.6,848.8,882.7,847.4z M1029.9,858.3c1.3-1.8,2.9-3.1,2.7-3.9c-0.4-1.3-2-2.2-3-3.3
		c-0.9,1.2-2.3,2.3-2.5,3.5C1027,855.5,1028.6,856.6,1029.9,858.3z"/>
	<path fill="#FFFFFF" d="M2001,582c0,109.7,0,219.3,0,329c-234,0-468,0-702,0c6.6-4,7.8-6.5,4.8-11.1c-0.5,1-0.8,1.9-1.4,2.6
		c-1.4,1.6-2.9,3.1-4.4,4.6c-1.2-1.4-2.8-2.5-3.7-4.1c-7.9-14.6-15.7-29.3-23.4-44c-0.7-1.3-1.4-3.3-0.9-4.4
		c4.8-11,9.8-21.9,14.8-32.8c0.4-0.9,1.2-1.7,1.7-2.6c0.4,0.2,0.8,0.4,1.2,0.5c-0.5,1.4-1.1,2.8-1.6,4.1c-3.5,8.9-7,17.8-10.3,26.8
		c-0.4,1.2-0.1,2.6-0.1,4c0.4,0.1,0.9,0.1,1.3,0.2c0.5-0.8,1.1-1.6,1.4-2.5c3.7-9.3,7.7-18.6,11-28.1c1.5-4.3,4-6,8.2-5.9
		c0.2,15.1-6.7,28-12.8,41.3c1.3,0,2.1-0.2,2.3-0.7c4.1-9.3,11.7-17.1,11.8-28.1c0-3.6,1-7.2,2-10.7c0.4-1.3,1.9-2.3,3-3.4
		c0.4,0.4,0.9,0.7,1.3,1.1c-2.1,8.6-4.1,17.2-6.2,25.7c0.7,0.2,1.3,0.4,2,0.7c2.8-9.1,5.7-18.2,8.5-27.3c0.5,0,0.9,0,1.4,0
		c0.3,1.5,0.5,3,1.1,4.4c1.1,2.6,2,6.9,3.6,7.2c4.7,0.8,9,1.9,13.4,4c3.4,1.6,2.2-3.6,3.1-5.8l-0.1,0.2c-0.5-4.6-1-9.2-1.5-13.8
		c1.2-0.2,3.1-0.6,5.4-1.1c3.5,7.6,7,15.2,10.5,22.7c0.5-0.2,0.9-0.4,1.4-0.6c-0.6-2.3-1.1-4.6-1.7-7c1.8,0,3.3,0,5.9,0
		c-0.9,8.6-1.8,17-2.6,25.4c0.8,0.1,1.6,0.2,2.4,0.3c0.8-5.2,1.7-10.4,2.3-13.9c5.1-3.8,9.2-7.9,15.5-5.1c-2,1.4-3.6,2.5-6.2,4.4
		c2.5,0,3.6,0,4.9,0c-1.4,9.9-2.7,19.8-4.1,29.6c0.6,0.1,1.3,0.2,1.9,0.3c1.3-7.5,2.6-15,4.1-22.4c0.4-1.7,1.4-4.1,2.8-4.6
		c6.1-2.3,12.4-3.9,19-5.9c-2.9,14.3-7.3,27.9-8,42.2c1.1-0.7,1.7-1.6,1.9-2.5c3-12.7,6-25.4,9.1-38c0.3-1.2,1.2-2.9,2.2-3.2
		c6.7-2.1,13.5-4,21-6.1c-4.2,13.8-8.1,26.7-12,39.6c0.4,0.2,0.9,0.4,1.3,0.5c0.9-1.5,2.1-2.8,2.6-4.4c3.3-10,6.7-20,9.6-30.1
		c1.2-4.2,2.6-7.7,7.4-8.7c0.7-0.1,1.2-1.3,2-2.2c-2.1-0.3-3.7-0.5-5.2-0.6c1.3-10.7,4.4-13.6,15.4-15.1
		c-0.4,17.8-10.4,33.8-10.3,51.9c1.5-1.7,2.2-3.6,2.7-5.5c0.8-3,1.2-6.1,2.1-9.1c3.6-12.9,7.6-25.7,10.7-38.7
		c2.6-10.6,2.1-10.7,12.5-9.9c0.3,0,0.5,0.3,0.9,0.5c0.7,4.2,1.4,8.4,2.2,12.6c0.9,4.4,2,8.7,2.9,13c1.8,9,2,9.5,5.4,10.6
		c-2.6-12.2-5.2-24.2-7.7-36.1c0.4-0.4,0.9-0.8,1.3-1.2c2.5,1.3,6.6,2.2,7.2,4.1c3.1,9.7,5.4,19.8,7.9,29.7
		c0.9,3.8,1.6,7.7,2.4,11.6c0.5-0.1,1-0.1,1.5-0.2c0-1.5,0.3-3,0-4.4c-2.9-12.9-6-25.8-9-38.7c-0.4-1.6,0-3.3,0-4.8
		c-1-2.5-2.3-4.9-3-7.4c-1.1-4.1-1.5-8.5-2.8-12.5c-2.5-7.5,2.5-11.3,6.9-16.8c2.6,13.9,5,26.6,7.4,39.3c0.6-0.1,1.3-0.2,1.9-0.3
		c-0.1-1.2-0.1-2.4-0.3-3.5c-2-11.6-4.1-23.2-6-34.8c-1.1-6.6,3.1-10.7,9.7-9.9c2.5,13.2,4.9,26.4,7.4,39.6c0.8-0.2,1.6-0.3,2.4-0.5
		c-4.1-20.7-8.1-41.3-12.3-62.7c-2.5,1.4-3.7,2.2-5,2.9c-0.5-0.1-1-0.2-1.5-0.3c0.5-2.8,0.5-5.9,1.8-8.3c0.8-1.5,3.5-2,5.3-3
		c0.5,1.7,0.9,3.3,1.4,5c0.2,0.8,0.4,1.6,0.6,2.4c2.8,15.2,5.6,30.3,8.4,45.5c1.1,5.6,2.3,11.2,3.5,16.8c0.7-0.1,1.4-0.2,2-0.4
		c-2-13-4-26-6.3-40.3c7.6,7.7,16.8,8.9,25.5,10.5c11.2,2.1,22.4,3.5,33.2,7.6c2.4,0.9,5.2,0.9,7.8,0.7c4.9-0.4,9.8-1.1,14.7-1.9
		c5.5-0.8,11.9-0.8,14.7-6.5c1.7-3.4,3.7-3.2,6.6-3.4c3.3-0.2,7.2-0.6,9.6-2.4c3.9-3,8-4.2,12.7-4.7c5.2-0.6,10.7-1.2,15.3-3.4
		c4.3-2.1,8.3-3.9,13-3.3c2.5,0.3,4-0.1,3.3-3.1c-0.7-3.1,0.9-4.5,3.8-4.3c6.5,0.5,10.6-2.1,14-7.8c2-3.3,5.5-7,10.8-3.3
		c0.6,0.5,3.3-1.2,4.5-2.4c2.1-2.3,3.3-5.5,5.7-7.3c6.9-5.4,15.1-8,23.8-8.9c7.3-0.8,13.7-2.9,17.4-10.2c0.8-1.7,3.2-2.5,4.7-3.8
		c3.8-3.1,8.2-5.9,11.3-9.6c3-3.6,4.1-8.8,7.3-12.2c5.7-6,12.3-11.1,18.6-16.5c0.8-0.6,2.4-0.2,3.7-0.3c-0.6,1.1-1.2,2.2-1.9,3.2
		c-2,2.7-4.4,5.1-5.9,8c-1.9,3.7,1.3,4.7,4,5c4.1,0.4,10.6-5.1,12-9.1c0.5-1.4,2-3.2,3.4-3.5c5.9-1.3,12-2.3,18-3.2
		c3.6-0.6,6.4-1.5,6-6.2c-0.4-4.8-3.9-3.9-6.8-3.8c-1-2.7-2-5.1-2.8-7.2c2.8-0.9,5.7-1.1,7.7-2.6c4.6-3.6,8.7-7.8,13-11.7
		c8.5-7.7,16.1-8.2,26.1-3.2c3.8,1.9,8.9,1.2,13.5,1.3c3.5,0.1,7-0.3,10.5-0.6c4.4-0.3,7.9,3.2,12.5,2.9c3.4-0.2,6.5,0.5,9.5-2.6
		c1.9-2,5.6-3.2,8.3-3.1c4,0.2,7.9,2,11.8,3.2c9.3,2.9,10.2,2.4,14.6-6.4c1-2,2.4-4.3,4.2-5.2c4.3-2.1,8.9-3.5,13.4-4.9
		c1.1-0.4,3-0.1,3.9,0.7c4.7,4.3,5.9,4.3,11,0.7c4-2.9,8.1-5.9,12.4-8.2c7.7-4.2,9.6-4,15.9,1.5c2.4,2.1,3.5,1.3,5-1
		C1996.6,587.4,1998.9,584.8,2001,582z M1717,735.1c0.3-0.6,1-1.2,0.9-1.7c-0.2-2.6,0.4-6.1-1.1-7.4c-1.7-1.7-5.5-2.4-7.8-1.7
		c-1.3,0.4-1.5,4.5-2.2,7c-0.1,0.5,0.1,1,0.1,1.5c-0.4,3,0,6.3,3.3,6.7c2,0.2,4.2-2.2,6.4-3.4C1716.7,735.7,1716.9,735.4,1717,735.1
		z M1864.5,621.2c-6-0.4-11.1,4.3-11.8,11.9c-0.5,5.7,3.7,10,10.5,10.8c4.2,0.5,12.5-3.3,12.2-6.4c-0.3-3.5-2.5-7.1-4.5-10.2
		c-0.8-1.3-3.2-1.6-4.6-2.6C1865.6,624.1,1865.4,623,1864.5,621.2z M1817.1,637.3c-0.2,4.6,2.3,7.5,7,7.7
		c5.7,0.3,12.5-5.4,12.7-10.5c0.1-3.4-5.2-9.3-8.4-9.4C1823.9,624.9,1817.4,632,1817.1,637.3z M1918.5,629.3c2.5-0.4,5.3-0.4,8-1.3
		c2.7-0.9,5-2.6,7.5-4c-2.1-1.8-3.9-4.1-6.3-5.5c-4.8-2.8-13.8-1.5-17.9,2c-3.6,3.1-3.1,6.2,1.5,7.6
		C1913.4,628.9,1915.8,628.9,1918.5,629.3z M1862,738.3c0-4.6-3.9-11.2-6.5-11.3c-3.6-0.1-8.5,6.9-8.5,12.2c0,4.6,2.7,6.9,7.8,6.8
		C1859.4,745.9,1862,743.1,1862,738.3z M1792.5,738.9c4.5,0.1,9.1-4,9.2-8.1c0.1-4-6-11.4-9.5-11.4c-3.4,0-8.1,6.3-8.2,11.2
		C1784,735.7,1787.1,738.8,1792.5,738.9z M1669.6,737.9c5,0,12.1-5.3,12.3-9.1c0.1-3.3-3.2-6.9-6.3-6.9c-3.8,0-11.3,7.6-11.3,11.8
		C1664.3,737,1666.4,738.3,1669.6,737.9z M1899.9,724.8c-0.1-3.3-4.5-6.7-8.6-6.5c-2.5,0.1-5.3,4.9-5.2,8.7c0.1,4,2.7,5.6,6.1,5.8
		C1896.2,733.1,1900,728.9,1899.9,724.8z M1742.9,690.1c-0.8-0.6-2.2-1.8-3.6-2.9c-2.5,3.1-5,6.1-7.3,9.4c-0.1,0.1,2.1,2.7,3.4,2.9
		C1738.6,699.8,1742.9,694.8,1742.9,690.1z M1813.6,760.2c6.1,0,10.8-3.6,10.1-7.2c-0.4-2.2-2.7-4.8-4.8-5.6
		c-2.7-1.1-9.3,6.1-8.5,9.3C1810.7,758.3,1812.9,759.5,1813.6,760.2z M1535.4,763.3c-0.2,6.3,3,10.6,6.7,10.3
		c3.3-0.3,5.5-2.2,5.7-5.7c0.2-3.6-4.3-8-8.3-7.5C1537.8,760.7,1536.3,762.6,1535.4,763.3z M1639.1,760.6c-0.8-0.9-2.2-3.7-4.2-4.4
		c-2.9-1-8.3,4.6-7.6,8c0.4,2,2.7,4.5,4.6,5.1C1635.2,770.5,1639,766.3,1639.1,760.6z M1755.8,677.3c-0.8-0.5-2.3-2.1-3.9-2.2
		c-3.9-0.3-5.3,2.1-4.7,8.5c0.1,1.2,1.7,2.9,2.8,3.1C1752.8,687.2,1755.9,682.7,1755.8,677.3z M1508.4,769c3.6,0.6,5.2-1.6,5.4-5
		c0.3-3.3-3-7.1-5.9-6.8c-3.2,0.4-6.9,0.4-6.9,5.3C1501,766.6,1503.5,769,1508.4,769z M1697.9,706.2c-4.3,0.8-8,5-7.5,9.1
		c0.1,1.3,2.4,3.2,3.8,3.4c3.2,0.5,8-4,7.5-7C1701.4,709.7,1699.3,708,1697.9,706.2z M1839.8,735.6c-3.6-1.8-6.2-0.8-7.5,2.4
		c-0.7,1.7-0.5,3.9-0.2,5.8c0,0.3,2.6,0.7,3.8,0.3C1840,742.8,1840.3,739.4,1839.8,735.6z M1680,755.8c2.5-3,5.5-5.1,5.3-6.8
		c-0.2-2.1-3.1-3.9-4.8-5.9c-2.1,2-4.7,3.8-6,6.2C1674.1,750.2,1677.3,752.8,1680,755.8z M1527.9,755.9c-1.9,2.9-3.8,4.5-3.6,5.8
		c0.3,1.8,2.2,3.4,3.4,5c1.4-1.6,3.6-3,4-4.8C1532,760.7,1529.9,758.9,1527.9,755.9z M1814.4,742.1c-0.5-0.8-1.1-1.7-1.6-2.5
		c-3,6.8-8.8,5.5-14.2,6.6c2.9,1.2,6.1,2.3,8.7,1.5C1810,746.8,1812.1,744,1814.4,742.1z M1488.3,768.2c-1.9-2.2-3.3-3.8-4.6-5.3
		c-1.2,1.4-3.5,2.9-3.3,4.1c0.3,1.6,2.3,3.1,3.9,4C1484.7,771.2,1486.4,769.6,1488.3,768.2z M1838.4,610.1c-1.6,3.1-2.9,4.8-3.2,6.6
		c-0.1,1,1.6,2.2,2.5,3.3c1.3-1.4,3.2-2.6,3.8-4.3C1841.8,614.7,1840.1,613,1838.4,610.1z M1762.3,671.6c-2,2.7-3.7,4.7-5.1,6.9
		c-0.1,0.2,2.2,2.2,2.2,2.2c2-1.8,3.9-3.7,5.6-5.8C1765.1,674.7,1763.6,673.2,1762.3,671.6z M1662.9,744.3c-1.9,2.2-3.6,3.5-4.3,5.2
		c-0.2,0.6,2.8,3.3,3.3,3.1c1.7-0.9,3.1-2.5,4-4.2C1666.2,747.8,1664.4,746.2,1662.9,744.3z M1656.5,736.4c-1.6,2.2-3,3.5-3.2,4.9
		c-0.1,0.7,2.3,2.8,3,2.5c1.7-0.7,3.1-2.3,4.7-3.5C1659.7,739.3,1658.6,738.3,1656.5,736.4z M1910.9,635.6c-2.4,0.7-4.7,1.5-7.1,2.2
		c0.5,1.3,0.8,3.6,1.5,3.7C1908.8,642.3,1910.7,640.4,1910.9,635.6z M1900.1,627.5c-3.5-4.6-6-4.7-8.3-2.3c-0.6,0.6,0.1,2.4,0.2,3.7
		C1894.4,628.5,1896.7,628.1,1900.1,627.5z M1882.4,721.6c-0.2-0.8-0.5-1.6-0.7-2.4c-2.6-1-5.1-0.9-6.8,1.9
		c-0.4,0.7,0.5,2.1,0.9,3.2C1878,723.4,1880.2,722.5,1882.4,721.6z M1706.1,738.1c-1.9-1.3-3.5-3-3.9-2.7c-1.3,0.8-2.5,2.3-2.9,3.7
		c-0.2,0.6,2,2.8,2.4,2.6C1703.1,741,1704.2,739.7,1706.1,738.1z M1717.4,715c-1.5-1.5-2.7-3-2.9-2.9c-1.5,0.9-3.1,2.1-4,3.5
		c-0.3,0.4,1.3,2.1,2,3.2C1713.9,717.8,1715.3,716.7,1717.4,715z M1772,727.6c-0.6-0.6-1.2-1.2-1.8-1.8c-1.1,1-2.6,1.9-3,3.2
		c-0.3,0.8,1.1,2.2,1.8,3.3C1770,730.7,1771,729.2,1772,727.6z"/>
	<path fill="#222222" d="M2001,582c-2.1,2.8-4.4,5.4-6.3,8.3c-1.5,2.3-2.6,3.1-5,1c-6.3-5.5-8.2-5.7-15.9-1.5
		c-4.3,2.4-8.4,5.3-12.4,8.2c-5,3.6-6.2,3.6-11-0.7c-0.8-0.8-2.7-1-3.9-0.7c-4.6,1.4-9.2,2.9-13.4,4.9c-1.8,0.9-3.2,3.3-4.2,5.2
		c-4.5,8.8-5.3,9.3-14.6,6.4c-3.9-1.2-7.8-2.9-11.8-3.2c-2.8-0.2-6.4,1.1-8.3,3.1c-3,3.1-6,2.4-9.5,2.6c-4.6,0.3-8.1-3.2-12.5-2.9
		c-3.5,0.2-7,0.7-10.5,0.6c-4.5-0.1-9.7,0.5-13.5-1.3c-10-5-17.7-4.6-26.1,3.2c-4.3,3.9-8.4,8.1-13,11.7c-1.9,1.5-4.8,1.7-7.7,2.6
		c0.8,2.1,1.8,4.5,2.8,7.2c3-0.1,6.4-1.1,6.8,3.8c0.4,4.6-2.4,5.6-6,6.2c-6,1-12.1,1.9-18,3.2c-1.3,0.3-2.9,2.1-3.4,3.5
		c-1.4,4-7.9,9.5-12,9.1c-2.6-0.2-5.9-1.2-4-5c1.5-2.9,4-5.3,5.9-8c0.7-1,1.3-2.2,1.9-3.2c-1.3,0.1-2.9-0.4-3.7,0.3
		c-6.4,5.3-12.9,10.5-18.6,16.5c-3.2,3.3-4.3,8.6-7.3,12.2c-3.2,3.7-7.5,6.4-11.3,9.6c-1.6,1.3-3.9,2.2-4.7,3.8
		c-3.6,7.3-10,9.4-17.4,10.2c-8.7,1-16.8,3.6-23.8,8.9c-2.4,1.8-3.6,5.1-5.7,7.3c-1.1,1.2-3.8,2.9-4.5,2.4c-5.2-3.6-8.8,0-10.8,3.3
		c-3.4,5.7-7.6,8.3-14,7.8c-2.9-0.2-4.4,1.2-3.8,4.3c0.6,3-0.9,3.4-3.3,3.1c-4.8-0.6-8.7,1.2-13,3.3c-4.6,2.2-10.1,2.8-15.3,3.4
		c-4.7,0.6-8.8,1.7-12.7,4.7c-2.4,1.9-6.3,2.2-9.6,2.4c-2.9,0.2-4.9-0.1-6.6,3.4c-2.9,5.7-9.2,5.7-14.7,6.5
		c-4.9,0.7-9.8,1.5-14.7,1.9c-2.6,0.2-5.5,0.2-7.8-0.7c-10.7-4.1-22-5.5-33.2-7.6c-8.7-1.6-17.9-2.8-25.5-10.5
		c2.2,14.2,4.2,27.2,6.3,40.3c-0.7,0.1-1.4,0.2-2,0.4c-1.2-5.6-2.4-11.2-3.5-16.8c-2.9-15.1-5.6-30.3-8.4-45.5
		c-0.1-0.8-0.3-1.6-0.6-2.4c-0.4-1.7-0.9-3.3-1.4-5c-1.8,1-4.5,1.5-5.3,3c-1.2,2.4-1.2,5.5-1.8,8.3c0.5,0.1,1,0.2,1.5,0.3
		c1.2-0.7,2.5-1.5,5-2.9c4.2,21.3,8.3,42,12.3,62.7c-0.8,0.2-1.6,0.3-2.4,0.5c-2.5-13.2-4.9-26.4-7.4-39.6
		c-6.6-0.8-10.8,3.3-9.7,9.9c1.9,11.6,4,23.2,6,34.8c0.2,1.2,0.2,2.3,0.3,3.5c-0.6,0.1-1.3,0.2-1.9,0.3c-2.4-12.7-4.8-25.4-7.4-39.3
		c-4.4,5.5-9.4,9.4-6.9,16.8c1.4,4,1.7,8.4,2.8,12.5c0.7,2.5,1.9,4.9,3,7.4c0,1.5-0.3,3.2,0,4.8c2.9,12.9,6,25.8,9,38.7
		c0.3,1.4,0,3,0,4.4c-0.5,0.1-1,0.1-1.5,0.2c-0.8-3.9-1.4-7.8-2.4-11.6c-2.5-10-4.7-20-7.9-29.7c-0.6-1.9-4.7-2.8-7.2-4.1
		c-0.4,0.4-0.9,0.8-1.3,1.2c2.6,11.9,5.1,23.8,7.7,36.1c-3.4-1.1-3.6-1.6-5.4-10.6c-0.9-4.4-2.1-8.7-2.9-13
		c-0.8-4.2-1.5-8.5-2.2-12.6c-0.3-0.2-0.6-0.4-0.9-0.5c-10.4-0.8-10-0.7-12.5,9.9c-3.1,13-7.1,25.8-10.7,38.7
		c-0.8,3-1.3,6.1-2.1,9.1c-0.5,1.9-1.2,3.8-2.7,5.5c-0.1-18.1,9.9-34.1,10.3-51.9c-11,1.4-14.1,4.3-15.4,15.1
		c1.5,0.2,3.1,0.4,5.2,0.6c-0.8,1-1.3,2.1-2,2.2c-4.8,1-6.2,4.5-7.4,8.7c-2.9,10.1-6.3,20.1-9.6,30.1c-0.5,1.6-1.7,2.9-2.6,4.4
		c-0.4-0.2-0.9-0.4-1.3-0.5c3.9-12.9,7.8-25.9,12-39.6c-7.5,2.2-14.3,4-21,6.1c-1,0.3-2,2-2.2,3.2c-3.1,12.7-6.1,25.4-9.1,38
		c-0.2,0.9-0.8,1.8-1.9,2.5c0.6-14.3,5-28,8-42.2c-6.6,2-12.9,3.7-19,5.9c-1.3,0.5-2.4,2.9-2.8,4.6c-1.5,7.4-2.8,14.9-4.1,22.4
		c-0.6-0.1-1.3-0.2-1.9-0.3c1.4-9.8,2.7-19.7,4.1-29.6c-1.3,0-2.4,0-4.9,0c2.7-1.9,4.3-3,6.2-4.4c-6.3-2.8-10.4,1.3-15.5,5.1
		c-0.6,3.5-1.4,8.7-2.3,13.9c-0.8-0.1-1.6-0.2-2.4-0.3c0.9-8.4,1.7-16.8,2.6-25.4c-2.6,0-4.1,0-5.9,0c0.6,2.4,1.2,4.7,1.7,7
		c-0.5,0.2-0.9,0.4-1.4,0.6c-3.5-7.6-7-15.1-10.5-22.7c-2.3,0.5-4.2,0.8-5.4,1.1c0.5,4.6,1,9.2,1.5,13.8c0-7.5-5.6-11.6-11.5-8.7
		c2,2.6,3.9,5.2,5.9,7.9c0.9,1.2,1.7,2.5,2.6,3.8c1-1.1,2.1-2.1,3.1-3.2c-0.9,2.1,0.3,7.4-3.1,5.8c-4.5-2.1-8.7-3.2-13.4-4
		c-1.6-0.3-2.5-4.6-3.6-7.2c-0.6-1.4-0.7-2.9-1.1-4.4c-0.5,0-0.9,0-1.4,0c-2.8,9.1-5.7,18.2-8.5,27.3c-0.7-0.2-1.3-0.4-2-0.7
		c2.1-8.6,4.1-17.2,6.2-25.7c-0.4-0.4-0.9-0.7-1.3-1.1c-1,1.1-2.6,2.1-3,3.4c-1,3.5-2,7.1-2,10.7c0,11.1-7.7,18.8-11.8,28.1
		c-0.2,0.5-1,0.7-2.3,0.7c6.1-13.2,13.1-26.1,12.8-41.3c-4.3-0.1-6.7,1.6-8.2,5.9c-3.3,9.5-7.3,18.8-11,28.1
		c-0.3,0.9-0.9,1.6-1.4,2.5c-0.4-0.1-0.9-0.1-1.3-0.2c0-1.3-0.4-2.8,0.1-4c3.3-9,6.8-17.9,10.3-26.8c0.5-1.4,1.1-2.8,1.6-4.1
		c-0.4-0.2-0.8-0.4-1.2-0.5c-0.6,0.9-1.3,1.6-1.7,2.6c-5,10.9-10,21.8-14.8,32.8c-0.5,1.2,0.2,3.1,0.9,4.4
		c7.7,14.7,15.5,29.4,23.4,44c0.8,1.6,2.4,2.7,3.7,4.1c1.5-1.5,3-3,4.4-4.6c0.6-0.7,0.9-1.6,1.4-2.6c3,4.6,1.8,7-4.8,11.1
		c-1,0-2,0-3,0c-4.2-6-8-12.1-16-14.4c-3.8-1.1-3.6-6.4-1.5-10.1c1.4-2.6,1.5-4.7,0.1-7.3c-1.9-3.3-3.3-6.8-4.9-10.2
		c-1.8-3.8-4.2-6.4-8.9-6.7c-4.6-0.2-8.5-2.2-9.6-7.2c-0.9-3.8,2.4-9.5,6.8-11.9c2-1.1,4.4-2.3,6.5-2.1c4.6,0.6,6.1-2.1,7.5-5.4
		c2.2-5.3,4.4-10.6,6.9-16.9c-7.9-1.1-15.1-2.3-22.5-3c-5.5-0.5-10.3-0.8-14.6-5.5c-3.4-3.6-9.1-2.2-13.3,0.3
		c-3.3,2-6.2,1.7-9.8,1.5c-15.8-0.9-30.8,1.2-41.5,14.7c-0.6,0.6-1.3,1.3-1.9,1.9c-6,4.2-12.2,8.2-18.1,12.7c-3,2.3-5.8,3.7-9.8,3.6
		c-4.2-0.1-8.7,0.5-12.6,2.1c-12.6,4.9-25,3-37.6,0.5c-4.6-0.9-9.3-2.1-13.9-1.7c-9.9,0.8-19.7,2.4-29.5,3.8c-1.1,0.2-2.3,0.5-3.3,1
		c-5.5,3.4-10.6,4.1-15.4-1.5c-1-1.1-3.3-1.4-5.1-1.5c-7.4-0.5-14.9-0.4-22.4-1.1c-5.5-0.5-10.9-2.2-16.5-2.9
		c-3.7-0.5-7.4-0.1-11.2-0.1c-8.9,0.1-17.8,0-26.7,0.2c-9.6,0.2-20-1.4-28.7,1.6c-8.3,2.9-13.1,0.7-19.4-3.1
		c-2.6-1.5-7,0.4-10.7,0.5c-6.4,0-12.8-0.3-19.2-0.2c-4,0.1-8.5-0.2-11.9,1.4c-7.9,3.7-15.4,3.8-23.5,1.1
		c-9.3-3.2-18.8-6.1-28.4-8.5c-5.2-1.3-10.8-1.2-16.3-1.7c-0.2,0-0.4-0.1-0.5,0c-5.4,4.7-9.8,0.7-14.5-1.6c-5-2.4-10.3-4-15.3-6.4
		c-3.3-1.6-6.2-2.9-9.7-0.8c-3.8,2.3-6.4,0.9-9.1-2.6c-1.7-2.3-5.2-3.3-8-4.6c-2.4-1.2-5-2.1-7.5-3.1c-4.2-1.7-8.3-3.6-12.6-4.9
		c-8.7-2.7-17.7-3-26.8-3.2c-6.4-0.1-12.6-0.1-18.1,3.1c-7.2,4.2-13.8,3.9-20.5-0.7c-4.9-3.3-9.8-3.5-15.6-2
		c-3.6,0.9-8.1,0-11.8-1.3c-6.3-2.2-12.3-5.6-18.5-8c-4.3-1.7-8.6-1.8-11.9,2.5c-0.6,0.8-2.9,0.7-4.2,0.3
		c-6.6-2.4-12.8-5.8-19.6-7.4c-6.5-1.6-11-4.7-14.2-10.5c-6.1-11.2-14.3-20.6-24.7-28c-1-0.7-2-1.7-2.6-2.8
		c-5.5-9.4-12.6-16.9-22.2-22.7c-4.6-2.8-8.1-5.1-13.2-3.3c-1,0.4-2.2,0.9-2.8,1.7c-8.1,9.3-16.1,18.5-24,28
		c-1.1,1.4-0.9,3.8-1.4,6.1c9.2-1.3,9.3-1.3,7.1,7.6c-1.7,6.9-5.7,11.8-12.3,14.5c-3.3,1.4-6.5,3.2-9.9,4.4
		c-2.1,0.7-4.6,0.9-6.9,0.6c-6.4-0.9-7-2.4-3.1-7.7c0.9-1.2,1.9-2.5,2.1-3.9c0.7-4.9,2.4-8.6,7.9-9.7c1-0.2,2.2-2.8,2.2-4.3
		c-0.1-5,1.9-8.5,5.5-12.1c7.8-7.8,14.9-16.5,22.4-24.9c-6.9-5.5-14.3-8.5-23.2-9.6c-7.8-1-15.7-4.2-22.7-8
		c-9.4-5.1-17.8-5.8-27.5-0.9c-5.2,2.6-11.8,2.7-17.5,4.4c-1.8,0.6-4,2.8-4.5,4.6c-2.9,11.7-7.6,15.9-19.5,16.2
		c-10.5,0.3-17.8,6.1-23.9,13.9c-2.5,3.3-4.6,7.1-7.7,9.7c-4.1,3.3-8,7.5-14,7.5c-0.2,0-0.4-0.1-0.5,0c-6.9,5.1-15.4,1.1-22.7,3.9
		c-1.2,0.5-2.9,0.6-3.6,1.5c-4.7,6-11,5.5-17.5,5.1c-2.5-0.1-5.1,0.5-7.4,1.3c-3.7,1.3-7.2,3.2-10.8,4.7c-0.7,0.3-2,0.4-2.3,0
		c-2.9-3.8-6.1-1.2-9.4-1c-5,0.2-10.1-1.1-15.2-1.5c-2.7-0.2-5.5-0.4-8.2,0.1c-6.4,1.2-12.4,0.1-18.4-2.4
		c-6.9-2.8-13.8-4.7-20.9-0.3c-1.1,0.7-2.9,0.6-4.3,0.4c-6.8-1.1-13.5-2.4-20.3-3.5c-1-0.2-2.2,0.5-3.1,1.1
		c-3.7,2.6-6.2,1.4-8.1-2.2c-3.6-6.7-7.3-13.3-10.7-20c-1.7-3.3-3.1-6.2-7.7-5.3c-2.7,0.5-4.5-0.9-3.7-3.7c1.5-5.2-2.1-7.3-5.5-9.1
		c-5.2-2.9-12.1-2.5-16.2-7.9c-0.1-0.1-0.3-0.2-0.5-0.1c-7.4,1.7-11.7-4.1-17.2-7c-2.6-1.4-6.5-1.5-9.5-0.7
		c-3.5,0.8-4.8,0.6-5.4-3.1c-1.3-7.4-9.5-12.6-17.1-11.5c-1.3,0.2-3.4-0.8-4.2-2c-3.1-4.5-6.5-7.9-12.5-7.7c-0.9,0-2.4-0.2-2.7-0.8
		c-2.5-5.1-7.1-5-11.7-5.8c-1.8-0.3-4-2.2-4.7-3.9c-1.8-4.5-4.7-7.1-9.2-8.7c-4.2-1.5-8-3.8-12-5.8c0-1.3,0-2.7,0-4
		c6.4,3.1,12.9,5.8,19.1,9.3c2.2,1.3,3.1,4.5,4.9,6.6c1.1,1.3,2.7,2.3,4.3,3.1c3.6,1.8,7.3,3.4,10.9,5.1c0.9,0.4,1.6,1.7,2.4,1.6
		c5.9-0.4,9.4,3.4,13,7.2c1,1.1,2.9,2,4.3,2c8.7-0.2,13.5,5.3,18,11.5c0.9,1.2,2.8,2.6,4,2.5c6.4-0.7,11,2.6,15.8,6.1
		c2,1.5,4.9,1.7,7.5,2.5c1.9,0.5,3.9,0.7,5.6,1.5c3.9,1.8,7.7,4.1,11.6,5.9c5.7,2.6,11.1,5.3,11.2,13.2c6.5-0.3,8.4,4.7,11.1,9.5
		c3,5.2,7.2,9.7,11,14.7c5.3-3,10.1-2.6,15.3-0.3c7.2,3.1,14.7,2.8,22.3,1c3-0.7,6.4,0.3,9.6,0.7c8.1,1.1,15.1,6.9,23.8,5.5
		c8.2-1.3,16.4-1.9,24.5,0.8c1.5,0.5,3.5-0.6,5.3-0.8c6.7-0.7,13.4-0.6,19.6-4.3c2.2-1.3,5.8-0.3,8.7-0.5c2.3-0.2,5.5,0.3,6.8-1.1
		c5.9-6.2,13.7-4.8,20.8-6.2c2.8-0.6,5.6-1.5,8.4-2.4c2.5-0.8,4.9-2.3,7.4-2.4c3.6-0.2,5.9-1.4,6.9-4.5c-1.2-0.8-2.3-1.5-3.3-2.2
		c1.3-1.4,2.7-4,3.9-3.9c5.7,0.3,8.6-3.7,11.1-7.2c4.9-6.8,12-9.1,19.5-10.3c9.1-1.4,15.6-5,18.4-14.6c1.9-6.7,6.2-7.7,13.3-7.1
		c3.7,0.3,8-1.4,11.5-3.3c8.2-4.5,16.5-5.6,25.2-2c4.7,1.9,9.1,4.8,13.9,6.4c6.8,2.2,13.9,3.5,20.8,5.6c4.5,1.3,9,2.9,13.1,5.2
		c2.8,1.6,4.7,2,6.8-0.5c4.3-5,8.4-10.2,13-15c5.6-5.9,11.3-11.8,17.7-16.7c1.7-1.3,6.3-0.1,8.9,1.3c1.2,0.6,1.7,5.2,0.7,6.7
		c-3.4,5.2-7.4,10.1-11.7,14.6c-3.8,4.1-8.3,7.5-12.7,11.3c13.6,5.1,23.7,13.7,31,25.8c2,3.4,4.6,6.6,7.6,9.1
		c8.7,7.4,16.2,15.7,20.9,26.2c2.4,5.3,7.1,6.4,11.9,7.8c4.7,1.4,9.3,3.2,14,4.4c2.7,0.6,5.6,0.4,8.3,0.4c4.1,0.1,8.4-0.9,12.1,0.2
		c6.3,1.9,12.3,4.8,18,8c4,2.2,7.8,2.8,11.9,1.4c5.9-2,11.3-1.2,16.5,2.4c5.8,3.9,11.3,3.4,18.1,0.8c7.1-2.8,15.3-2.7,23.1-3.6
		c2.5-0.3,5-0.2,7.5,0.2c3.7,0.5,7.4,1.4,11,2.1c3.5,0.6,7.2,0.8,10.6,1.9c2.9,0.9,5.4,2.8,8.1,4.4c1.1,0.7,2.1,2.2,3.2,2.2
		c6.4,0.2,11.7,1.9,15.2,7.8c0.3,0.5,2.8,0.1,4.1-0.4c4.4-1.6,8.1-0.9,12.1,1.8c3.5,2.3,7.7,3.6,11.7,5.1c5.7,2.1,11.3,3,17.7,2.4
		c11.3-1.1,22.2,2.6,32.8,6.2c5.3,1.8,10.6,3.6,15.9,5.4c5.4,1.9,10.4,0.8,15.2-1.7c5-2.6,10-3.1,15.7-2.5c7.6,0.8,15.4-0.3,23-0.3
		c3.3,0,7.1,0.3,9.7,1.9c4.5,2.9,8.1,4.1,13.7,2c5.3-2,11.7-1.2,17.6-1.3c9.4-0.2,18.8,0,28.3-0.1c3.3,0,6.6-0.4,9.8-1
		c6-1.3,11.7-1.6,17.3,1.7c1.5,0.9,3.5,1.1,5.2,1.2c9.1,0.4,18.3,0.4,27.4,1.3c3.9,0.4,7.6,2.7,11.4,4c1.6,0.6,3.8,1.9,4.7,1.3
		c8.6-5.2,18.4-3.8,27.6-5.4c2.9-0.5,5.9-1.5,8.8-1.4c5.7,0.1,11.5,0.3,17,1.4c12.1,2.4,23.9,4.6,36-0.1c4.5-1.7,9.8-1.2,14.4-2.6
		c4-1.3,7.8-3.7,11.4-6c4.3-2.7,8.4-5.8,12.5-8.8c0.8-0.6,1.8-1.1,2.3-1.8c8-10.5,19.8-13.2,31.7-15.4c4-0.7,8.2-0.3,12.3-0.1
		c3.1,0.1,5.7,0.5,8.9-1.4c6.7-3.9,13.8-2.4,19.4,2.6c1.3,1.2,3.5,1.5,5.4,1.7c7.7,1,15.4,1.7,23.1,2.8c3.5,0.5,5.9,0.4,7.4-3.6
		c4.4-11.8,9.4-23.3,13.9-35c1.4-3.6,1.5-7.7,2.2-11.6c-1.9-0.6-4.3-1.4-7.8-2.5c-6.8,2.7-12.4,0.9-13.7-5.7
		c-0.9-4.5,0.7-8.7,4.6-10.7c3.6-1.9,8-2.9,12-3c1.5,0,3.5,3.3,4.5,5.4c1.5,3.3,4.2,3.4,7,3.2c7.4-0.4,14.9-1.8,22.2-1.1
		c4.4,0.4,8.4,4,12.6,6.4c5.6,3.2,11.1,6.5,16.7,9.6c0.7,0.4,2.1,0,3-0.4c21.4-10.2,43.8-17.6,66.1-25.1c8.5-2.9,16.2-7.9,24.5-11.3
		c5-2,10.4-2.8,15.7-4.1c2.9-0.7,4.2-2.5,4.8-5.6c0.9-5.1,5.8-9.3,10-8.4c1.6,0.3,4.2,3.3,3.9,4.2c-1.7,4.5-0.2,8.4,0.9,12.5
		c1.1,4.1,2.1,8.3,2.8,11.1c4.3,2.6,7.4,5,10.9,6.3c5.2,1.9,10.7,3.4,16.2,4.5c10.8,2.1,21.9,2.6,32.3,7.1c3,1.3,7.1,0.4,10.6,0.2
		c4.4-0.2,8.9-0.8,13.3-1.3c4.9-0.6,9.8-0.9,12.3-6.5c0.6-1.4,3.6-2.5,5.4-2.4c5.2,0.4,9.9-0.2,13.8-4.1c1.1-1.1,2.9-1.6,4.5-2
		c6.2-1.4,12.5-2.5,18.6-4.1c5-1.3,9.9-3.3,14.8-5.1c0.5-0.2,1-0.9,1.2-1.5c1.6-4.7,5.5-5.5,9.6-5.3c4,0.2,6.4-1.2,8.6-4.5
		c4.3-6.7,9-8.5,15.7-6.7c1.2-10,9.2-13.1,17-15.7c6.4-2.1,13.4-2.2,19.8-4.3c3.6-1.2,6.5-4.5,9.7-6.9c2.2-1.7,4-3.8,6.3-5.1
		c3.3-1.8,5.2-3.8,7-7.5c3.3-6.9,7.1-14,14.1-18.6c4.5-3,8.3-7.1,12.6-10.5c4-3.1,8.3-5.9,13.2-9.4c-1.2-7.2-2.5-15.2-3.8-23.3
		c-0.4-2.6-0.4-5.3-1-7.9c-2.2-8.7-4.8-17.2-6.7-26c-0.6-2.4,0.5-5.2,0.7-7.8c0.2-2.1,0.6-4.3,0.3-6.4c-3.9-21.9-7.5-43.8-12-65.6
		c-7.3-34.9-15.2-69.8-22.7-104.6c-7.1-32.9-14-65.9-21.1-98.8c-7.2-33.4-14.6-66.8-21.8-100.2c-0.6-2.6-1-5.2-2.7-7.6
		c-1.4,7.9-1.8,16-4.3,23.5c-5.8,17.5-12.6,34.7-18.9,52c-2.8,7.7-5,15.7-8.6,23.1c-4.4,9-9.8,17.6-15.2,26.2
		c-4,6.5-12.8,6.4-17.6,0.2c-1.5-1.9-4.1-3.3-4.7-5.4c-0.7-2.7-0.9-6.5,0.5-8.6c1.2-1.8,5-2,7.6-2.9c-2.8,5.6,3.4,7.2,4.5,11.3
		c6.3-4.8,7-11.5,8.1-18c0.3-1.8-0.7-5.3-1.7-5.5c-2.2-0.6-4.8,0.5-8.1,0.9c8.8,10.7,8.8,12,2.1,16.1c-1.8-1.7-3.4-3.2-5-4.8
		c-2.3-6.2,4.2-3,5.8-5.6c-0.8-0.7-2.1-1.2-2.4-2.1c-0.5-1.5-1-3.9-0.2-4.8c4.5-4.8,8.7-10.8,14.3-13.6
		c12.8-6.5,16.8-18.3,21.1-30.3c3.6-10.1,6.9-20.2,10.2-30.4c0.5-1.4,0.4-3.2-0.1-4.6c-1.3-4.4-3.3-8.7-4.4-13.1
		c-1.2-4.7-3.5-7.6-8.5-8.3c-2.2-0.3-4.4-1.2-6.7-1.8c-0.3,1.2-0.6,2.3-0.9,3.5c-0.7-0.4-1.4-0.5-1.4-0.8c-0.4-3.5-5.7-6.4-2.2-10.2
		c3.3-3.6,6.1,1.6,9.3,1.5c0.2,0,0.3,0,0.5,0c8,0.8,13.6,4.3,14.8,12.9c0.3,2.4,1.7,4.6,3,6.8c1-9.5,4.2-18.7,1.7-28.5
		c-0.6-2.5-0.1-5.3,0-8c0.1-4.9-3-8.2-6-11.4c-3.2-3.5-6.3-2.5-8.3,2.3c-0.5-2.7-0.9-4.7-1.5-7.8c3.8,0.9,7.4,1.8,10.8,2.7
		c-1-4.9-5.1-6.2-15.4-5c2.2-1.3,4.5-2.6,6.6-3.7c-0.5-1.5-1-3.1-1.7-5c4.2,3.9,8.1,7.5,11.9,11.2c0.9-1,1.4-1.3,1.3-1.5
		c-1.6-5.7-0.9-10.7,3.3-15.4c0.9-1-0.9-4.4-1.4-6.2c-14,3.8-27.4,7.5-40.8,11.1c-0.2-0.4-0.4-0.9-0.6-1.3c1.2-0.9,2.3-1.8,3.5-2.7
		c6.9-4.6,15-8.1,20.3-14.1c5.8-6.5,12.4-10,20.1-12.7c2.2-0.8,4.5-1.5,8-2.6c-6-2.2-10.8-4-15.5-5.8c0.1-0.6,0.3-1.2,0.4-1.9
		c1.9-0.2,3.7-0.4,5.6-0.6c3.3-0.4,7,0,9.7-1.5c3.4-1.9,6.6-1.5,8.6,0.5c1.6,1.6,1.8,5.2,1.6,7.8c-0.3,3.4-2,6.6-2.5,10
		c-0.7,5.4-3.8,8.4-8.4,10.9c-2.1,1.2-3.2,4-5.3,6.8c5.9,1.1,6.3,4.1,6.6,8.4c0.5,7.3,2.4,14.6,3.9,21.8
		c6.2,29.3,12.5,58.6,18.9,87.9c5.8,26.7,11.7,53.3,17.5,80c7.5,34.9,15,69.8,22.5,104.7c6.5,30.1,13,60.1,19.4,90.2
		c5.7,27,11,54.1,16.7,81.2c1.9,9.2,4.6,18.2,6.9,27c4.7,1.3,7.5-0.6,10.6-3.3c5.5-4.8,11.2-9.5,17.4-13.1
		c7.7-4.4,15.9-5.6,23.6,0.7c4.3,3.5,9.2,1.8,13.7,0.6c5.8-1.5,11.2-1.6,17,0.4c3.2,1.1,7.1,0.7,10.6,0.7c0.8,0,2-1.4,2.1-2.3
		c0.5-4,3.5-4.4,6.2-4c5.8,1,11.4,2.8,17.2,3.8c1.7,0.3,4.6-0.4,5.3-1.6c5.1-9,13.3-13.2,22.9-15.8c4.1-1.1,7-0.4,9,2.8
		c2.4,3.8,4,2.7,7,0.4c8.4-6.3,17.3-11.6,28.6-9c1.2,0.3,2.9-0.8,4.2-1.6c2.6-1.6,5.1-3.5,7.6-5.3C2001,578.7,2001,580.3,2001,582z
		 M1455.6,753.7c-7.7,0.5-10.2,2.3-10,6.8c2-0.2,4-0.4,6.4-0.7c-1.4,5.7-10.2,2-9.7,9.2c5.7-1,10.7-2.3,11.2-9.4
		C1453.7,757.7,1454.9,755.7,1455.6,753.7c0.5-2.4,0.9-4.9,1.6-8.1c-4,1.9-7.1,3.4-11.3,5.4C1450,752.6,1454.1,748.4,1455.6,753.7z
		 M1464.1,731c-5.3-1.9-17.4,2.6-19.3,7.7c6.8-2.7,13.1-5.3,19.4-7.8c-0.6,1.3-0.8,3.3-1.8,3.9c-2.4,1.4-5.1,2.4-7.8,2.9
		c-5.1,0.9-6.8,4.3-7.3,9.3c5.6-2.3,10.9-4.3,16.1-6.7C1467.1,738.5,1467.3,733.5,1464.1,731z M1775.3,531.7
		c-28.8-133.7-57.6-267.2-86.4-400.9c-3.6,1.1-7.7,0.5-8.1,5.1c2.4,2,4.6,3.9,6.9,5.7c3.5,2.6,4.4,6.5,2.3,10.5c-0.5,1-1.7,2-1.6,3
		c0.2,6.8,0,13.7,1.3,20.2c3.1,15.8,6.9,31.4,10.4,47.2c6.4,29.4,12.7,58.8,19,88.3c5.3,24.6,10.5,49.2,16,73.7
		c4.8,21.5,10.1,43,14.7,64.5c5.5,25.6,10.6,51.4,16,77.1C1767.1,533.2,1767.3,533.2,1775.3,531.7z M1793,643.3
		c0.2,0.5,0.3,0.9,0.5,1.4c2.9-1,6.5-1.4,8.4-3.3c1.2-1.2,0-5.2-0.8-7.6c-0.8-2.1-3.3-3.6-3.9-5.7c-2.9-10.3-5.8-20.7-8-31.1
		c-3.9-18.5-7.3-37.2-10.9-55.8c-0.5-2.5-0.9-4.9-1.2-6.8c-3.8,0.2-6.7,0.4-10.2,0.5c0.5,4.8,0.7,9.9,1.6,14.9
		c1.5,8.4,1.8,17,5.9,25.1c2.7,5.5,3.3,12,4.8,18.1c0.2,0.7,0.2,1.5,0.1,2.2c-0.2,2-0.8,4-0.6,5.9c0.6,5.7,1.4,11.4,2.3,17.1
		c1.3,8.5,2.6,17.1,3.9,25.6c1-3.7,2.7-7.1,7.4-7.2c-0.5-2.9-1.1-5.3-1.3-7.8c-0.1-0.8,0.7-2,1.3-2.3c0.6-0.2,2,0.4,2.4,1
		c2.1,3.9,4,7.9,6,11.9c0.1,0.2-0.3,0.7-0.7,1.6c-0.5-1.4-0.8-2.2-1.1-3C1796.8,640,1794.9,641.7,1793,643.3z M1658.7,265.9
		c0.8,0.1,1.6,0.3,2.4,0.4c16.5-34.5,28.9-69.9,24.9-109.4c-1,0.6-2,1.4-2.1,2.3c-0.3,2.1-0.2,4.3-0.2,6.5c0.3,13.9-0.7,27.8-5,41
		c-6,18.1-12.9,36-19.3,54C1659,262.3,1659,264.1,1658.7,265.9z M462.2,755.6c-3.2,3.7-3.5,4.6-2.6,10c0.9,6.1-3.4,10.5-8.8,9.3
		c-1.7,3.9-3.3,7.7-4.9,11.5c9,1.8,9.9,1.3,13.3-6.5c1.4-3.1,2.4-7,7.4-7.3c0,2.8,0,5.4,0,9.7c3.3-4.8,5.7-8.5,8.4-12.4
		c-6.6-2.1-7.8-6.4-7.9-11C465.3,757.7,463.7,756.6,462.2,755.6z M1289.9,810.7c0.4,0.2,0.8,0.3,1.1,0.5c0.4-0.6,0.8-1.1,1.3-1.7
		c2.9-3.7,5.3-7.9,8.8-11c2.9-2.6,5.1-5.1,6.1-9c0.7-2.8,2.4-7.1,4.4-7.5c5.4-1.2,5.1-5,6-9c-3.9,0-7.6-0.4-11.1,0.2
		c-1.6,0.3-3.6,2.1-4.2,3.7c-3.9,9.6-7.4,19.4-11,29.1C1290.7,807.6,1290.3,809.2,1289.9,810.7z M1632.3,310.6
		c6.8-2.3,25.5-36.6,24.1-44.9c-9,1.1-13.3,8.3-19.2,13.6C1644.9,286.1,1643.1,296.9,1632.3,310.6z M1334.8,809.2
		c-2.8-6.9-4.8-11.9-7-17.2c-4.8,2.6-10,3.9-12.8,7.3c-2.8,3.4-3.1,8.9-4.5,13.4c0.4,0.3,0.9,0.6,1.3,0.9c1.5-0.8,2.9-1.8,4.4-2.3
		c2.6-0.9,5.2-1.8,7.9-2.1C1327.3,808.9,1330.4,809.2,1334.8,809.2z M1319.6,769.9c1.7-5.3,3.3-10.5,5-16c-5,0-9.5,0-14.1,0
		c-2,5.4-3.8,10.5-5.9,16C1310.1,769.9,1314.8,769.9,1319.6,769.9z M1327.3,754.3c-2,9.5,4.4,15.7,7.2,22.6c1.1,2.8,6.4,3.8,9.8,5.6
		c0.3-0.5,0.7-1,1-1.5C1340.2,772,1340.6,759.6,1327.3,754.3z M1341.5,762.9c2.8,7.3,5,14.1,8,20.3c0.9,1.9,4.4,2.5,6.7,3.7
		c0.6-1.8,1.6-3.5,1.9-5.4c0.3-2.6,0.3-5.3-0.1-7.9c-0.2-1.3-1.2-3-2.3-3.6C1351.3,767.6,1346.6,765.5,1341.5,762.9z M1373.5,810.1
		c-0.4-0.6-0.8-1.2-1.1-1.8c-3.7,1.4-7.9,2.1-10.9,4.4c-2.3,1.8-3.7,5.4-4.5,8.4c-1,3.7-1,7.6-1.5,11.8c4.1-1.8,7.2-3.6,10.5-4.4
		c4.4-1.1,4.7-3.6,3.9-7c-2.7,0.5-5.1,1-7.5,1.5c-0.2-0.5-0.4-1-0.5-1.5c3.4-1.7,6.8-3.5,10.2-5.2c-0.2-0.3-0.4-0.7-0.5-1
		c-2.1,0.2-4.2,0.3-6.3,0.5c-0.1-0.3-0.2-0.7-0.2-1C1367.8,813.2,1370.7,811.7,1373.5,810.1z M1354.2,806.8c-1.8-4.8-4.1-9.1-5-13.7
		c-1.4-7.1-6.5-8.3-13-10.1c2.5,6.5,5.1,12.1,6.8,17.8C1344.7,806.7,1348.8,806.9,1354.2,806.8z M464.4,753.5c0.5,0.7,1,1.4,1.5,2.1
		c1.7-0.9,3.7-1.5,4.9-2.9c12.1-13.8,24.1-27.8,36.1-41.8c0.5-0.6,0.4-1.8,0.5-2.7c-0.3-0.1-0.7-0.2-1-0.2
		C492.4,723.1,478.4,738.3,464.4,753.5z M1320.7,774.9c-0.9,2.9-1.6,4.3-1.7,5.8c-0.6,5.2-2.6,9.8-6.7,12.8
		c-6.8,4.9-7.5,12.2-9.2,19.3c4,1.4,4.4-1.4,5-3.8c1.9-8.1,5-15.1,14-17.5c1.5-0.4,2.8-1.4,4.3-2.2
		C1324.6,784.7,1322.9,780.5,1320.7,774.9z M1464.2,761c1.3-1.4,2.4-2.8,3.7-4c3.9-3.6,5.5-7.8,3.1-12.9c-2.1-4.6-0.9-8.3,2.3-11.8
		c1.3-1.5,2.4-3.1,3.6-4.7c-4.1-2.3-8.3-0.5-7.7,3.7c1,7.4-1.9,11.6-8.7,13.6c-0.1,0-0.1,0.3-0.4,1
		C1468.4,748.8,1460.1,756.3,1464.2,761z M1445.1,741.5c-11.1,4.3-21.4,8.2-31.6,12.5c-1.1,0.5-1.4,2.9-2.1,4.4
		c10.5-2.4,19.8-5.9,29.2-8.9C1444.4,748.2,1444.8,745.5,1445.1,741.5z M1377.4,789.7c-0.2-0.5-0.5-1.1-0.7-1.6
		c-3.6,0.6-7.2,1.3-11.8,2.1c4.2-5,12.3-2.2,13.3-9.6c-3.7,0.5-6.8,0.8-9.8,1.3c-3.4,0.5-5.9,1.6-5.5,5.9c0.4,3.8,0.1,7.6,0.1,11.8
		c4.5-1.3,8.8-2.5,13-3.7c-0.1-0.3-0.3-0.6-0.4-1c-3.4,0.7-6.8,1.4-10.1,2c-0.1-0.6-0.3-1.2-0.4-1.7
		C1369.1,793.4,1373.3,791.5,1377.4,789.7z M1408.4,772.2c0.3,0.2,0.7,0.5,1,0.7c9.6-3.1,19.2-6,28.6-9.4c1.8-0.6,2.9-2.9,4.4-4.5
		c-0.4-0.4-0.7-0.7-1.1-1.1c-10.1,3.4-20.2,6.6-30.2,10.2C1409.9,768.6,1409.3,770.8,1408.4,772.2z M1396.6,812.2
		c-6.3,2.1-12.4,4.3-18.7,6c-4.3,1.2-5,3.9-4.5,7.9c3.1-1.1,5.9-2.1,8.8-3c3-0.9,6-1.6,9-2.5
		C1394.9,819.4,1397.4,817.3,1396.6,812.2z M1484.5,741c-0.4-2.5-0.9-5.3-1.4-8.1c-0.4-1.9-1-3.7-1.5-5.7
		c-9.2,7.6-10.5,11.5-6.7,19.3C1477.9,744.8,1480.9,743.1,1484.5,741z M1660.6,268.7c-0.3,0-0.6,0-0.9-0.1c-0.8,2.1-1.3,4.3-2.4,6.2
		c-7.7,13.9-12.7,29.5-25.9,40.1c3.9,0.4,6.9-0.8,9-4.2c2.7-4.3,5.9-8.4,8.2-13c4.3-8.6,8.1-17.5,12-26.3
		C1660.9,270.7,1660.6,269.6,1660.6,268.7z M1439.4,768.2c-0.4-0.4-0.8-0.9-1.2-1.3c-9.5,3.1-19.1,6.2-28.5,9.4
		c-1.2,0.4-1.9,1.9-2.9,3c0.3,0.4,0.5,0.8,0.8,1.2c9-2.7,18-5.2,26.8-8.1C1436.3,771.6,1437.8,769.6,1439.4,768.2z M1425.4,806
		c-0.4-0.4-0.7-0.9-1.1-1.3c-6.8,1.8-13.6,3.5-20.3,5.3c-3.7,1-4.8,3.3-3.9,6.8c7.3-2.4,14.3-4.6,21.2-7.2
		C1422.8,809,1424,807.2,1425.4,806z M1429.6,791.2c-0.4-0.6-0.9-1.2-1.3-1.8c-7.8,2.6-15.6,5.1-23.2,7.9c-1.1,0.4-1.7,2.4-2.6,3.7
		c8.2-1.4,15.4-3.6,22.5-6.1C1426.7,794.3,1428.1,792.5,1429.6,791.2z M1429.5,745.3c-0.2-0.6-0.4-1.3-0.7-1.9
		c-17.7,6.4-35.5,12.7-53.2,19.1c0.2,0.6,0.4,1.1,0.6,1.7C1393.9,757.9,1411.7,751.6,1429.5,745.3z M1409.4,756.9
		c-0.4-0.4-0.7-0.7-1.1-1.1c-7.6,2.5-15.3,4.9-22.9,7.7c-1.2,0.4-1.8,2.5-2.7,3.8c8.6-1.6,16-3.9,23.2-6.6
		C1407.3,760.2,1408.2,758.2,1409.4,756.9z M1306.9,755.7c-3-2.5-5-4.7-7.4-6.2c-2.1-1.4-4.6-2.1-6.9-3.1c-0.4,0.6-0.7,1.1-1.1,1.7
		c0.9,1.1,1.9,2.3,2.8,3.4c1.2,1.5,3.3,3.1,3.4,4.7c0.3,5.1,3.3,5.3,7.2,5C1305.7,759.1,1306.5,756.9,1306.9,755.7z M1452.5,774.1
		c6.2-1.4,9.7-7.2,8.8-12.2c-0.6-3.1-0.2-6.4-0.3-9.6c0-1.1-0.2-2.2-0.4-3.3c-0.4,0-0.8,0-1.3,0
		C1457.1,757.2,1454.9,765.4,1452.5,774.1z M1380.3,781.7c0.4,0.4,0.8,0.8,1.2,1.2c7-2.5,14-4.9,20.9-7.7c1.6-0.7,2.7-2.7,4.1-4.1
		c-8.2,1.8-15.6,4.2-22.8,7C1382.4,778.6,1381.5,780.4,1380.3,781.7z M1402,791.4c-10.3,2.6-18.8,4.7-25.2,13
		c8-2.8,15.3-5.3,22.5-8.1C1400.3,795.9,1400.7,793.9,1402,791.4z M1342,805.4c-2.2-5.6-4.4-11.2-6.7-16.9c-1.6,1-3,2-4.5,2.9
		c1.7,4.2,3.6,7.9,4.6,11.8C1336.6,808,1338.9,807.3,1342,805.4z M1271.5,844.6c-0.3-0.5-0.6-1-0.9-1.5c-2.8,1.2-5.9,2.1-8.4,3.8
		c-1.3,0.9-2.7,3.3-2.4,4.5c0.4,1.5,2.6,3.2,4.1,3.4c1.4,0.2,3.6-1.3,4.5-2.6C1269.8,849.9,1270.5,847.1,1271.5,844.6z
		 M1382.3,775.1c14.7-4,23.3-8,24.2-10.9C1396.6,764.7,1382.6,770.8,1382.3,775.1z M1397.9,824.1c1.3-0.3,2.1-0.4,2.8-0.6
		c6.7-2,13.4-3.9,20-6c0.7-0.2,1.6-1.7,1.4-2.2c-0.4-0.8-1.8-2-2.3-1.8c-7.2,2.7-14.3,5.5-21.4,8.4
		C1398.1,821.9,1398.1,822.8,1397.9,824.1z M1338.4,812c4.5,3.9,2.5,12.4,11.7,13.2c-1.9-4.5-3.6-8.2-5-12.1
		C1343.8,809.4,1341.9,809.3,1338.4,812z M1396,828.5c0.3,0.7,0.6,1.4,0.9,2.1c6.8-2,13.6-3.8,20.2-6c1.3-0.4,2.2-2.4,3.3-3.7
		c-0.4-0.4-0.8-0.8-1.2-1.2C1411.5,822.6,1403.7,825.5,1396,828.5z M1771.2,571.9c-1.2,1.4-2.2,2.1-2.1,2.6
		c1.2,6.4,2.6,12.8,4.1,19.1c0.1,0.6,1.8,0.8,2.8,1.2c0.3-0.8,1.1-1.8,0.9-2.5C1775.2,585.8,1773.3,579.4,1771.2,571.9z
		 M1445.1,752.8c-0.2-0.5-0.5-1-0.7-1.5c-3.9,1.3-7.8,2.5-11.7,3.8c-4.1,1.3-8.2,2.5-12.1,4.2c-3.4,1.5-8.1,0.8-9.9,5.7
		C1422.2,760.9,1433.7,756.8,1445.1,752.8z M1359.4,810.2c4.8-3.1,12.3-1.8,14.6-8.7C1368.4,803.2,1361,802.1,1359.4,810.2z
		 M1423.7,788.3c-7.8-3.3-19.6,0.8-19.1,6.1C1410.7,792.5,1416.8,790.5,1423.7,788.3z M1399.8,799c-8.4,3.1-16.2,6-24.1,8.9
		c0.2,0.5,0.4,0.9,0.6,1.4C1385.9,808.3,1399.2,802.9,1399.8,799z M1770.2,659.5c4.6,0.7,8.8-0.7,10.1-4c0.5-1.1-0.5-4-1.4-4.3
		C1776.2,650.4,1770.2,656.4,1770.2,659.5z M510.2,707.5c5.4-5.4,10.4-10.3,16.1-15.9C520.6,690.9,510.3,701.8,510.2,707.5z
		 M1403.9,779.2c-14.7,3.2-22.6,6.7-24.1,10.2C1388.1,785.3,1397.1,784.8,1403.9,779.2z M1372.2,833c7.2-3.8,16.2-3.7,22.2-9.7
		C1387.1,826.8,1378.4,827.3,1372.2,833z M1623.1,299.4c-2.6,3.2-3.4,7-0.4,9.4c1.7,1.3,5.1,0.5,9,0.6c-2.4-3.5-3.7-5.3-4.7-6.8
		c-1.5,0.9-2.8,1.8-4.5,2.9C1622.8,302.8,1622.9,301.1,1623.1,299.4z M1347.2,810.3c1.8,4.4,3.5,8.7,5.2,12.9c0.3,0,0.6,0,0.9-0.1
		c0.7-3.9,1.3-7.8,2-11.8C1352.3,811,1349.9,810.6,1347.2,810.3z M1359.5,791.3c-3-0.7-5.2-1.2-8.2-2c1.9,5.2,3.5,9.3,5.5,14.9
		C1357.9,799,1358.6,795.4,1359.5,791.3z M1292.8,814.6c3.2-0.4,4.9-0.6,6.9-0.8c1.1-4.2,2.2-8.2,3.3-12.3c-0.4-0.2-0.8-0.4-1.2-0.7
		C1298.9,805.1,1296.1,809.4,1292.8,814.6z M1672.5,183.2c-2.9-4.8-15.9-9-19.3-7c2.7,1.3,5.3,2.7,8.2,3.8
		C1664.7,181.2,1668.2,182,1672.5,183.2z M1380.7,764.9c-4.2,2-9.5,1.7-10.8,7.7C1376.9,773.2,1380.4,770.8,1380.7,764.9z
		 M1429.6,797.1c0.3,0.5,0.6,1.1,0.9,1.6c3.5-0.5,7-0.9,10.4-1.7c1.2-0.3,2.1-1.7,3.2-2.6c-0.7-0.8-1.7-2.4-2.1-2.3
		C1437.8,793.7,1433.7,795.4,1429.6,797.1z M1445.7,784.1c-12,3-12,3-13.1,7.7c2.8-0.9,5.6-1.6,8.2-2.7
		C1443,788.2,1447.5,789.1,1445.7,784.1z M1371.3,837.2c0.2,0.6,0.4,1.2,0.6,1.7c7.1-2.6,14.2-5.1,21.3-7.7c-0.3-0.7-0.5-1.3-0.8-2
		C1385.4,831.9,1378.3,834.6,1371.3,837.2z M1329.6,789c1.2-1.9,2.9-3.3,2.7-4.2c-0.9-4.2-2.9-7.8-8.2-8.5
		C1325.9,780.3,1327.5,784.1,1329.6,789z M1426.9,799.6c-0.3-0.5-0.5-1-0.8-1.5c-8,2.5-16,5.1-24,7.6c0.2,0.5,0.3,1,0.5,1.5
		C1410.4,803.8,1419.4,804.1,1426.9,799.6z M1374.7,816c8.2-2.8,15.7-5.3,24-8.1C1393,806.7,1377.2,812.1,1374.7,816z M1464.6,780.1
		c-8.1-1.4-14.3,1.5-14.4,6.2C1455.2,784.1,1459.9,782.1,1464.6,780.1z M1438.5,776.6c10.1-0.1,11.7-1,11.1-5.9
		C1445.3,771.5,1441.1,771.9,1438.5,776.6z M1441.9,800.9c-13.2,3-13.2,3-13.3,5.9C1433,804.5,1438.5,804.9,1441.9,800.9z
		 M1286.1,746c-0.8,2.9-2.5,5.7-1.7,6.9c1.6,2.4,4.6,3.1,7.3,0.8C1290.1,751.4,1288.6,749.5,1286.1,746z M1455.8,786.8
		c4.6,1,7.8,1.6,11.6,2.4c-0.7-2.5-1.2-4.3-1.8-6.4C1462.6,784,1459.9,785.1,1455.8,786.8z M1283.7,757.6c2.2,3.3,5,4.4,8.5,2.6
		c1.3-0.7,2.1-2.4,3.4-3.9C1291,756.8,1287.7,757.2,1283.7,757.6z M1379.2,773.4c-2.8,0.7-5,1.2-7.2,1.7c-0.3,0.1-0.7,0.2-0.9,0.4
		c-0.6,0.7-1.2,1.4-1.5,2.2c-0.1,0.3,0.7,1.1,1.2,1.3C1372.9,779.7,1378.2,776.5,1379.2,773.4z M1428.3,777.5c-5,1.4-9,2.6-14,4.1
		C1420,782.9,1424.8,784,1428.3,777.5z M1323.4,825.5c-3.4-3.2-5.7-5.3-8-7.5c-0.5,0.3-0.9,0.6-1.4,0.9c1.2,2.1,2.1,4.4,3.7,6.1
		C1318.5,825.9,1320.7,825.4,1323.4,825.5z M1777.9,645.5c0,0.9,0.1,1.8,0.1,2.7c3.8-0.2,7.7-0.3,11.5-0.5c0-0.6-0.1-1.1-0.1-1.7
		C1785.6,645.9,1781.7,645.7,1777.9,645.5z M1673.4,186c-0.4,0.1-0.7,0.3-1.1,0.4c1.6,5.1,3.2,10.2,4.8,15.3c0.5-0.2,1-0.3,1.5-0.5
		C1676.9,196.1,1675.2,191.1,1673.4,186z M1325.1,764.3c-0.9,3.1-1.5,5.1-2.1,7.2c2,1,3.8,1.9,6.7,3.3
		C1327.9,770.7,1326.7,768,1325.1,764.3z M1447.8,790.2c0.1,0.6,0.1,1.2,0.2,1.9c3-0.2,6.4,2.3,8.9-1.9
		C1453.9,790.2,1450.9,790.2,1447.8,790.2z"/>
	<path fill="#222222" d="M433.5,744.2c1.8,1,3.7,2,5.5,2.9c-1.4,1.8-2.8,3.6-4.2,5.3c-1.2,1.4-2.7,2.5-3.7,4
		c-3.3,5.2-6.5,10.4-9.5,15.7c-0.8,1.4-0.9,3.3-0.8,4.9c0.2,3.9-1.6,5.6-5.4,4.6c-2.6-0.7-6.6-0.8-7.5-2.5c-2.3-4.1,3.3-3.1,4.6-5.2
		c4.8-7.5,9.7-15,14.5-22.4c0.2-0.4,0.3-0.9,0.3-1.3C427.3,744.7,427.3,744.7,433.5,744.2z M435.8,748.5c-1.8-0.4-4.1-0.9-5.4-1.2
		c-1.3,3.2-2.1,6-3.6,8.5c-4.3,7-8.9,13.9-13.5,20.8c0.7,0.5,1.6,1,2.4,1.6c0.7,0.5,1.3,1.1,1.7,1.5
		C420.5,767.2,427.6,757.5,435.8,748.5z"/>
	<path fill="#222222" d="M127.3,752c2.7-0.2,6-1.5,8.2-0.5c2.7,1.3,2.7,4.8,0.8,7.4c-2.8,3.8-6,2.2-8.9,0.2
		c-4.7,4.4-8.8,5.2-12.8,2.5c-3.6-2.4-5.4-7.5-3.8-11.3c1.8-4.3,5.5-5.6,9.7-5.1C124.9,745.8,128,748.2,127.3,752z M118.2,747.8
		c-3.5,0-5.5,2-5.6,5.5c-0.1,3.5,3.7,7.8,7,7.6c3.5-0.2,5.3-2.5,5.4-5.8C125.1,752.1,120.8,747.8,118.2,747.8z"/>
	<path fill="#222222" d="M399.3,749.5c1.1-2.4,1.4-4.1,2.4-5.2c4.2-4.9,9.9-7.2,16.1-8c4.7-0.6,7.9,4.6,6,9.4
		c-1.4,3.4-2.1,6.9-2.8,10.5c-0.7,3.2-6.9,5.3-10.6,7.9C406.7,759.2,403,754.3,399.3,749.5z M421.2,745.9c1.8-5.5,0.5-7.8-4.6-6.7
		c-4.3,0.9-8.6,3.1-12.1,5.8c-3.4,2.5-2,7.8,1.7,10c1.6,0.9,2.6,2.8,3.8,4.3c0.7,0.8,1.2,1.8,2.6,3.9c0-3.8,0-5.9,0-8
		c0.2,0,0.4-0.1,0.7-0.1c0.7,1.7,1.4,3.3,2,5c0.4,0,0.8-0.1,1.2-0.1c0.1-1.7,0.1-3.4,0.3-5.8c0.9,1.5,1.4,2.3,2.1,3.5
		c0.1-2.4,0-4.4,0.4-6.2c0.4-1.9,1.4-3.7,2.2-5.5L421.2,745.9z"/>
	<path fill="#222222" d="M440.2,834.9c-8.8-0.9-13.1-4.1-13.2-10.5c-0.1-7.9,4.7-12.4,13.4-12.3c5.8,0.1,11.7,0.1,14.4,7
		c2,5,1.4,8.8-3.4,11.5C448,832.5,444,833.5,440.2,834.9z M428.8,824.4c1.7,2.1,2.9,5,5.1,6.2c5,2.7,13.4,0.7,17.6-3.4
		c2.6-2.5,3-5.2,0.5-7.8c-3.6-3.7-8-5.9-13.3-5.4C433.2,814.6,429.8,818.4,428.8,824.4z"/>
	<path fill="#222222" d="M216.3,785.3c5,0.2,10,0.3,15,0.9c1.4,0.2,3.2,1.8,3.6,3.1c0.3,0.9-1.2,2.9-2.4,3.6
		c-2.7,1.8-5.8,3.2-8.7,4.8c-3.2,1.8-13,0.5-14.8-2.6c-1.1-1.8-1.3-4.8-0.6-6.8c0.5-1.5,3.1-2.3,4.9-3.2c0.8-0.4,2-0.1,3-0.1
		C216.3,785.1,216.3,785.2,216.3,785.3z M219.6,796.5c1.3-0.8,3.9-1.7,4-2.9c0.2-1.4-1.4-3.5-2.8-4.6c-1.3-1.1-3.4-2.1-5-1.8
		c-2.1,0.4-3.9,2.1-5.8,3.2c1.3,1.6,2.5,3.4,4.1,4.6C215.3,795.9,217.2,795.9,219.6,796.5z"/>
	<path fill="#222222" d="M185.1,790.1c3,1.5,5.3,2.3,7.2,3.7c0.4,0.3-0.8,2.6-1.2,4.1c-2.3-0.8-4.6-1.6-7.4-2.5
		c-3.4,3.8-8.7,5.1-13.4,2.5c-3.7-2.1-5.5-6.4-4.1-10.7c1.3-3.9,4.4-5.8,8.4-5.6C181.7,781.9,184.1,784.3,185.1,790.1z M174.7,796.4
		c4.6,0.3,7.3-1.6,7.5-5.1c0.3-3.8-3.2-7-8.1-7.4c-4-0.3-5.6,2.4-6.1,5.7C167.5,793.2,170.6,796.1,174.7,796.4z"/>
	<path fill="#222222" d="M397,795.9c-0.6-0.7-2.5-2.1-2.8-3.7c-0.4-2.8-1.4-3.7-4.1-4.6c-2-0.7-4.6-3.4-4.7-5.3
		c-0.1-1.9,2.2-5.2,4.1-5.8c1.9-0.6,4.6,1.3,6.8,2.4c1.5,0.7,2.5,2.6,4,2.9c4.3,0.8,5.9,3.3,5.6,7.4C405.7,792.8,402,796,397,795.9z
		 M397.4,782.6c-2.6-1.9-4.3-3.8-6.2-4.2c-0.9-0.2-2.4,2.4-3.7,3.8c1.6,1.3,3.1,3.2,4.9,3.7C393.5,786.1,395.2,784.2,397.4,782.6z
		 M394.4,789.7c2.1,1.9,3.4,3.1,4.7,4.2c1.4-1.7,3.3-3.2,3.9-5.1c0.2-0.8-2.4-3.5-3.7-3.5C397.8,785.4,396.5,787.6,394.4,789.7z"/>
	<path fill="#222222" d="M147.9,783c-7.5,0-9.5-1.6-10.8-7.2c-0.2-0.7-0.6-1.6-1.1-2c-3.2-2.4-3.9-4.8-0.4-7.5
		c2.8-2.1,6.9-1.4,9.1,1.7c1.8,2.5,3.8,5,5.3,7.7c1,1.7,1.9,4.1,1.4,5.7C151.1,782.5,148.3,782.8,147.9,783z M149.6,778.6
		c-2.4-1.5-4.2-2.7-6.2-3.8c-0.7-0.4-2.3-0.5-2.5-0.2c-0.5,0.9-0.9,2.2-0.6,3.1C141.3,780.8,146.1,781.6,149.6,778.6z M135.1,771.1
		c3.3,0.4,5.8,0.8,8.7,1.2C141.3,766.2,139.5,765.8,135.1,771.1z"/>
	<path fill="#222222" d="M714.1,817.1c-0.3,3.1-1.1,6.6-6,6.9c-4.1,0.2-8.4,0.3-9.9-4.5c-1-3.3-0.4-6.6,3.1-8.6
		c3.7-2.1,8.2-0.9,11.8,2.7c3.1,0,5.3,0,7.4,0c-0.1,1.4-0.2,2.8-0.3,4.2C718.3,817.6,716.2,817.3,714.1,817.1z M706.3,824.2
		c2.6-3.2,4.8-4.9,5.4-7.1c0.3-0.9-3.4-4.3-4.1-3.9c-2.6,1.1-8.2-1.9-7.5,4C700.4,819.3,703.4,821.1,706.3,824.2z"/>
	<path fill="#222222" d="M456.5,801c3.7-0.4,7.5-1.2,11.2-1.1c1.5,0,4.1,1.9,4.1,3c0,2.3-0.7,5.4-2.3,6.8c-1.5,1.4-4.7,1.7-6.9,1.2
		c-3.4-0.7-6.6-2.3-9.7-3.8c-0.9-0.4-1.8-2.8-1.5-3.2c1.3-1.5,3-2.5,4.6-3.8C456.2,800.4,456.3,800.7,456.5,801z M465.4,810.7
		c2-2.4,3.5-4,4.5-5.8c0.2-0.3-2.5-2.9-3.3-2.7c-2.4,0.8-4.5,2.5-6.7,3.8C461.4,807.3,462.9,808.5,465.4,810.7z"/>
	<path fill="#222222" d="M388.4,812.1c-6.2-0.1-9.3-2.7-9.4-7.6c-0.1-4.8,4.1-7.8,11.5-8.3c4.7-0.4,7.4,2.5,7.4,7.3
		C398,809.1,394.6,812.2,388.4,812.1z M389.1,799c-4.4,0-8.5,2.6-8,5.5c0.6,3.9,3.6,5.3,7.2,5.4c4.2,0.2,7.5-2.8,7.3-6.9
		C395.4,798.8,392.2,799,389.1,799z"/>
	<path fill="#222222" d="M521,806.7c-0.8,1-2.1,4.1-4.3,4.9c-2.8,1.1-6.5,1.1-9.3,0.1c-3.2-1.1-1.9-6.9,1.9-9.2
		c1.7-1,3.5-1.8,5.3-2.4C519,798.5,520.9,799.9,521,806.7z M508,809.3c3.6,0.8,6.8,2.2,8.8-1.7c0.4-0.7-0.7-3.1-1.5-3.3
		C511.4,803.1,509.1,804.9,508,809.3z"/>
	<path fill="#222222" d="M820.1,841c5.6,0,9,3.1,8.9,8.3c-0.1,4.8-3.4,5.5-7.1,5.6c-5.7,0.1-10.5-3.2-10.4-7
		C811.6,843.9,815.2,841,820.1,841z M821.8,853.1c1.7-1.4,3.5-2.8,5.2-4.3c-2-1.6-3.9-4.3-6-4.5c-2.3-0.2-6.7-0.9-6.9,3.4
		C814,852.3,817.8,851.9,821.8,853.1z"/>
	<path fill="#222222" d="M1218.3,829.9c-4.7,0-7.5-2.3-7.5-6.1c0-4.4,5.5-9.8,10.2-9.8c4.7-0.1,7.9,2.7,8,6.9
		C1228.9,825.7,1223.9,830,1218.3,829.9z M1216.3,828c5.7,0,11-3.9,10.6-6.9c-0.2-1.5-2.1-3.7-3.4-3.8c-5.5-0.5-11,3.1-10.3,6.6
		C1213.5,825.7,1215.7,827.2,1216.3,828z"/>
	<path fill="#222222" d="M1179,829c0.6-0.6,1.3-1.3,1.9-1.9c2.3,0,4.6-0.2,6.9-0.1c4.7,0.2,6.3,2.6,5.3,7.2
		c-1.3,5.8-7.3,9.5-12.8,7.5c-1.5-0.5-3.1-3.1-3.1-4.7C1177.2,834.3,1178.4,831.6,1179,829z M1191.1,831.7c-0.9-0.6-2.5-2.2-4.2-2.5
		c-2.9-0.5-8.3,4.9-7.7,7.6c0.3,1.3,2.6,2.8,4.1,3C1187.2,840.4,1191,836.9,1191.1,831.7z"/>
	<path fill="#222222" d="M430.3,709.8c3.4,0.1,6.6,0.5,7.5,4.4c0.9,4.2-2,6-5.4,7c-2.3,0.6-5,1.6-7,0.9c-2.1-0.7-5.1-3.2-5.1-4.9
		c0-2.2,2.4-4.7,4.3-6.2C426,709.8,428.4,710.1,430.3,709.8z M427.6,721.2c2.8-2,5.1-3.7,7.3-5.3c-2.2-1.3-4.5-3.8-6.6-3.6
		c-2.1,0.1-4.1,2.9-6.1,4.5C423.9,718.1,425.5,719.4,427.6,721.2z"/>
	<path fill="#222222" d="M947,861c-1-1.1-3.9-2.8-4.7-5.3c-1.1-3.4,5.1-8.3,9.9-7.3c2.1,0.4,4.5,3.2,5.4,5.4
		C958.6,856.6,952.9,860.9,947,861z M955,854.7c-2.8-3.5-5.9-4-9.2-1.5c-0.7,0.5-0.7,3.6-0.1,4C949.3,859.5,952.3,858.4,955,854.7z"
		/>
	<path fill="#222222" d="M647.9,822.9c-5.7,0-10.2-3-9.8-6.7c0.5-4,3.1-5.3,7-5.2c5.9,0.2,9.9,2.9,9.8,7.4
		C654.9,823.1,651.3,823,647.9,822.9z M654.6,818.4c-4.3-1.9-7.4-3.5-10.7-4.6c-1-0.3-3.5,1-3.5,1.6c0,1.4,0.6,3.6,1.7,4.1
		C645.6,821.4,649.4,822.2,654.6,818.4z"/>
	<path fill="#222222" d="M603.1,808.1c-1-4.4,1.4-6.6,5.4-7.1c4.3-0.5,8.2,3,8.5,7.2c0.3,4.8-2.5,8.4-6.8,8.7
		C606.1,817.1,603.4,813.7,603.1,808.1z M616,810.9c-1.1-4.6-2.7-6.9-6.3-6.8c-2.9,0.1-4.9,1.4-5,4.8c-0.1,3.7,2,6,5.1,5.8
		C612,814.6,613.9,812.2,616,810.9z"/>
	<path fill="#222222" d="M545.1,807.6c0-4.7,3.1-9.2,6.8-9.3c3.7-0.2,7.1,4,7,8.6c0,3.6-4.2,7.1-8.7,7.1
		C546.4,814,544.9,811.8,545.1,807.6z M551.3,799c-2,3.5-3.9,5.6-4.1,7.8c-0.1,1.7,1.9,3.5,3,5.3c2.3-1.7,5.5-3,6.4-5.3
		C557.1,805.4,553.9,802.6,551.3,799z"/>
	<path fill="#222222" d="M526.1,789c-0.1-4,2.8-6.9,6.8-6.9c3.7,0,7.1,3.6,6.9,7.6c-0.2,3.6-2.3,5.9-6,6.2
		C529.8,796.1,526.2,792.7,526.1,789z M528.2,787.5c0,0.7-0.1,1.4-0.1,2.1c1.8,1.2,3.4,2.9,5.3,3.2c1,0.2,3.3-2,3.5-3.3
		c0.5-3.5-2.3-4.5-5.1-4.4C530.6,785.1,529.4,786.7,528.2,787.5z"/>
	<path fill="#222222" d="M738.2,834.1c-0.1-2-0.9-5.6,3.9-5.8c3.5-0.2,7.3,4,7.2,7.5c-0.1,3.8-3.4,7.3-6.7,7.2
		C739.1,842.8,738.1,841,738.2,834.1z M738.4,836.4c2.2,1.7,4,3.8,4.7,3.5c1.6-0.8,2.8-2.6,4.1-4.1c-1.4-1.3-2.7-3.1-4.3-3.6
		C742,832.1,740.5,834.4,738.4,836.4z"/>
	<path fill="#222222" d="M205,784.5c-0.1,4.4-3.2,5.7-6.5,6.3c-3.4,0.6-7.3-3-7.4-6.3c-0.1-3.2,3.9-6.7,7.9-6.5
		C202.9,778.2,204.4,781.1,205,784.5z M198,789.6c1.9-2.2,3.6-3.3,3.9-4.7c0.7-3.3-2.2-4-4.3-3.7c-1.6,0.2-3,1.9-4.5,3
		C194.4,785.7,195.8,787.2,198,789.6z"/>
	<path fill="#222222" d="M382.6,751.8c-4.6-0.8-9.5-4.4-8.3-6.7c1.4-2.8,4.3-4.8,6.6-7.1c2.3,2.3,5.5,4.3,6.4,7.1
		C387.7,746.7,384.3,749.5,382.6,751.8z M380.9,749.8c2-2.1,3-3.2,4.1-4.4c-1.5-1.2-2.8-2.9-4.5-3.3c-1-0.2-2.5,1.6-3.7,2.6
		C378,746.1,379.1,747.5,380.9,749.8z"/>
	<path fill="#222222" d="M466.6,728.4c4,0,7.5,2.7,7.3,5.9c-0.3,4.3-3.8,5.1-7,5.5c-3.5,0.4-6.2-1.5-6.6-5.2
		C459.9,731.4,463.3,728.4,466.6,728.4z M467,738.3c1.7-1.7,2.9-2.9,4.1-4.1c-1-0.8-2.3-2.3-3-2.1c-1.8,0.5-3.4,1.8-5.1,2.8
		C464.1,735.8,465.2,736.7,467,738.3z"/>
	<path fill="#222222" d="M515.7,756c-3.2,0.2-5.6-0.8-5.7-4.5c-0.1-3.2,5.6-9.1,8-7.8c2.6,1.4,5.5,4.9,5.5,7.5
		C523.6,755.3,519.4,756,515.7,756z M522.5,751c-2.2-2.4-3.5-3.7-4.7-5c-1.6,1.6-3.3,3.2-4.6,5c-0.1,0.2,1.9,2.9,2.7,2.8
		C517.8,753.5,519.6,752.3,522.5,751z"/>
	<path fill="#222222" d="M759.2,839.7c1-4.7,4.8-9.6,7.2-8.5c1.9,0.8,4.1,3.2,4.3,5.1c0.6,5.2-2.4,9.5-5.6,8.5
		C762.8,844,761.1,841.4,759.2,839.7z M769,839c-1.4-1.7-2.4-2.8-3.3-3.9c-1.1,1.2-3,2.3-3.1,3.5c-0.1,1.1,1.7,2.4,2.7,3.6
		C766.4,841.3,767.5,840.3,769,839z"/>
	<path fill="#222222" d="M868.7,860.8c-3.1-3.1-6.4-4.9-6.9-7.3c-0.7-3.1,2.2-6.8,5.5-6c2.9,0.7,5.2,4.1,7.8,6.4
		C873.2,855.8,871.4,857.8,868.7,860.8z M868.8,857.1c1.5-1.3,2.6-2.2,3.6-3.1c-1.7-1-3.3-2.4-5.1-2.8c-0.9-0.2-2.2,1.6-3.3,2.6
		C865.4,854.8,866.9,855.8,868.8,857.1z"/>
	<path fill="#222222" d="M1269.9,830c-7.5-0.4-10.1-2.3-9.8-6c0.3-4.4,3.6-4.1,6.6-4c4.3,0.2,9.2,3.9,8,6.3
		C1273.7,828.3,1270.8,829.4,1269.9,830z M1272.4,827.4c0.1-0.7,0.2-1.4,0.3-2c-2.4-3.5-6.1-2.5-9.5-2c-0.5,0.1-1.2,1.3-1.1,1.9
		c0.1,0.6,1,1.6,1.6,1.6C1266.6,827.2,1269.5,827.3,1272.4,827.4z"/>
	<path fill="#222222" d="M494.8,760.7c-1.8-2.4-2.8-3.6-3.7-4.8c2.8-2,5.5-4.1,8.6-5.7c0.4-0.2,2.2,2.1,3.3,3.2
		C500.5,755.6,498.1,757.8,494.8,760.7z"/>
	<path fill="#222222" d="M442.8,764.7c-2.2-2.3-3.5-3.6-4.8-4.9c2-1.9,3.8-4.3,6.2-5.4c0.8-0.4,3.1,2.4,4.7,3.7
		C447,759.9,445.3,761.9,442.8,764.7z"/>
	<path fill="#222222" d="M408.8,723.5c-3.6,2.4-5.8,4.2-8.3,5.3c-0.6,0.3-2.3-1.9-3.5-3c2-2.2,4-4.6,6.3-6.5
		C403.7,719,406,721.2,408.8,723.5z"/>
	<path fill="#222222" d="M245.3,793.9c-2-2.9-4.3-4.8-4-6c0.5-1.9,3.2-4.8,4.4-4.5c2,0.4,4.3,2.7,4.9,4.7
		C250.9,789.2,247.9,791.2,245.3,793.9z"/>
	<path fill="#222222" d="M382.9,776c-1,4.6-3.1,6.8-6.4,6.7c-3.1-0.1-5.5-2-5.5-5.8c0-3.3,3.3-7.2,6.1-6.2
		C379.4,771.6,381,774.2,382.9,776z M376.2,781.9c1.8-2.4,3.4-3.6,3.4-4.9c0-1-1.9-2.9-2.8-2.8c-1.3,0.1-3.3,1.4-3.7,2.6
		C372.9,777.8,374.6,779.3,376.2,781.9z"/>
	<path fill="#222222" d="M531.1,824c-4.9-0.9-7.9-2-8.1-6.6c-0.2-3.6,2.4-4.4,5.3-4.3c3.7,0,8.2,3.6,7.4,6.4
		C535.2,821.2,532.7,822.5,531.1,824z M533.7,819.8c-2-4.8-4.4-5.2-8.6-1.6C527.8,821.7,529.2,821.9,533.7,819.8z"/>
	<path fill="#222222" d="M492,807c-2.3-2.7-4.5-4.1-4.7-5.8c-0.3-2.3,1-5.3,4.1-4.6c2,0.5,4.5,2.3,5.2,4.2
		C497,801.8,494.3,804.1,492,807z"/>
	<path fill="#222222" d="M677.7,823.3c-1.3-1.1-2.9-2.4-4.6-3.7c1.3-0.9,2.7-1.9,4-2.8c0.7-0.4,1.6-0.9,2.3-0.8
		c1.8,0.4,3.6,1.2,5.4,1.8c-1.1,1.5-2.2,3.2-3.5,4.5C680.8,822.9,679.5,822.9,677.7,823.3z"/>
	<path fill="#222222" d="M539,764.9c-2.6,1.7-4.3,3.6-6.1,3.7c-1.2,0.1-3.7-3.1-3.4-4.1c0.7-2,2.9-3.5,4.4-5.2
		C535.4,760.9,536.9,762.5,539,764.9z"/>
	<path fill="#222222" d="M624,819.1c2.1,2.8,3.8,4.5,4.6,6.6c0.2,0.5-3.1,3.3-3.8,3c-2.1-1-3.7-3-5.5-4.7
		C620.4,822.8,621.6,821.5,624,819.1z"/>
	<path fill="#222222" d="M411.8,787.3c4.9,0.2,8,2.8,6.9,5.9c-0.6,1.6-3.6,3.8-4.8,3.4C408.2,794.8,412.5,790.5,411.8,787.3z"/>
	<path fill="#222222" d="M121.5,782.9c-2.2-2.5-4.5-4.3-4.2-4.9c1-2.2,2.9-3.9,4.5-5.8c1.4,1.4,3.9,2.8,3.8,4.1
		C125.5,778.1,123.5,779.9,121.5,782.9z"/>
	<path fill="#222222" d="M1077.8,856.9c-2.1,1.6-3.6,3.1-5.5,3.8c-0.5,0.2-3.1-2.8-2.8-3.4c0.9-2.1,2.8-3.8,4.3-5.7
		C1074.9,853.1,1076.1,854.6,1077.8,856.9z"/>
	<path fill="#222222" d="M569.3,808.1c0.7-0.4,1.9-1.7,3.2-1.8c4-0.4,6.2,1.6,6.4,5.8c0.1,2.8-0.7,5-4.1,4.9
		C569.9,816.7,570,812.8,569.3,808.1z M578.7,812.3c-2.1-1.8-3.3-3.3-4.9-3.8c-0.7-0.2-2.1,1.7-3.1,2.7c1.4,1.3,2.7,2.9,4.2,3.9
		C575.3,815.3,576.8,813.8,578.7,812.3z"/>
	<path fill="#222222" d="M961.6,849.5c2.8-0.2,5.5-0.3,8.3-0.5c-0.7,2.2-1.4,4.4-2,6.6c-2.3-0.9-4.6-1.9-6.9-2.8
		C961.2,851.7,961.4,850.6,961.6,849.5z"/>
	<path fill="#222222" d="M410,814c-1.9-2.5-4-4.3-3.7-5c0.9-1.8,2.8-3.2,4.2-4.7c1.1,1.4,3.1,2.7,3.2,4.1
		C413.8,809.8,411.9,811.3,410,814z"/>
	<path fill="#222222" d="M436.1,775.5c0.9,1.8,2.4,3.6,2.6,5.5c0.1,1-2.5,3.2-3.3,3c-1.5-0.4-3.6-2.2-3.8-3.5
		c-0.1-1.6,1.6-3.3,2.5-5C434.8,775.5,435.5,775.5,436.1,775.5z"/>
	<path fill="#222222" d="M456.9,721.4c1.9,2.1,3,3.3,4,4.4c-1.6,1.4-3,3.2-4.9,3.9c-0.7,0.3-2.4-1.9-3.7-2.9
		C453.6,725.3,454.9,723.8,456.9,721.4z"/>
	<path fill="#222222" d="M1013,849.1c0.9,1.9,2.3,3.7,2.5,5.7c0.1,0.9-1.9,2.1-3,3.1c-1.1-1.5-2.7-2.8-3.1-4.5
		c-0.3-1.2,1.1-2.8,1.7-4.2C1011.7,849.2,1012.4,849.2,1013,849.1z"/>
	<path fill="#222222" d="M726.8,816.2c2.3,2.1,3.7,3.5,5.1,4.8c-1.3,1.3-2.4,3.5-3.9,3.7c-1.1,0.2-3.1-2-3.6-3.5
		C724,820.2,725.6,818.5,726.8,816.2z"/>
	<path fill="#222222" d="M592,807.9c-2.9,1.5-4.6,3-5.9,2.8c-1.5-0.3-2.6-2.3-3.9-3.5c1.5-1,2.9-2.7,4.5-2.9
		C587.9,804.1,589.3,806,592,807.9z"/>
	<path fill="#222222" d="M1245.3,818.3c-2.4,1.2-3.9,2.6-5.2,2.4c-1.2-0.2-3.1-2.3-2.9-3.2c0.3-1.6,2-2.9,3.1-4.3
		C1241.6,814.6,1243.1,816,1245.3,818.3z"/>
	<path fill="#222222" d="M500.9,761c3,2.1,3.6,4.5,1.2,6.9c-0.8,0.8-3.7,0.8-4.2,0.1C495.5,764.5,498.8,763.1,500.9,761z"/>
	<path fill="#222222" d="M689.4,808.7c2,1.6,3.1,2.5,4.2,3.3c-1.5,1.3-2.8,2.8-4.5,3.7c-0.3,0.2-2.6-1.9-2.6-2.9
		C686.5,811.7,688.1,810.5,689.4,808.7z"/>
	<path fill="#222222" d="M1201.1,819.7c1.6,1.8,2.7,3,3.7,4.2c-1.3,1-2.6,2.8-4,2.9c-1.1,0-2.7-1.9-3.2-3.2
		C1197.4,822.8,1199.4,821.5,1201.1,819.7z"/>
	<path fill="#222222" d="M779.2,841c1.9,1,3.8,1.9,5.7,2.9c-0.8,1.3-1.5,2.6-2.3,3.9c-1.7-1.4-3.4-2.8-5.1-4.1
		C778,842.8,778.6,841.9,779.2,841z"/>
	<path fill="#222222" d="M484.3,816.7c-1.8,2.4-2.5,3.5-3.4,4.4c-0.8,0.9-1.7,1.6-2.6,2.4c-0.7-0.8-2-1.6-2-2.4
		c0-1.1,0.6-2.8,1.5-3.2C479.3,817.3,481.2,817.3,484.3,816.7z"/>
	<path fill="#222222" d="M536.7,808.3c-1.5-1.8-2.5-2.9-3.5-4.1c1.1-0.9,2.2-2.6,3.4-2.6c1.1,0,3,1.7,3.1,2.7
		C539.7,805.4,538.1,806.6,536.7,808.3z"/>
	<path fill="#222222" d="M900.2,848.9c1.4-2.8,3.4-3.9,5.9-1.9c0.6,0.5,0.8,2.7,0.3,3.2C904.3,852.5,902.2,851.9,900.2,848.9z"/>
	<path fill="#222222" d="M624.1,808.5c1.5,1.4,3,2.7,4.5,4.1c-1.1,0.8-3.1,2.4-3.3,2.1c-1.3-1.3-2.3-3-3.4-4.5
		C622.7,809.6,623.4,809.1,624.1,808.5z"/>
	<path fill="#222222" d="M882.7,847.4c-1.1,1.4-2.2,2.8-3.3,4.3c-1-1.1-1.9-2.2-2.9-3.2c1.4-1,2.9-2,4.3-3
		C881.5,846.1,882.1,846.7,882.7,847.4z"/>
	<path fill="#222222" d="M1029.9,858.3c-1.4-1.7-3-2.8-2.8-3.7c0.2-1.3,1.6-2.4,2.5-3.5c1.1,1.1,2.7,2,3,3.3
		C1032.9,855.2,1031.2,856.5,1029.9,858.3z"/>
	<path fill="#222222" d="M1864.5,621.2c0.9,1.8,1.1,2.9,1.8,3.4c1.5,1,3.8,1.3,4.6,2.6c2,3.2,4.2,6.7,4.5,10.2
		c0.2,3.1-8.1,6.9-12.2,6.4c-6.8-0.8-11-5.1-10.5-10.8C1853.4,625.5,1858.4,620.8,1864.5,621.2z M1863.8,640.9c1.2,0,2.4,0.2,3.5,0
		c6.2-1.4,7.7-5.9,3.3-10.5c-1.5-1.6-3.7-2.8-5.8-3.5c-6.8-2.3-10.7,0.9-9.8,7.9C1855.5,638.7,1858.8,641.1,1863.8,640.9z"/>
	<path fill="#222222" d="M1817.1,637.3c0.3-5.3,6.8-12.3,11.3-12.2c3.3,0.1,8.6,6,8.4,9.4c-0.2,5.2-7,10.8-12.7,10.5
		C1819.5,644.7,1816.9,641.9,1817.1,637.3z M1824.4,642.2c5-0.1,9.8-4,9.6-7.8c-0.2-3.4-2.1-5.4-5.7-5.4c-5,0.1-8.9,3.8-9,8.5
		C1819.3,641.1,1821.4,642.4,1824.4,642.2z"/>
	<path fill="#222222" d="M1918.5,629.3c-2.7-0.4-5.1-0.4-7.2-1c-4.5-1.4-5-4.5-1.5-7.6c4-3.5,13.1-4.8,17.9-2
		c2.4,1.4,4.2,3.6,6.3,5.5c-2.5,1.4-4.9,3.1-7.5,4C1923.8,628.9,1920.9,628.9,1918.5,629.3z M1930.8,624.6c0.1-0.5,0.2-1.1,0.3-1.6
		c-1.2-0.3-2.5-0.6-3.7-1c-2-0.6-4.2-0.9-6-1.9c-4.2-2.2-9.8,0.1-11.4,5.3C1917.2,628.5,1924,626.8,1930.8,624.6z"/>
	<path fill="#222222" d="M1862,738.3c0,4.7-2.6,7.5-7.2,7.6c-5.1,0.1-7.8-2.2-7.8-6.8c-0.1-5.2,4.9-12.3,8.5-12.2
		C1858.1,727.1,1861.9,733.8,1862,738.3z M1848.9,737.5c0.4,0.3,0.7,0.6,1.1,0.9c-0.8,3.4,1.3,5.8,4,5.3c2.1-0.4,5.6-3.6,5.3-5
		c-0.5-2.8-3.2-5.2-4.9-7.7C1852.6,733.1,1850.8,735.3,1848.9,737.5z"/>
	<path fill="#222222" d="M1792.5,738.9c-5.4-0.1-8.6-3.2-8.4-8.3c0.1-4.9,4.7-11.2,8.2-11.2c3.4,0,9.6,7.4,9.5,11.4
		C1801.7,734.9,1797.1,738.9,1792.5,738.9z M1792.3,737.2c3.8,0.1,7.2-2.7,7.4-5.9c0.3-4-4-8.4-8.2-8.3c-5.1,0.2-5.2,4.4-5.6,7.8
		C1785.5,734.7,1788,737,1792.3,737.2z"/>
	<path fill="#222222" d="M1669.6,737.9c-3.2,0.4-5.3-1-5.4-4.2c-0.1-4.1,7.5-11.8,11.3-11.8c3.1,0,6.5,3.6,6.3,6.9
		C1681.7,732.6,1674.6,737.9,1669.6,737.9z M1668.9,736.1c4.9-0.1,11.7-5.3,10.8-7.7c-0.5-1.4-2.8-2.9-4.4-3.1
		c-3.8-0.5-8.7,4.5-8.3,8.2C1667.1,734.5,1668.5,735.5,1668.9,736.1z"/>
	<path fill="#222222" d="M1899.9,724.8c0.1,4.1-3.7,8.3-7.7,8c-3.3-0.2-6-1.8-6.1-5.8c-0.1-3.8,2.7-8.6,5.2-8.7
		C1895.4,718.1,1899.8,721.4,1899.9,724.8z M1894.5,721.3c-0.7-0.1-1.4-0.1-2.1-0.2c-1.4,1.8-3.1,3.6-3.9,5.6
		c-0.2,0.5,2.8,3.4,3.7,3.1c2-0.7,4-2.3,5.1-4.1C1897.6,725,1895.5,722.8,1894.5,721.3z"/>
	<path fill="#222222" d="M1742.9,690.1c0,4.7-4.3,9.7-7.4,9.3c-1.3-0.1-3.5-2.7-3.4-2.9c2.3-3.2,4.8-6.3,7.3-9.4
		C1740.7,688.3,1742.1,689.5,1742.9,690.1z"/>
	<path fill="#222222" d="M1813.6,760.2c-0.6-0.6-2.8-1.9-3.3-3.6c-0.8-3.2,5.8-10.3,8.5-9.3c2.1,0.8,4.4,3.5,4.8,5.6
		C1824.3,756.6,1819.6,760.2,1813.6,760.2z M1812.8,757.7c4.2,0.7,7-0.3,8-4.1c0.2-0.6-1.9-2.5-3-2.6
		C1813.6,750.8,1813,753.9,1812.8,757.7z"/>
	<path fill="#FFFFFF" d="M1717,735.1c-0.1,0.3-0.3,0.6-0.4,0.9c-0.7,0.4-1.4,1-2.2,1c-1.9,0.1-5.3,0.4-5.5-0.2
		c-0.7-2.5-1.4-5.8-0.3-7.8c0.9-1.5,4.5-1.7,6.9-1.7c0.6,0,1.3,3.1,1.7,4.9C1717.4,733.1,1717.1,734.1,1717,735.1z"/>
	<path fill="#222222" d="M1535.4,763.3c0.9-0.6,2.4-2.6,4.2-2.8c4-0.5,8.5,3.9,8.3,7.5c-0.2,3.5-2.4,5.4-5.7,5.7
		C1538.4,773.9,1535.2,769.5,1535.4,763.3z M1541.8,772.6c1.6-2.4,3.3-4.2,3-4.8c-0.9-1.6-2.6-2.8-4.2-3.7c-0.3-0.2-2.7,2-2.5,2.5
		C1538.8,768.4,1540.1,769.9,1541.8,772.6z"/>
	<path fill="#222222" d="M1639.1,760.6c-0.2,5.6-4,9.8-7.2,8.8c-2-0.6-4.2-3.1-4.6-5.1c-0.6-3.4,4.7-9,7.6-8
		C1637,756.9,1638.3,759.7,1639.1,760.6z M1637.7,763.1c-0.3-0.9-0.6-1.7-1-2.6c-2.2,0.4-4.3,0.8-6.5,1.1c0.4,1.7,0.8,3.5,1.1,5.2
		C1633.5,765.6,1635.6,764.4,1637.7,763.1z"/>
	<path fill="#222222" d="M1755.8,677.3c0.1,5.4-3,9.9-5.8,9.4c-1.1-0.2-2.7-1.9-2.8-3.1c-0.5-6.4,0.8-8.8,4.7-8.5
		C1753.5,675.3,1754.9,676.8,1755.8,677.3z"/>
	<path fill="#222222" d="M1508.4,769c-4.9,0-7.4-2.4-7.4-6.5c0-4.9,3.7-4.9,6.9-5.3c2.9-0.4,6.2,3.5,5.9,6.8
		C1513.5,767.4,1511.9,769.6,1508.4,769z M1505.5,758.7c-1.2,2-2.6,3.8-2.3,4.2c1.2,1.6,2.9,3,4.7,3.9c0.4,0.2,2-1.9,3-2.9
		C1509.4,762.4,1507.9,760.9,1505.5,758.7z"/>
	<path fill="#222222" d="M1697.9,706.2c1.3,1.8,3.4,3.5,3.8,5.6c0.6,3-4.3,7.5-7.5,7c-1.5-0.2-3.7-2.1-3.8-3.4
		C1689.9,711.2,1693.6,706.9,1697.9,706.2z M1692.8,717.5c3.2-2.1,5.4-3.6,8.4-5.6C1695.2,710.3,1694,711,1692.8,717.5z"/>
	<path fill="#222222" d="M1717,735.1c0.1-1,0.4-2,0.2-2.9c-0.4-1.7-1.1-4.9-1.7-4.9c-2.4,0-6,0.2-6.9,1.7c-1.1,2-0.4,5.3,0.3,7.8
		c0.1,0.5,3.6,0.3,5.5,0.2c0.7,0,1.5-0.7,2.2-1c-2.1,1.2-4.4,3.6-6.4,3.4c-3.3-0.4-3.7-3.7-3.3-6.7c0.1-0.5-0.2-1-0.1-1.5
		c0.7-2.5,0.9-6.6,2.2-7c2.3-0.7,6.1,0.1,7.8,1.7c1.4,1.4,0.9,4.9,1.1,7.4C1718,733.9,1717.3,734.5,1717,735.1z"/>
	<path fill="#222222" d="M1839.8,735.6c0.5,3.9,0.2,7.2-3.9,8.6c-1.2,0.4-3.7,0-3.8-0.3c-0.3-1.9-0.5-4.1,0.2-5.8
		C1833.6,734.8,1836.2,733.8,1839.8,735.6z"/>
	<path fill="#222222" d="M1680,755.8c-2.6-3-5.9-5.6-5.5-6.5c1.2-2.5,3.9-4.2,6-6.2c1.7,2,4.6,3.8,4.8,5.9
		C1685.4,750.8,1682.4,752.8,1680,755.8z M1684.9,748.9c-3-1.2-4.4-2.3-5.9-2.3c-1,0-2,1.6-2.9,2.5c1.2,0.9,2.4,2.5,3.7,2.6
		C1680.9,752,1682.2,750.5,1684.9,748.9z"/>
	<path fill="#222222" d="M1527.9,755.9c2,3,4.1,4.8,3.8,6.1c-0.4,1.8-2.6,3.2-4,4.8c-1.2-1.7-3.1-3.2-3.4-5
		C1524.1,760.5,1526,758.8,1527.9,755.9z"/>
	<path fill="#222222" d="M1814.4,742.1c-2.3,1.9-4.4,4.7-7,5.6c-2.6,0.8-5.8-0.3-8.7-1.5c5.3-1.1,11.1,0.2,14.2-6.6
		C1813.3,740.4,1813.9,741.3,1814.4,742.1z"/>
	<path fill="#222222" d="M1488.3,768.2c-1.9,1.4-3.6,3.1-4,2.8c-1.6-1-3.6-2.5-3.9-4c-0.2-1.1,2.1-2.7,3.3-4.1
		C1485,764.4,1486.4,765.9,1488.3,768.2z"/>
	<path fill="#222222" d="M1838.4,610.1c1.7,2.8,3.4,4.5,3.1,5.5c-0.6,1.7-2.4,2.9-3.8,4.3c-0.9-1.1-2.6-2.3-2.5-3.3
		C1835.5,614.9,1836.8,613.3,1838.4,610.1z"/>
	<path fill="#222222" d="M1762.3,671.6c1.3,1.6,2.9,3.1,2.7,3.3c-1.7,2.1-3.6,4-5.6,5.8c-0.1,0.1-2.3-2-2.2-2.2
		C1758.6,676.3,1760.2,674.3,1762.3,671.6z"/>
	<path fill="#222222" d="M1662.9,744.3c1.5,1.9,3.3,3.5,3,4.1c-0.9,1.7-2.3,3.3-4,4.2c-0.5,0.3-3.5-2.5-3.3-3.1
		C1659.3,747.8,1661,746.5,1662.9,744.3z"/>
	<path fill="#222222" d="M1656.5,736.4c2.1,1.9,3.3,2.9,4.4,4c-1.5,1.2-2.9,2.8-4.7,3.5c-0.6,0.2-3.1-1.8-3-2.5
		C1653.5,739.8,1654.9,738.6,1656.5,736.4z"/>
	<path fill="#222222" d="M1910.9,635.6c-0.2,4.8-2.1,6.8-5.6,5.9c-0.8-0.2-1-2.4-1.5-3.7C1906.2,637,1908.5,636.3,1910.9,635.6z"/>
	<path fill="#222222" d="M1900.1,627.5c-3.3,0.6-5.7,1-8.1,1.4c-0.1-1.3-0.8-3.1-0.2-3.7C1894.1,622.8,1896.6,622.9,1900.1,627.5z"
		/>
	<path fill="#222222" d="M1882.4,721.6c-2.2,0.9-4.4,1.8-6.7,2.8c-0.3-1.1-1.3-2.6-0.9-3.2c1.7-2.8,4.2-2.8,6.8-1.9
		C1882,720,1882.2,720.8,1882.4,721.6z"/>
	<path fill="#222222" d="M1706.1,738.1c-1.9,1.6-3,3-4.5,3.6c-0.4,0.2-2.6-2-2.4-2.6c0.4-1.4,1.6-2.9,2.9-3.7
		C1702.6,735,1704.3,736.7,1706.1,738.1z"/>
	<path fill="#222222" d="M1717.4,715c-2.1,1.6-3.5,2.8-4.9,3.9c-0.7-1.1-2.3-2.8-2-3.2c0.9-1.4,2.5-2.6,4-3.5
		C1714.7,712,1715.9,713.6,1717.4,715z"/>
	<path fill="#222222" d="M1772,727.6c-1,1.6-2,3.1-3.1,4.7c-0.6-1.1-2-2.5-1.8-3.3c0.4-1.3,2-2.1,3-3.2
		C1770.8,726.5,1771.4,727,1772,727.6z"/>
	<path fill="#FFFFFF" d="M1775.3,531.7c-8.1,1.5-8.2,1.5-9.7-5.5c-5.4-25.7-10.4-51.4-16-77.1c-4.7-21.6-9.9-43-14.7-64.5
		c-5.5-24.6-10.7-49.2-16-73.7c-6.3-29.4-12.6-58.9-19-88.3c-3.4-15.7-7.3-31.4-10.4-47.2c-1.3-6.6-1-13.5-1.3-20.2c0-1,1.1-2,1.6-3
		c2.1-4,1.2-7.9-2.3-10.5c-2.3-1.8-4.5-3.7-6.9-5.7c0.5-4.6,4.5-4,8.1-5.1C1717.8,264.5,1746.5,398,1775.3,531.7z"/>
	<path fill="#FFFFFF" d="M1793,643.3c1.9-1.7,3.8-3.4,5.7-5.1c0.3,0.8,0.6,1.6,1.1,3c0.4-0.9,0.8-1.4,0.7-1.6c-1.9-4-3.9-8-6-11.9
		c-0.3-0.6-1.7-1.2-2.4-1c-0.7,0.2-1.4,1.5-1.3,2.3c0.2,2.5,0.8,4.9,1.3,7.8c-4.7,0-6.4,3.5-7.4,7.2c-1.3-8.5-2.7-17.1-3.9-25.6
		c-0.8-5.7-1.7-11.4-2.3-17.1c-0.2-1.9,0.4-3.9,0.6-5.9c0.1-0.7,0.1-1.5-0.1-2.2c-1.5-6.1-2.1-12.6-4.8-18.1
		c-4-8.1-4.3-16.7-5.9-25.1c-0.9-5-1.1-10.1-1.6-14.9c3.4-0.2,6.3-0.3,10.2-0.5c0.3,1.9,0.8,4.4,1.2,6.8c3.6,18.6,7,37.2,10.9,55.8
		c2.2,10.5,5.1,20.8,8,31.1c0.6,2.1,3.2,3.6,3.9,5.7c0.9,2.4,2,6.3,0.8,7.6c-1.9,2-5.5,2.3-8.4,3.3
		C1793.4,644.3,1793.2,643.8,1793,643.3z"/>
	<path fill="#FFFFFF" d="M1658.7,265.9c0.3-1.7,0.2-3.6,0.8-5.2c6.4-18,13.3-35.8,19.3-54c4.4-13.2,5.4-27.1,5-41
		c-0.1-2.2-0.1-4.3,0.2-6.5c0.1-0.9,1.1-1.7,2.1-2.3c4,39.5-8.4,74.9-24.9,109.4C1660.4,266.1,1659.5,266,1658.7,265.9z"/>
	<path fill="#FFFFFF" d="M462.2,755.6c1.6,1.1,3.1,2.1,4.9,3.3c0.1,4.6,1.3,8.9,7.9,11c-2.6,3.9-5.1,7.6-8.4,12.4c0-4.3,0-6.9,0-9.7
		c-5,0.3-6,4.2-7.4,7.3c-3.5,7.8-4.3,8.3-13.3,6.5c1.6-3.8,3.3-7.6,4.9-11.5c5.3,1.2,9.7-3.2,8.8-9.3
		C458.7,760.1,458.9,759.2,462.2,755.6z"/>
	<path fill="#FFFFFF" d="M1289.9,810.7c0.5-1.6,0.8-3.2,1.4-4.7c3.6-9.7,7.2-19.5,11-29.1c0.6-1.6,2.6-3.5,4.2-3.7
		c3.5-0.6,7.2-0.2,11.1-0.2c-0.9,3.9-0.6,7.8-6,9c-2,0.4-3.7,4.7-4.4,7.5c-1,3.9-3.2,6.4-6.1,9c-3.4,3.1-5.9,7.3-8.8,11
		c-0.4,0.5-0.8,1.1-1.3,1.7C1290.6,811.1,1290.2,810.9,1289.9,810.7z"/>
	<path fill="#FFFFFF" d="M1632.3,310.6c10.8-13.7,12.6-24.4,4.9-31.4c5.9-5.3,10.2-12.5,19.2-13.6
		C1657.8,274,1639.1,308.3,1632.3,310.6z"/>
	<path fill="#FFFFFF" d="M1334.8,809.2c-4.3,0-7.5-0.3-10.5,0.1c-2.7,0.3-5.3,1.2-7.9,2.1c-1.6,0.5-3,1.5-4.4,2.3
		c-0.4-0.3-0.9-0.6-1.3-0.9c1.4-4.6,1.7-10,4.5-13.4c2.7-3.4,8-4.8,12.8-7.3C1329.9,797.3,1332,802.3,1334.8,809.2z"/>
	<path fill="#FFFFFF" d="M1319.6,769.9c-4.7,0-9.5,0-14.9,0c2-5.5,3.9-10.6,5.9-16c4.5,0,9.1,0,14.1,0
		C1322.9,759.4,1321.3,764.5,1319.6,769.9z"/>
	<path fill="#FFFFFF" d="M1327.3,754.3c13.3,5.2,12.9,17.7,18,26.8c-0.3,0.5-0.7,1-1,1.5c-3.4-1.8-8.7-2.9-9.8-5.6
		C1331.7,770,1325.3,763.8,1327.3,754.3z"/>
	<path fill="#FFFFFF" d="M1341.5,762.9c5.2,2.6,9.8,4.7,14.2,7.2c1.1,0.6,2.1,2.3,2.3,3.6c0.4,2.6,0.4,5.3,0.1,7.9
		c-0.2,1.8-1.2,3.6-1.9,5.4c-2.3-1.2-5.8-1.9-6.7-3.7C1346.4,777,1344.3,770.2,1341.5,762.9z"/>
	<path fill="#FFFFFF" d="M1373.5,810.1c-2.8,1.6-5.7,3.1-8.5,4.7c0.1,0.3,0.2,0.7,0.2,1c2.1-0.2,4.2-0.3,6.3-0.5
		c0.2,0.3,0.4,0.7,0.5,1c-3.4,1.7-6.8,3.5-10.2,5.2c0.2,0.5,0.4,1,0.5,1.5c2.4-0.5,4.8-1,7.5-1.5c0.8,3.4,0.5,5.9-3.9,7
		c-3.3,0.8-6.4,2.6-10.5,4.4c0.5-4.2,0.5-8.1,1.5-11.8c0.8-3.1,2.2-6.7,4.5-8.4c3-2.3,7.2-3,10.9-4.4
		C1372.8,808.9,1373.1,809.5,1373.5,810.1z"/>
	<path fill="#FFFFFF" d="M1354.2,806.8c-5.4,0.1-9.5-0.1-11.2-5.9c-1.7-5.8-4.2-11.3-6.8-17.8c6.4,1.8,11.6,3,13,10.1
		C1350.1,797.7,1352.4,801.9,1354.2,806.8z"/>
	<path fill="#FFFFFF" d="M464.4,753.5c14-15.2,28-30.3,42-45.5c0.3,0.1,0.7,0.2,1,0.2c-0.2,0.9,0,2.1-0.5,2.7
		c-12,14-23.9,28-36.1,41.8c-1.2,1.4-3.3,1.9-4.9,2.9C465.4,754.9,464.9,754.2,464.4,753.5z"/>
	<path fill="#FFFFFF" d="M1320.7,774.9c2.2,5.6,3.9,9.8,5.7,14.4c-1.5,0.8-2.9,1.8-4.3,2.2c-9,2.4-12.2,9.4-14,17.5
		c-0.5,2.3-1,5.2-5,3.8c1.7-7.1,2.4-14.5,9.2-19.3c4.1-3,6.1-7.6,6.7-12.8C1319.1,779.2,1319.8,777.8,1320.7,774.9z"/>
	<path fill="#FFFFFF" d="M1464.2,761c-4.1-4.6,4.2-12.2-4.2-15.1c0.3-0.7,0.3-1,0.4-1c6.8-2,9.7-6.2,8.7-13.6
		c-0.6-4.3,3.6-6.1,7.7-3.7c-1.2,1.6-2.3,3.3-3.6,4.7c-3.1,3.5-4.4,7.2-2.3,11.8c2.3,5,0.8,9.2-3.1,12.9
		C1466.5,758.1,1465.5,759.5,1464.2,761z"/>
	<path fill="#FFFFFF" d="M1445.1,741.5c-0.3,4-0.7,6.7-4.5,7.9c-9.4,3.1-18.7,6.5-29.2,8.9c0.7-1.5,1-3.9,2.1-4.4
		C1423.7,749.7,1434,745.8,1445.1,741.5z"/>
	<path fill="#FFFFFF" d="M1377.4,789.7c-4.2,1.8-8.3,3.7-12.5,5.5c0.1,0.6,0.3,1.2,0.4,1.7c3.4-0.7,6.8-1.4,10.1-2
		c0.1,0.3,0.3,0.6,0.4,1c-4.2,1.2-8.5,2.4-13,3.7c0-4.2,0.3-8.1-0.1-11.8c-0.4-4.3,2.1-5.4,5.5-5.9c3.1-0.4,6.2-0.8,9.8-1.3
		c-1,7.4-9.1,4.6-13.3,9.6c4.6-0.8,8.2-1.5,11.8-2.1C1377,788.6,1377.2,789.2,1377.4,789.7z"/>
	<path fill="#FFFFFF" d="M1408.4,772.2c0.9-1.4,1.5-3.6,2.7-4c10-3.6,20.1-6.8,30.2-10.2c0.4,0.4,0.7,0.7,1.1,1.1
		c-1.4,1.5-2.6,3.8-4.4,4.5c-9.5,3.4-19.1,6.3-28.6,9.4C1409.1,772.6,1408.8,772.4,1408.4,772.2z"/>
	<path fill="#FFFFFF" d="M1396.6,812.2c0.8,5.1-1.7,7.2-5.4,8.4c-3,0.9-6,1.6-9,2.5c-2.8,0.9-5.6,1.9-8.8,3c-0.5-4,0.2-6.7,4.5-7.9
		C1384.2,816.5,1390.3,814.3,1396.6,812.2z"/>
	<path fill="#FFFFFF" d="M1484.5,741c-3.6,2.1-6.6,3.9-9.7,5.6c-3.8-7.8-2.5-11.7,6.7-19.3c0.5,2,1.1,3.8,1.5,5.7
		C1483.6,735.7,1484.1,738.4,1484.5,741z"/>
	<path fill="#FFFFFF" d="M1660.6,268.7c0,0.9,0.3,2,0,2.7c-3.9,8.8-7.7,17.7-12,26.3c-2.3,4.6-5.5,8.7-8.2,13
		c-2.1,3.3-5.1,4.5-9,4.2c13.2-10.6,18.2-26.2,25.9-40.1c1.1-1.9,1.6-4.1,2.4-6.2C1660,268.7,1660.3,268.7,1660.6,268.7z"/>
	<path fill="#FFFFFF" d="M1439.4,768.2c-1.6,1.4-3.1,3.5-5,4.1c-8.9,2.9-17.9,5.5-26.8,8.1c-0.3-0.4-0.5-0.8-0.8-1.2
		c0.9-1,1.7-2.6,2.9-3c9.5-3.3,19-6.3,28.5-9.4C1438.6,767.3,1439,767.7,1439.4,768.2z"/>
	<path fill="#FFFFFF" d="M1627.3,295.7c1.6,1.5,3.2,3.1,5,4.8c6.7-4.1,6.7-5.4-2.1-16.1c3.3-0.5,5.9-1.5,8.1-0.9
		c1,0.2,2,3.7,1.7,5.5c-1.1,6.4-1.8,13.2-8.1,18c-1-4.1-7.2-5.7-4.5-11.3C1627.4,295.6,1627.3,295.7,1627.3,295.7z"/>
	<path fill="#FFFFFF" d="M1425.4,806c-1.4,1.2-2.6,3-4.2,3.6c-6.9,2.6-13.9,4.8-21.2,7.2c-0.9-3.5,0.2-5.8,3.9-6.8
		c6.8-1.8,13.6-3.5,20.3-5.3C1424.6,805.1,1425,805.6,1425.4,806z"/>
	<path fill="#FFFFFF" d="M1464.1,730.9c3.2,2.6,3,7.6-0.7,9.3c-5.2,2.3-10.5,4.4-16.1,6.7c0.6-4.9,2.2-8.3,7.3-9.3
		c2.7-0.5,5.4-1.6,7.8-2.9c1-0.6,1.2-2.6,1.8-3.9L1464.1,730.9z"/>
	<path fill="#FFFFFF" d="M1429.6,791.2c-1.5,1.3-2.9,3.1-4.6,3.7c-7.1,2.5-14.3,4.7-22.5,6.1c0.8-1.3,1.4-3.3,2.6-3.7
		c7.7-2.8,15.5-5.3,23.2-7.9C1428.7,790.1,1429.2,790.7,1429.6,791.2z"/>
	<path fill="#FFFFFF" d="M1429.5,745.3c-17.8,6.3-35.5,12.6-53.3,18.9c-0.2-0.6-0.4-1.1-0.6-1.7c17.7-6.4,35.5-12.7,53.2-19.1
		C1429,744,1429.2,744.7,1429.5,745.3z"/>
	<path fill="#FFFFFF" d="M1409.4,756.9c-1.1,1.3-2,3.3-3.5,3.8c-7.3,2.7-14.7,4.9-23.2,6.6c0.9-1.3,1.5-3.4,2.7-3.8
		c7.6-2.8,15.2-5.2,22.9-7.7C1408.6,756.2,1409,756.5,1409.4,756.9z"/>
	<path fill="#FFFFFF" d="M1306.9,755.7c-0.4,1.2-1.3,3.3-2,5.4c-3.9,0.3-6.9,0.1-7.2-5c-0.1-1.6-2.2-3.1-3.4-4.7
		c-0.9-1.2-1.9-2.3-2.8-3.4c0.4-0.6,0.7-1.1,1.1-1.7c2.3,1,4.8,1.8,6.9,3.1C1301.9,751.1,1304,753.2,1306.9,755.7z"/>
	<path fill="#FFFFFF" d="M1452.5,774.1c2.4-8.7,4.6-16.9,6.9-25.2c0.4,0,0.8,0,1.3,0c0.1,1.1,0.3,2.2,0.4,3.3
		c0.1,3.2-0.3,6.5,0.3,9.6C1462.2,766.9,1458.7,772.6,1452.5,774.1z"/>
	<path fill="#FFFFFF" d="M1380.3,781.7c1.1-1.2,2-3.1,3.4-3.6c7.2-2.8,14.5-5.2,22.8-7c-1.3,1.4-2.4,3.4-4.1,4.1
		c-6.9,2.8-13.9,5.1-20.9,7.7C1381.1,782.4,1380.7,782,1380.3,781.7z"/>
	<path fill="#FFFFFF" d="M1402,791.4c-1.3,2.5-1.7,4.5-2.7,4.9c-7.2,2.8-14.5,5.3-22.5,8.1C1383.2,796.1,1391.8,794,1402,791.4z"/>
	<path fill="#FFFFFF" d="M1342,805.4c-3.1,2-5.4,2.6-6.6-2.2c-1-3.9-3-7.6-4.6-11.8c1.5-1,2.9-1.9,4.5-2.9
		C1337.6,794.2,1339.8,799.8,1342,805.4z"/>
	<path fill="#FFFFFF" d="M1271.5,844.6c-1,2.6-1.7,5.3-3.1,7.6c-0.9,1.4-3.1,2.8-4.5,2.6c-1.6-0.2-3.7-1.9-4.1-3.4
		c-0.3-1.2,1.1-3.7,2.4-4.5c2.6-1.7,5.6-2.6,8.4-3.8C1270.9,843.5,1271.2,844,1271.5,844.6z"/>
	<path fill="#FFFFFF" d="M1382.3,775.1c0.3-4.3,14.3-10.4,24.2-10.9C1405.6,767.1,1397,771,1382.3,775.1z"/>
	<path fill="#FFFFFF" d="M1455.6,753.7c-0.7,2-1.9,4-2,6c-0.5,7.1-5.5,8.3-11.2,9.4c-0.6-7.2,8.3-3.5,9.7-9.2
		c-2.5,0.3-4.4,0.5-6.4,0.7C1445.4,756,1447.9,754.2,1455.6,753.7L1455.6,753.7z"/>
	<path fill="#FFFFFF" d="M1397.9,824.1c0.3-1.3,0.2-2.1,0.5-2.2c7.1-2.9,14.2-5.7,21.4-8.4c0.5-0.2,1.9,1,2.3,1.8
		c0.2,0.4-0.7,2-1.4,2.2c-6.6,2.1-13.3,4.1-20,6C1400,823.7,1399.2,823.8,1397.9,824.1z"/>
	<path fill="#FFFFFF" d="M1338.4,812c3.6-2.7,5.5-2.6,6.7,1.1c1.3,3.9,3.1,7.6,5,12.1C1340.9,824.4,1342.8,815.9,1338.4,812z"/>
	<path fill="#FFFFFF" d="M1396,828.5c7.7-2.9,15.5-5.9,23.2-8.8c0.4,0.4,0.8,0.8,1.2,1.2c-1.1,1.3-1.9,3.2-3.3,3.7
		c-6.7,2.2-13.5,4-20.2,6C1396.6,829.9,1396.3,829.2,1396,828.5z"/>
	<path fill="#FFFFFF" d="M1332.1,826.8c-1,1.1-2.1,2.1-3.1,3.2c-0.9-1.3-1.7-2.6-2.6-3.8c-1.9-2.7-3.9-5.3-5.9-7.9
		c5.9-2.9,11.4,1.2,11.5,8.7C1331.9,827,1332.1,826.8,1332.1,826.8z"/>
	<path fill="#FFFFFF" d="M1771.2,571.9c2.1,7.5,4,13.9,5.7,20.4c0.2,0.7-0.6,1.7-0.9,2.5c-1-0.4-2.7-0.6-2.8-1.2
		c-1.5-6.3-2.8-12.7-4.1-19.1C1769.1,574,1770,573.3,1771.2,571.9z"/>
	<path fill="#FFFFFF" d="M1445.1,752.8c-11.5,4-22.9,8.1-34.4,12.1c1.8-4.8,6.4-4.2,9.9-5.7c3.9-1.7,8.1-2.8,12.1-4.2
		c3.9-1.3,7.8-2.5,11.7-3.8C1444.6,751.8,1444.9,752.3,1445.1,752.8z"/>
	<path fill="#FFFFFF" d="M1359.4,810.2c1.6-8.2,9-7,14.6-8.7C1371.6,808.5,1364.2,807.2,1359.4,810.2z"/>
	<path fill="#FFFFFF" d="M1423.7,788.3c-6.9,2.2-13,4.2-19.1,6.1C1404.1,789.1,1416,785,1423.7,788.3z"/>
	<path fill="#FFFFFF" d="M1399.8,799c-0.6,3.8-13.9,9.3-23.6,10.3c-0.2-0.5-0.4-0.9-0.6-1.4C1383.5,805,1391.4,802.1,1399.8,799z"/>
	<path fill="#FFFFFF" d="M1770.2,659.5c0.1-3.2,6-9.2,8.7-8.3c0.9,0.3,1.9,3.2,1.4,4.3C1778.9,658.8,1774.7,660.2,1770.2,659.5z"/>
	<path fill="#FFFFFF" d="M510.2,707.5c0-5.7,10.4-16.6,16.1-15.9C520.7,697.2,515.7,702.1,510.2,707.5z"/>
	<path fill="#FFFFFF" d="M1403.9,779.2c-6.9,5.5-15.8,6.1-24.1,10.2C1381.3,785.9,1389.3,782.5,1403.9,779.2z"/>
	<path fill="#FFFFFF" d="M1372.2,833c6.2-5.8,14.9-6.2,22.2-9.7C1388.4,829.4,1379.4,829.2,1372.2,833z"/>
	<path fill="#FFFFFF" d="M1623.1,299.4c-0.2,1.7-0.3,3.5-0.6,6.2c1.7-1.1,3-2,4.5-2.9c1,1.4,2.3,3.3,4.7,6.8c-4-0.2-7.4,0.7-9-0.6
		C1619.7,306.4,1620.4,302.6,1623.1,299.4z"/>
	<path fill="#FFFFFF" d="M1347.2,810.3c2.8,0.4,5.1,0.7,8.1,1.1c-0.7,3.9-1.4,7.9-2,11.8c-0.3,0-0.6,0-0.9,0.1
		C1350.7,818.9,1348.9,814.7,1347.2,810.3z"/>
	<path fill="#FFFFFF" d="M1359.5,791.3c-0.9,4.1-1.6,7.8-2.7,12.9c-2-5.5-3.6-9.7-5.5-14.9C1354.3,790,1356.5,790.5,1359.5,791.3z"
		/>
	<path fill="#FFFFFF" d="M1292.8,814.6c3.4-5.2,6.1-9.5,8.9-13.8c0.4,0.2,0.8,0.4,1.2,0.7c-1.1,4.1-2.2,8.2-3.3,12.3
		C1297.7,814,1295.9,814.2,1292.8,814.6z"/>
	<path fill="#FFFFFF" d="M1464.2,730.8c-6.3,2.6-12.6,5.1-19.4,7.8c1.9-5.1,14-9.5,19.3-7.7C1464.1,730.9,1464.2,730.8,1464.2,730.8
		z"/>
	<path fill="#FFFFFF" d="M1672.5,183.2c-4.3-1.2-7.8-2-11.1-3.2c-2.8-1-5.5-2.5-8.2-3.8C1656.6,174.2,1669.6,178.4,1672.5,183.2z"/>
	<path fill="#FFFFFF" d="M1380.7,764.9c-0.4,5.9-3.9,8.3-10.8,7.7C1371.2,766.6,1376.6,766.8,1380.7,764.9z"/>
	<path fill="#FFFFFF" d="M1429.6,797.1c4.1-1.7,8.2-3.4,12.4-4.9c0.4-0.1,1.4,1.5,2.1,2.3c-1.1,0.9-2,2.3-3.2,2.6
		c-3.4,0.8-6.9,1.2-10.4,1.7C1430.2,798.2,1429.9,797.6,1429.6,797.1z"/>
	<path fill="#FFFFFF" d="M1445.7,784.1c1.8,5-2.7,4.1-4.8,5c-2.6,1.2-5.4,1.8-8.2,2.7C1433.7,787.1,1433.7,787.1,1445.7,784.1z"/>
	<path fill="#FFFFFF" d="M1371.3,837.2c7.1-2.7,14.1-5.3,21.2-8c0.3,0.7,0.5,1.3,0.8,2c-7.1,2.6-14.2,5.1-21.3,7.7
		C1371.7,838.4,1371.5,837.8,1371.3,837.2z"/>
	<path fill="#FFFFFF" d="M1329.6,789c-2.1-4.8-3.8-8.6-5.6-12.7c5.4,0.7,7.3,4.3,8.2,8.5C1332.5,785.7,1330.9,787,1329.6,789z"/>
	<path fill="#FFFFFF" d="M1426.9,799.6c-7.4,4.5-16.5,4.2-24.3,7.6c-0.2-0.5-0.3-1-0.5-1.5c8-2.5,16-5.1,24-7.6
		C1426.3,798.6,1426.6,799.1,1426.9,799.6z"/>
	<path fill="#FFFFFF" d="M1374.7,816c2.4-3.9,18.3-9.3,24-8.1C1390.5,810.7,1383,813.2,1374.7,816z"/>
	<path fill="#FFFFFF" d="M1464.6,780.1c-4.7,2-9.5,4.1-14.4,6.2C1450.3,781.6,1456.6,778.7,1464.6,780.1z"/>
	<path fill="#FFFFFF" d="M1438.5,776.6c2.6-4.7,6.9-5.1,11.1-5.9C1450.2,775.6,1448.5,776.5,1438.5,776.6z"/>
	<path fill="#FFFFFF" d="M1441.9,800.9c-3.4,4-9,3.6-13.3,5.9C1428.7,803.9,1428.7,803.9,1441.9,800.9z"/>
	<path fill="#FFFFFF" d="M1286.1,746c2.5,3.4,4,5.4,5.6,7.6c-2.7,2.4-5.7,1.7-7.3-0.8C1283.6,751.7,1285.3,748.9,1286.1,746z"/>
	<path fill="#FFFFFF" d="M1455.8,786.8c4.1-1.7,6.8-2.8,9.8-4c0.6,2.1,1.1,3.9,1.8,6.4C1463.6,788.5,1460.4,787.8,1455.8,786.8z"/>
	<path fill="#FFFFFF" d="M1283.7,757.6c4-0.4,7.3-0.8,11.9-1.3c-1.3,1.5-2.1,3.2-3.4,3.9C1288.7,762,1285.9,760.9,1283.7,757.6z"/>
	<path fill="#FFFFFF" d="M1379.2,773.4c-1,3.1-6.3,6.4-8.4,5.6c-0.5-0.2-1.3-1-1.2-1.3c0.3-0.8,0.9-1.5,1.5-2.2
		c0.2-0.2,0.6-0.3,0.9-0.4C1374.2,774.5,1376.4,774,1379.2,773.4z"/>
	<path fill="#FFFFFF" d="M1455.6,753.7c-1.5-5.3-5.6-1.1-9.7-2.7c4.1-2,7.2-3.5,11.3-5.4C1456.5,748.9,1456,751.3,1455.6,753.7
		C1455.6,753.7,1455.6,753.7,1455.6,753.7z"/>
	<path fill="#FFFFFF" d="M1428.3,777.5c-3.5,6.6-8.2,5.4-14,4.1C1419.2,780.1,1423.3,778.9,1428.3,777.5z"/>
	<path fill="#FFFFFF" d="M1323.4,825.5c-2.7-0.2-4.9,0.4-5.7-0.5c-1.6-1.6-2.5-4-3.7-6.1c0.5-0.3,0.9-0.6,1.4-0.9
		C1317.7,820.2,1320,822.4,1323.4,825.5z"/>
	<path fill="#FFFFFF" d="M1777.9,645.5c3.9,0.2,7.7,0.4,11.6,0.6c0,0.6,0.1,1.1,0.1,1.7c-3.8,0.2-7.7,0.3-11.5,0.5
		C1777.9,647.4,1777.9,646.5,1777.9,645.5z"/>
	<path fill="#FFFFFF" d="M1673.4,186c1.8,5.1,3.5,10.1,5.3,15.2c-0.5,0.2-1,0.3-1.5,0.5c-1.6-5.1-3.2-10.2-4.8-15.3
		C1672.7,186.3,1673,186.1,1673.4,186z"/>
	<path fill="#FFFFFF" d="M1325.1,764.3c1.6,3.7,2.8,6.4,4.6,10.5c-2.9-1.4-4.7-2.3-6.7-3.3C1323.6,769.4,1324.2,767.4,1325.1,764.3z
		"/>
	<path fill="#FFFFFF" d="M1447.8,790.2c3,0,6,0,9.1,0c-2.5,4.1-5.9,1.6-8.9,1.9C1448,791.5,1447.9,790.8,1447.8,790.2z"/>
	<path fill="#FFFFFF" d="M435.8,748.5c-8.2,9-15.2,18.7-18.4,31.1c-0.4-0.3-1-1-1.7-1.5c-0.8-0.6-1.6-1.1-2.4-1.6
		c4.5-6.9,9.1-13.8,13.5-20.8c1.5-2.4,2.3-5.3,3.6-8.5C431.7,747.6,433.9,748.1,435.8,748.5z"/>
	<path fill="#FFFFFF" d="M118.2,747.8c2.7,0,6.9,4.3,6.8,7.2c-0.1,3.4-2,5.6-5.4,5.8c-3.3,0.2-7.1-4.1-7-7.6
		C112.6,749.9,114.7,747.9,118.2,747.8z"/>
	<path fill="#FFFFFF" d="M421.3,745.8c-0.8,1.8-1.8,3.6-2.2,5.5c-0.4,1.8-0.3,3.7-0.4,6.2c-0.7-1.2-1.2-2-2.1-3.5
		c-0.1,2.5-0.2,4.1-0.3,5.8c-0.4,0-0.8,0.1-1.2,0.1c-0.7-1.7-1.4-3.3-2-5c-0.2,0-0.4,0.1-0.7,0.1c0,2.1,0,4.3,0,8
		c-1.4-2.1-1.9-3.1-2.6-3.9c-1.2-1.5-2.2-3.3-3.8-4.3c-3.6-2.2-5-7.5-1.7-10c3.6-2.6,7.8-4.8,12.1-5.8c5.1-1.1,6.3,1.2,4.5,6.7
		c-0.9-5.2-2.8-7.1-5.3-5.1c-1.4,1.1-2.2,3.2-2.6,5c-0.2,0.8,1.3,2.9,1.8,2.9c1.6-0.3,3.1-1.3,4.6-2
		C420.3,746.4,420.8,746.1,421.3,745.8z M413.2,749.3c-2.1-1.7-3.5-2.9-4.8-4c-0.8,1.2-2.3,2.6-2.2,3.6c0.2,1.4,1.8,2.5,2.8,3.8
		C410.2,751.8,411.3,750.9,413.2,749.3z"/>
	<path fill="#FFFFFF" d="M428.8,824.4c1-6,4.4-9.8,9.9-10.4c5.3-0.6,9.7,1.6,13.3,5.4c2.5,2.6,2.1,5.3-0.5,7.8
		c-4.2,4.1-12.6,6.1-17.6,3.4C431.7,829.5,430.5,826.5,428.8,824.4z"/>
	<path fill="#FFFFFF" d="M219.6,796.5c-2.4-0.6-4.2-0.6-5.5-1.5c-1.6-1.2-2.7-3-4.1-4.6c1.9-1.1,3.8-2.8,5.8-3.2
		c1.5-0.3,3.6,0.7,5,1.8c1.4,1.1,3,3.2,2.8,4.6C223.4,794.8,220.8,795.7,219.6,796.5z"/>
	<path fill="#FFFFFF" d="M174.7,796.4c-4.2-0.3-7.2-3.2-6.7-6.8c0.5-3.3,2.1-6,6.1-5.7c5,0.4,8.4,3.6,8.1,7.4
		C182,794.8,179.3,796.7,174.7,796.4z"/>
	<path fill="#FFFFFF" d="M397.4,782.6c-2.3,1.6-3.9,3.6-4.9,3.3c-1.8-0.5-3.3-2.4-4.9-3.7c1.2-1.4,2.8-4,3.7-3.8
		C393.2,778.8,394.8,780.6,397.4,782.6z"/>
	<path fill="#FFFFFF" d="M394.4,789.7c2.1-2,3.4-4.3,4.8-4.4c1.3,0,4,2.7,3.7,3.5c-0.6,1.9-2.5,3.4-3.9,5.1
		C397.8,792.8,396.5,791.6,394.4,789.7z"/>
	<path fill="#FFFFFF" d="M149.6,778.6c-3.5,3-8.3,2.3-9.3-0.9c-0.3-0.9,0.1-2.2,0.6-3.1c0.2-0.3,1.8-0.2,2.5,0.2
		C145.4,775.8,147.2,777.1,149.6,778.6z"/>
	<path fill="#FFFFFF" d="M135.1,771.1c4.4-5.3,6.2-4.9,8.7,1.2C140.9,771.9,138.4,771.5,135.1,771.1z"/>
	<path fill="#FFFFFF" d="M706.3,824.2c-2.9-3.2-5.9-4.9-6.2-7c-0.7-5.9,4.9-2.9,7.5-4c0.7-0.3,4.4,3,4.1,3.9
		C711.1,819.3,708.9,821.1,706.3,824.2z"/>
	<path fill="#FFFFFF" d="M465.4,810.7c-2.5-2.2-4-3.4-5.4-4.7c2.2-1.3,4.3-3,6.7-3.8c0.7-0.3,3.4,2.4,3.3,2.7
		C468.9,806.7,467.4,808.3,465.4,810.7z"/>
	<path fill="#FFFFFF" d="M389.1,799c3,0,6.3-0.2,6.5,4.1c0.2,4.1-3.1,7.1-7.3,6.9c-3.6-0.2-6.6-1.6-7.2-5.4
		C380.7,801.6,384.8,799,389.1,799z"/>
	<path fill="#FFFFFF" d="M508,809.3c1.1-4.4,3.5-6.2,7.3-5c0.8,0.3,1.9,2.6,1.5,3.3C514.8,811.5,511.5,810.1,508,809.3z"/>
	<path fill="#FFFFFF" d="M821.8,853.1c-3.9-1.2-7.8-0.8-7.7-5.4c0.1-4.4,4.6-3.7,6.9-3.4c2.1,0.2,4,2.9,6,4.5
		C825.3,850.2,823.5,851.7,821.8,853.1z"/>
	<path fill="#FFFFFF" d="M1216.3,828c-0.7-0.8-2.8-2.3-3.2-4.1c-0.7-3.5,4.8-7.1,10.3-6.6c1.3,0.1,3.2,2.3,3.4,3.8
		C1227.4,824.1,1222,828,1216.3,828z"/>
	<path fill="#FFFFFF" d="M1191.1,831.7c-0.1,5.2-3.9,8.7-7.7,8.2c-1.5-0.2-3.8-1.7-4.1-3c-0.7-2.8,4.8-8.1,7.7-7.6
		C1188.6,829.5,1190.2,831.1,1191.1,831.7z"/>
	<path fill="#FFFFFF" d="M427.6,721.2c-2.2-1.8-3.8-3.1-5.4-4.5c2-1.6,4-4.3,6.1-4.5c2.1-0.1,4.4,2.3,6.6,3.6
		C432.7,717.6,430.5,719.2,427.6,721.2z"/>
	<path fill="#FFFFFF" d="M955,854.7c-2.7,3.6-5.7,4.7-9.2,2.5c-0.6-0.4-0.6-3.4,0.1-4C949.1,850.8,952.3,851.2,955,854.7z"/>
	<path fill="#FFFFFF" d="M654.6,818.4c-5.2,3.8-9,3-12.5,1.1c-1.1-0.6-1.7-2.7-1.7-4.1c0-0.6,2.5-1.9,3.5-1.6
		C647.2,814.8,650.3,816.5,654.6,818.4z"/>
	<path fill="#FFFFFF" d="M616,810.9c-2,1.4-4,3.7-6.1,3.8c-3.2,0.1-5.2-2.1-5.1-5.8c0.1-3.4,2.1-4.7,5-4.8
		C613.3,804,614.9,806.3,616,810.9z"/>
	<path fill="#FFFFFF" d="M551.3,799c2.6,3.6,5.9,6.4,5.4,7.7c-0.9,2.3-4.2,3.6-6.4,5.3c-1.1-1.8-3.2-3.6-3-5.3
		C547.4,804.6,549.3,802.5,551.3,799z"/>
	<path fill="#FFFFFF" d="M528.2,787.5c1.2-0.8,2.4-2.4,3.6-2.4c2.8-0.1,5.6,0.9,5.1,4.4c-0.2,1.3-2.5,3.5-3.5,3.3
		c-1.9-0.3-3.5-2.1-5.3-3.2C528.1,788.9,528.2,788.2,528.2,787.5z"/>
	<path fill="#FFFFFF" d="M738.4,836.4c2.1-2,3.6-4.3,4.4-4.1c1.6,0.5,2.9,2.3,4.3,3.6c-1.3,1.4-2.4,3.3-4.1,4.1
		C742.4,840.2,740.6,838.1,738.4,836.4z"/>
	<path fill="#FFFFFF" d="M198,789.6c-2.2-2.4-3.6-4-4.9-5.5c1.5-1.1,2.9-2.8,4.5-3c2.2-0.2,5.1,0.5,4.3,3.7
		C201.6,786.4,199.9,787.5,198,789.6z"/>
	<path fill="#FFFFFF" d="M380.9,749.8c-1.8-2.3-2.9-3.7-4-5.1c1.3-0.9,2.7-2.8,3.7-2.6c1.7,0.4,3,2.1,4.5,3.3
		C383.9,746.6,382.9,747.7,380.9,749.8z"/>
	<path fill="#FFFFFF" d="M467,738.3c-1.8-1.6-2.9-2.5-4-3.5c1.7-1,3.3-2.3,5.1-2.8c0.8-0.2,2,1.4,3,2.1
		C470,735.3,468.7,736.6,467,738.3z"/>
	<path fill="#FFFFFF" d="M522.5,751c-2.9,1.3-4.7,2.5-6.6,2.8c-0.8,0.1-2.9-2.6-2.7-2.8c1.3-1.8,3-3.4,4.6-5
		C519,747.3,520.3,748.7,522.5,751z"/>
	<path fill="#FFFFFF" d="M769,839c-1.6,1.4-2.7,2.3-3.8,3.3c-1-1.2-2.8-2.6-2.7-3.6c0.1-1.3,2-2.4,3.1-3.5
		C766.7,836.2,767.6,837.3,769,839z"/>
	<path fill="#FFFFFF" d="M868.8,857.1c-1.9-1.4-3.4-2.4-4.8-3.4c1.1-0.9,2.4-2.7,3.3-2.6c1.8,0.4,3.4,1.8,5.1,2.8
		C871.4,854.9,870.3,855.8,868.8,857.1z"/>
	<path fill="#FFFFFF" d="M1272.4,827.4c-2.9-0.1-5.8-0.2-8.7-0.5c-0.6-0.1-1.5-1-1.6-1.6c-0.1-0.6,0.6-1.9,1.1-1.9
		c3.4-0.4,7.1-1.5,9.5,2C1272.6,826.1,1272.5,826.8,1272.4,827.4z"/>
	<path fill="#FFFFFF" d="M376.2,781.9c-1.6-2.6-3.3-4.1-3-5.1c0.3-1.2,2.3-2.5,3.7-2.6c0.9-0.1,2.8,1.9,2.8,2.8
		C379.6,778.3,378.1,779.5,376.2,781.9z"/>
	<path fill="#FFFFFF" d="M533.7,819.8c-4.5,2.1-5.8,1.8-8.6-1.6C529.3,814.6,531.7,815.1,533.7,819.8z"/>
	<path fill="#FFFFFF" d="M578.7,812.3c-1.9,1.4-3.4,3-3.7,2.8c-1.6-1-2.9-2.6-4.2-3.9c1.1-1,2.4-2.9,3.1-2.7
		C575.3,809,576.5,810.5,578.7,812.3z"/>
	<path fill="#FFFFFF" d="M1863.8,640.9c-5,0.1-8.3-2.2-8.8-6.1c-0.9-7,3-10.3,9.8-7.9c2.1,0.7,4.3,1.9,5.8,3.5
		c4.4,4.6,2.9,9.1-3.3,10.5C1866.2,641.1,1865,640.9,1863.8,640.9z"/>
	<path fill="#FFFFFF" d="M1824.4,642.2c-2.9,0.2-5.1-1-5-4.7c0.1-4.7,4-8.4,9-8.5c3.6-0.1,5.5,1.9,5.7,5.4
		C1834.1,638.2,1829.3,642.1,1824.4,642.2z"/>
	<path fill="#FFFFFF" d="M1930.8,624.6c-6.8,2.2-13.7,3.9-20.8,0.9c1.5-5.2,7.2-7.6,11.4-5.3c1.8,1,4,1.3,6,1.9
		c1.2,0.4,2.5,0.7,3.7,1C1931,623.5,1930.9,624.1,1930.8,624.6z"/>
	<path fill="#FFFFFF" d="M1848.9,737.5c1.8-2.2,3.7-4.3,5.5-6.5c1.8,2.5,4.4,4.9,4.9,7.7c0.3,1.4-3.2,4.6-5.3,5
		c-2.7,0.5-4.8-1.9-4-5.3C1849.6,738,1849.3,737.8,1848.9,737.5z"/>
	<path fill="#FFFFFF" d="M1792.3,737.2c-4.3-0.1-6.9-2.4-6.4-6.3c0.4-3.5,0.5-7.7,5.6-7.8c4.2-0.1,8.4,4.3,8.2,8.3
		C1799.6,734.5,1796.1,737.3,1792.3,737.2z"/>
	<path fill="#FFFFFF" d="M1668.9,736.1c-0.4-0.5-1.7-1.5-1.8-2.7c-0.4-3.7,4.5-8.7,8.3-8.2c1.6,0.2,3.9,1.7,4.4,3.1
		C1680.6,730.8,1673.7,736,1668.9,736.1z"/>
	<path fill="#FFFFFF" d="M1894.5,721.3c1,1.5,3.1,3.7,2.7,4.4c-1.1,1.8-3.1,3.5-5.1,4.1c-0.8,0.3-3.9-2.6-3.7-3.1
		c0.8-2.1,2.5-3.8,3.9-5.6C1893.1,721.2,1893.8,721.2,1894.5,721.3z"/>
	<path fill="#FFFFFF" d="M1812.8,757.7c0.2-3.8,0.8-6.9,5-6.7c1.1,0.1,3.2,2,3,2.6C1819.8,757.4,1817,758.4,1812.8,757.7z"/>
	<path fill="#FFFFFF" d="M1541.8,772.6c-1.7-2.7-3.1-4.2-3.7-6c-0.2-0.5,2.2-2.6,2.5-2.5c1.6,0.9,3.3,2.1,4.2,3.7
		C1545.1,768.4,1543.4,770.2,1541.8,772.6z"/>
	<path fill="#FFFFFF" d="M1637.7,763.1c-2.1,1.3-4.2,2.5-6.3,3.8c-0.4-1.7-0.8-3.5-1.1-5.2c2.2-0.4,4.3-0.8,6.5-1.1
		C1637,761.4,1637.4,762.2,1637.7,763.1z"/>
	<path fill="#FFFFFF" d="M1505.5,758.7c2.3,2.2,3.9,3.7,5.4,5.2c-1,1-2.6,3.1-3,2.9c-1.8-0.9-3.4-2.3-4.7-3.9
		C1503,762.5,1504.4,760.7,1505.5,758.7z"/>
	<path fill="#FFFFFF" d="M1692.8,717.5c1.2-6.5,2.3-7.3,8.4-5.6C1698.2,713.9,1696.1,715.4,1692.8,717.5z"/>
	<path fill="#FFFFFF" d="M1684.9,748.9c-2.7,1.6-4,3-5.1,2.9c-1.3-0.2-2.5-1.7-3.7-2.6c1-0.9,1.9-2.5,2.9-2.5
		C1680.5,746.6,1681.9,747.7,1684.9,748.9z"/>
	<path fill="#222222" d="M421.3,745.8c-0.5,0.3-1.1,0.6-1.6,0.9c-1.5,0.7-3,1.7-4.6,2c-0.5,0.1-2-2-1.8-2.9c0.4-1.8,1.3-3.9,2.6-5
		c2.5-2,4.4-0.1,5.3,5.1C421.2,745.9,421.3,745.8,421.3,745.8z"/>
	<path fill="#222222" d="M413.2,749.3c-2,1.6-3.1,2.5-4.1,3.4c-1-1.2-2.6-2.4-2.8-3.8c-0.2-1.1,1.4-2.4,2.2-3.6
		C409.8,746.4,411.1,747.6,413.2,749.3z"/>
</g>
</svg>
