<?xml version="1.0" encoding="utf-8"?>
<!-- Generator: Adobe Illustrator 18.1.1, SVG Export Plug-In . SVG Version: 6.00 Build 0)  -->
<svg version="1.1" id="Layer_1" xmlns="http://www.w3.org/2000/svg" xmlns:xlink="http://www.w3.org/1999/xlink" x="0px" y="0px"
	 viewBox="0 0 200 200" enable-background="new 0 0 200 200" xml:space="preserve">
<g>
	<g>
		<path fill="#FFFFFF" d="M109.5,173.3c-8.2,0-14.9-6.7-14.9-14.8V60h10v98.4c0,2.7,2.2,4.8,4.9,4.8s4.9-2.2,4.9-4.8V1h10v157.5
			C124.4,166.6,117.7,173.3,109.5,173.3z"/>
	</g>
	<g>
		<path fill="#FFFFFF" d="M158.9,124.1H1v-10h157.9c2.7,0,4.9-2.2,4.9-4.8s-2.2-4.8-4.9-4.8H40.5c-8.2,0-14.9-6.7-14.9-14.8
			s6.7-14.8,14.9-14.8h157.9v10H40.5c-2.7,0-4.9,2.2-4.9,4.8c0,2.7,2.2,4.8,4.9,4.8h118.4c8.2,0,14.9,6.7,14.9,14.8
			S167.1,124.1,158.9,124.1z"/>
	</g>
</g>
</svg>
