<?xml version="1.0" encoding="utf-8"?>
<!-- Generator: Adobe Illustrator 18.1.1, SVG Export Plug-In . SVG Version: 6.00 Build 0)  -->
<svg version="1.1" id="Layer_1" xmlns="http://www.w3.org/2000/svg" xmlns:xlink="http://www.w3.org/1999/xlink" x="0px" y="0px"
	 viewBox="0 0 2000 910" enable-background="new 0 0 2000 910" xml:space="preserve">
<g>
	<path fill="#F2F2F2" d="M2063,536.8c0,2.3,0,4.7,0,7c-0.6-0.2-1.3-0.4-1.8-0.7c-6.8-4.7-14.2-4.7-20.8,0.2
		c-2.3,1.7-4.4,3.6-6.9,4.8c-3.8,1.7-7.6,1.3-9.8-2.7c-3.1-5.6-7.6-8-13.8-7.6c-3.9,0.2-6.6-0.8-7.7-5.1c-0.7-2.4-2.7-6.3-3.9-6.3
		c-4.5,0.3-8.9,0.5-13.3-0.6c-0.7-0.2-1.6,0.3-2.4,0.5c-1,0.2-2,0.7-2.9,0.5c-5.7-1.4-11.4-2.9-17.5-4.5c-1-9.7-11.6-18.8-22.7-18.3
		c-10.8,0.5-17.3,7.5-21.9,16.1c-2.4,4.6-5,7.2-10.1,6.7c-3.7-0.4-6.2,1.2-7.8,4.1c-1.5,2.7-2.9,5.6-3.6,8.5
		c-1.1,4.6-3.4,6.6-8.2,6.6c-2.9,0-6.8,0.6-8.5,2.5c-3.5,3.7-7.2,4.9-11.9,4.4c-3.6-0.4-6.4,0.7-7.8,4.6c-0.4,1.1-2.1,2.2-3.2,2.4
		c-3.4,0.3-6.8,0.1-10.2,0.1c-0.9-13.7-0.9-13.7-10.5-14.2c-0.2-0.2-0.5-0.4-0.6-0.7c-2.9-7-6.2-7.4-11.1-1.9
		c-1.2,1.3-3.4,2.3-5.2,2.4c-11.3,0.7-10.5,3-10.8-8.2c-0.1-2.6-1-3.6-3.5-3.5c-4.8,0.1-9.7,0-14.5,0c-6.4,0-7.6,1.6-6.2,8.2
		c1.2,5.5-0.5,7.6-6.3,7.8c-2,0-4,0-4.8,0c-2.3-2.6-4.2-4.3-5.3-6.4c-0.8-1.6-1.5-4.5-0.7-5.6c3.7-4.9,3.8-14.9,0-20.2
		c-0.9-1.3-1-4.9-0.3-5.4c3.3-1.9,2.5-4.9,2.5-7.5c-0.1-5.6,1.9-11.4-2.7-16.5c-0.8-0.9-0.1-5,0.6-5.2c3.9-1,3.3-4,2.9-6.4
		c-0.7-4.8-1.9-9.4-2.9-14.2c-0.6-3-2.7-6.3,1.3-8.8c0.6-0.4,0.8-1.8,0.7-2.7c-0.5-4.4,1.4-8.9-2.5-13.1c-1.3-1.4,0.8-6,1.4-9.2
		c4-0.5,1.8-3.6,1.9-5.4c0-0.7-2.1-2.2-3.4-2.4c-7.5-1.1-15-1.9-22.6-2.8c-0.3-5-2.3-6-10.4-4.7c-0.2,1.3-0.4,2.7-0.7,4.2
		c-7.4,0.7-14.4,2.7-21.7-0.5c-2.2-0.9-5,0.6-7.3,3.5c-2.1,2.7-3.7,7-8.2,7.7c-1,0.2-1.5,2.3-2.5,3.3c-1.5,1.5-3,3.3-4.8,4
		c-2.4,0.9-5.2,0.6-7.7,1.3c-1.1,0.3-1.9,1.8-2.8,2.8c1.3,0.7,2.5,1.7,3.8,2.1c1.3,0.4,2.9,0.1,4.3,0.1c0.3,0.4,0.6,0.8,0.9,1.2
		c-1,0.9-1.9,2.4-3,2.6c-4.6,0.6-9.2,1-13.8,1c-3.3,0-4.7,2-4.4,4.6c0.1,1,3,2.2,4.7,2.3c2.5,0.1,5-0.7,7.6-1.1
		c0.4,3.2,0.8,5.8,1.1,8.5c-2.3,0.9-4.4,1.8-6.6,2.7c-0.1-0.6-0.1-1-0.2-1.2c-0.8-1.5-1.6-3-2.5-4.6c-0.5,1.6-1.4,3.1-1.5,4.8
		c-0.2,3.3-0.1,6.6-0.1,9.9c-0.5,0-1,0-1.5,0.1c-0.7-2.9-1.3-5.9-2.1-9.1c-5.6,0.8-62.9,9.6-66.2,11.1c-7.3,3-12-3.3-18.3-4.6
		c2.8-6.5,2.6-6.6-3.4-8.2c-1.3-0.3-2-2.6-3.4-4.4c13.3-1.4,13.3-1.4,13.3-6.3c-5.3-0.3-10.7-0.5-16.1-0.8
		c-0.8-3.7-1.6-7.7-2.6-12.4c-3.5,0-7.5,0.1-11.4-0.1c-1.1-0.1-2.8-0.9-3.1-1.7c-0.3-0.9,0.5-2.8,1.3-3.3c4-2.2,7.6-6.3,12.9-2.5
		c1,0.7,2.9,0.6,4.3,0.4c6.1-1,7.2-0.4,7.2,5.5c0,4.4,2.2,6.2,6.2,6.6c0.8,0.1,1.7,0.1,2.4,0.3c7.6,2.4,7.3,1.4,12.8-3.9
		c3.4-3.3,71.4-6.9,74.9-11.4c1.1-1.4,4.6-0.7,6.4-0.9c1.4,1.7,2.5,4.3,3.9,4.5c2.3,0.3,4.5-1,5.1-4.2c0.3-1.4,2.5-2.5,5-4.8
		c-3,0.7-5,0.6-6,1.6c-1.2,1.1-1.6,3.2-2.1,4.4c-2.8-1.4-5.3-3.7-7.2-3.3c-3.9,0.9-10.2-1.4-10.8,5.9c0,0.3-1.1,0.6-1.7,0.7
		c-3.9,0.5-69.8,3.8-70.9,9.1c-0.2,1-3.8,2-5.7,1.8c-8.1-0.9-10-2.3-11.3-10.4c-0.8-4.8-2.9-4.6-6.5-3.9c-2,0.4-4.7,1-6.1,0
		c-2.9-1.9-5.1-1.5-7.7,0.2c-2,1.3-4.3,2.1-6.6,3.1c-1.2-5.5-2.5-6.7-7.7-6.8c-7.2-0.1-14.5-0.2-21.7,0.1c-1.5,0-4,1.3-4.1,2.3
		c-0.3,2.5,0.5,5,4.1,4.6c1.6-0.2,3.3,0.1,4.9,0.2c0,0.6-0.1,1.1-0.1,1.7c-1.8-0.2-3.6-0.7-5.3-0.4c-1.8,0.3-4.1,0.9-5,2.2
		c-0.8,1.2-0.6,3.8,0.1,5.1c0.4,0.7,3,0.2,4.6,0.3c1.6,0.1,3.1,0.2,4.7,0.2c-0.1,0.6-0.1,1.2-0.2,1.8c-1.4,0-2.9-0.1-4.3,0
		c-2.2,0.2-5.3-1.4-5.4,2.9c-0.1,3.9,2.1,4.3,5.2,4.1c1.2-0.1,2.5,0.4,3.8,0.6c0,0.5,0,1.1,0,1.6c-1.5,0.2-2.9,0.6-4.4,0.7
		c-1.9,0.2-4.4-0.5-3.9,2.8c0.4,2.8,2.1,3.4,4.7,2.4c0.8-0.3,1.9,0.1,1.7,0.1c-1.2,1.3-3.7,2.8-3.9,4.5c-0.8,6.2,5.2,2.9,8.9,5.5
		c-2.8,0.4-4.5,0.4-5.9,1c-1.2,0.5-2.1,1.7-3.1,2.6c1,1,1.9,2.3,3.2,3c1.1,0.6,2.6,0.4,3.9,0.5c-0.7,1.3-1.5,1.3-2.1,1.6
		c-1.4,0.8-3.6,1.7-3.7,2.8c-0.2,1.3,1.2,3.9,2.3,4.2c4.4,1.1,5,3.7,3.2,8.3c6.4-7.3-0.9-8.8-3.8-11.3c2.6-1.8,4.7-3.2,6.8-4.6
		c-2-1.5-4-3.1-5.9-4.5c0.1,0,0.9-0.6,1.8-0.6c2.4-0.1,4.6-0.6,4.1-3.6c-0.5-2.4-1.7-4.3-4.9-2.9c-0.7,0.3-2-0.9-3.1-1.4
		c1.3-1.3,2.3-1.4,3.1-1.8c1.4-0.6,2.7-1.5,4-2.2c-1.3-1.1-2.5-2.5-4-3.2c-1.1-0.5-2.6-0.1-3.9-0.1c1.5-1.1,3-0.7,4.4-1.2
		c1.3-0.4,2.4-1.6,3.6-2.4c-1.1-1.4-1.9-3.3-3.4-4.2c-1.1-0.7-3,0-4.4-0.3c-0.9-0.2-1.6-1.2-2.4-1.8c0.2-0.5,0.4-0.9,0.6-1.4
		c2.2,0.3,4.4,0.7,6.6,1c2.6,0.3,4.2-0.1,3.4-3.5c-0.9-3.6-2.6-5.2-6.4-3.8c-1.1,0.4-2.5,0.3-4.1,0.5c0.2-1.3,0.3-2.7,0.5-2.7
		c3.5-0.3,6.9-0.5,10.4-0.7c0.4-6.3,0.4-6.2-5.4-5.8c-1.1,0.1-2.4-1-3.5-1.6c0.1-0.4,0.3-0.8,0.4-1.3c7.4,0,14.7-0.1,22.1,0
		c6.3,0.2,7,0.7,6.6,6.9c-0.3,5,1.6,6.7,6.3,6c1.3-0.2,2.7,0.1,4,0c2.7-0.3,4.6,0.4,5.1,3.3c0.5,2.8,0.4,6.1,1.9,8.3
		c3,4.6,4.2,9.3,3.9,14.6c0,0.9,0.7,2.3,1.5,2.7c5.7,2.9,11.4,5.7,17.3,8.4c1.2,0.6,2.8,0.4,4.3,0.4c1.6,0,3.2-0.5,4.8-0.2
		c6.8,1.4,72.1-3.8,74.2-10.4c0.4-1.2,1.8-2.2,3-3c1.6-1,3.3-1.8,4.7-2.5c-0.8-2.7-1.5-4.8-2.4-7.8c7.1,0.5,9.7-2.4,8.8-8.8
		c-0.1-0.9,1.8-2.1,2.7-3.2c1-1.2,3-2.4,3-3.5c-0.3-5.7,1.9-8.9,6.5-8.8c2.9-3.7,5-6.7,7.4-9.4c0.4-0.4,1.6-0.3,2.4-0.3
		c6.1,0,12.2,0.1,18.2,0c2.8,0,5.4-0.4,5.3,3.8c-0.3,8.1-0.3,16.2-0.3,24.4c0,1.1,0.3,2.2,0.5,3.3c0.4-0.1,0.8-0.1,1.2-0.2
		c0-12,0-24.1,0-36.1c2.4,0,4.3,0,6.4,0c0,2.4,0,4.5,0,6.2c1.2-0.2,2.2-0.6,3.2-0.5c6.6,0.5,13.1,1.5,19.7,1.7
		c5.2,0.2,5.3,2.6,3.8,6.4c-1.6,1.1-4.7,3-4.5,3.3c1.5,3.1-0.8,7,2.8,10.1c1.6,1.4,1.6,7.5,0,9.2c-4.5,4.6-1.5,8.8-0.9,13.1
		c0.6,4.3,1.9,8.5,2.6,12.8c0.2,1-0.7,2.5-1.6,3.2c-2.7,2.1-3.4,8.2-1,10.9c2.3,2.6,3.2,15.6,0.7,17.7c-4.6,3.8-2.6,7.3-0.2,10.9
		c2,2.9,1.7,13.4-0.6,15.9c-3.1,3.3-2.5,7.4,1.3,10.1c1.1,0.7,1.8,2,2.8,3.1c-6.3,2.8-10.9,2.2-15.6-2.6c-6.1-6.2-13.6-9.2-22.3-4.3
		c-1.3,0.7-3.6,0.5-5.2,0c-9.7-2.6-19.3-5.6-29.5-3.4c-0.9,0.2-2.1,0-2.8-0.6c-8.3-6.6-16.5-4.5-25.5-0.8c-5,2-73.3,4.1-79,4.4
		c-0.4,0-0.9-0.4-1.1-0.8c-1.4-2.4-2.8-4.9-4.4-7.9c6.9-2.4,4.8-8.4,5-13.6c0-0.7-0.1-1.3,0-2c0.4-3.6-1.4-4.7-4.7-4.6
		c-3.5,0.1-7.4,0.9-10.4-0.3c-8-3.3-16.3-3.5-24.6-3.7c-3.9-0.1-5.4,1.4-5.3,5.3c0.2,7.1,0.1,14.1,0.1,21.2
		c-1.7-0.8-2.7-1.9-3.3-3.1c-1.5-3.2-3.8-4.4-6.8-2.5c-4.2,2.7-8.2,2.1-12.7,0.5c-5.4-1.9-10.6,1-13.6,5.7c-1.6,2.5-4.3,4.5-7,6.1
		c-1.1,0.6-3.2-0.7-4.9-1.1c-1.5-0.3-3.1-0.5-4.6-0.8c2.7,2.6,5.1,6.7,9.3,4.8c3.3-1.5,6.4-4.3,8.7-7.2c4.7-5.8,8.1-7.5,14.5-4.6
		c3.5,1.6,6.1,1.6,9.2-0.4c2.8-1.8,5-1.6,6.8,1.9c1.4,2.7,2.9,6,7.1,5.9c0-6.9-0.2-13.6,0-20.2c0.3-8.9-2.5-10.4,9.6-8.8
		c9,1.2,18.1,2.1,27.2,3.4c1.3,0.2,3.4,1.8,3.3,2.6c-0.4,4.2,2.2,9.4-3.7,11.9c-0.6,0.3-0.8,1.6-1.1,2.5c-1.1,3.7,3.2,5.5,3.4,7.8
		c0.4,5.2,3.1,4.2,6.3,3.9c2.3-0.2,4.9-0.6,6.9,0.1c4.7,1.6,70-4,73.9-5.6c6.6-2.6,13.7-4.1,19.8,2c0.8,0.8,2.7,1.2,4,1
		c8.3-1.6,16.5-1,24.4,1.7c5,1.7,10,2.5,14.8,0.2c5-2.4,8.9-1.2,13,2.2c3.5,2.9,7.4,6.6,11.5,7.1c6.9,0.8,14.2-0.3,21.2-1.3
		c1.8-0.2,4-2.7,4.6-4.5c1-3.4-0.5-8.8,1.4-10.2c2.5-1.9,7.3-0.7,11.1-0.8c0.2,0,0.3,0,0.5,0c7.2,0,7,0,7.3,7.5
		c0.1,1.8,1.5,4.9,2.4,5c4.6,0.3,9.2,0,13.7-0.7c1.6-0.3,2.9-2.4,4.2-3.8c2.6-2.9,4.1-2.5,6.1,1.1c0.9,1.6,2.7,3.6,4.4,3.8
		c6.8,1.1,7.7,2.3,6.6,9.3c-0.2,1.2,1.1,3.5,2,3.7c3.4,0.8,6.9,1.2,10.3,1c1.7-0.1,4.4-1.3,4.8-2.5c1.7-5.6,5.9-5.3,10.4-5.5
		c2.6-0.1,5.9-0.7,7.5-2.4c3-3.2,6.1-4.7,10.4-4.6c6.6,0.2,7.4-0.6,9-7.2c0.3-1.4,0.5-3,1.1-4.3c1.9-3.9,3.5-7.8,9.2-7.5
		c7.2,0.3,8.4-1.6,11.8-8.1c2.3-4.4,5.8-8.8,9.9-11.5c8-5.4,26,0,28.7,9.1c0.7,2.3,0.5,4.9,0.6,6.3c6.6,1.5,12.5,3.3,18.6,4.1
		c6.1,0.8,12.4,0.6,18.6,0.9c1.3,0,2.9,1.5,3.1,3.1c0.9,6.8,5,7.7,10.9,7.3c4.7-0.3,8.2,2.2,10.8,6.5c1.2,2,4.1,3.7,6.5,4.2
		c4.7,1.1,9-0.3,12.7-3.9c2-1.9,4.5-4.7,6.7-4.7c5.9,0.2,12.4,0.1,15.8,6.7c0,119.7-62,242.5-62,362.2c-666.7,0-1333.3,0-2000,0
		c0-131.3,0-262.7,0-394c1.9,0.3,3.9,0.7,5.8,1c10.6,1.5,19.4-2.2,27.1-9.3c6-5.5,13-8.5,21.4-5.7c3.3,1.1,6.1,0.4,8.8-2.4
		c4-4.1,7.9-3.8,11.7,0.8c2.5,3,5.1,3.3,8.3,1.6c1.3-0.7,2.6-1.4,4-2.1c8.2-4.3,13.7-2,17.1,6.6c1.1,2.8,3.6,6.8,5.8,7.1
		c9.6,1.3,19.3,2.1,29,1.8c4.7-0.2,7.7-0.1,9.1,4.7c0.2,0.7,1.2,1.7,1.9,1.7c0.6,0,1.5-0.9,2-1.5c2.1-2.7,3.8-5.8,6.1-8.3
		c5.3-5.7,12.3-5.5,17.9-0.1c1.4,1.3,3.1,2.5,4.9,3c3.6,1,7.6,0.9,11,2.3c8.1,3.1,18.9-0.5,23.7,9.9c7.7-5.7,10.1-5.6,13.6,0.3
		c3.5,5.9,3.5,5.9,9.8,2.7c0.3-0.2,0.9,0.1,0.9,0.1c1.2,3,1.7,6.1,3.4,8.3c2.7,3.5,6.3,6.2,9.1,9.6c8.7,10.6,16.7,10.4,24.3-0.9
		c4.4-6.5,16.6-11.4,23.3-7.9c4.3,2.3,6.4,0.5,8.4-1.7c5.8-6.6,13-7.2,20.7-5.5c3.4,0.8,6.9,2.7,9.3,5.1c3,3.1,6.5,3.8,10.3,4.8
		c7.6,2,14.9,4.9,22.3,7.5c0.6,0.2,1.3,0.8,1.4,1.4c1.4,5.6,3.6,3.9,6.8,1.2c4.8-4.1,8.1-3.2,11.2,2.4c1.1,1.9,1.8,4.4,3.4,5.4
		c6.7,3.8,11.6,8.5,13.5,16.5c0.8,3.2,4.6,5.7,7.4,8.2c0.9,0.8,3.1,0.9,4.3,0.4c4.6-2.2,7.9-1.5,11.3,2.3c1.2,1.3,3.3,2.5,5,2.5
		c4.4-0.1,8.9-0.9,13.3-1.3c3.3-0.3,6.7-0.9,9.8-0.1c1.4,0.3,1.8,3.8,3,5.6c0.4,0.6,1.5,0.8,1.9,1c1.8-2,3-4.9,4.6-5.1
		c5.5-0.7,11.5-2.9,15.9,3.1c0.5,0.7,3.6,0.5,4.3-0.3c3.7-4.4,7-2.5,11.4-0.7c13.6,5.4,12.4,8.4,24.2-2.9c1.7-1.6,4.2-2.4,6.5-3.2
		c2.8-1,5.6-1.9,8.5-2.4c4-0.7,9.7-2.8,11.8-1c4.7,4.1,7.5,1.5,10.1-1.1c3.7-3.7,7.1-3.8,11.5-1.9c4.9,2.1,9.7,4.4,15.6,2.6
		c2.2-0.7,5.2,1.2,7.8,1.9c0.9,0.2,2.4,0.9,2.7,0.5c4.2-4.7,9.7-2,14.6-2.6c1.4-0.2,3.4,0.7,4.3,1.7c2,2.4,3.5,2.6,6.2,0.6
		c4.6-3.4,13.4-3.8,15.7-0.3c4,6.1,9,3.8,14.1,2.9c1.6-0.3,3.4,0.1,5,0c1.9-0.1,4.1,0.2,5.6-0.6c3-1.6,5.6-3.2,8.9-0.4
		c2.5,2.2,4,0.6,4.2-2.1c0.2-3.8,0.4-7.7,0-11.5c-0.4-3.7,1-5.2,4.5-5.4c5.9-0.3,11.9-0.6,17.8-1c6.5-0.5,13-1,19.9-1.6
		c0,6.2,0,12.3,0,18.5c0,2.5,0.4,4.1,3.5,4.1c6,0,12.1,0.6,14.7-6.8c0-0.1,0.3-0.1,0.5-0.1c2.3,1,5.5,1.7,6.6,0.5
		c3.8-4.2,7.9-5.1,13.2-3.4c6.3,2.1,7.7,1.1,7.5-5.1c-0.1-3.9,1.1-5.4,5.1-5.1c3.7,0.3,7.7,0.6,9.6-4.1c0.2-0.4,3.4-0.3,3.5,0.1
		c1,3.7,3.8,2.9,6.4,3.1c2.4,0.2,5,0.1,7.1,1.1c5.3,2.6,5.5,2.7,7.3-3.4c1-3.6,3-4.8,6.6-3.1c6.9,3.3,8,2.9,13.8-2.5
		c2-1.9,4.8-3.3,7.4-4.2c3.9-1.3,8.3-1.6,12.1-3.2c3.3-1.3,5.9-4.3,9.9-2c0.5,0.3,1.7-0.6,2.6-0.9c1.8-0.6,3.9-2.2,5.5-1.7
		c9.5,2.7,19.1,5.4,28.3,9c3.9,1.5,6.3,2.2,7.9-1.7c2.1,0,5,0.6,5.3-0.1c1.8-3.7,4.3-2.1,6.7-1.4l-0.2-0.1c3.9,2.5,6.8,0.2,9.7-2.1
		c4.7-3.8,10.7-3.4,14.9,1c4.3,4.4,6.8,4.3,12.3,1.1c3.7-2.2,8-4.3,12.1-4.4c3.8,0,7.9,2.3,11.3,4.4c4.3,2.7,7.7,2.2,11.1-1
		c5.1-4.9,10.9-7.8,18.1-8.1c2.5-0.1,4.7-1.3,3.8-4.9c-0.6-2.1-0.1-4.5-0.1-6.7c5.9-0.5,11.2-1,16.5-1.5c1,2.3,1.8,4.2,2.6,6.3
		c1.3-0.4,2.2-0.8,3.1-1c7.1-1.3,7.1-1.4,6.8-8.6c-0.2-4.8,0-9.5,0-13.1c3.2-1.9,5.4-4.2,7.5-4.2c5.6,0,6.8-2.4,6.4-7.4
		c-0.1-1.9,1.9-5.6,2.2-5.5c5.2,1.3,10.9-3.7,15.8,0.9c0.1,0.1,0,0.4,0.1,0.5c1.3,0.5,2.6,1.5,3.9,1.4c1.9,0,3.9-1,5.8-1.1
		c14.9-0.7,29.8-1.5,44.6-2c10.2-0.3,10.2-0.1,11.6,10c0.1,0.5-0.2,1.2,0,1.5c1,1.2,2.2,3.3,3.1,3.2c4.6-0.4,4.9,2.5,4.8,5.7
		c-0.1,2.8,0.7,4.6,3,6.7c2.7,2.5,6.8,4.1,6.2,9.7c-0.5,4.2,6.4,7,10.1,4.6c6.2-4.1,11.7-10,20.4-7.7c1.1,0.3,2.5-0.9,3.7-1.1
		c2.7-0.4,5.5-0.1,8-0.9c2.7-0.9,5.7-2.2,7.5-4.3c2-2.2,2.1-6.1,4.2-8.2c1.7-1.8,4.9-2.8,7.6-3.1c1.2-0.2,3.8,1.9,4,3.3
		c0.8,5.2,4.2,5.9,8.3,5.5c3.9-0.3,7.9-1.6,10.1,3.3c0.2,0.5,1.8,0.9,2.2,0.6c5.7-3.7,13.1-1.3,18.7-6.1c5.2-4.4,13.7-1.3,16.2,5.1
		c0.9,2.4,2.4,4.1,4.7,2.8c4.4-2.5,7.5-0.9,11.2,1.6c4.4,2.9,9.6,2.6,14.3,0.5c2.1-0.9,3.2-4,5-5.8c1.2-1.2,2.7-2.4,4.2-2.9
		c6.3-2,12.4-0.2,18.2,2c3,1.1,4.5,1,5.4-2.3c0.8-2.9,2.5-3.9,5.9-2.5c3.2,1.3,7,1.8,10.5,1.6c7.8-0.4,10.8,1.1,14.3,8.4
		c1.5,3.1,2.7,6.4,7.1,6.7c3.7,0.3,7.4,1.2,11.2,1.8c3.7,0.6,6.6,0.3,8-4.2c1.5-4.9,7.7-6.7,11.6-3.4c2.9,2.5,5.2,2,8.1,0.6
		c3.4-1.7,6.9-3.1,10.6-0.2c2,1.6,4.7,2.4,7.1,3.4c4.5,2,9,2.7,13.9,0.9c4.9-1.7,10-2.7,15-3.9c3.4-0.9,5.6,0.7,7.5,3.5
		c0.7,1.1,2.4,2.6,3.2,2.4c7.1-2.5,13.1,1.2,19.6,2.7c2.2,0.5,4.7,0.1,7.1,0.1c0-0.5,0-0.9,0.1-1.4c-9.1-1.9-18.2-3.8-28.4-6
		c-1.8-5.4-6.9-4.9-13.3-2.8c-0.5-6.3-0.9-12.1-1.4-18.3c-8.4-1.3-16.9-2.5-25.3-3.8c-1-0.1-2-0.2-3-0.3c-9.1-0.3-9.1-0.2-9.4-9.4
		c0-0.3,0-0.7,0-1c-0.2-3.1-1.4-4.9-5-4.7c-5.6,0.3-11.3,0.3-17,0.4c-8.6,0.1-17.2,0-25.7,0c0.4-4.6,0.8-9.3,1.2-14.7
		c2.2,0.4,5.5,0,6.3,1.3c2.8,4.5,5.5,1.9,7.8,0.2c4.5-3.4,8.4-3.1,10.8,0.3c5.9,1.7,10.6,3.1,16.1,4.7c0.3-0.9,1.4-2.7,1.3-4.4
		c-0.6-7.9-1.7-15.7-2.3-23.6c-0.4-5-0.1-10-0.1-16.2c3.8,1.6,6.2,2.4,8.4,3.6c1.7,1,3.1,2.7,4.7,4c1,0.8,3,1.3,3.1,2.2
		c0.8,5.3,4.7,4.5,8,4.1c3-0.3,6-1.5,9.7-2.4c0.2,3.7,0.8,7.7,0.7,11.7c-0.1,5.4-0.7,10.9-0.8,16.3c0,1.1,1.5,3.2,2.4,3.3
		c7.2,0.2,8.2-1,8.4-8.4c0-1-0.2-2.3,0.3-2.9c0.6-0.7,1.9-0.9,2.9-1.4c0.2,0.8,0.4,1.6,0.6,2.5c-0.9,1.3-1.7,2.6-2.9,4.4
		c6.3,0,12,0.2,17.8-0.1c4.4-0.2,6.3,1.5,5.6,5.8c-0.6,3.8,1.3,4.3,4.5,4.4c6.1,0.3,12.1,1.4,18.2,1.6c9.1,0.3,18.2,0.1,27.4,0.1
		c0-0.5,0.1-0.9,0.1-1.4c-2.1,0-4.3-0.1-6.4,0c-1.8,0.1-3.6,0.6-5.4,0.5c-10.6-0.6-21.1-1.5-31.7-2c-3.7-0.2-5.7-1.2-5.2-5.2
		c0.5-4-1.8-5.4-5.2-5.4c-4.3,0.1-8.6,0.4-12.8,0.8c-2.8,0.2-4.1-0.8-3.9-3.6c0.9-0.9,1.9-1.7,3-2.8c-6.3-3-8.3-1.6-8.5,4.9
		c-0.2,6.6-1.1,7.4-6.8,5.8c0-9.4,0-18.7,0-28c0-1.3-0.4-2.6-0.6-3.9c-1.5,0.4-3,0.8-4.5,1.1c-3.6,0.8-7.7,3-10.7,2
		c-3.6-1.2-6.9-4.8-9.4-8c-3.3-4.5-7.6-3.6-11.5-4.3c0,14.1,0,27.5,0,40.9c-3.9-0.8-8.6-0.7-12.3-2.6c-5.7-2.9-10-3.4-14.7,0.4
		c-0.8,0.7-2.2,1.4-3,1.1c-3.3-1.1-6.6-2.7-10.1-4.2c-1-11.6-2.1-24.2-3.2-36.8c-0.3,0-0.7,0.1-1,0.1c-0.2,1.6-0.4,3.1-0.8,5.7
		c-1.5-4-2.7-7.1-3.9-10.4c0.4-0.2,1.3-0.7,2.5-1.3c-4.3-2.4-4.3-3.7-1.1-6.4c-1.8-2.6-3.6-5.2-5.5-7.8c0,1,0,2.1,0,3.3
		c-0.5,0-0.9,0-1.4,0c0-2.6,0.1-5.2,0-7.9c0-1.1-0.1-2.5-0.7-3.3c-1.5-1.8-3.4-3.4-4.7-4.6c-0.8,1.2-1.9,2.9-3.4,5.2
		c-2-4.6-3.3-7.8-5.1-12.1c6.4,3.7,10.2,3.1,16-1.9c-4.8-0.3-8.9-0.6-12.9-0.9c-0.3-1.4-0.7-2.8-1-4.2c-0.2,0-0.5,0.1-0.7,0.1
		c-0.3,1.4-0.5,2.7-0.7,3.6c-2-0.4-3.7-0.9-5.4-1.1c-1.7-0.2-3.4-0.2-5.1-0.3c-0.1-0.6-0.1-1.1-0.2-1.7c1.6-0.4,3.2-0.9,4.9-1.1
		c1.8-0.3,3.6-0.3,5.3-0.4c-9-2.6-10.5-2.1-12.7,3c-1.3-3.6-1.9-7.3-2.6-10.9c-0.9-4.3,1.1-5,4.9-4.6c1.6,0.2,3.9-0.7,4.9-1.9
		c0.8-0.9,0.4-3.2-0.2-4.6c-1.2-2.8-0.6-4.2,1.9-6.1c2.8-2.1,4.7-5.5,7.1-8.2c1.2-1.3,2.7-2.5,4.1-3.5c2.3-1.7,6.5-2.9,6.8-4.8
		c1-5.9,5.7-3.2,8.4-4.8c0.7,2.2,1.4,4.3,2,6.5c0.3,1.2,0.2,2.6,0.3,3.8c9.3,1.6,10.6,0.6,10.6-7.8c0-0.8-0.3-1.9,0.1-2.5
		c1.1-1.5,2.2-3.5,3.7-4c6.9-2.4,13.5-0.3,20.3,1.4c4,1,5.3,2.2,5,6c-0.2,2.8-1.1,7.1,0.2,8.1c2.1,1.6,5.9,1,9,1.4
		c0.3,0,0.5,0.3,0.2,0.1c1,2.8,2.9,5.4,2.3,7.1c-2,6,2.1,5.7,5.6,6c-0.5,2.1-1.1,4-1.3,5.9c-0.2,1.6,0,3.3,0,5c0,2.4-0.1,4.9,0,7.3
		c0,1.4,1,3.7,0.5,4c-4.2,2.9-1.8,6-0.7,9.1c0.4,1,0.5,2.1,0.6,3.2c0.1,5-0.1,10,0.1,15c0.2,4.5,1.6,9.2,0.8,13.5
		c-0.4,2.3-1.3,3.8,0.9,5.2c2.2,1.4,4.2,2.2,6.7-0.1c1.2-1.2,3.8-1.5,5.7-1.3c3.8,0.3,7.6,1.2,11.4,1.9c2.4,0.5,4.6,1.2,3.9,4.4
		c-1.2,5.2,1.8,7.5,6.3,7.9c4.1,0.4,6.4,1.8,6,6.4c-0.1,1,1.2,2.2,2.4,4.3c0.8-3.1,1.3-5.1,2-7.6c4.7,0.6,9.5,1.1,14.2,1.7
		c0.6,8.6,1.1,16.5,1.6,24.4c1.2-1.4,1.4-2.8,1.4-4.2c0-11.1,0.2-22.1,0-33.2c-0.2-12.1-0.7-24.3-0.9-36.4c0-3.2,0.7-6.4,1-9
		c12.1-1.4,23.5-2.8,34.5-4.1c1.4-7.3-2.9-14.4,4.1-19.9c0.3,4.3,2.1,5.5,6,5c8.7-1.2,17.4-1.8,26.1-2.6c0.1,0.4,0.1,0.9,0.2,1.3
		c-1.2,0.5-3.1,0.8-3.3,1.6c-0.8,2.6-1.3,5.5-1.2,8.2c0,0.9,2,2.5,3.2,2.6c11.7,1.5,23.5,2.7,35.3,4.3c1.1,0.2,2.8,2.2,2.9,3.4
		c0.3,4.6,0.4,9.3,0,14c-0.5,5.1,4.1,5.9,6.6,7c2,0.8,69.2-2.7,68.6-8.4c-0.2-2.2,0.9-4.5,1.3-6.4c4.2-2,8.2-3.9,12.5-6
		c0-5.1,0-10.5,0-15.8c0-6.1-0.3-12.1-0.2-18.2c0.2-9.2,5.3-17.8,3.3-27.2c-0.1-0.3,0.2-0.7,0.4-1.1c0.3,0,0.6-0.1,0.9-0.1
		c0.7,3.7,1.3,7.5,1.9,11.1c5.2,0.4,8.7-2.4,8.7-7.2c0.1-12.8,3.4-25.6,0.5-38.5c-0.2-0.8,0.7-2.5,1.3-2.7c4.3-1.1,3.1-4.5,3.2-7.3
		c0.1-3.4,0.1-6.8,0.1-10.2c0-3.6,0.2-7.1,0-10.7c-0.2-3-0.4-5.7,3.2-6.8c2.8-0.9,5.6-1.8,8.7-2.8c0.3,0.9,0.7,1.9,0.9,3
		c0.6,3.4,3.1,3.1,4.7,1.6c2.4-2.2,5.8-5.1,6-7.8c0.4-6.7,4.9-7.5,9.5-8.7c7.3-1.9,7.3-1.9,5-9.2c-2.1-0.1-4.2-0.2-6.3-0.3
		c3.3-1.6,6.7-2.5,10.2-2.8c8.1-0.8,9-1.9,7.3-10.1c-3.6,0.5-7.2,0.9-10.8,1.4c-0.1-0.4-0.1-0.8-0.2-1.2c1.5-0.4,2.9-0.7,4.4-1.2
		c4.4-1.5,9.3-2.2,8.5-9.2c-0.3-2.5,1.6-6.4,3.7-7.7c2.8-1.8,3.1-3.6,3.2-6.4c0.1-1.2,1.5-2.4,2.3-3.6c0.9,1.1,2.4,2.2,2.5,3.4
		c0.3,3.8,2,4.2,4.9,2.6c2-1.1,4.2-2,6.1-3.1c1.6-1,3.3-2.1,4.6-3.4c4.2-4.6,7.3-10.5,15-10.6c6,0,10.3-4.5,11.3-10.4
		c0.2-1.3,0.4-2.5,0.6-3.8c-0.2,9.5,0.2,9.8,9.4,7.3c0.8-0.2,1.6-0.6,2.4-0.7c4.2-0.1,4.8-2.5,4.9-6.2c0.3-11.3,1.2-22.6,1.8-34.6
		c6.4,3.6,11.9,6.4,17.2,9.7c1,0.6,1.7,2.5,1.8,3.9c0.8,7.9,1.3,15.8,2.2,23.6c0.3,3,1,6,1.9,8.9c1.5,4.3,3.3,8.6,5,12.8
		c0.2,0.6,0,1.3-0.1,2c-0.3,2.8-0.9,5.6-0.9,8.4c0,103.8-0.1,207.6,0.1,311.4c0,4.5,1.7,8.9,2.9,13.3c0.3,0.9,1.7,2.1,2.7,2.2
		c3.9,0.6,7.9,1.1,11.8,1c2.9-0.1,6.9-0.1,8.4-1.9c4.1-4.6,8.8-5.9,15.2-4.9c0-17.2,0-33.7,0-48.9c10.7-7.9,4-19.1,7.2-27.6
		c0.5,0,0.9,0.1,1.4,0.1c0,5.4,0,10.9,0,16.3c0.7,0.1,1.3,0.2,2,0.2c1.2-2.9,2.5-5.7,3.7-8.6c2-1.5,4-3.4,4.4-5.5
		c1.1-5.9,1.6-11.9,2.1-17.8c0.5-6.2,1.1-12.3,0.9-18.5c-0.1-4.3-1.4-8.6-2.3-12.9c-1.1-5-3.1-8.9-9.3-9.2c-1.5-0.1-3.5-1.8-4.3-3.3
		c-3.1-6.6-5.9-13.3-8.6-20.1c-0.8-1.9-1.5-4-1.5-6c-0.4-13.9-0.9-27.9-0.9-41.9c0-5,0.9-10.1,1.4-15.1c0.5,0,0.9,0,1.4,0
		c-1-0.8-2-1.6-3.3-2.7c3.9-1.4,7.5-2.2,10.7-3.8c7.1-3.7,14.7-6.1,21.1-11.7c4.8-4.2,11.6-6.3,17.8-8.6c3.1-1.1,7-0.9,10.4-0.6
		c2.6,0.2,5,1.5,7.6,2.2c8.7,2.1,17.4,4.2,26.3,6.3c-3.8,3.7-3.5,6.5,1.1,7.6c11,2.6,22.2,4.7,33.2,7.1c2.9,0.6,5.6,1.5,9.4,2.6
		c-2.6,1.5-4,2.3-4.2,2.4c0.8,3,2,5.1,2,7.2c0.1,46.8,0.1,93.6,0.1,140.4c0,16.1-0.7,32.2-0.4,48.3c0.1,3.9,2.1,8.6,4.8,11.5
		c6,6.2,6.4,5.9,3.5,13.5c3,1.8,6,3.7,7.8,4.8c2.8-2.8,4.4-5.9,6.6-6.4c3.5-0.8,7.7-0.5,9.3,4.3c0.2,0.6,2.6,1.4,3.1,1
		C2058.8,531.1,2061.2,532.9,2063,536.8z M1519.4,391.3c6.7-0.8,13-1.7,19.3-2.3c7.4-0.7,7.5-0.9,7.3-8.3c-0.1-3.2-1.3-4.1-4.3-3.5
		c-3.9,0.7-7.8,1.2-11.6,2C1520.1,381.1,1519.1,382.2,1519.4,391.3z M1592.3,453.5c0.5,5.4,1,11.1,1.6,16.8
		c-0.6,0.1-1.3,0.1-1.9,0.2c0-2.6,0.2-5.2-0.1-7.7c-0.3-2.5-1.1-4.8-1.7-7.3c-0.6,0.1-1.2,0.2-1.8,0.2c0.2,3.6,0.8,7.2,0.5,10.7
		c-0.4,5.2,2.3,6.4,6.7,6.4C1595.2,457.1,1594.4,453.7,1592.3,453.5z M1740.7,243.7c3.2-0.2,7.4,1.8,7.1-3.9c-0.1-1.3-2.1-3.7-3-3.6
		C1740.7,236.5,1738.7,238.9,1740.7,243.7z M1740.7,451.3c0.4,0,0.9,0,1.3,0c0-8.2,0-16.4,0-24.6c-0.4,0-0.9,0-1.3,0
		C1740.7,434.9,1740.7,443.1,1740.7,451.3z"/>
	<path fill="#F2F2F2" d="M1,514c0-22.3,0-44.7,0-67c4.1,0.3,8.3,0.5,12.3,1.1c0.9,0.1,2.4,2,2.2,2.6c-1.3,4.6,1.9,4.3,4.4,4
		c3.9-0.4,7.7-1.4,11.6-2c1.7-0.3,4.3-1.1,5.1-0.3c5,5.2,10.7,2.8,16.2,1.9c7.2-1.2,9,0.2,9.1,7.5c0,0.8,0,1.7-0.1,2.5
		c-0.5,4.3,1.1,6.2,5.6,5.7c3.2-0.3,6.7-0.9,8.7,3.1c0.2,0.3,5.1-0.7,5.3-1.7c1.5-6.2,6.4-6.2,10.5-5.3c6.9,1.5,12.9-0.2,19.2-2.3
		c2.1-0.7,4.9-0.7,7,0.1c3.3,1.2,6.2,3.4,9.4,5.1c2.4,1.3,4.8,2.5,7.3,3.8c1.2-2.5,2.5-5,4.1-8.2c7.8,2.4,15.9,4.8,24.5,7.4
		c1.4-0.5,4-2.5,6-2.1c2.3,0.5,4.2,3.1,6.4,4.9c1.7-1.3,3.5-2.6,5.1-4c4.5-4.1,9-4.9,14.9-2.2c7.9,3.7,16.3,6.6,24.5,9.6
		c1.7,0.6,4.1,0.5,5.8-0.2c3.8-1.6,7.2-1.8,10.6,0.7c2.9,2.9,5.9,5.2,10.1,2.4c4.5-1.6,8.6-2.6,13.8-0.6c5.5,2.2,11.8,1.5,17.3-2.1
		c0.9-0.6,2.9-0.3,4,0.3c2.9,1.8,5,1.2,7.5-0.9c6.9-5.9,17.1-5.4,23.6,0.9c0.5,0.5,0.9,1.4,0.8,2.1c-0.1,3.1,1.5,3.7,4.3,4
		c8.1,0.7,9,1.8,9.8,10c0.3,3,1.1,4.7,4.8,3.3c1.7-0.7,4.1-0.7,5.9,0c4,1.5,4.3-0.5,4.3-3.5c0-2.6,0-5.1,0-7.2
		c8.1-1.2,15.3-2.3,22.8-3.4c0-0.3,0.2-1.1,0.2-1.9c-0.2-3.6,0-6.7,4.9-6.9c0.7,0,1.9-2.4,2-3.7c0.3-4.1,0.1-8.1,0.1-12.4
		c6.6,0,12.4,0,16.6,0c3.1-1.5,5-3.1,7-3.4c6-0.9,12.1-1.7,18.1-2c7.5-0.3,15,0.1,22.5-0.2c2.6-0.1,5.1-1.6,7.6-2.7
		c2-0.9,3.8-2.8,5.8-3c5.9-0.6,12-0.8,17.9-0.5c1.9,0.1,3.7,1.9,5.6,2.9c-0.2,0.8-0.3,1.5-0.5,2.3c12.4,0,24.8,0,37.5,0
		c-2.5,3.6-4.4,6.3-6.6,9.4c-2.4-0.1-5.3-0.4-8.3-0.5c-8,0-16.2,1.3-23.8-0.2c-8.4-1.7-16.5-1.8-24.7-0.3c-3,0.6-5.2,1.9-5,5.6
		c0.3,6.8,0.2,13.6,0.5,20.4c0.8,15.2,2,30.4,2.7,45.6c0.4,8.8,0.1,17.7,0.3,26.5c0.1,4,0.4,7.9,0.7,11.9c1.1-3,1.5-5.9,1.4-8.9
		c-0.4-14.4-0.8-28.8-1.3-43.2c-0.3-9.3-0.8-18.6-1.2-27.9c-0.4-8-0.9-16.1-1-24.1c0-1.3,1.3-3.4,2.4-3.7c3.4-0.8,7-1,10.5-1.4
		c0.4,2.3,0.6,4.1,0.9,5.9c0.3,0,0.6,0,1-0.1c0.3-1.8,0.5-3.7,0.8-5.7c1.8,0,3.5-0.2,5.1,0c7.5,0.9,15,2.2,22.5,2.7
		c5.7,0.3,11.5-0.8,17.3-0.8c14.2,0.1,28.5,0.7,42.7,0.8c3.8,0,4.9,1.7,5.1,4.9c0.7,11.7,1.6,23.5,1.9,35.2
		c0.6,20.6,0.7,41.2,1.2,61.8c0.1,4.1,0.9,8.2,1.4,12.4c0.4,0,0.9-0.1,1.3-0.1c0-1.9,0.1-3.8,0-5.7c-0.6-14.7-1.4-29.5-1.9-44.2
		c-0.5-13.8-0.6-27.6-1.2-41.4c-0.4-8.5-1.3-17-2.1-26.4c-9.9,0-19.3,0-28.8,0c-0.7-10.2-1.5-19.4-2-28.6
		c-0.6-9.4-0.9-18.9-1.4-28.1c3.8-1.1,6.9-1.9,9.9-2.8c-0.1-0.4-0.2-0.9-0.3-1.3c-1.7,0.1-3.5,0.2-5.8,0.4c0.7-1.1,1-2,1.6-2.4
		c6.4-5.5,12.6-11.3,19.4-16.3c2.6-1.9,6.5-1.9,9.9-2.8c0.3,0.5,0.7,0.9,1,1.4c0.4-2.5,0.8-5.1,1.2-7.6c0.8,2.9-0.4,7,1,8.2
		c3.9,3.3,2.4,7.2,2.9,10.9c1.4,10.1-1.5,14.1,12.9,12.4c3.3-0.4,5,1.2,4.9,4.6c0,1.5-0.1,3,0,4.5c0.5,6,1.1,12,1.5,16.7
		c-10.3,0.6-20.4,0.4-30.2,2.3c-4.5,0.9-11-1.5-13.7,7c-2.3,7.1-0.5,13.4-0.5,20c1.1-2.4,1.5-5,1-7.4c-1.4-7.3-0.4-10.8,4.9-12.9
		c2.4-0.9,5.3-0.6,8.8-0.9c-3.8-0.8-6.8-1.4-9.7-2.1c5.4-1,10.9-2,16.3-3c0.2,0.4,0.4,0.8,0.6,1.2c-0.8,1-1.5,2-1.7,2.3
		c1.6,0.6,3.5,1.3,5.2,1.9c0.2-1.4,0.4-3.5,0.7-5.9c4.4,0,8.6,0,12.7,0c1.6,0,4.1-0.3,4.7,0.5c3.2,4.5,7.7,5.9,13.9,5.8
		c0,19.1,0,37.8,0,56.6c0.3-25.9,0.2-51.8,0.4-77.8c0-4.3-2-9.4,3.2-12.6c0.4-0.2,0.6-1.4,0.4-1.8c-2.2-4.3,1.3-4.8,3.9-5.5
		c3.4-1,6.9-1.5,10.7-2.3c0,2,0,3.4,0,4.5c3.3-1.2,6.3-2.9,9.6-3.5c2.4-0.4,5.1,0.8,7.6,1c11.5,0.7,23,1.1,34.5,2.1
		c7.8,0.7,8.6,2.2,8.1,8.8c-0.1,0.8-0.3,2.1,0,2.3c5,3.1,2.3,8.1,3.7,11.9c1.8,1.6,4.2,3.4,4.5,5.5c0.6,4-0.2,8.1,0,12.1
		c0,1.4,1.4,4,1.7,3.9c2.1-0.5,4.4-1.2,6-2.5c1-0.9,0.9-3,1.2-4.6c2.5-12.8,4.8-25.6,7.7-38.3c1.8-7.7,4.5-15.1,6.8-22.6
		c2.5-8.2,5.1-16.4,7.5-24.7c0.9-3,0.9-6.2,1.8-9.2c1.9-6,4-11.8,4.4-18.2c0.3-4.3,1.9-8.7,5.8-11.7c3,3.7,5.1,7,3.1,11.5
		c-0.4,0.9,0.2,3.2,0.8,3.5c4.7,1.8,4,5.4,3,8.8c-1,3.6,1.3,6.6,3.6,6.2c3.8-0.6,6.3,1,8.9,2.6c4,2.4,8.6,4.7,10.9,8.3
		c1.6,2.5,4.8,4.8,4.3,9.3c-0.3,2.4,3.3,7,5.9,7.8c7.1,2.2,8.7,4.2,7.2,11.3c-0.6,2.8-0.2,6.2,0.9,8.9c1.6,3.9,3.9,7.5,6.4,10.9
		c2.8,3.8,1.8,7.1,0.4,11c-3.1,8.5-5.9,17.2-8.5,25.9c-0.3,1.1,0.9,3.8,1.7,4c3.2,0.5,6.6,0.7,9.7,0c3-0.7,7.3,0.8,8.5-4
		c1.4,0.5,3,0.8,4.1,1.7c1.3,1.1,1.9,3.7,3.1,4c4.1,0.8,4,3.5,4.1,6.6c0.3,15.8,0.7,31.6,1.2,47.3c0,1.4,0.5,2.7,0.7,4
		c0.3,0,0.6-0.1,0.9-0.1c-0.6-18.6-1.2-37.1-1.8-56.1c4.8,0,8.3,0,11.9,0c8.4,0.1,16.9,0.2,25.3,0.5c5.7,0.2,11.4,0.7,17,1.4
		c3.7,0.4,7.3,1.8,11,2c3.4,0.2,5.1,1,4.6,4.6c-0.5,3.4,1.4,4.5,4.3,4.5c3.1,0,6.2,0,9.5,0c-3.1,10.9-2.3,12.8,7.3,15.9
		c0.3-4.3,0.7-8.5,1-12.6c0.6,0,1.2,0,1.8,0.1c0,3.4-0.1,6.7,0,10c0,1.2,0.2,3.1,0.9,3.3c5,2,8.9,4.3,11.3,10
		c2,4.6,2.6,8.5,2.4,13.2c-0.3,9.9-0.2,19.9-0.1,29.8c0,0.1,0.5,0.3,1.1,0.6c0.4-0.5,1.2-1.1,1.2-1.6c0-7.6-0.2-15.1-0.1-22.7
		c0.2-6.6,0.3-13.3,1.4-19.9c0.4-2.9,3-5.4,5-8.8c6,1.4,12,2.9,18,4c4.7,0.9,9.5,1.3,14.2,1.7c1.5,0.1,3-0.2,4.5-0.4
		c-3.7-1.7-7.3-2.1-11-2.6c-4.1-0.5-9.5,0.6-12.1-1.6c-5-4.3-10.1-1.4-15-2.4c-0.6-0.1-1.8,0.4-2.1,0.9c-1.6,2.9-3.1,5.9-4.7,9.1
		c-0.5-0.4-1.5-0.7-1.5-1.1c-0.3-3.8-2.7-5.4-5.9-7.1c-3.9-2.2-7.3-5.4-5.8-10.9c0.3-1.1,0.4-2.7-0.1-3.4c-1.1-1.4-2.8-2.3-4.2-3.5
		c-0.8,1.3-2.2,2.5-2.4,3.9c-0.4,2.7-0.1,5.5-0.1,8.4c-5.2-1.8-6.1-4.2-3.6-8.4c2-3.3,0.9-5.6-2.9-5.9c-1.7-0.1-3.3-0.1-5,0
		c-3.6,0.1-6.1-0.6-5.8-5.2c0.2-2.7-1.5-3.8-4.5-3.9c-3.4-0.1-6.7-1.1-10.1-1.8c-4.2-0.9-8.3-2.6-12.4-2.6c-8.3,0-16.5,1.1-24.8,1.5
		c-2.9,0.2-6.1,0.6-6.2-4.1c-0.1-5.9,1.5-8.1,6.1-8.9c6.3-1.1,12.5-2.3,18.6-4.1c1.7-0.5,3.7-2.8,4.1-4.5c0.9-4,0.8-8.2,1.1-12.3
		c0.7-11.6,1.3-23.1,2.3-34.7c0.2-1.9,1.8-4.8,3.3-5.1c8.8-1.8,17.8-3.1,26.7-4.4c17.1-2.4,34.2-4.7,51.4-6.8
		c1.4-0.2,3.9,1.1,4.4,2.3c1.4,3.6,3.7,3.9,7.1,3.4c1.9-0.3,5.1,0.3,5.9,1.6c2.2,3.8,7.8,5.2,7.5,10.9c0,0.8,2.5,2.1,4,2.6
		c1.4,0.4,3,0.1,5.2,0.1c-2.7,5-2.2,8.7,3.5,11.9c0.7-6.6,1.6-12.6,2-18.5c1.4-19.6,2.7-39.3,4.1-59c0.2-3,1.5-4.5,5-4
		c0,1.8,0.2,3.5,0,5.1c-0.3,3,1.2,4.8,3.8,4.5c4.1-0.4,5.5,1.8,5.8,4.9c3.7,0.2,7.6-0.5,10.2,0.9c3.5,2,4.9,0.9,6-2
		c2.6-6.9,8.3-7.2,14.2-6.6c1,0.1,2.9,1.8,2.7,2.3c-1.4,6,1.5,8.2,7.5,7.7c-2,5.4-0.5,7.7,5.1,7c1.2-0.2,3.2,0.7,3.9,1.8
		c3.4,4.9,8.9,5.7,13.8,6.9c3.8,0.9,4.6,2.6,4,5.8c-0.7,4.1,1.4,6.3,5,7.3c3.1,0.8,6.7,0.1,7.1,5c0.2,3.1,1.5,6.2,2.5,9.2
		c0.7,2,1.6,5.4,2.8,5.6c3.3,0.6,6.8-0.5,10.3-0.4c3.1,0.1,6.2,0.5,9.2,1.3c0.5,0.2-0.1,3.3,0.4,4.8c0.5,1.4,1.8,2.7,3,3.5
		c1.2,0.8,2.8,0.9,3.5,1.1c0,10.7,0,20.9,0,31.1c-2.1-0.4-3.8-0.9-5.5-0.9c-9.2-0.1-18.3,0.1-27.5-0.1c-3.6-0.1-7.5-0.2-10.6-1.7
		c-1.5-0.7-1.2-4.9-2.6-6.8c-1-1.4-3.5-1.6-5.4-2.4c-0.5,1.2-0.7,2.6-1.4,3.6c-1.1,1.5-2.3,3.7-3.9,4.1c-3.7,0.9-7.5,0.9-11.3,1.2
		c-7.5,0.7-15,1.2-22.4,2.2c-1.2,0.2-2.8,2.4-3,3.8c-0.5,3.2-0.1,6.5-0.1,9.8c-18.3,1.2-36.2-2.9-53.8,2.4c2.3,0.6,4.6,0.8,6.9,0.6
		c6-0.5,11.9-1.8,17.8-1.6c16.1,0.6,32.1,1.8,48.2,2.6c2.1,0.1,4.3-0.9,6.5-1.4c-0.1-0.5-0.2-1-0.3-1.5c-4.4,0-8.8,0-13.2,0
		c-12.3,0.1-10.3,0.3-10.2-10c0-0.8,0.1-1.6,0.2-2.9c6.6-1.1,13.1-2.2,19.2-3.2c0.3,2.9,0.6,5,0.9,7.2c0.4,0,0.8,0,1.2-0.1
		c0.3-1.9,0.6-3.8,1-6c2.2,0,4.4,0.1,6.5,0c9.2-0.5,11.3-1.8,13.5-8c0.9,1.2,1.1,2.6,1.8,3.8c0.9,1.7,1.7,3.9,3.2,4.7
		c1.9,1.1,4.4,1.4,6.7,1.5c14.3,0.4,28.6,0.7,42.8,1.1c3.4,0.1,6.7,0.8,9.8,1.2c0,4.8,0.3,9-0.1,13.1c-0.3,3.5,0.5,4.6,4.2,4.7
		c12,0.5,24,1.4,36.3,2.2c1.7,20.8,3.4,41.5,5.2,62.7c3.4,0.4,6.7,0.9,9.9,1c2.8,0,4.2,1.3,3.9,3.9c-0.9,5.8,1.1,8.7,7.2,10.4
		c7,1.9,11.6-0.2,11.8-7.2c0-1.5,0-3,0-4.5c0.4,0.3,0.7,0.5,1.1,0.8c2.3-2.1,5.7-3.9,6.5-6.4c1.7-5.5,4-7.2,9.7-5.5
		c3.1,1,6.5,1.7,9.6,1.3c1.9-0.2,4.6-2.5,5-4.2c1-4.7,1.2-9.6,1.1-14.3c-0.5-18.1-1.3-36.2-1.9-54.2c-0.3-7.8-0.3-15.6-0.3-23.4
		c0-0.9,1.3-1.9,2.2-2.5c3.7-2.6,10.1-0.9,11.6-7.2c0.1-0.4,1.1-0.5,1.6-0.8c1.4,1.2,2.6,2.2,3.8,3.2c4.1-4.4,4.7-4,8.7,0.3
		c1.2,1.3,6.4,1.4,7,0.4c1.9-3.4,3.9-3.1,6.9-2.3c8.2,2.2,10.3,0.6,10.6-7.2c0-0.3,0.2-0.6,0.3-0.9c5.1-1,4.9-1.1,5.8-6
		c0.2-1.1,2-2.7,3.2-2.8c5.3-0.5,10.6-0.6,15.8-0.5c2.2,0,4.4,1,6.6,1.7c1.9,0.6,3.6,2,5.5,2.2c4.3,0.5,6,1.8,6.1,6.8
		c0.2,7.3,1.6,9.5,8.9,9.4c6.3-0.1,6.7,0.7,6.9,7.4c0.1,5,3.1,8.7,6.5,8.4c6.5-0.7,6.5-0.7,6.5,5.9c0,3.4-1.2,7.7,4.6,7
		c1.5,4.8-2.7,10.6,3.2,14.1c0.5,0.3,0.1,1.9,0.2,2.9c0.1,1,0.2,2.5,0.7,2.7c4.9,1.8,3,5.9,3.4,9.3c0.2,1.6,0.5,3.2,0.6,4.8
		c0.7,9.2,1.4,18.4,2,27.7c0,0.3-0.4,0.6-0.4,0.9c0,2.6,0,5.2,0.1,7.8c0.1,2.3,0.4,4.6,0.4,6.9c0.1,3.6,0,7.3,0,11
		c0.4,0,0.9,0,1.3,0c0.6-5.9,1.3-11.9,2.1-19c13.2,0,26.2,0.1,39.1-0.1c3.5,0,4.7,1.1,4.7,4.6c0,3.8,0.7,7.5,1.1,11.5
		c3-0.4,5.6-1.1,8.2-0.9c8.7,0.8,17.4,1.8,26.1,3c0.9,0.1,2.3,1.8,2.4,2.8c0.3,4.9,0.1,9.9,0.1,14.6c-2.1,0.4-3.8,0.2-4.9,1
		c-7.7,5.4-14.9,2.6-21.5-1.7c-4.6-3-8.7-3.1-13.3-0.6c-2,1.1-3.7,1.7-6.1-0.3c-3.5-3-13.8-1.2-14.8,2.7c-1.3,5.3-4.2,4.9-8.3,4.3
		c-7.2-1-13.8-1.9-16.1-10.8c-1.2-4.6-9.5-6.7-14.1-5.9c-3,0.5-6.2-0.6-9.3-1c-2.4-0.3-5.1-1.5-7-0.8c-1.7,0.7-2.7,3.5-3.9,5.2
		c-4-0.9-7.8-1.9-11.6-2.7c-6.1-1.2-12.8,0.8-14.8,4.4c-4,7-10.7,8.7-17.2,4c-3.3-2.4-6.3-3.1-10.1-1.9c-0.9,0.3-2.8-0.6-3.4-1.5
		c-4.9-7.5-13.7-9.1-21.5-4.8c-4.6,2.5-10.1,3.2-15.2,4.6c-0.6,0.2-1.8-0.3-2.2-0.8c-2.4-4.1-5.9-3.4-9.6-2.5
		c-3.6,0.9-6.4,0.3-7.2-4.3c-0.7-4.2-4-5.8-8.2-5.1c-5.4,1-8.5,3.9-10,9.4c-0.8,2.7-4.4,7-6,6.7c-5.3-1-10.1,3-14.2,2.1
		c-8.6-1.9-13.2,3.5-19,7.3c-4.2,2.8-7.2,0.9-8.6-4.1c-0.6-2.3-2-4.8-3.7-6.3c-3.3-2.8-6-5.4-5.3-10.2c0.4-3.1-0.6-5.5-4.7-5.2
		c-1,0.1-2.8-1.4-3-2.4c-0.7-4-0.9-8.1-1.3-12.5c-4.5,0-9.7-0.2-14.8,0c-12.9,0.6-25.8,1.5-38.7,1.8c-4.6,0.1-10.1,3.8-14-2.3
		c-0.4-0.7-2.5-0.6-3.8-0.5c-2.8,0.2-5.5,0.8-8.3,0.8c-6.5,0.1-7.9,1.2-7.4,7.9c0.3,4-0.8,5.2-4.8,5.3c-5.8,0.1-8.9,3.5-8.9,9.2
		c0,4.2,0.4,8.3,0.1,12.5c-0.1,1.5-1.7,3.7-2.9,4c-1.2,0.3-2.8-1.6-4.3-2.5c-1.6-1-3.2-2.9-4.8-2.8c-4.6,0.1-9.2,1.5-13.7,1.4
		c-4.9,0-4.8,3.2-4.9,6.3c-0.1,1.4,0.8,2.8,1.7,5.2c-3.7,0.2-6.9,0.3-10.1,0.7c-3.2,0.4-6.4,1-8.2,1.3c-1.9,2.6-2.8,4.9-4.5,5.9
		c-7.6,4.6-18.5-1.6-18.4-10.4c0.1-12.3,1-24.6,0.8-36.9c-0.2-16.3-1.1-32.6-2-48.8c-0.1-1.7-2.1-3.3-3.4-5.2
		c4.3-4.3,1.1-7.7-3.9-11.2c0.3,1.6,0.1,3.1,0.8,3.8c4.1,4.1,4.1,4-1.8,7.3c2.2,2,4.1,3.7,6,5.4c0.5-0.2,1-0.3,1.5-0.5
		c0,30.7,0,61.3,0,91.7c-3.1,1.4-6.5,2.3-9,4.3c-5.3,4.2-10,3.2-15.2,0c-5-3.1-10.8-4.9-16.6,1.1c-1.7,1.7-4.8,2.1-7.3,3.1l0.2,0.1
		c-3.5-2.8-12-1.9-17.3,1.8c-7.5-2.9-14.9-6.1-22.5-8.5c-4-1.2-8.7-1.9-12.7-1.1c-5.5,1-10.7,3.6-16,5.5c-1.2,0.4-2.5,1.2-3.7,1.1
		c-7.6-0.6-13.3,2.6-18.4,8c-1.1,1.2-4.1,2-5.5,1.4c-8.6-3.8-10.5-3.2-13.4,4.4c-3.9-0.3-7.5-0.3-11-0.8c-1.2-0.2-2.7-1-3.4-2
		c-2-3.2-6-4.5-7.8-1.5c-3,4.7-7.2,4.8-11.7,4.6c-2.8-0.1-3.8,1.1-3.9,3.8c-0.1,2.4-0.9,4.7-1.1,5.7c-5.7,0.3-10.7-0.2-15.1,1.2
		c-3.1,0.9-5.3,4.1-9.2,2.2c-0.7-0.4-3.2,1-3.5,2c-1.6,4.5-4.5,4.8-8.7,4.3c-3.4-0.4-4.3-1.4-4-4.6c0.4-4.6,0.9-9.3,0.5-13.9
		c-0.1-1.6-2.7-4.4-3.9-4.4c-12.8,0.9-25.5,2.6-38.3,3.5c-4.4,0.3-5.9,1.6-5.6,5.9c0.3,4,0.1,8,0.1,10.7c-4.2,1.1-7.6,2.1-11.1,2.9
		c-1.1,0.3-2.2,0.4-3.4,0.5c-3,0.1-6.2-0.4-9,0.4c-3.6,1-6.2,1-8.9-2c-1.5-1.7-4.1-2.4-6.3-3.3c-5.5-2.2-10.2,0-14.6,2.1
		c-3.4-1.6-6.8-2.7-10.3-3.1c-7.2-0.7-14.3,1.3-21.8,0.6c-6.5-0.6-12.7-1.4-18.8-3.3c-3.5-1.1-6.9-0.6-9.7,2.2
		c-1.3,1.3-2.7,2.4-4.1,3.6c-0.1-0.6-0.2-1.2-0.3-1.7c-4-0.1-8-0.8-11.9-0.2c-4,0.6-7.7,3-11.7,3.7c-4.7,0.7-8.3,2.5-11.5,5.9
		c-3.7,3.9-8.1,6.7-13.9,2.9c-2.8-1.9-6-3.5-9.3-4.3c-2.4-0.6-5.2-0.1-7.7,0.4c-1.3,0.3-2.3,1.6-3.8,2.6c-6.8-8.2-14.5-6.7-20.8-3.2
		c-4.2-1-7-2.3-9.7-2.2c-6.1,0.2-12.1,1.2-18.2,1.6c-1.5,0.1-3.4-0.3-4.4-1.3c-6.8-6.4-8.5-6.7-16.8-2.8c-3-5.9-9.2-9.7-10.1-17
		c-0.2-1.3-1.7-3.1-3-3.5c-5.4-1.6-8.7-5.4-10.6-10.3c-2.1-5.7-8-5.9-12.4-3.8c-1.3,0.6-2.6,1.4-3.2,1.7
		c-8.1-5.4-16.3-8.7-25.1-10.8c-3.7-0.9-8.1-1.4-10.7-3.7c-9.6-8.6-21.9-9.7-32-1.8c-1,0.8-2.1,1.8-3.3,2.2
		c-1.2,0.5-2.8,0.9-3.9,0.5c-8.6-3.1-23.3,1.5-28.2,10.3c-3.6,6.5-10,8.2-15.1,3.1c-6-6.1-13.7-11.3-15.7-20.6
		c-0.6-3-2.6-3.6-5.1-2.1c-1.1,0.6-2.1,1.5-3.3,2.3c-2.5-3.1-4.4-7.1-7.4-8.6c-3-1.4-7.2-0.1-11.2,0c-3.2-1.4-7-3.4-11-4.5
		c-4.2-1.2-8.9-1-13-2.3c-5.9-1.9-12.3-1.9-17.5-7c-3.6-3.6-9.9-3.7-14.8-0.4c-3.7,2.5-6.8,5.6-9.7,8.1c-2.5-0.8-5.6-2.4-8.7-2.5
		c-8.1-0.3-16.3,0.5-24.4,0c-7.9-0.4-9.8-2.8-10.9-8.4c-0.9-4.4-3.9-6.8-8.1-8.5c-5.4-2.1-9.5,0.6-14,2.6c-1.9,0.8-5.2,1.2-6.5,0.1
		c-7.4-6.1-9.1-6.3-17-0.4c-1.1,0.8-2.8,1.8-3.9,1.5c-11.1-3.2-19.8,0.7-27.9,8.1C21.2,516.4,11.6,518.4,1,514z M819.5,487.5
		c-0.5,1.7-1.3,3.4-1.3,5.1c0.1,9.4,0.5,18.8,0.7,28.2c0.2,10.3,0.1,20.6,0.2,30.8c0,1.2,0.4,2.4,0.6,3.6
		c0.3-15.3,0.4-30.3,0.3-45.4C820,502.4,819.7,495,819.5,487.5c-1.8-6.2,0.7-11.1,6.2-11.5c5-0.3,10-0.1,14.4-0.1
		c-1,1.6-2.1,3.3-3.2,5c0.3,0.1,0.5,0.1,0.8,0.2c3.4-2.2,6.9-4.3,10.2-6.5c-0.5-0.6-1-1.1-1.8-2.1c7.2,0,13.7,0,20.2,0
		c-0.9-7.9-0.9-7.9,6.7-8.6c0.7-0.1,1.3-0.2,2-0.3c5.6-1.2,6.9,0.1,6.2,5.7c-1,6.8,0.1,7.9,8.6,7.6c-1.5-0.9-2.3-1.7-3.3-1.9
		c-3.4-0.7-5-2.1-3.5-5.8c0.5-1.1,0-2.6,0.1-4c0.4-3.2-0.9-4.6-4.2-4.3c-3,0.3-6,0.5-8.9,0.3c-7.1-0.3-7.3-0.2-6.4,7
		c0.1,0.6,0.2,1.2,0.4,1.9c-1.1,0.3-1.8,0.8-2.6,0.8c-7.3,0.2-14.6-1.1-21.7,2.5c-2.9,1.5-7.2,0.9-10.7,0.5c-5.3-0.6-9,1.8-11.8,5.8
		C814.8,483,815.8,485.7,819.5,487.5z M612.8,402.5c-0.4-0.1-0.8-0.2-1.2-0.4c-4,8.7,0,17.9-0.4,26.7c-0.4,9.2-0.1,18.4-0.1,27.7
		c0.6,0,1.1,0,1.7,0C612.8,438.5,612.8,420.5,612.8,402.5z M838.7,521.6c0.3,0,0.6,0,0.8,0c0-12.3,0-24.5,0-36.8c-0.3,0-0.6,0-0.8,0
		C838.7,497.1,838.7,509.4,838.7,521.6z M653.6,430c-0.3,0-0.6,0-0.9-0.1c0,7.9,0,15.7,0,23.6c0.3,0,0.6,0,0.9,0
		C653.6,445.7,653.6,437.9,653.6,430z M643.5,431.6c0.5-0.2,0.9-0.4,1.4-0.6c-1.2-2.8-2-7.7-3.8-8.1c-4.8-1.1-10.1-0.4-15.3-0.4
		c0,0.4,0,0.8,0,1.3c5.2,0,10.4,0,16,0C642.5,426.7,643,429.1,643.5,431.6z M659.3,409.4c0,0.6,0,1.1,0,1.7c3.5,0,7.1,0,11.8,0
		C666.5,405.7,662.8,409.3,659.3,409.4z M561,464.2c0.2,0,0.5,0,0.7,0c0-6.7,0-13.4,0-20.1c-0.2,0-0.5,0-0.7,0
		C561,450.9,561,457.6,561,464.2z"/>
	<path fill="#F2F2F2" d="M246.9,481.4c-4.2,2.8-7.2,0.5-10.1-2.4c-2-3.8-5.3-3.1-8.7-2.6c-2.7,0.4-5.8,0.9-8.2,0
		c-9.2-3.4-18.1-7.5-27.4-10.8c-2.4-0.8-5.8,0.1-8.4,1.1c-3.1,1.3-5.7,3.7-8.5,5.6c-3.4-4-6.5-7.1-11.5-3.3c-0.4,0.3-1,0.5-1.4,0.4
		c-5.3-1.4-10.9-2.3-15.9-4.4c-8.5-3.6-9.8-3.3-12.7,4.9c-0.3,0-0.7,0.2-1,0c-9.4-5-18.1-12-30.3-6.2c-4,1.9-9.7,0.2-14.6,0.3
		c-5.6,0.1-8.3,2.6-8.9,7.3c-3-1.1-6-3.1-9.1-3.1c-4.9-0.1-6.4-2.1-6.5-6.6c-0.1-9.9-0.2-9.9-10.1-9.6c-1.3,0-2.6,0.5-3.9,0.6
		c-3.9,0.4-7.6,1.2-11.2-1.8c-1.4-1.2-4.5-1-6.7-0.8c-3.4,0.3-6.7,1.4-10.1,1.9c-2.3,0.4-3.6-0.3-3.9-3.1c-0.2-1.4-2.2-3.4-3.6-3.7
		c-4.4-0.8-8.9-0.9-13.3-1.2c0-63.3,0-126.7,0-190c4.8-0.1,9.7,0.1,14.4-0.5c3.2-0.4,5.8-1.2,7.2,2.7c0.3,0.8,1.7,1.6,2.7,1.7
		c6.4,0.6,10.3,5.9,15.7,8.5c1.5,0.7,2.7,2.3,3.8,3.7c0.9,1.2,2.1,2.6,2.1,3.9c0.5,16.8,0.9,33.5,1.1,50.3c0,4.7,0.1,8.7,5.8,9
		c0.5,11.5,1.1,22.4,1.6,33.3c1.3-1.8,1.6-3.7,1.6-5.6c0-13.2,0-26.5,0.1-39.7c0-1.5,1.5-3,2.2-4.5c0.6-1.4,1.7-3,1.6-4.3
		c-0.5-3.9,0.5-6.5,4.8-6.6c-0.6-5.9-1.2-11.4-1.7-17c-0.3-3.6,1.3-5.2,5-4.8c5.7,0.7,11.4,1.8,17.1,1.9c7.6,0.1,15.3-1.1,22.9-0.7
		c8.6,0.4,17,2.1,25.6,2.8c6.8,0.6,12.2,6,12.5,12.8c0.2,7.3,0.8,14.5,1,21.8c0.1,3.6,2.3,3.8,4.7,3.4c2.3-0.4,6.5,2,6.4-2.9
		c-0.1-3.7,1.7-4.3,4.5-4c2.1,0.2,4.3,0.3,6.4,0.7c6.5,1.3,13.1,2.8,19.6,4.3c4.3,1,10.7-3.2,12.3,4.7c5.4,0.9,4.2,5.2,4.2,8.7
		c0,4.1-0.3,8.2-0.5,12.7c-5.8,0.4-11.5,0.9-17.7,1.3c-1.7,31.4-0.6,62.6,1.5,93.7c0.5-8.9-0.3-17.9-0.4-26.8
		c-0.2-20.5,0-41-0.1-61.5c0-3.2,1.4-4,4.3-3.9c3.5,0.1,7-0.2,10.4-0.4c9.5-0.5,19-1.1,28.5-1.5c5-0.2,10.1,0.2,15.2-0.1
		c7.2-0.4,14.4-1.3,21.6-2c6.9-0.6,13.8-2,20.7-1.6c5.5,0.3,10.9,2.8,16.9,4.6c0,40.2,0,80.6,0,121.1c-5.4-0.9-10.8-2.7-15.6,1.7
		c-5.5,5.1-5.6,5-11.5-0.4c-6.3,6-13.8,4.9-21.7,4C254.3,478,250.5,480.3,246.9,481.4z"/>
	<path fill="#9B9B9B" d="M246.9,481.4c3.6-1.1,7.4-3.4,10.8-3c7.9,0.9,15.4,2,21.7-4c5.9,5.4,5.9,5.5,11.5,0.4
		c4.8-4.4,10.2-2.6,15.6-1.7c0-40.5,0-80.9,0-121.1c-6.1-1.7-11.4-4.2-16.9-4.6c-6.8-0.4-13.8,1-20.7,1.6c-7.2,0.7-14.4,1.5-21.6,2
		c-5,0.3-10.1-0.1-15.2,0.1c-9.5,0.4-19,1-28.5,1.5c-3.5,0.2-7,0.4-10.4,0.4c-2.9-0.1-4.3,0.7-4.3,3.9c0.1,20.5-0.1,41,0.1,61.5
		c0.1,8.9,0.9,17.8,0.4,26.8c-2.1-31.2-3.3-62.4-1.5-93.7c6.2-0.5,11.9-0.9,17.7-1.3c0.2-4.5,0.6-8.6,0.5-12.7
		c0-3.5,1.2-7.7-4.2-8.7c-1.7-7.9-8-3.7-12.3-4.7c-6.5-1.5-13-2.9-19.6-4.3c-2.1-0.4-4.2-0.5-6.4-0.7c-2.9-0.2-4.6,0.3-4.5,4
		c0.1,4.9-4,2.5-6.4,2.9c-2.4,0.4-4.6,0.2-4.7-3.4c-0.1-7.3-0.7-14.5-1-21.8c-0.2-6.8-5.7-12.2-12.5-12.8c-8.5-0.7-17-2.4-25.6-2.8
		c-7.6-0.3-15.2,0.9-22.9,0.7c-5.7-0.1-11.4-1.2-17.1-1.9c-3.7-0.5-5.3,1.2-5,4.8c0.5,5.5,1.1,11.1,1.7,17c-4.3,0.1-5.3,2.7-4.8,6.6
		c0.2,1.4-0.9,2.9-1.6,4.3c-0.7,1.5-2.2,3-2.2,4.5c-0.2,13.2-0.1,26.5-0.1,39.7c0,1.9-0.3,3.7-1.6,5.6c-0.5-10.9-1-21.8-1.6-33.3
		c-5.7-0.3-5.7-4.3-5.8-9c-0.1-16.8-0.6-33.6-1.1-50.3c0-1.3-1.2-2.8-2.1-3.9c-1.1-1.4-2.3-2.9-3.8-3.7c-5.4-2.6-9.2-7.9-15.7-8.5
		c-1-0.1-2.4-0.9-2.7-1.7c-1.4-3.9-4.1-3.1-7.2-2.7c-4.7,0.6-9.6,0.4-14.4,0.5c0-0.7,0-1.3,0-2c5.1-0.3,10.2-0.6,15.3-1
		c3-0.2,5.8-0.5,7.8,2.8c0.6,1.1,3.4,0.6,4.7,1.5c5.1,3.5,9.7,8.1,15.1,10.9c6.4,3.3,4.7,8.3,4.8,13.4c0.3,16.6,0.7,33.2,1.1,49.8
		c3.4,1,5.1,0.6,4.9-3.2c-0.2-2.5-0.1-5,0.1-7.4c0.1-1.2,0.5-3.1,1.3-3.4c3.1-1.3,2.7-3.2,2.3-6c-0.2-1.7,1.9-3.7,3-5.6
		c0.6,0.2,1.3,0.3,1.9,0.5c-0.4-4.1-0.5-8.2-1.2-12.2c-1.6-8.6,1.5-11.6,10.3-10.4c8.7,1.2,17.4,1.8,26.1,2.2
		c4.9,0.2,9.9-1.1,14.8-0.8c9,0.7,18,1.9,26.9,3.3c4,0.6,8.4,7.1,8.7,11.9c0.4,7.1,0.9,14.2,1,21.3c0.1,4.8,2.9,4.8,6.3,4.3
		c1.9-7.6,2-7.9,10.2-6.8c5.5,0.7,10.7,3,16.2,3.8c5.4,0.8,10.9,0.6,16.3,1.3c1.5,0.2,2.7,1.9,4.1,2.9c9.1,6.3,2.4,16.7,7.2,24.8
		c9.6,0.2,20.2,1.4,29.6-5.7c-0.3-0.6-0.7-1.5-1.1-2.4c-1.2-2.3-2.2-4.8,0.6-6.5c2.2-1.3,4.7-2.9,6.7,0.8c0.3,0.5,2.1,0.7,3,0.4
		c2.3-0.9,4.6-2,6.6-3.4c0.8-0.6,0.8-2.4,1.2-3.6c-1.1-0.2-2.2-0.7-3.2-0.6c-1.3,0.1-2.6,1.3-3.7,1c-1.7-0.5-3.1-1.8-4.7-2.8
		c0.9-1.1,1.7-2.7,2.9-3.3c3.5-1.7,7.1-3.1,10.6-5.5c-0.8,0-1.6,0.2-2.3,0c-1.5-0.5-3.4-0.9-4.1-2c-0.5-0.7,0.4-3,1.4-3.9
		c1.3-1.2,3.7-1.3,4.6-2.6c1.1-1.6,1.2-4,1.7-6.1c-1.5-0.2-3-0.6-4.5-0.6c-1.1,0-2.2,0.9-3.3,0.8c-1-0.1-2.3-0.8-2.7-1.6
		c-0.3-0.6,0.5-2.2,1.3-2.7c4.2-2.5,8.6-4.8,13.4-7.4c-0.5-3.5-1.4-7.5-1.7-11.5c-0.1-2,0.5-4.6,1.8-6c0.6-0.7,3.6,0.8,5.4,1.8
		c3.3-0.5,5.6-1.7,4.5-6.4c-0.8-3.6,0.2-7.3,4.9-8.3c0.7-0.2,1.6-0.8,2-1.4c3.4-5.2,7.9-6.2,13.7-4.4c2.9,0.9,6.4,0.3,9.3,1.3
		c2.2,0.7,4.8,2.5,5.7,4.5c2.5,5.4,4.1,11.2,6.1,16.8c7.4,21.7,14.7,43.5,22.2,65.2c9.7,27.8,19.6,55.5,29.3,83.3
		c2.6,7.4,4.9,15,7.4,22.5c0.5,1.5,1,3,1.8,5.1c0.7-1.6,1.3-2.5,1.4-3.4c0.2-14.3,3.7-28.5,0.5-43c-1.5-7,0.7-14.8,0.8-22.2
		c0.2-14.7,0.1-29.5,0.1-44.2c0-6.7-0.3-13.3-0.3-20c-0.1-14.8,0-29.6,0-44.4c0-9.5,0-19,0-29.2c2.8-1.2,5-0.2,4.7,3.9
		c-0.3,4.3,1.5,6.4,5.6,7.8c4.4,1.5,8.7,3.7,12.7,6.2c7.6,4.7,16.3,3.3,24.5,4.7c2.6,0.5,2.9,1.4,3.4,3.7c0.6,2.8,2.4,5.3,3.7,8
		c10.1,0.8,20.4,1.5,30.8,2.5c1.9,0.2,3.6,1.2,5.5,1.9c-0.9,1.5-1.8,3-2.9,4.8c3.1,6.7,9.5,7.1,16.6,5.9c0.1,2,0.4,3.4,0.3,4.9
		c-0.3,10.4-0.8,20.8-0.9,31.2c-0.1,5.3,0.9,10.6,0.9,15.9c-0.2,24.6-0.7,49.2-0.9,73.9c-0.1,7.6,0.7,15.2,0.9,22.9
		c0.1,3.9,1.9,5.1,5.7,4.8c6.3-0.4,12.6-0.7,18.9-0.6c1.5,0,3.5,1,4.4,2.1c0.5,0.6-0.7,2.7-1.3,4c-0.6,1.5-1.4,3-2.5,5.5
		c4.6-0.6,8-1,11.3-1.3c2.8-10.6,0.7-21-0.1-31.5c-0.6-8.1-0.8-16.4,0.1-24.4c0.3-3.1,3.6-6.2,6.1-8.6c8.2-7.6,16.7-14.9,25.1-22.3
		c0.6-0.6,1.1-1.3,1.8-1.7c1.7-0.8,3.6-1.4,5.3-2c0.7,1.9,1.4,3.8,2.1,5.7c0.8,2,1.6,3.9,2.3,6c0.4,1.4,0.6,2.8,0.7,4.3
		c0.3,4.3,0.5,8.6,0.9,12.8c0.3,3.3,2.3,4.1,5.5,4c11.6-0.1,11.4,0,11.7,11.7c0.2,5.7,0.7,11.6,2.2,17.1c0.9,3.2,4.1,5.8,8.5,5
		c0-8.6,0-17.1,0-25.6c0-1.6-0.3-3.8,0.6-4.6c2.1-2,2.7-4,2.9-6.8c0.1-1.4,2.6-3.4,4.4-3.8c6.7-1.5,13.6-2.4,20.4-3.5
		c0.9-0.2,2.1-0.2,2.9,0.1c11.9,5.2,24.6,5.1,37.2,5.2c1.8,0,3.7-0.1,5.5,0.1c7.1,0.8,6.2,2.2,8.8,8.7c2.3,5.8,0,13.4,6.4,17.8
		c1.1,0.8,1.4,3.8,1.1,5.5c-0.8,4.1,0.2,9.9,3.1,12.1c1.8-7.5,3.6-14.7,5.3-21.9c2.8-11.9,5.1-24,8.3-35.8c5-18.6,10.7-37,15.9-55.5
		c1.2-4.3,1.4-8.8,2.7-13.1c0.6-1.9,2.5-4.6,4.1-4.8c3.4-0.4,6.6,0.9,7.1,5.4c0.5,4.4,1.4,8.7,3.6,12.9c1.4,2.8,0.3,6.8,0.3,9.6
		c5.2,1.6,9.9,3,14.7,4.5c0.3,0.1,0.7,0.3,0.8,0.6c1,5,5.5,5.7,8.2,7.1c1.7-1.3,3.1-2.3,4.4-3.3c0.5,1.6,1.4,3.1,1.3,4.7
		c-0.2,3.4-1.4,6.7-1.3,10c0.1,1.6,2.2,4.3,3.5,4.4c5.2,0.3,6.6,4.5,9.1,7.6c1,1.2,1.8,2.8,3,3.7c1.5,1.1,4.2,1.5,2.5,4
		c-0.9,1.3-3.1,1.8-5.8,3.2c0.1,0.4,0.2,2.2,0.9,3.7c2.4,5,5.3,9.7,7.6,14.7c0.8,1.7,1,4,0.5,5.8c-2.6,8.8-5.5,17.5-8.3,26.3
		c-0.4,1.2-0.4,2.5-0.6,4.1c4.4,0,8.3,0.1,12.2-0.1c0.7,0,1.3-1.1,2.1-1.5c1.9-0.9,3.8-2.2,5.7-2.2c1,0,2.6,1.9,3.2,3.3
		c1.5,3.9,2.7,4.4,5.4,2.9c4.8,0.9,8.3,1.5,12.7,2.3c0-2.6,0-4.4,0-6.2c0-6,1.2-7.3,7.1-8.5c5.7-1.1,11.3-2.3,17-3.4
		c3.6-0.7,4.7-3.3,4.9-6.5c0.7-12.2,1.4-24.5,2-36.7c0.1-1,0.2-2,0.3-3c0.3-8.4,3.3-11.7,12.9-13.2c13.3-2.1,26.7-3.1,40-5.2
		c10.2-1.6,20.4-3.2,30.6-4.8c3.3-0.5,6.7-1.1,7.2,4c0.1,1,2.7,2.8,3.1,2.5c6.2-3.9,8.9,1.2,12.3,4.5c1.3,1.3,2.7,2.5,4.4,4.2
		c-1.7,8.5,5.6,4.6,9.4,5.9c0.2-0.2,0.5-0.4,0.5-0.7c0.7-12.7,1.2-25.5,2.2-38.2c0.7-9,1.7-18.1,3.2-27c0.3-1.6,3.4-3.6,5.3-3.7
		c1.3-0.1,4.3,3,4.1,4.1c-0.9,4.8,1.8,5.3,5.3,6.2c2,0.5,3.6,2.6,4.8,4.8c2.2,0,4.3-0.1,6.5,0c2.8,0.2,4.1-1.2,6.2-3.2
		c3.1-3,8.1-4.2,12.4-5.6c1.7-0.5,3.9,0.4,5.8,0.8c2.6,0.5,4.6,1.3,2.1,4.5c-2,2.6-0.1,5.2,2.1,5.2c5.7-0.1,5.4,2.8,4.3,5.7
		c6.2,3.1,12,6,17.9,8.8c1.2,0.6,2.4,1.4,3.7,1.5c5.7,0.3,6.9,3.2,5.8,8.4c-0.3,1.3,2.1,4.5,3.2,4.5c9.4,0,8.8,7.9,11.1,13.4
		c0.9,2.1,1.2,6.4,1.8,6.4c3.3,0,6.6-1,9.9-1.8c0.8-0.2,1.5-1.2,1.7-1.4c2.7,1.4,4.9,2.4,7,3.7c1.1,0.7,2.6,2,2.5,2.9
		c-0.6,4.4,1.2,6.4,5.4,6.7c0.6,0,1.1,0.6,2.2,1.3c0,10.5,0,21.1,0,31.7c13.1,1.5,13.1,1.5,13.8,12.2c13.4-15.8,26.1-30.8,38.8-45.7
		c8.8-10.3,17.6-20.7,26.4-31c4.2-4.9,8.4-9.8,12.6-14.7c3.4-3.9,8.3-4.4,11.5-1.7c3.8,3.1,7,1.5,10.6,1.2
		c6.6-0.5,13.1-1.4,19.7-1.8c1.4-0.1,3.2,0.8,4.4,1.8c7.1,5.9,15.5,8.5,24.6,9.3c1.9,0.2,4.6,1.5,5.4,3c2.8,6,7.6,6.8,13.2,6.2
		c1.7-0.2,3.4-0.6,5-0.2c1.4,0.3,3.2,1.2,3.6,2.2c0.5,1.6,0.7,4.2-0.3,5.2c-3,3.2-6.5,5.9-10.4,9.3c12.5,0.8,25-2.1,37,5.2
		c-0.6-3.8-0.9-6-1.2-8.5c3.6-0.8,6.9-2,6.9,3.7c0,0.7,2.1,1.3,3.7,2.3c-0.6-3.7-1.9-6.7-1.1-8.8c0.7-2,3.7-3.2,5.8-4.8
		c0.5-0.4,1.3-0.7,1.5-1.2c3-5.7,6-11.2,13.3-12.4c0.5-0.1,0.6-1.8,1.1-2.5c1.2-1.4,2.4-3.3,4-3.7c8.5-2.6,9.4-1.9,9.9,7.1
		c0,0.8,0.3,1.6,0.6,2.8c2.2-0.5,4.2-0.9,6.5-1.3c0-2.2,0-4.1,0-6.1c0-8.3-0.4-7.2,7.7-8.2c5.7-0.7,11.7,0.9,17.5,1.8
		c2.6,0.4,6,1,7.3,2.8c1.3,1.8,0.4,5.1,0.4,7.8c0,1.2,0,2.3,0,4c3.3,0.4,6.4,0.9,9.6,1.2c2.6,0.3,3.8,0.9,2.7,4.1
		c-0.7,2.3,0.2,5.1,0.4,8c4.3,2,6.3,10.1,3.8,15.5c-0.6,1.3-0.3,3-0.2,4.5c0,0.6,0.8,1.4,0.6,1.8c-3.1,6,1.1,12.1-0.6,18.1
		c-0.2,0.8-0.6,1.7-0.3,2.4c2.3,6.2,2,12.4,1.2,18.8c-0.3,2.5,1.2,5.2,1.9,7.9c2.4-0.3,5.7-1.3,8.9-1c5.4,0.5,10.8,1.7,16.1,2.9
		c0.9,0.2,2.1,2.5,1.9,3.6c-1,5.2,1.4,7.3,6.1,8.1c3.8,0.6,7.6,1.7,11.5,2.2c2.9,0.4,3.7-1.3,3.2-4.1c-1.4-7.7-0.1-9.5,7.9-11.3
		c0-13.6,0-27.1,0-41.1c8.6-0.9,16.6-1.7,24.6-2.5c2.8-0.3,5.8-0.1,8.2-1.2c1.6-0.7,2.8-3,3.3-4.9c0.2-0.6-2.4-2.2-4-2.8
		c-0.9-0.4-2.3,0.7-3.3,0.5c-1.5-0.3-2.9-1.1-4.4-1.7c1.1-1.3,2-3.1,3.3-3.6c1.6-0.6,3.7,0.2,5.4-0.3c1.5-0.4,3.9-1.8,3.9-2.7
		c-0.1-4,2.6-4.6,5.2-4.4c1.5,0.1,2.8,2.3,5.1,4.4c3.6-0.3,8.5-0.6,13.4-1.4c1-0.2,2.4-2.1,2.5-3.3c0.3-3.8-0.2-7.7,0.3-11.5
		c0.2-1.4,2-2.7,3-4c0.7,1.5,1.9,3,2.1,4.6c0.5,3.9,0.3,7.9,0.9,11.8c0.1,1,2.1,2.3,3.4,2.5c3.5,0.3,7-0.1,10.5,0.2
		c1.3,0.1,2.6,1.4,3.8,2.1c-1.2,0.9-2.3,2.4-3.7,2.6c-3.5,0.5-7.1,0.5-10.6,0.7c-1,7.3-0.9,7,5.2,7.5c8.5,0.8,16.9,2.3,25.3,3.5
		c0.8,0.1,1.7,0.5,2.4,0.3c7.5-1.2,8.9,1.3,8.4,8.8c-0.2,3.3-0.7,6.5-0.8,9.8c0,1.1,0.8,2.4,1.6,3.1c1.2,1,2.8,1.5,5.5,2.7
		c0.9-3.1,63.8-9.2,64.7-12.1c0.4-1.2,0.8-2.8,1.7-3.2c3.5-1.7,7.2-3,11.6-4.7c-0.4-7.2-1.1-14.6-1.1-21.9c0-5.9,0.9-11.8,1.2-17.7
		c0.4-6.9,4.6-13.5,1.9-20.8c-0.2-0.6,1.7-2.9,2.7-2.9c1.3,0,3.4,1.2,3.7,2.3c0.8,2.7,0.8,5.7,1.2,9c4.6-1.5,5-4.4,5-7.6
		c0-13.2,0-26.5,0-40.1c5-0.7,5.9-3.5,4.2-8c-0.6-1.7,0.2-3.9,0.3-5.9c0.2-4.2,0.8-8.4,0.5-12.6c-0.5-6.1,0.5-8,6.6-9.4
		c1.1-0.3,2.2-0.8,3.2-1.2c5.9-2.7,5.9-2.7,8.2,3.9c1.5-4.6,5.7-6.1,6.7-11.2c0.7-4.1,6.1-6,10.7-6.3c3.3-0.2,4.1-1.6,3.3-5.2
		c-1.6,0-3.4,0.3-5.1-0.1c-1.3-0.3-2.5-1.3-3.8-2c1.1-1,2-2.5,3.3-2.9c4.6-1.2,9.3-2.1,14-2.8c3.5-0.6,3.5-2.3,2.2-5.1
		c-2.6,0.6-5.2,1.4-7.7,1.6c-1.4,0.1-2.9-1-4.3-1.5c0.7-1.3,1.4-2.6,2.3-3.9c0.2-0.3,0.9-0.5,1.4-0.5c6.7-0.9,11.4-3.7,11.5-11.5
		c0-1.8,2.2-3.5,3.3-5.3c0.8-1.3,2.1-2.7,2.3-4.1c1.1-7.2,1.1-7.3,8.9-6.3c0.1,0.9,0.1,1.9,0.2,2.8c0.1,0.8,0.2,1.6,0.4,4
		c4.5-3,8.5-5.2,11.9-8c4.6-3.8,7.6-9.7,14.8-9.9c2.1,0,4.2-1.7,6.4-2.5c2.5-1,3.4-2.7,3.7-5.6c0.7-6.6,1.1-9,6.7-7.9
		c0,3,0,6.1,0,9.9c3.2-0.9,6.1-1.3,8.7-2.4c1.1-0.5,2.2-2.4,2.3-3.8c0.8-11,1.4-22.1,2.1-33.1c0.2-4.1,1.4-4.7,4.8-2.7
		c4.9,2.9,10,5.7,14.8,8.9c1.5,1,3,3.2,3.2,5.1c0.7,5.6,0.8,11.2,1.3,16.8c0.6,6.2,0,12.4,4.9,18.1c3.1,3.5,3.5,9.4,5,14.2
		c0.2,0.6,0.1,1.5-0.3,1.9c-3.9,3.8-2.6,8.7-2.6,13.2c-0.1,101.1-0.1,202.2,0,303.3c0,2.6,0.3,5.3,1.1,7.8c1,3.2,2.2,6.3,7,5.7
		c2.6-0.3,5.6,2,8.1,1.4c3.6-0.8,6.9-3.3,10.4-4.8c2.8-1.3,5.8-2.2,9.4-3.6c0-6.8-0.1-15,0-23.1c0.1-6.9,0.5-13.8,1-20.6
		c0.1-1.6,0.8-4.1,1.7-4.4c4.4-1.4,3.1-4.7,3.2-7.6c0.1-4.7,0-9.3,0-14c0-5.5,2.1-7.4,7.4-7.1c3-5.3-3.2-13.3,3.9-17.4
		c0.7,0.1,1.3,0.3,2,0.4c0,7,0,14,0,21c0.4,0,0.8,0.1,1.1,0.1c0.2-1,0.8-2.1,0.5-2.9c-1.8-5.4,0.7-10.3,1.7-15.3
		c1.4-6.5,1.8-13-1.4-19.2c-0.5-0.9-0.1-2.3-0.3-3.4c-1.1-5.4-0.8-11.9-9-12.3c-1.1-0.1-2.6-1.1-3.2-2.1c-2.7-4.9-5.2-10-7.7-15
		c-0.3-0.7,0.2-2-0.3-2.4c-6.7-6.2-4.2-14.3-4.5-21.8c-0.4-12.1-0.3-24.3-0.3-36.4c0-2.9,0.8-5.9,0.7-8.8c-0.1-1.5-1.5-2.9-2.7-5.2
		c1.5-0.7,3.2-1.7,5-2.5c7.4-3.2,15.9-4.9,21.8-9.8c7.3-6.1,16.1-8.1,23.8-12.7c5.1-3.1,10.2-2.5,15.6-1c10.3,2.8,20.8,5,31.1,7.7
		c1.3,0.3,2.4,1.8,3.6,2.7c-1.2,1-2.3,2-4,3.4c1.2,0.8,2.5,2.1,4.1,2.4c10.3,2.2,20.7,4.2,31,6.2c2.1,0.4,4.3,0.6,6.4,1.1
		c3.7,1,5,4,3.5,7.6c-0.6,1.5-0.9,3.1-0.9,4.7c-0.1,62.3,0,124.6-0.1,187c0,5.9,3.9,9.3,6.5,13.8c1.6,2.8,3.6,6.3,3.2,9.1
		c-0.6,3.5,0.4,4.9,3.3,6.2c5.7-8.4,12.3-6.2,19.6-2c2.4,1.4,5.7,1,8.6,1.5c0,1.7,0,3.3,0,5c-1.8-4-4.2-5.8-8.3-2.5
		c-0.5,0.4-2.9-0.3-3.1-1c-1.7-4.8-5.8-5.1-9.3-4.3c-2.2,0.5-3.8,3.6-6.6,6.4c-1.8-1.1-4.9-3-7.8-4.8c2.9-7.6,2.4-7.2-3.5-13.5
		c-2.7-2.8-4.7-7.6-4.8-11.5c-0.3-16.1,0.4-32.2,0.4-48.3c0.1-46.8,0-93.6-0.1-140.4c0-2.1-1.1-4.2-2-7.2c0.3-0.2,1.6-0.9,4.2-2.4
		c-3.8-1-6.6-2-9.4-2.6c-11.1-2.4-22.2-4.5-33.2-7.1c-4.6-1.1-4.9-3.8-1.1-7.6c-8.9-2.1-17.6-4.2-26.3-6.3c-2.5-0.6-5-2-7.6-2.2
		c-3.5-0.3-7.3-0.5-10.4,0.6c-6.2,2.2-13,4.4-17.8,8.6c-6.4,5.6-14,8-21.1,11.7c-3.2,1.6-6.8,2.5-10.7,3.8c1.3,1.1,2.3,1.9,3.3,2.7
		c-0.5,0-0.9,0-1.4,0c-0.5,5-1.4,10.1-1.4,15.1c0.1,14,0.5,27.9,0.9,41.9c0.1,2,0.7,4.1,1.5,6c2.7,6.7,5.5,13.5,8.6,20.1
		c0.7,1.5,2.8,3.3,4.3,3.3c6.1,0.3,8.2,4.2,9.3,9.2c0.9,4.3,2.2,8.6,2.3,12.9c0.2,6.2-0.4,12.3-0.9,18.5c-0.5,6-1,12-2.1,17.8
		c-0.4,2.2-2.4,4-4.4,5.5c-1.2,2.9-2.5,5.7-3.7,8.6c-0.7-0.1-1.3-0.2-2-0.2c0-5.4,0-10.9,0-16.3c-0.5,0-0.9-0.1-1.4-0.1
		c-3.2,8.5,3.5,19.7-7.2,27.6c0,15.2,0,31.8,0,48.9c-6.4-0.9-11.2,0.3-15.2,4.9c-1.5,1.8-5.5,1.8-8.4,1.9c-3.9,0.1-7.9-0.4-11.8-1
		c-1-0.2-2.5-1.3-2.7-2.2c-1.2-4.4-2.9-8.9-2.9-13.3c-0.2-103.8-0.1-207.6-0.1-311.4c0-2.8,0.6-5.6,0.9-8.4c0.1-0.7,0.3-1.4,0.1-2
		c-1.6-4.3-3.5-8.5-5-12.8c-1-2.9-1.6-5.9-1.9-8.9c-0.8-7.9-1.4-15.8-2.2-23.6c-0.1-1.4-0.8-3.2-1.8-3.9c-5.3-3.2-10.8-6.1-17.2-9.7
		c-0.7,12-1.5,23.3-1.8,34.6c-0.1,3.7-0.7,6.1-4.9,6.2c-0.8,0-1.6,0.4-2.4,0.7c-9.2,2.5-9.6,2.2-9.4-7.3c-0.2,1.3-0.4,2.5-0.6,3.8
		c-1,5.9-5.3,10.3-11.3,10.4c-7.7,0-10.8,5.9-15,10.6c-1.3,1.4-2.9,2.5-4.6,3.4c-2,1.2-4.1,2.1-6.1,3.1c-2.9,1.6-4.6,1.2-4.9-2.6
		c-0.1-1.2-1.6-2.3-2.5-3.4c-0.8,1.2-2.3,2.4-2.3,3.6c-0.1,2.7-0.4,4.6-3.2,6.4c-2.1,1.4-4,5.2-3.7,7.7c0.8,7-4.1,7.7-8.5,9.2
		c-1.4,0.5-2.9,0.8-4.4,1.2c0.1,0.4,0.1,0.8,0.2,1.2c3.6-0.5,7.2-0.9,10.8-1.4c1.7,8.1,0.8,9.3-7.3,10.1c-3.5,0.3-6.9,1.2-10.2,2.8
		c2.1,0.1,4.2,0.2,6.3,0.3c2.3,7.3,2.3,7.2-5,9.2c-4.6,1.2-9.2,2-9.5,8.7c-0.1,2.7-3.5,5.6-6,7.8c-1.6,1.5-4.1,1.8-4.7-1.6
		c-0.2-1.1-0.6-2.1-0.9-3c-3.2,1-5.9,2-8.7,2.8c-3.6,1.1-3.4,3.8-3.2,6.8c0.2,3.6,0,7.1,0,10.7c0,3.4,0,6.8-0.1,10.2
		c-0.1,2.8,1.1,6.2-3.2,7.3c-0.7,0.2-1.5,1.9-1.3,2.7c3,12.9-0.3,25.7-0.5,38.5c0,4.8-3.6,7.6-8.7,7.2c-0.6-3.6-1.3-7.4-1.9-11.1
		c-0.3,0-0.6,0.1-0.9,0.1c-0.1,0.4-0.4,0.8-0.4,1.1c2,9.5-3.1,18.1-3.3,27.2c-0.1,6.1,0.2,12.1,0.2,18.2c0,5.3,0,10.6,0,15.8
		c-4.3,2.1-8.3,4-12.5,6c-0.4,1.9-1.5,4.2-1.3,6.4c0.6,5.6-66.6,9.2-68.6,8.4c-2.5-1-7.1-1.9-6.6-7c0.4-4.6,0.4-9.3,0-14
		c-0.1-1.2-1.8-3.3-2.9-3.4c-11.7-1.6-23.5-2.7-35.3-4.3c-1.2-0.2-3.2-1.7-3.2-2.6c-0.1-2.7,0.4-5.6,1.2-8.2
		c0.2-0.8,2.2-1.1,3.3-1.6c-0.1-0.4-0.1-0.9-0.2-1.3c-8.7,0.8-17.4,1.4-26.1,2.6c-3.9,0.5-5.7-0.7-6-5c-7,5.4-2.7,12.5-4.1,19.9
		c-11,1.3-22.4,2.7-34.5,4.1c-0.3,2.6-1.1,5.8-1,9c0.2,12.1,0.7,24.3,0.9,36.4c0.2,11.1,0,22.1,0,33.2c0,1.4-0.2,2.8-1.4,4.2
		c-0.5-7.9-1-15.8-1.6-24.4c-4.7-0.6-9.5-1.1-14.2-1.7c-0.6,2.5-1.2,4.4-2,7.6c-1.3-2.2-2.5-3.3-2.4-4.3c0.5-4.6-1.9-6-6-6.4
		c-4.5-0.5-7.4-2.7-6.3-7.9c0.7-3.2-1.5-4-3.9-4.4c-3.8-0.7-7.6-1.6-11.4-1.9c-1.9-0.2-4.4,0.1-5.7,1.3c-2.5,2.3-4.5,1.5-6.7,0.1
		c-2.1-1.4-1.2-2.9-0.9-5.2c0.7-4.3-0.6-9-0.8-13.5c-0.2-5-0.1-10-0.1-15c0-1.1-0.2-2.2-0.6-3.2c-1.1-3.1-3.6-6.2,0.7-9.1
		c0.5-0.3-0.5-2.6-0.5-4c-0.1-2.4,0-4.9,0-7.3c0-1.7-0.2-3.3,0-5c0.2-1.9,0.8-3.8,1.3-5.9c-3.5-0.3-7.6,0.1-5.6-6
		c0.6-1.7-1.3-4.3-2.3-7.1c0.4,0.2,0.1-0.1-0.2-0.1c-3.1-0.4-6.9,0.2-9-1.4c-1.4-1.1-0.5-5.3-0.2-8.1c0.3-3.8-1-5-5-6
		c-6.8-1.7-13.4-3.9-20.3-1.4c-1.5,0.5-2.6,2.5-3.7,4c-0.4,0.6-0.1,1.6-0.1,2.5c0,8.4-1.3,9.5-10.6,7.8c-0.1-1.2,0-2.5-0.3-3.8
		c-0.5-2.2-1.3-4.4-2-6.5c-2.7,1.6-7.5-1.1-8.4,4.8c-0.3,1.9-4.5,3.2-6.8,4.8c-1.5,1.1-2.9,2.2-4.1,3.5c-2.4,2.7-4.3,6.1-7.1,8.2
		c-2.5,1.9-3.1,3.3-1.9,6.1c0.6,1.4,0.9,3.7,0.2,4.6c-1,1.2-3.3,2.1-4.9,1.9c-3.8-0.5-5.8,0.2-4.9,4.6c0.7,3.7,1.3,7.4,2.6,10.9
		c2.2-5.2,3.7-5.6,12.7-3c-1.8,0.1-3.6,0.2-5.3,0.4c-1.6,0.2-3.3,0.7-4.9,1.1c0.1,0.6,0.1,1.1,0.2,1.7c1.7,0.1,3.4,0.1,5.1,0.3
		c1.7,0.2,3.4,0.7,5.4,1.1c0.2-0.8,0.4-2.2,0.7-3.6c0.2,0,0.5-0.1,0.7-0.1c0.3,1.4,0.7,2.8,1,4.2c4.1,0.3,8.2,0.6,12.9,0.9
		c-5.9,5.1-9.7,5.6-16,1.9c1.8,4.3,3.2,7.4,5.1,12.1c1.5-2.3,2.6-4,3.4-5.2c1.3,1.2,3.2,2.8,4.7,4.6c0.6,0.8,0.7,2.1,0.7,3.3
		c0.1,2.6,0,5.2,0,7.9c0.5,0,0.9,0,1.4,0c0-1.2,0-2.3,0-3.3c1.8,2.6,3.6,5.2,5.5,7.8c-3.2,2.7-3.2,4.1,1.1,6.4
		c-1.2,0.6-2.1,1.1-2.5,1.3c1.2,3.2,2.4,6.4,3.9,10.4c0.3-2.5,0.5-4.1,0.8-5.7c0.3,0,0.7-0.1,1-0.1c1.1,12.6,2.2,25.2,3.2,36.8
		c3.6,1.5,6.8,3,10.1,4.2c0.8,0.3,2.2-0.4,3-1.1c4.6-3.7,9-3.3,14.7-0.4c3.7,1.9,8.4,1.9,12.3,2.6c0-13.4,0-26.8,0-40.9
		c3.9,0.6,8.2-0.3,11.5,4.3c2.4,3.3,5.7,6.8,9.4,8c3,1,7.1-1.2,10.7-2c1.5-0.3,3-0.7,4.5-1.1c0.2,1.3,0.6,2.6,0.6,3.9
		c0.1,9.3,0,18.6,0,28c5.6,1.6,6.6,0.9,6.8-5.8c0.2-6.5,2.2-7.8,8.5-4.9c-1.1,1.1-2.1,1.9-3,2.8c0,0,0,0.1,0,0.1
		c-0.2-0.8-0.4-1.6-0.6-2.5c-1,0.4-2.3,0.6-2.9,1.4c-0.5,0.6-0.3,1.9-0.3,2.9c-0.2,7.4-1.2,8.5-8.4,8.4c-0.9,0-2.4-2.1-2.4-3.3
		c0.1-5.4,0.7-10.9,0.8-16.3c0.1-4-0.5-8-0.7-11.7c-3.7,1-6.6,2.1-9.7,2.4c-3.3,0.4-7.2,1.1-8-4.1c-0.1-0.9-2.1-1.3-3.1-2.2
		c-1.6-1.3-3-3-4.7-4c-2.1-1.3-4.6-2-8.4-3.6c0,6.2-0.3,11.2,0.1,16.2c0.6,7.9,1.7,15.7,2.3,23.6c0.1,1.7-1,3.5-1.3,4.4
		c-5.5-1.6-10.2-3-16.1-4.7c-2.3-3.4-6.3-3.7-10.8-0.3c-2.3,1.7-5,4.3-7.8-0.2c-0.8-1.2-4.1-0.9-6.3-1.3c-0.5,5.4-0.9,10.1-1.2,14.7
		c8.5,0,17.1,0,25.7,0c5.7,0,11.3-0.1,17-0.4c3.5-0.2,4.8,1.6,5,4.7c0,0.3,0,0.7,0,1c0.3,9.1,0.3,9.1,9.4,9.4c1,0,2,0.1,3,0.3
		c8.4,1.3,16.9,2.5,25.3,3.8c0.5,6.2,0.9,12,1.4,18.3c6.3-2,11.5-2.5,13.3,2.8c10.2,2.2,19.3,4.1,28.4,6c0,0.5,0,0.9-0.1,1.4
		c-2.4,0-4.8,0.4-7.1-0.1c-6.4-1.5-12.5-5.2-19.6-2.7c-0.7,0.2-2.4-1.3-3.2-2.4c-1.9-2.8-4-4.3-7.5-3.5c-5,1.3-10.2,2.2-15,3.9
		c-4.9,1.8-9.4,1.1-13.9-0.9c-2.4-1.1-5-1.9-7.1-3.4c-3.8-2.9-7.2-1.5-10.6,0.2c-2.9,1.4-5.2,1.9-8.1-0.6
		c-3.8-3.3-10.1-1.5-11.6,3.4c-1.4,4.6-4.3,4.8-8,4.2c-3.7-0.6-7.4-1.5-11.2-1.8c-4.4-0.3-5.6-3.7-7.1-6.7
		c-3.5-7.4-6.5-8.9-14.3-8.4c-3.5,0.2-7.3-0.3-10.5-1.6c-3.4-1.4-5.1-0.4-5.9,2.5c-0.9,3.4-2.4,3.5-5.4,2.3c-5.8-2.2-11.9-4-18.2-2
		c-1.6,0.5-3,1.7-4.2,2.9c-1.8,1.8-2.9,4.9-5,5.8c-4.6,2.1-9.8,2.4-14.3-0.5c-3.7-2.4-6.8-4-11.2-1.6c-2.3,1.3-3.8-0.4-4.7-2.8
		c-2.4-6.5-10.9-9.6-16.2-5.1c-5.6,4.7-13,2.4-18.7,6.1c-0.4,0.3-2-0.1-2.2-0.6c-2.2-5-6.2-3.7-10.1-3.3c-4.1,0.3-7.5-0.3-8.3-5.5
		c-0.2-1.3-2.8-3.4-4-3.3c-2.7,0.3-5.8,1.3-7.6,3.1c-2,2.1-2.2,6-4.2,8.2c-1.8,2.1-4.8,3.4-7.5,4.3c-2.5,0.8-5.3,0.5-8,0.9
		c-1.3,0.2-2.7,1.3-3.7,1.1c-8.7-2.3-14.1,3.6-20.4,7.7c-3.7,2.4-10.5-0.5-10.1-4.6c0.6-5.5-3.5-7.2-6.2-9.7c-2.3-2.1-3.1-3.9-3-6.7
		c0.1-3.1-0.2-6-4.8-5.7c-1,0.1-2.2-2-3.1-3.2c-0.2-0.3,0-1,0-1.5c-1.4-10.1-1.4-10.3-11.6-10c-14.9,0.4-29.8,1.2-44.6,2
		c-2,0.1-3.9,1.1-5.8,1.1c-1.3,0-2.6-0.9-3.9-1.4c-0.1,0,0-0.4-0.1-0.5c-4.9-4.7-10.5,0.3-15.8-0.9c-0.3-0.1-2.4,3.6-2.2,5.5
		c0.4,5-0.9,7.4-6.4,7.4c-2.2,0-4.3,2.3-7.5,4.2c0,3.6-0.1,8.4,0,13.1c0.3,7.2,0.3,7.3-6.8,8.6c-0.9,0.2-1.8,0.6-3.1,1
		c-0.9-2.1-1.7-4-2.6-6.3c-5.3,0.5-10.5,1-16.5,1.5c0,2.2-0.5,4.6,0.1,6.7c1,3.6-1.2,4.8-3.8,4.9c-7.2,0.3-13,3.2-18.1,8.1
		c-3.4,3.3-6.8,3.7-11.1,1c-3.4-2.2-7.5-4.4-11.3-4.4c-4.1,0-8.4,2.2-12.1,4.4c-5.5,3.2-8,3.3-12.3-1.1c-4.2-4.4-10.2-4.7-14.9-1
		c-2.8,2.3-5.8,4.6-9.7,2.1c2.5-1,5.6-1.4,7.3-3.1c5.8-6,11.6-4.2,16.6-1.1c5.2,3.2,9.9,4.2,15.2,0c2.5-2,5.9-2.8,9-4.3
		c0-30.4,0-61.1,0-91.7c-0.5,0.2-1,0.3-1.5,0.5c-1.9-1.7-3.8-3.4-6-5.4c5.9-3.3,5.8-3.3,1.8-7.3c-0.7-0.7-0.5-2.2-0.8-3.8
		c5,3.5,8.2,6.9,3.9,11.2c1.2,1.8,3.3,3.4,3.4,5.2c0.9,16.3,1.8,32.5,2,48.8c0.2,12.3-0.7,24.6-0.8,36.9c-0.1,8.8,10.8,15,18.4,10.4
		c1.7-1,2.6-3.3,4.5-5.9c1.7-0.3,4.9-0.9,8.2-1.3c3.2-0.4,6.4-0.4,10.1-0.7c-0.8-2.4-1.7-3.8-1.7-5.2c0.1-3.1,0-6.3,4.9-6.3
		c4.6,0,9.1-1.3,13.7-1.4c1.6,0,3.2,1.8,4.8,2.8c1.5,0.9,3.1,2.8,4.3,2.5c1.3-0.3,2.8-2.5,2.9-4c0.3-4.1-0.1-8.3-0.1-12.5
		c0-5.7,3-9.1,8.9-9.2c4,0,5.1-1.3,4.8-5.3c-0.5-6.6,1-7.7,7.4-7.9c2.8-0.1,5.5-0.7,8.3-0.8c1.3-0.1,3.3-0.2,3.8,0.5
		c3.9,6,9.3,2.4,14,2.3c12.9-0.3,25.8-1.3,38.7-1.8c5.2-0.2,10.3,0,14.8,0c0.4,4.4,0.6,8.5,1.3,12.5c0.2,1,2,2.4,3,2.4
		c4.1-0.3,5.1,2.1,4.7,5.2c-0.6,4.8,2.1,7.5,5.3,10.2c1.8,1.5,3.1,4,3.7,6.3c1.4,5,4.4,6.9,8.6,4.1c5.8-3.9,10.4-9.2,19-7.3
		c4.1,0.9,8.8-3.1,14.2-2.1c1.6,0.3,5.2-4,6-6.7c1.5-5.5,4.6-8.4,10-9.4c4.2-0.8,7.4,0.9,8.2,5.1c0.8,4.6,3.5,5.1,7.2,4.3
		c3.7-0.9,7.2-1.6,9.6,2.5c0.3,0.5,1.5,1,2.2,0.8c5.1-1.4,10.7-2.1,15.2-4.6c7.8-4.3,16.6-2.7,21.5,4.8c0.6,0.9,2.5,1.8,3.4,1.5
		c3.8-1.2,6.8-0.5,10.1,1.9c6.5,4.7,13.2,3,17.2-4c2-3.6,8.7-5.6,14.8-4.4c3.8,0.8,7.6,1.7,11.6,2.7c1.2-1.8,2.2-4.6,3.9-5.2
		c2-0.7,4.6,0.5,7,0.8c3.1,0.4,6.4,1.6,9.3,1c4.6-0.8,12.9,1.3,14.1,5.9c2.4,8.9,8.9,9.8,16.1,10.8c4,0.6,6.9,0.9,8.3-4.3
		c1-3.9,11.3-5.7,14.8-2.7c2.3,2,4,1.4,6.1,0.3c4.6-2.6,8.7-2.4,13.3,0.6c6.7,4.3,13.8,7.1,21.5,1.7c1.1-0.8,2.9-0.6,4.9-1
		c0-4.7,0.1-9.7-0.1-14.6c-0.1-1-1.4-2.7-2.4-2.8c-8.7-1.2-17.4-2.3-26.1-3c-2.5-0.2-5.1,0.5-8.2,0.9c-0.4-3.9-1.1-7.7-1.1-11.5
		c0-3.5-1.2-4.6-4.7-4.6c-12.9,0.2-25.9,0.1-39.1,0.1c-0.8,7.1-1.4,13-2.1,19c-0.4,0-0.9,0-1.3,0c0-3.7,0.1-7.3,0-11
		c0-2.3-0.3-4.6-0.4-6.9c-0.1-2.6-0.1-5.2-0.1-7.8c0-0.3,0.4-0.6,0.4-0.9c-0.7-9.2-1.3-18.5-2-27.7c-0.1-1.6-0.4-3.2-0.6-4.8
		c-0.4-3.3,1.5-7.5-3.4-9.3c-0.5-0.2-0.5-1.8-0.7-2.7c-0.1-1,0.3-2.6-0.2-2.9c-5.9-3.5-1.7-9.3-3.2-14.1c-5.9,0.7-4.6-3.6-4.6-7
		c0-6.6,0-6.6-6.5-5.9c-3.4,0.4-6.3-3.4-6.5-8.4c-0.2-6.7-0.5-7.5-6.9-7.4c-7.3,0.1-8.7-2.2-8.9-9.4c-0.1-5-1.8-6.3-6.1-6.8
		c-1.9-0.2-3.6-1.6-5.5-2.2c-2.1-0.7-4.4-1.6-6.6-1.7c-5.3-0.1-10.6,0.1-15.8,0.5c-1.2,0.1-3,1.7-3.2,2.8c-0.9,5-0.7,5-5.8,6
		c-0.1,0.3-0.3,0.6-0.3,0.9c-0.3,7.8-2.3,9.4-10.6,7.2c-3-0.8-5-1.1-6.9,2.3c-0.5,1-5.8,0.9-7-0.4c-4-4.3-4.6-4.7-8.7-0.3
		c-1.2-1-2.4-2-3.8-3.2c-0.5,0.2-1.5,0.4-1.6,0.8c-1.5,6.3-7.9,4.6-11.6,7.2c-0.9,0.6-2.2,1.7-2.2,2.5c-0.1,7.8,0,15.6,0.3,23.4
		c0.6,18.1,1.4,36.2,1.9,54.2c0.1,4.8-0.1,9.7-1.1,14.3c-0.4,1.8-3.1,4-5,4.2c-3.1,0.4-6.5-0.3-9.6-1.3c-5.7-1.8-8-0.1-9.7,5.5
		c-0.8,2.6-4.3,4.3-6.5,6.4c-0.4-0.3-0.7-0.5-1.1-0.8c0,1.5,0,3,0,4.5c-0.2,6.9-4.9,9-11.8,7.2c-6.1-1.6-8-4.5-7.2-10.4
		c0.4-2.6-1-3.8-3.9-3.9c-3.2,0-6.5-0.6-9.9-1c-1.8-21.1-3.5-41.9-5.2-62.7c-12.3-0.8-24.3-1.7-36.3-2.2c-3.6-0.1-4.5-1.2-4.2-4.7
		c0.4-4.1,0.1-8.3,0.1-13.1c-3.1-0.4-6.5-1.1-9.8-1.2c-14.3-0.4-28.6-0.7-42.8-1.1c-2.3-0.1-4.8-0.4-6.7-1.5c-1.5-0.9-2.3-3-3.2-4.7
		c-0.6-1.2-0.8-2.6-1.8-3.8c-2.2,6.2-4.3,7.5-13.5,8c-2.1,0.1-4.3,0-6.5,0c-0.4,2.2-0.7,4.1-1,6c-0.4,0-0.8,0-1.2,0.1
		c-0.3-2.1-0.5-4.3-0.9-7.2c-6.2,1-12.6,2.1-19.2,3.2c-0.1,1.3-0.2,2.1-0.2,2.9c0,10.3-2,10.1,10.2,10c4.4,0,8.8,0,13.2,0
		c0.1,0.5,0.2,1,0.3,1.5c-2.2,0.5-4.3,1.5-6.5,1.4c-16.1-0.8-32.1-2-48.2-2.6c-5.9-0.2-11.9,1.1-17.8,1.6c-2.3,0.2-4.6,0-6.9-0.6
		c17.6-5.3,35.6-1.3,53.8-2.4c0-3.3-0.3-6.6,0.1-9.8c0.2-1.4,1.8-3.7,3-3.8c7.4-1,14.9-1.5,22.4-2.2c3.8-0.3,7.7-0.3,11.3-1.2
		c1.5-0.4,2.8-2.5,3.9-4.1c0.7-1,1-2.4,1.4-3.6c1.9,0.7,4.4,1,5.4,2.4c1.4,1.9,1,6.1,2.6,6.8c3.1,1.5,7,1.6,10.6,1.7
		c9.2,0.2,18.3,0,27.5,0.1c1.7,0,3.4,0.6,5.5,0.9c0-10.1,0-20.4,0-31.1c-0.7-0.2-2.3-0.3-3.5-1.1c-1.3-0.8-2.5-2.1-3-3.5
		c-0.6-1.5,0.1-4.6-0.4-4.8c-3-0.9-6.1-1.3-9.2-1.3c-3.4-0.1-7,1-10.3,0.4c-1.2-0.2-2.1-3.5-2.8-5.6c-1-3-2.2-6.1-2.5-9.2
		c-0.4-5-4.1-4.2-7.1-5c-3.6-1-5.7-3.2-5-7.3c0.6-3.3-0.2-4.9-4-5.8c-5-1.2-10.5-1.9-13.8-6.9c-0.7-1-2.6-1.9-3.9-1.8
		c-5.6,0.7-7.1-1.6-5.1-7c-6.1,0.5-8.9-1.6-7.5-7.7c0.1-0.6-1.7-2.2-2.7-2.3c-5.9-0.6-11.6-0.3-14.2,6.6c-1.1,2.9-2.4,4-6,2
		c-2.6-1.5-6.5-0.7-10.2-0.9c-0.3-3.1-1.7-5.3-5.8-4.9c-2.6,0.2-4.1-1.6-3.8-4.5c0.2-1.6,0-3.3,0-5.1c-3.5-0.5-4.8,1-5,4
		c-1.3,19.7-2.6,39.3-4.1,59c-0.4,5.9-1.3,11.9-2,18.5c-5.6-3.3-6.2-6.9-3.5-11.9c-2.2,0-3.8,0.3-5.2-0.1c-1.5-0.5-4-1.8-4-2.6
		c0.3-5.7-5.2-7.1-7.5-10.9c-0.8-1.3-4-1.9-5.9-1.6c-3.4,0.5-5.6,0.3-7.1-3.4c-0.5-1.2-3-2.4-4.4-2.3c-17.1,2.1-34.3,4.4-51.4,6.8
		c-8.9,1.2-17.9,2.6-26.7,4.4c-1.4,0.3-3.1,3.3-3.3,5.1c-1,11.5-1.6,23.1-2.3,34.7c-0.3,4.1-0.2,8.3-1.1,12.3
		c-0.4,1.8-2.4,4.1-4.1,4.5c-6.1,1.7-12.4,3-18.6,4.1c-4.6,0.8-6.2,3-6.1,8.9c0.1,4.7,3.3,4.3,6.2,4.1c8.3-0.4,16.5-1.5,24.8-1.5
		c4.1,0,8.3,1.8,12.4,2.6c3.3,0.7,6.7,1.7,10.1,1.8c3,0.1,4.6,1.3,4.5,3.9c-0.3,4.6,2.3,5.3,5.8,5.2c1.7,0,3.3-0.1,5,0
		c3.8,0.3,4.8,2.6,2.9,5.9c-2.5,4.1-1.6,6.6,3.6,8.4c0-3-0.3-5.7,0.1-8.4c0.2-1.4,1.5-2.6,2.4-3.9c1.4,1.1,3.1,2.1,4.2,3.5
		c0.6,0.7,0.4,2.3,0.1,3.4c-1.5,5.5,1.9,8.8,5.8,10.9c3.1,1.8,5.5,3.4,5.9,7.1c0,0.4,0.9,0.7,1.5,1.1c1.6-3.2,3.1-6.2,4.7-9.1
		c0.3-0.6,1.5-1,2.1-0.9c4.9,1,10-2,15,2.4c2.5,2.2,8,1.1,12.1,1.6c3.7,0.4,7.3,0.9,11,2.6c-1.5,0.1-3,0.5-4.5,0.4
		c-4.7-0.5-9.5-0.9-14.2-1.7c-6-1.1-12-2.6-18-4c-2,3.4-4.6,5.9-5,8.8c-1,6.5-1.2,13.2-1.4,19.9c-0.2,7.6,0.1,15.1,0.1,22.7
		c0,0.6-0.8,1.1-1.2,1.6c-0.6-0.3-1.1-0.4-1.1-0.6c0-9.9-0.2-19.9,0.1-29.8c0.2-4.7-0.5-8.7-2.4-13.2c-2.5-5.7-6.3-8-11.3-10
		c-0.6-0.3-0.8-2.2-0.9-3.3c-0.1-3.3,0-6.7,0-10c-0.6,0-1.2,0-1.8-0.1c-0.3,4.2-0.6,8.3-1,12.6c-9.6-3.1-10.5-5-7.3-15.9
		c-3.3,0-6.4,0-9.5,0c-2.9,0-4.8-1.1-4.3-4.5c0.5-3.6-1.2-4.4-4.6-4.6c-3.7-0.2-7.3-1.6-11-2c-5.7-0.7-11.4-1.1-17-1.4
		c-8.4-0.3-16.9-0.4-25.3-0.5c-3.5-0.1-7.1,0-11.9,0c0.6,18.9,1.2,37.5,1.8,56.1c-0.3,0-0.6,0.1-0.9,0.1c-0.3-1.3-0.7-2.7-0.7-4
		c-0.4-15.8-0.8-31.6-1.2-47.3c-0.1-3.1,0.1-5.8-4.1-6.6c-1.2-0.2-1.8-2.9-3.1-4c-1.1-0.9-2.7-1.1-4.1-1.7c-1.2,4.8-5.5,3.3-8.5,4
		c-3.1,0.7-6.5,0.4-9.7,0c-0.8-0.1-2.1-2.8-1.7-4c2.6-8.7,5.3-17.4,8.5-25.9c1.4-3.9,2.5-7.2-0.4-11c-2.5-3.4-4.9-7-6.4-10.9
		c-1.1-2.7-1.5-6.1-0.9-8.9c1.5-7.1-0.1-9.1-7.2-11.3c-2.7-0.8-6.2-5.4-5.9-7.8c0.6-4.5-2.7-6.8-4.3-9.3c-2.3-3.6-7-5.9-10.9-8.3
		c-2.6-1.5-5.1-3.2-8.9-2.6c-2.3,0.4-4.6-2.6-3.6-6.2c1-3.4,1.7-7-3-8.8c-0.7-0.3-1.2-2.6-0.8-3.5c2-4.5-0.1-7.8-3.1-11.5
		c-3.9,3-5.6,7.4-5.8,11.7c-0.4,6.5-2.5,12.3-4.4,18.2c-0.9,3-0.9,6.2-1.8,9.2c-2.4,8.3-5,16.5-7.5,24.7c-2.3,7.5-5.1,14.9-6.8,22.6
		c-2.9,12.7-5.2,25.5-7.7,38.3c-0.3,1.6-0.2,3.8-1.2,4.6c-1.6,1.4-3.9,2-6,2.5c-0.2,0.1-1.6-2.5-1.7-3.9c-0.1-4,0.6-8.2,0-12.1
		c-0.3-2.1-2.7-3.9-4.5-5.5c-1.4-3.8,1.3-8.8-3.7-11.9c-0.4-0.2-0.1-1.5,0-2.3c0.5-6.5-0.4-8.1-8.1-8.8c-11.5-1-23-1.4-34.5-2.1
		c-2.6-0.2-5.2-1.4-7.6-1c-3.2,0.6-6.3,2.2-9.6,3.5c0-1.1,0-2.5,0-4.5c-3.8,0.8-7.3,1.3-10.7,2.3c-2.6,0.7-6.1,1.2-3.9,5.5
		c0.2,0.4,0,1.6-0.4,1.8c-5.2,3.2-3.2,8.2-3.2,12.6c-0.1,25.9-0.1,51.8-0.4,77.8c0-18.7,0-37.4,0-56.6c-6.2,0.1-10.7-1.2-13.9-5.8
		c-0.6-0.9-3.1-0.5-4.7-0.5c-4.1-0.1-8.3,0-12.7,0c-0.3,2.4-0.5,4.5-0.7,5.9c-1.7-0.6-3.6-1.3-5.2-1.9c0.2-0.3,1-1.3,1.7-2.3
		c-0.2-0.4-0.4-0.8-0.6-1.2c-5.5,1-11,2-16.3,3c2.9,0.6,5.9,1.3,9.7,2.1c-3.5,0.3-6.4,0-8.8,0.9c-5.3,2-6.3,5.5-4.9,12.9
		c0.5,2.4,0.1,5-1,7.4c-0.1-6.6-1.8-12.8,0.5-20c2.7-8.4,9.2-6.1,13.7-7c9.8-1.9,19.9-1.6,30.2-2.3c-0.4-4.8-1-10.7-1.5-16.7
		c-0.1-1.5,0-3,0-4.5c0.1-3.4-1.6-5-4.9-4.6c-14.3,1.6-11.4-2.4-12.9-12.4c-0.5-3.7,0.9-7.6-2.9-10.9c-1.4-1.2-0.2-5.3-1-8.2
		c-0.4,2.5-0.8,5.1-1.2,7.6c-0.3-0.5-0.7-0.9-1-1.4c-3.3,0.9-7.3,0.9-9.9,2.8c-6.8,5-13,10.8-19.4,16.3c-0.6,0.5-0.9,1.3-1.6,2.4
		c2.3-0.1,4-0.3,5.8-0.4c0.1,0.4,0.2,0.9,0.3,1.3c-3.1,0.9-6.1,1.7-9.9,2.8c0.5,9.2,0.8,18.7,1.4,28.1c0.6,9.2,1.3,18.4,2,28.6
		c9.5,0,18.9,0,28.8,0c0.8,9.4,1.7,17.9,2.1,26.4c0.6,13.8,0.7,27.6,1.2,41.4c0.5,14.7,1.3,29.5,1.9,44.2c0.1,1.9,0,3.8,0,5.7
		c-0.4,0-0.9,0.1-1.3,0.1c-0.5-4.1-1.3-8.2-1.4-12.4c-0.5-20.6-0.6-41.2-1.2-61.8c-0.3-11.7-1.2-23.5-1.9-35.2
		c-0.2-3.2-1.2-4.9-5.1-4.9c-14.2-0.1-28.5-0.6-42.7-0.8c-5.8,0-11.6,1.1-17.3,0.8c-7.5-0.4-15-1.8-22.5-2.7c-1.6-0.2-3.3,0-5.1,0
		c-0.3,2-0.6,3.8-0.8,5.7c-0.3,0-0.6,0-1,0.1c-0.3-1.8-0.6-3.6-0.9-5.9c-3.5,0.4-7.1,0.6-10.5,1.4c-1.1,0.3-2.4,2.4-2.4,3.7
		c0.1,8,0.6,16.1,1,24.1c0.4,9.3,0.9,18.6,1.2,27.9c0.5,14.4,0.9,28.8,1.3,43.2c0.1,2.9-0.3,5.9-1.4,8.9c-0.2-4-0.6-7.9-0.7-11.9
		c-0.2-8.8,0.1-17.7-0.3-26.5c-0.7-15.2-1.9-30.4-2.7-45.6c-0.4-6.8-0.2-13.6-0.5-20.4c-0.2-3.7,2.1-5.1,5-5.6
		c8.2-1.5,16.3-1.5,24.7,0.3c7.6,1.6,15.8,0.2,23.8,0.2c3,0,5.9,0.3,8.3,0.5c2.2-3.1,4.1-5.8,6.6-9.4c-12.7,0-25.1,0-37.5,0
		c0.2-0.8,0.3-1.5,0.5-2.3c-1.9-1-3.7-2.8-5.6-2.9c-6-0.2-12,0-17.9,0.5c-2,0.2-3.8,2.2-5.8,3c-2.5,1.1-5,2.6-7.6,2.7
		c-7.5,0.4-15-0.1-22.5,0.2c-6.1,0.3-12.1,1-18.1,2c-2.1,0.3-3.9,1.8-7,3.4c-4.2,0-10,0-16.6,0c0,4.2,0.2,8.3-0.1,12.4
		c-0.1,1.3-1.2,3.7-2,3.7c-4.9,0.2-5.1,3.3-4.9,6.9c0,0.8-0.1,1.6-0.2,1.9c-7.5,1.1-14.7,2.2-22.8,3.4c0,2.1,0,4.6,0,7.2
		c0,3-0.3,5-4.3,3.5c-1.7-0.7-4.1-0.7-5.9,0c-3.6,1.4-4.5-0.3-4.8-3.3c-0.8-8.1-1.7-9.2-9.8-10c-2.8-0.3-4.4-0.9-4.3-4
		c0-0.7-0.3-1.7-0.8-2.1c-6.5-6.3-16.7-6.8-23.6-0.9c-2.5,2.1-4.6,2.8-7.5,0.9c-1-0.6-3.1-0.9-4-0.3c-5.5,3.6-11.8,4.2-17.3,2.1
		C255.5,478.7,251.4,479.7,246.9,481.4z M432.3,284.5c-1.7-2.8-3.9-4.9-4.2-7.2c-0.7-5.2-4-5.2-7.8-5.3c-3.9-0.1-8.1,0.2-11.7-1
		c-6.2-2.1-11.8-5.8-18-8c-5.8-2.1-9.9-4.8-9.3-11.7c0-0.2-0.6-0.5-0.3-0.3c0,10.1-0.2,20.5,0,30.9c0.5,25.6,1.3,51.2,1.5,76.8
		c0.1,9.4-1.1,18.8-1.4,28.2c-0.3,8.4-0.2,16.8-0.3,25.2c0,7.2,0.2,14.5,0.1,21.7c-0.2,7.6-2.7,15.3,1.2,24.2
		c3.7-1.3,7.3-3.4,11.1-3.9c9.5-1.1,19.1-1.6,28.6-2.1c5-0.3,10,0.2,15-0.1c2-0.1,5.1-0.9,5.6-2.2c1.6-4,4.7-3.6,7.7-3.8
		c6.3-0.4,12.5-0.8,18.8-0.8c1.9,0,3.9,1.2,5.7,2.1c1.8,1,3.5,2.3,6.1,4.1c0.2-3.1,0.3-4.4,0.3-5.7c0-11.7,0-23.3-0.1-35
		c-0.2-14.3-0.7-28.6-0.7-42.9c0.1-21.5,0.6-42.9,0.7-64.4c0-1.2-2.1-3.3-3.4-3.4c-4.2-0.5-7.7,0.1-11-4.8c-2.7-3.9-2.8-5.3,0.3-8.3
		C455,286.2,443.3,285.3,432.3,284.5z M263.4,276.8c2.5,9.8,3.8,19,7.2,27.5c4.2,10.7,10.7,20.5,14.8,31.2c3,7.7,7.4,11.9,15.4,12.5
		c1.3,0.1,2.5,0.8,3.8,0.9c3.3,0.4,4.4,2.3,4.3,5.4c-0.1,9-0.2,18-0.2,27c0,2.1,0.3,4.3,1.1,6.2c6.7,16.8,13.6,33.6,20.4,50.4
		c2.1,5.2,4,10.4,6,15.7c-0.4,0.2-0.8,0.3-1.3,0.5c-8.5-20.9-16.9-41.8-25.4-62.7c-0.7,7.5-0.7,14.9-0.7,22.3
		c-0.3,19.5-0.6,38.9-0.7,58.4c0,1.3,2,2.8,3.3,3.9c1.3,1.1,4.2,1.9,4.2,2.9c0,4.8,3.7,4.9,6.5,5c3.7,0.2,5.6,1.8,6.6,4.9
		c0.9,2.6,1.4,5.2,2,7.8c3.4-0.3,6.5-0.5,10.1-0.7c0.5-3.4,1.1-6.9,1.7-10.8c2,0,4,0.3,5.9-0.1c5.3-1.1,12.2,0.6,14.7-5.7
		c1.6-4,3.8-5.7,8-6.3c0-4.4-0.1-8.7,0-12.9c0-0.9,0.6-1.8,0.9-2.7c0.5-1.4,1.5-2.9,1.2-4.2c-0.8-3.3-2-6.6-3.2-9.8
		c-10.6-30.6-21.3-61.2-31.9-91.8c-8.2-23.8-16.2-47.6-24.4-71.4c-1.7-5-5-9.6-5.7-14.6c-0.6-5.2-2.1-7.3-7.2-6.7
		c-1.3,0.1-2.6-0.2-3.9-0.5c-5.5-1.1-11.1-3-14.6,3.7c-0.4,0.8-1.6,1.5-2.4,1.6c-3.4,0.3-3.3,2.7-3.3,5.1c0,1.7,0.7,3.9-0.1,4.9
		c-2.2,2.7-4.8,5-7.7,6.9C268.6,281,266.3,278.7,263.4,276.8z M1253.4,394.1c1.3-0.4,2.4-0.4,3-0.9c5.2-5.3,10.1-11.1,15.5-16.1
		c4.1-3.8,9.1-6.6,13.5-10.1c2.4-1.9,4.2-4.5,6.3-6.7c-0.3-0.4-0.6-0.8-0.9-1.2c-2.1,0-4.3-0.2-6.4,0c-6.6,0.9-11.6-1-15.1-7.1
		c-0.9-1.6-3.7-2.6-5.7-2.9c-8.2-0.9-15.7-3.1-22.3-8.3c-1.4-1.1-3.3-2.2-4.9-2.1c-8,0.6-16,1.7-24.1,2.5c-1.6,0.1-3.6,0-4.7-0.9
		c-4.2-3.2-7.2-3.4-10.7,0.3c-5.1,5.4-10.3,10.8-15,16.5c-10,11.9-19.4,24.3-29.5,36.1c-10.8,12.6-22.1,24.7-33.1,37.2
		c-1.4,1.6-1.8,4-2.8,6.1c14.5,1.1,27.8,2.1,40.8,3c1.2,16,2.4,31.5,3.6,47.9c1.4-1.1,2-1.5,2.3-1.9c8.2-10,16.1-20.2,24.5-29.9
		c8.8-10.1,17.8-20,27.2-29.6c4-4.1,7.4-7.9,6.3-14.2c-0.4-2.4,0-5-0.1-7.5c-0.1-6.7,1.2-8.2,7.9-9.2c1.1-0.2,2.3,0,3.8,0
		c-0.3-5.9,4.2-6,8-6.7c1.9-0.3,4.2,1.1,5.8,0.5C1251.6,387,1253.3,389.1,1253.4,394.1z M1189.3,517.7c1.9-6-0.9-13.2,7.6-14.2
		c0.5-0.1,1.1-1.3,1.1-2c-0.4-5.5,2.9-6.5,7.5-7.8c3.8-1,6.2,0.8,9.2,1.7c5.1,1.6,8.3-0.2,8.3-5c-0.2-21.4-0.6-42.9-1-64.3
		c0-0.7-0.6-1.3-0.9-1.9c-16.7,11.5-26.9,28.5-40,42.9c-6.7,7.4-12.5,15.5-18.6,23.1c0.4,2.1,1.4,4.9,1.4,7.7c0,3.3,1.2,4.8,4.5,5
		c7.6,0.5,7.5,0.6,7.8,8.3c0.1,1.5,0.9,4.1,1.9,4.4C1181.6,516.8,1185.5,517.1,1189.3,517.7z M288.1,345.3
		c-8.6-16.3-14.4-34-26.9-48.7c-0.7,0.3-1.9,0.9-3.6,1.7c5,2,5.9,6.8,5,9.8c-0.9,3-5.2,4.9-8,7.4c0.2,0.2,0.3,0.5,0.5,0.7
		c1.6-0.7,3.1-1.3,4.7-2c3.4,4.5,3,6-1.9,7.9c-3.3,1.3-6.5,2.9-9.8,4.3c0.2,0.5,0.4,1.1,0.7,1.6c1.5-0.5,3.1-0.9,4.6-1.6
		c3.3-1.7,4.6,0.1,5.8,2.8c1.1,2.6,1.7,4.6-1.7,5.9c-3.2,1.2-6.2,3.1-9.4,4.2c-1.1,0.4-2.7-0.5-4-0.9c-0.9-0.3-1.7-0.8-2.5-1.3
		c-0.3,0.9-1.2,2.1-0.9,2.8c1.2,2.7,2.7,5.3,4.3,7.7c0.5,0.7,1.8,1.3,2.7,1.2C260.8,347.8,273.9,346.5,288.1,345.3z M1279,374.2
		c-5.7,5.1-10.5,9.4-15.3,13.8c0.2,0.5,0.4,1.1,0.6,1.6c2.8,0.3,6.2,1.7,8.3,0.5c1.6-0.9,1.4-4.9,2.1-7.6c1.6-0.6,3.5-1.2,5.6-2
		C1279.9,378.7,1279.6,377.1,1279,374.2z M1477.9,452.8c0.4-5.1,0.8-9.8,1.2-14.8c-7.4,0.9-7.3,0.9-7.2,9.4
		C1471.9,451.3,1473.2,453.4,1477.9,452.8z"/>
	<path fill="#9B9B9B" d="M1,514c10.6,4.4,20.2,2.4,28.4-5.1c8.2-7.4,16.9-11.2,27.9-8.1c1.1,0.3,2.8-0.7,3.9-1.5
		c7.9-5.9,9.6-5.7,17,0.4c1.3,1.1,4.6,0.7,6.5-0.1c4.5-2,8.6-4.7,14-2.6c4.2,1.6,7.2,4.1,8.1,8.5c1.2,5.7,3.1,8,10.9,8.4
		c8.1,0.4,16.3-0.3,24.4,0c3.1,0.1,6.2,1.8,8.7,2.5c2.9-2.4,6-5.6,9.7-8.1c4.9-3.3,11.2-3.1,14.8,0.4c5.2,5.2,11.6,5.1,17.5,7
		c4.2,1.3,8.8,1.1,13,2.3c4,1.1,7.7,3.1,11,4.5c3.9-0.1,8.2-1.4,11.2,0c3.1,1.4,4.9,5.5,7.4,8.6c1.2-0.8,2.2-1.7,3.3-2.3
		c2.6-1.5,4.5-0.9,5.1,2.1c1.9,9.4,9.6,14.6,15.7,20.6c5.1,5.1,11.5,3.4,15.1-3.1c4.9-8.8,19.5-13.5,28.2-10.3
		c1.1,0.4,2.7,0,3.9-0.5c1.2-0.5,2.2-1.4,3.3-2.2c10.1-7.9,22.4-6.9,32,1.8c2.6,2.3,7,2.8,10.7,3.7c8.8,2.1,17,5.4,25.1,10.8
		c0.7-0.4,1.9-1.1,3.2-1.7c4.4-2.1,10.3-1.9,12.4,3.8c1.8,4.9,5.1,8.7,10.6,10.3c1.3,0.4,2.9,2.2,3,3.5c0.9,7.3,7.1,11.1,10.1,17
		c8.3-4,10.1-3.6,16.8,2.8c1,0.9,2.9,1.4,4.4,1.3c6.1-0.4,12.1-1.4,18.2-1.6c2.7-0.1,5.5,1.2,9.7,2.2c6.3-3.5,14-5,20.8,3.2
		c1.4-1.1,2.5-2.4,3.8-2.6c2.5-0.5,5.3-1.1,7.7-0.4c3.2,0.8,6.4,2.4,9.3,4.3c5.8,3.8,10.2,1,13.9-2.9c3.3-3.5,6.9-5.2,11.5-5.9
		c4-0.6,7.7-3,11.7-3.7c3.9-0.6,7.9,0.1,11.9,0.2c0.1,0.6,0.2,1.2,0.3,1.7c1.4-1.2,2.8-2.3,4.1-3.6c2.8-2.7,6.1-3.3,9.7-2.2
		c6.2,1.9,12.3,2.7,18.8,3.3c7.5,0.7,14.6-1.3,21.8-0.6c3.5,0.3,6.9,1.5,10.3,3.1c4.4-2.1,9.1-4.3,14.6-2.1c2.2,0.9,4.9,1.6,6.3,3.3
		c2.7,3,5.3,3,8.9,2c2.8-0.8,6-0.3,9-0.4c1.1-0.1,2.3-0.2,3.4-0.5c3.4-0.9,6.9-1.8,11.1-2.9c0-2.7,0.3-6.7-0.1-10.7
		c-0.4-4.3,1.2-5.6,5.6-5.9c12.8-0.9,25.5-2.6,38.3-3.5c1.3-0.1,3.8,2.7,3.9,4.4c0.3,4.6-0.1,9.3-0.5,13.9c-0.3,3.1,0.6,4.1,4,4.6
		c4.3,0.6,7.1,0.2,8.7-4.3c0.4-1,2.8-2.4,3.5-2c3.9,1.9,6.2-1.2,9.2-2.2c4.4-1.4,9.3-0.8,15.1-1.2c0.2-1,1-3.4,1.1-5.7
		c0.1-2.7,1.2-3.9,3.9-3.8c4.5,0.1,8.7,0.1,11.7-4.6c1.8-2.9,5.8-1.7,7.8,1.5c0.6,1,2.2,1.8,3.4,2c3.5,0.5,7,0.5,11,0.8
		c2.9-7.6,4.7-8.2,13.4-4.4c1.4,0.6,4.4-0.2,5.5-1.4c5-5.4,10.8-8.6,18.4-8c1.2,0.1,2.5-0.7,3.7-1.1c5.3-1.9,10.5-4.5,16-5.5
		c4.1-0.8,8.7-0.1,12.7,1.1c7.6,2.4,15,5.6,22.5,8.5c5.3-3.8,13.8-4.7,17.3-1.8c-2.4-0.7-4.9-2.3-6.7,1.4c-0.3,0.7-3.2,0.1-5.3,0.1
		c-1.5,3.9-3.9,3.2-7.9,1.7c-9.2-3.6-18.8-6.3-28.3-9c-1.5-0.4-3.6,1.1-5.5,1.7c-0.9,0.3-2.1,1.2-2.6,0.9c-4-2.3-6.7,0.7-9.9,2
		c-3.8,1.6-8.2,1.8-12.1,3.2c-2.7,0.9-5.4,2.3-7.4,4.2c-5.8,5.5-6.8,5.9-13.8,2.5c-3.6-1.7-5.6-0.6-6.6,3.1c-1.7,6-1.9,5.9-7.3,3.4
		c-2.1-1-4.7-1-7.1-1.1c-2.6-0.2-5.5,0.6-6.4-3.1c-0.1-0.3-3.3-0.5-3.5-0.1c-1.9,4.7-5.9,4.4-9.6,4.1c-4-0.3-5.3,1.2-5.1,5.1
		c0.2,6.3-1.2,7.2-7.5,5.1c-5.3-1.7-9.3-0.9-13.2,3.4c-1.1,1.2-4.2,0.5-6.6-0.5c-0.2,0-0.4,0-0.5,0.1c-2.5,7.4-8.7,6.8-14.7,6.8
		c-3.1,0-3.6-1.6-3.5-4.1c0.1-6.1,0-12.3,0-18.5c-6.9,0.6-13.4,1.1-19.9,1.6c-5.9,0.4-11.9,0.7-17.8,1c-3.5,0.2-4.9,1.7-4.5,5.4
		c0.4,3.8,0.2,7.7,0,11.5c-0.2,2.7-1.7,4.3-4.2,2.1c-3.3-2.9-5.8-1.2-8.9,0.4c-1.6,0.8-3.7,0.5-5.6,0.6c-1.7,0.1-3.4-0.3-5,0
		c-5.1,0.9-10.1,3.2-14.1-2.9c-2.3-3.4-11-3.1-15.7,0.3c-2.7,2-4.1,1.8-6.2-0.6c-0.9-1.1-2.9-1.9-4.3-1.7
		c-4.9,0.6-10.4-2.1-14.6,2.6c-0.3,0.3-1.8-0.3-2.7-0.5c-2.6-0.7-5.6-2.5-7.8-1.9c-5.9,1.8-10.7-0.5-15.6-2.6
		c-4.4-1.9-7.9-1.8-11.5,1.9c-2.5,2.6-5.4,5.3-10.1,1.1c-2.1-1.8-7.8,0.3-11.8,1c-2.9,0.5-5.7,1.4-8.5,2.4c-2.3,0.8-4.9,1.6-6.5,3.2
		c-11.7,11.3-10.5,8.3-24.2,2.9c-4.4-1.7-7.7-3.6-11.4,0.7c-0.7,0.8-3.8,0.9-4.3,0.3c-4.4-6.1-10.4-3.9-15.9-3.1
		c-1.6,0.2-2.9,3.1-4.6,5.1c-0.4-0.2-1.5-0.4-1.9-1c-1.1-1.9-1.6-5.3-3-5.6c-3.1-0.8-6.5-0.2-9.8,0.1c-4.4,0.4-8.9,1.2-13.3,1.3
		c-1.7,0-3.8-1.2-5-2.5c-3.4-3.8-6.7-4.5-11.3-2.3c-1.1,0.6-3.4,0.4-4.3-0.4c-2.8-2.5-6.6-5-7.4-8.2c-2-8-6.8-12.7-13.5-16.5
		c-1.6-0.9-2.4-3.5-3.4-5.4c-3.2-5.6-6.4-6.5-11.2-2.4c-3.1,2.7-5.4,4.3-6.8-1.2c-0.1-0.5-0.8-1.2-1.4-1.4
		c-7.4-2.6-14.7-5.5-22.3-7.5c-3.9-1-7.3-1.7-10.3-4.8c-2.4-2.4-6-4.4-9.3-5.1c-7.6-1.7-14.9-1.1-20.7,5.5c-2,2.2-4.1,4.1-8.4,1.7
		c-6.6-3.6-18.8,1.3-23.3,7.9c-7.7,11.3-15.6,11.5-24.3,0.9c-2.8-3.4-6.5-6.1-9.1-9.6c-1.7-2.2-2.2-5.3-3.4-8.3c0,0-0.6-0.3-0.9-0.1
		c-6.3,3.2-6.3,3.3-9.8-2.7c-3.5-5.9-5.9-6.1-13.6-0.3c-4.8-10.5-15.7-6.8-23.7-9.9c-3.4-1.3-7.4-1.3-11-2.3c-1.8-0.5-3.5-1.7-4.9-3
		c-5.6-5.4-12.6-5.5-17.9,0.1c-2.3,2.5-4,5.5-6.1,8.3c-0.5,0.7-1.4,1.6-2,1.5c-0.7,0-1.7-1-1.9-1.7c-1.5-4.8-4.4-4.9-9.1-4.7
		c-9.6,0.3-19.4-0.5-29-1.8c-2.3-0.3-4.7-4.3-5.8-7.1c-3.3-8.5-8.9-10.9-17.1-6.6c-1.3,0.7-2.6,1.4-4,2.1c-3.2,1.6-5.8,1.4-8.3-1.6
		c-3.8-4.6-7.7-4.9-11.7-0.8c-2.7,2.8-5.5,3.5-8.8,2.4c-8.4-2.8-15.3,0.2-21.4,5.7c-7.7,7.1-16.5,10.8-27.1,9.3
		c-1.9-0.3-3.9-0.7-5.8-1C1,516,1,515,1,514z"/>
	<path fill="#9B9B9B" d="M2063,548.8c-3.4-6.6-9.9-6.5-15.8-6.7c-2.2-0.1-4.8,2.7-6.7,4.7c-3.6,3.5-7.9,5-12.7,3.9
		c-2.4-0.6-5.3-2.2-6.5-4.2c-2.6-4.3-6.1-6.8-10.8-6.5c-5.8,0.4-10-0.6-10.9-7.3c-0.2-1.6-1.8-3.1-3.1-3.1
		c-6.2-0.3-12.5-0.1-18.6-0.9c-6.1-0.8-12-2.6-18.6-4.1c-0.1-1.4,0.1-4-0.6-6.3c-2.7-9.1-20.8-14.5-28.7-9.1
		c-4.1,2.8-7.6,7.1-9.9,11.5c-3.4,6.5-4.7,8.4-11.8,8.1c-5.6-0.2-7.3,3.7-9.2,7.5c-0.6,1.3-0.8,2.8-1.1,4.3c-1.6,6.6-2.4,7.4-9,7.2
		c-4.3-0.1-7.4,1.4-10.4,4.6c-1.6,1.7-4.9,2.3-7.5,2.4c-4.5,0.2-8.6-0.2-10.4,5.5c-0.4,1.3-3.1,2.5-4.8,2.5c-3.4,0.1-7-0.3-10.3-1
		c-1-0.2-2.2-2.6-2-3.7c1.1-6.9,0.1-8.2-6.6-9.3c-1.6-0.3-3.5-2.2-4.4-3.8c-2-3.6-3.5-4-6.1-1.1c-1.3,1.4-2.6,3.6-4.2,3.8
		c-4.5,0.8-9.2,1-13.7,0.7c-0.9-0.1-2.3-3.2-2.4-5c-0.3-7.5-0.1-7.5-7.3-7.5c-0.2,0-0.3,0-0.5,0c-3.8,0.1-8.6-1-11.1,0.8
		c-1.9,1.4-0.4,6.9-1.4,10.2c-0.5,1.9-2.8,4.3-4.6,4.5c-7,1-14.3,2.1-21.2,1.3c-4.1-0.5-8-4.2-11.5-7.1c-4.1-3.4-8-4.6-13-2.2
		c-4.8,2.3-9.8,1.5-14.8-0.2c-7.9-2.7-16.1-3.3-24.4-1.7c-1.2,0.2-3.1-0.2-4-1c-6.1-6.1-13.1-4.6-19.8-2c-4,1.6-69.2,7.2-73.9,5.6
		c-2.1-0.7-4.6-0.3-6.9-0.1c-3.2,0.3-5.8,1.3-6.3-3.9c-0.2-2.3-4.5-4.1-3.4-7.8c0.3-0.9,0.5-2.3,1.1-2.5c6-2.5,3.3-7.8,3.7-11.9
		c0.1-0.8-2.1-2.4-3.3-2.6c-9-1.3-18.1-2.2-27.2-3.4c-12.1-1.6-9.3-0.1-9.6,8.8c-0.2,6.6,0,13.3,0,20.2c-4.2,0.1-5.7-3.2-7.1-5.9
		c-1.8-3.5-4-3.7-6.8-1.9c-3.1,2-5.7,1.9-9.2,0.4c-6.3-2.9-9.7-1.2-14.5,4.6c-2.4,2.9-5.4,5.7-8.7,7.2c-4.2,1.9-6.6-2.3-9.3-4.8
		c1.5,0.3,3.1,0.5,4.6,0.8c1.7,0.4,3.8,1.7,4.9,1.1c2.6-1.5,5.3-3.6,7-6.1c3.1-4.7,8.2-7.6,13.6-5.7c4.5,1.6,8.4,2.1,12.7-0.5
		c3-1.9,5.3-0.7,6.8,2.5c0.6,1.2,1.5,2.3,3.3,3.1c0-7.1,0.1-14.1-0.1-21.2c-0.1-3.9,1.3-5.3,5.3-5.3c8.4,0.2,16.6,0.4,24.6,3.7
		c3,1.2,6.9,0.4,10.4,0.3c3.3-0.1,5.1,1,4.7,4.6c-0.1,0.7,0,1.3,0,2c-0.2,5.2,1.9,11.2-5,13.6c1.6,2.9,3,5.4,4.4,7.9
		c0.2,0.4,0.8,0.8,1.1,0.8c5.7-0.3,74-2.4,79-4.4c9-3.6,17.1-5.8,25.5,0.8c0.7,0.5,1.9,0.8,2.8,0.6c10.2-2.2,19.8,0.8,29.5,3.4
		c1.6,0.4,3.9,0.7,5.2,0c8.7-4.9,16.2-1.9,22.3,4.3c4.8,4.8,9.4,5.3,15.6,2.6c-1-1.1-1.7-2.4-2.8-3.1c-3.8-2.6-4.5-6.7-1.3-10.1
		c2.3-2.5,2.6-13,0.6-15.9c-2.5-3.6-4.4-7.1,0.2-10.9c2.5-2.1,1.6-15.1-0.7-17.7c-2.4-2.7-1.7-8.7,1-10.9c0.9-0.7,1.8-2.2,1.6-3.2
		c-0.7-4.3-2-8.5-2.6-12.8c-0.6-4.3-3.6-8.5,0.9-13.1c1.6-1.7,1.6-7.8,0-9.2c-3.6-3.1-1.3-6.9-2.8-10.1c-0.2-0.3,2.9-2.2,4.5-3.3
		c0,0-0.2-0.2-0.2-0.2c-0.6,3.2-2.7,7.8-1.4,9.2c3.9,4.2,1.9,8.8,2.5,13.1c0.1,0.9-0.1,2.4-0.7,2.7c-4,2.5-1.9,5.8-1.3,8.8
		c0.9,4.7,2.2,9.4,2.9,14.2c0.4,2.4,1,5.4-2.9,6.4c-0.7,0.2-1.4,4.3-0.6,5.2c4.6,5,2.6,10.9,2.7,16.5c0,2.6,0.8,5.6-2.5,7.5
		c-0.7,0.4-0.6,4.1,0.3,5.4c3.8,5.3,3.7,15.3,0,20.2c-0.9,1.1-0.2,4,0.7,5.6c1.1,2.1,3.1,3.8,5.3,6.4c0.8,0,2.8,0,4.8,0
		c5.8-0.1,7.5-2.2,6.3-7.8c-1.4-6.6-0.2-8.2,6.2-8.2c4.8,0,9.7,0.1,14.5,0c2.6-0.1,3.5,0.9,3.5,3.5c0.3,11.2-0.5,8.9,10.8,8.2
		c1.8-0.1,4-1.1,5.2-2.4c5-5.5,8.3-5.1,11.1,1.9c0.1,0.3,0.4,0.5,0.6,0.7c9.7,0.6,9.7,0.6,10.5,14.2c3.4,0,6.8,0.2,10.2-0.1
		c1.2-0.1,2.9-1.3,3.2-2.4c1.4-3.9,4.1-5,7.8-4.6c4.8,0.5,8.4-0.7,11.9-4.4c1.8-1.9,5.6-2.5,8.5-2.5c4.9,0,7.1-2,8.2-6.6
		c0.7-3,2.1-5.9,3.6-8.5c1.6-2.9,4.2-4.5,7.8-4.1c5.1,0.5,7.7-2.1,10.1-6.7c4.5-8.6,11.1-15.6,21.9-16.1
		c11.1-0.6,21.7,8.6,22.7,18.3c6.1,1.6,11.8,3.1,17.5,4.5c0.9,0.2,1.9-0.3,2.9-0.5c0.8-0.2,1.7-0.6,2.4-0.5
		c4.4,1.1,8.8,0.8,13.3,0.6c1.2-0.1,3.2,3.9,3.9,6.3c1.2,4.3,3.8,5.3,7.7,5.1c6.1-0.3,10.7,2.1,13.8,7.6c2.2,4,6.1,4.4,9.8,2.7
		c2.5-1.1,4.6-3.1,6.9-4.8c6.5-4.8,14-4.9,20.8-0.2c0.5,0.4,1.2,0.5,1.8,0.7C2063,545.5,2063,547.2,2063,548.8z"/>
	<path fill="#9B9B9B" d="M1,444c4.4,0.4,8.9,0.4,13.3,1.2c1.5,0.3,3.5,2.3,3.6,3.7c0.4,2.8,1.7,3.4,3.9,3.1
		c3.4-0.5,6.7-1.6,10.1-1.9c2.3-0.2,5.3-0.5,6.7,0.8c3.6,3.1,7.4,2.2,11.2,1.8c1.3-0.1,2.6-0.6,3.9-0.6c9.9-0.3,10-0.3,10.1,9.6
		c0,4.5,1.6,6.5,6.5,6.6c3.1,0,6.1,2,9.1,3.1c0.6-4.7,3.3-7.1,8.9-7.3c4.9-0.1,10.6,1.6,14.6-0.3c12.1-5.8,20.8,1.2,30.3,6.2
		c0.2,0.1,0.6,0,1,0c2.9-8.3,4.3-8.5,12.7-4.9c5,2.1,10.6,3,15.9,4.4c0.4,0.1,1.1-0.1,1.4-0.4c4.9-3.8,8.1-0.7,11.5,3.3
		c2.8-1.9,5.5-4.3,8.5-5.6c2.5-1.1,6-2,8.4-1.1c9.3,3.2,18.2,7.4,27.4,10.8c2.4,0.9,5.5,0.3,8.2,0c3.4-0.4,6.6-1.2,8.7,2.6
		c-3.4-2.5-6.9-2.3-10.6-0.7c-1.7,0.7-4.1,0.8-5.8,0.2c-8.3-3-16.6-5.9-24.5-9.6c-5.8-2.8-10.4-1.9-14.9,2.2c-1.6,1.4-3.4,2.6-5.1,4
		c-2.2-1.8-4.1-4.4-6.4-4.9c-2-0.4-4.6,1.5-6,2.1c-8.6-2.6-16.7-5.1-24.5-7.4c-1.6,3.2-2.8,5.7-4.1,8.2c-2.4-1.3-4.9-2.5-7.3-3.8
		c-3.1-1.7-6.1-3.9-9.4-5.1c-2.1-0.8-4.9-0.8-7-0.1c-6.3,2.2-12.3,3.8-19.2,2.3c-4.1-0.9-9-0.9-10.5,5.3c-0.2,1-5.2,2-5.3,1.7
		c-2-4-5.5-3.4-8.7-3.1c-4.5,0.5-6.1-1.5-5.6-5.7c0.1-0.8,0.1-1.7,0.1-2.5c-0.1-7.3-2-8.8-9.1-7.5c-5.5,1-11.2,3.4-16.2-1.9
		c-0.8-0.8-3.4,0-5.1,0.3c-3.9,0.6-7.7,1.6-11.6,2c-2.5,0.3-5.7,0.5-4.4-4c0.2-0.6-1.3-2.5-2.2-2.6c-4.1-0.6-8.2-0.8-12.3-1.1
		C1,446,1,445,1,444z"/>
	<path fill="#9B9B9B" d="M1768,428.9c1.5-3.8,1.3-6.2-3.8-6.4c-6.6-0.2-13.1-1.2-19.7-1.7c-1-0.1-2,0.3-3.2,0.5c0-1.7,0-3.8,0-6.2
		c-2.1,0-4,0-6.4,0c0,12,0,24.1,0,36.1c-0.4,0.1-0.8,0.1-1.2,0.2c-0.2-1.1-0.5-2.2-0.5-3.3c0.1-8.1,0-16.2,0.3-24.4
		c0.1-4.2-2.5-3.9-5.3-3.8c-6.1,0-12.2,0-18.2,0c-0.8,0-2-0.2-2.4,0.3c-2.3,2.8-4.5,5.7-7.4,9.4c-4.6-0.1-6.8,3.1-6.5,8.8
		c0.1,1.1-1.9,2.3-3,3.5c-1,1.1-2.8,2.3-2.7,3.2c1,6.4-1.7,9.3-8.8,8.8c0.9,3,1.6,5.1,2.4,7.8c-1.4,0.7-3.2,1.5-4.7,2.5
		c-1.2,0.8-2.6,1.8-3,3c-2.1,6.6-67.4,11.7-74.2,10.4c-1.5-0.3-3.2,0.2-4.8,0.2c-1.4,0-3,0.2-4.3-0.4c-5.8-2.6-11.6-5.4-17.3-8.4
		c-0.8-0.4-1.5-1.8-1.5-2.7c0.3-5.3-0.9-10.1-3.9-14.6c-1.5-2.2-1.4-5.5-1.9-8.3c-0.5-2.9-2.4-3.6-5.1-3.3c-1.3,0.1-2.7-0.1-4,0
		c-4.7,0.6-6.6-1.1-6.3-6c0.4-6.3-0.3-6.8-6.6-6.9c-7.4-0.2-14.7,0-22.1,0c-0.1,0.4-0.3,0.8-0.4,1.3c1.2,0.6,2.4,1.7,3.5,1.6
		c5.8-0.4,5.8-0.5,5.4,5.8c-3.4,0.2-6.9,0.3-10.4,0.7c-0.2,0-0.3,1.4-0.5,2.7c1.6-0.2,3-0.1,4.1-0.5c3.8-1.4,5.5,0.2,6.4,3.8
		c0.8,3.4-0.8,3.8-3.4,3.5c-2.2-0.3-4.4-0.7-6.6-1c-0.2,0.5-0.4,0.9-0.6,1.4c0.8,0.6,1.5,1.6,2.4,1.8c1.4,0.3,3.3-0.4,4.4,0.3
		c1.4,0.9,2.3,2.8,3.4,4.2c-1.2,0.8-2.3,2-3.6,2.4c-1.3,0.4-2.9,0.1-4.4,1.2c1.3,0,2.8-0.4,3.9,0.1c1.5,0.7,2.7,2.1,4,3.2
		c-1.3,0.8-2.6,1.6-4,2.2c-0.8,0.4-1.8,0.4-3.1,1.8c1,0.5,2.4,1.7,3.1,1.4c3.2-1.4,4.5,0.5,4.9,2.9c0.6,3-1.7,3.5-4.1,3.6
		c-0.9,0-1.7,0.6-1.8,0.6c1.9,1.5,3.9,3,5.9,4.5c-2.1,1.4-4.2,2.8-6.8,4.6c3,2.5,10.2,4.1,3.8,11.3c1.8-4.6,1.2-7.2-3.2-8.3
		c-1.1-0.3-2.5-2.8-2.3-4.2c0.1-1.1,2.3-2,3.7-2.8c0.6-0.4,1.4-0.4,2.1-1.6c-1.3-0.1-2.8,0.1-3.9-0.5c-1.2-0.6-2.1-2-3.2-3
		c1-0.9,1.9-2.1,3.1-2.6c1.5-0.6,3.2-0.6,5.9-1c-3.7-2.6-9.7,0.6-8.9-5.5c0.2-1.7,2.7-3.2,3.9-4.5c0.2,0-0.9-0.4-1.7-0.1
		c-2.6,1-4.3,0.4-4.7-2.4c-0.5-3.3,2-2.6,3.9-2.8c1.5-0.1,3-0.5,4.4-0.7c0-0.5,0-1.1,0-1.6c-1.3-0.2-2.6-0.7-3.8-0.6
		c-3.1,0.2-5.2-0.2-5.2-4.1c0.1-4.4,3.2-2.8,5.4-2.9c1.4-0.1,2.9,0,4.3,0c0.1-0.6,0.1-1.2,0.2-1.8c-1.6-0.1-3.1-0.2-4.7-0.2
		c-1.6-0.1-4.2,0.5-4.6-0.3c-0.8-1.4-1-3.9-0.1-5.1c0.9-1.3,3.2-1.9,5-2.2c1.7-0.3,3.5,0.2,5.3,0.4c0-0.6,0.1-1.1,0.1-1.7
		c-1.6-0.1-3.3-0.4-4.9-0.2c-3.6,0.4-4.5-2-4.1-4.6c0.1-1,2.6-2.3,4.1-2.3c7.2-0.2,14.5-0.2,21.7-0.1c5.2,0.1,6.5,1.3,7.7,6.8
		c2.2-1,4.6-1.8,6.6-3.1c2.6-1.7,4.8-2.1,7.7-0.2c1.4,0.9,4.1,0.4,6.1,0c3.6-0.8,5.7-0.9,6.5,3.9c1.3,8.1,3.2,9.5,11.3,10.4
		c1.9,0.2,5.5-0.8,5.7-1.8c1.1-5.2,66.9-8.6,70.9-9.1c0.6-0.1,1.7-0.4,1.7-0.7c0.6-7.3,6.9-5,10.8-5.9c1.8-0.4,4.3,1.9,7.2,3.3
		c0.5-1.2,0.9-3.2,2.1-4.4c1-1,3-0.9,6-1.6c-2.6,2.3-4.8,3.4-5,4.8c-0.6,3.2-2.8,4.4-5.1,4.2c-1.4-0.2-2.4-2.7-3.9-4.5
		c-1.8,0.2-5.4-0.4-6.4,0.9c-3.5,4.4-71.5,8.1-74.9,11.4c-5.5,5.3-5.2,6.3-12.8,3.9c-0.8-0.2-1.6-0.2-2.4-0.3
		c-4-0.4-6.3-2.2-6.2-6.6c0.1-5.9-1.1-6.6-7.2-5.5c-1.4,0.2-3.3,0.4-4.3-0.4c-5.3-3.8-9,0.3-12.9,2.5c-0.9,0.5-1.6,2.4-1.3,3.3
		c0.3,0.8,2,1.6,3.1,1.7c3.9,0.2,7.9,0.1,11.4,0.1c1,4.7,1.8,8.7,2.6,12.4c5.4,0.3,10.7,0.5,16.1,0.8c0,4.9,0,4.9-13.3,6.3
		c1.4,1.9,2.2,4.1,3.4,4.4c6,1.6,6.2,1.7,3.4,8.2c6.2,1.3,10.9,7.6,18.3,4.6c3.2-1.5,60.5-10.3,66.2-11.1c0.8,3.3,1.4,6.2,2.1,9.1
		c0.5,0,1,0,1.5-0.1c0-3.3-0.2-6.6,0.1-9.9c0.1-1.6,1-3.2,1.5-4.8c0.8,1.5,1.7,3,2.5,4.6c0.1,0.3,0.1,0.6,0.2,1.2
		c2.2-0.9,4.3-1.8,6.6-2.7c-0.4-2.7-0.7-5.2-1.1-8.5c-2.6,0.4-5.1,1.2-7.6,1.1c-1.7-0.1-4.6-1.3-4.7-2.3c-0.3-2.6,1.1-4.6,4.4-4.6
		c4.6-0.1,9.2-0.4,13.8-1c1.1-0.1,2-1.7,3-2.6c-0.3-0.4-0.6-0.8-0.9-1.2c-1.4,0-3,0.3-4.3-0.1c-1.4-0.4-2.6-1.4-3.8-2.1
		c0.9-1,1.7-2.5,2.8-2.8c2.5-0.7,5.3-0.4,7.7-1.3c1.9-0.7,3.4-2.5,4.8-4c1-1,1.5-3.2,2.5-3.3c4.5-0.7,6.1-5,8.2-7.7
		c2.3-2.9,5.1-4.4,7.3-3.5c7.2,3.2,14.3,1.2,21.7,0.5c0.2-1.4,0.4-2.8,0.7-4.2c8.1-1.3,10.2-0.3,10.4,4.7c7.6,0.9,15.1,1.7,22.6,2.8
		c1.3,0.2,3.4,1.6,3.4,2.4c-0.1,1.8,2.2,4.9-1.9,5.4C1767.8,428.8,1768,428.9,1768,428.9z M1686.2,447.4c-6.9,0.8-13,1.6-19.1,2.3
		c0.1,0.7,0.2,1.4,0.3,2.1c5.9-0.4,11.9-0.8,17.8-1.4C1685.6,450.4,1685.8,448.6,1686.2,447.4z M1679,439c8.2,1.7,12.3,0.5,12.6-3
		C1687.4,437,1683.2,438,1679,439z M1573.8,455.5c4.2-0.5,7.1-0.9,10-1.2c-0.1-0.6-0.2-1.2-0.3-1.8
		C1580.4,452.6,1576.8,449.7,1573.8,455.5z"/>
	<path fill="#9B9B9B" d="M1519.4,391.3c-0.3-9.1,0.7-10.2,10.7-12.1c3.9-0.7,7.7-1.3,11.6-2c3-0.6,4.2,0.3,4.3,3.5
		c0.2,7.4,0.1,7.6-7.3,8.3C1532.4,389.6,1526.1,390.5,1519.4,391.3z M1543.6,379.2c-6.8,1.3-13.3,2.3-19.8,3.8
		c-1.1,0.3-1.9,2.1-2.8,3.3c1.2,0.6,2.4,1.6,3.6,1.6c4.4-0.1,8.8-0.9,13.2-0.8C1542.7,387.2,1544.7,385.4,1543.6,379.2z"/>
	<path fill="#9B9B9B" d="M1453.6,471.5c-0.1,2.8,1.2,3.8,3.9,3.6c4.3-0.4,8.5-0.7,12.8-0.8c3.4,0,5.7,1.4,5.2,5.4
		c-0.5,4,1.6,5,5.2,5.2c10.6,0.5,21.1,1.4,31.7,2c1.8,0.1,3.6-0.4,5.4-0.5c2.1-0.1,4.3,0,6.4,0c0,0.5-0.1,0.9-0.1,1.4
		c-9.1,0-18.3,0.2-27.4-0.1c-6.1-0.2-12.1-1.3-18.2-1.6c-3.2-0.1-5.2-0.6-4.5-4.4c0.7-4.3-1.2-6-5.6-5.8c-5.7,0.3-11.5,0.1-17.8,0.1
		c1.2-1.8,2.1-3.1,2.9-4.4C1453.7,471.5,1453.6,471.5,1453.6,471.5z"/>
	<path fill="#9B9B9B" d="M1592.3,453.5c2.2,0.2,3,3.6,3.3,19.3c-4.4,0-7.1-1.2-6.7-6.4c0.3-3.5-0.3-7.1-0.5-10.7
		c0.6-0.1,1.2-0.2,1.8-0.2c0.6,2.4,1.4,4.8,1.7,7.3c0.3,2.5,0.1,5.1,0.1,7.7c0.6-0.1,1.3-0.1,1.9-0.2
		C1593.3,464.6,1592.8,458.9,1592.3,453.5z"/>
	<path fill="#9B9B9B" d="M1740.7,243.7c-2-4.8-0.1-7.2,4.1-7.5c0.9-0.1,2.9,2.3,3,3.6C1748.2,245.5,1743.9,243.5,1740.7,243.7z"/>
	<path fill="#9B9B9B" d="M1740.7,451.3c0-8.2,0-16.4,0-24.7c0.4,0,0.9,0,1.3,0c0,8.2,0,16.4,0,24.6
		C1741.6,451.3,1741.2,451.3,1740.7,451.3z"/>
	<path fill="#9B9B9B" d="M819.5,487.5c-3.7-1.8-4.8-4.5-2.5-7.7c2.8-4,6.5-6.3,11.8-5.8c3.6,0.4,7.8,1,10.7-0.5
		c7.1-3.6,14.4-2.3,21.7-2.5c0.8,0,1.5-0.4,2.6-0.8c-0.2-0.8-0.3-1.3-0.4-1.9c-0.9-7.2-0.7-7.3,6.4-7c3,0.1,6,0,8.9-0.3
		c3.4-0.3,4.6,1.1,4.2,4.3c-0.1,1.3,0.4,2.8-0.1,4c-1.5,3.7,0.1,5.1,3.5,5.8c1,0.2,1.8,1,3.3,1.9c-8.5,0.3-9.6-0.8-8.6-7.6
		c0.8-5.7-0.6-7-6.2-5.7c-0.6,0.1-1.3,0.3-2,0.3c-7.6,0.7-7.6,0.7-6.7,8.6c-6.5,0-13,0-20.2,0c0.9,1,1.3,1.5,1.8,2.1
		c-3.3,2.1-6.8,4.3-10.2,6.5c-0.3-0.1-0.5-0.1-0.8-0.2c1.1-1.7,2.2-3.4,3.2-5c-4.5,0-9.5-0.3-14.4,0.1
		C820.2,476.4,817.7,481.3,819.5,487.5L819.5,487.5z"/>
	<path fill="#9B9B9B" d="M819.5,487.5c0.2,7.5,0.5,14.9,0.5,22.4c0.1,15.1,0,30.1-0.3,45.4c-0.2-1.2-0.6-2.4-0.6-3.6
		c-0.1-10.3-0.1-20.6-0.2-30.8c-0.1-9.4-0.6-18.8-0.7-28.2C818.2,490.9,819.1,489.2,819.5,487.5
		C819.5,487.5,819.5,487.5,819.5,487.5z"/>
	<path fill="#9B9B9B" d="M612.8,402.5c0,18,0,36,0,54c-0.6,0-1.1,0-1.7,0c0-9.2-0.3-18.5,0.1-27.7c0.4-8.9-3.6-18.1,0.4-26.7
		C612,402.2,612.4,402.4,612.8,402.5z"/>
	<path fill="#9B9B9B" d="M838.7,521.6c0-12.3,0-24.6,0-36.8c0.3,0,0.6,0,0.8,0c0,12.3,0,24.5,0,36.8
		C839.3,521.6,839,521.6,838.7,521.6z"/>
	<path fill="#9B9B9B" d="M653.6,430c0,7.8,0,15.7,0,23.5c-0.3,0-0.6,0-0.9,0c0-7.9,0-15.7,0-23.6C653,430,653.3,430,653.6,430z"/>
	<path fill="#9B9B9B" d="M643.5,431.6c-0.5-2.5-1.1-5-1.7-7.8c-5.5,0-10.8,0-16,0c0-0.4,0-0.8,0-1.3c5.1,0,10.4-0.8,15.3,0.4
		c1.8,0.4,2.6,5.3,3.8,8.1C644.5,431.2,644,431.4,643.5,431.6z"/>
	<path fill="#9B9B9B" d="M659.3,409.4c3.5-0.1,7.2-3.7,11.8,1.7c-4.7,0-8.3,0-11.8,0C659.2,410.5,659.3,410,659.3,409.4z"/>
	<path fill="#9B9B9B" d="M561,464.2c0-6.7,0-13.4,0-20.1c0.2,0,0.5,0,0.7,0c0,6.7,0,13.4,0,20.1C561.5,464.3,561.2,464.3,561,464.2z
		"/>
	<path fill="#F2F2F2" d="M432.3,284.5c11,0.8,22.7,1.7,34.6,2.6c-3.1,3-3,4.4-0.3,8.3c3.4,4.9,6.8,4.2,11,4.8
		c1.3,0.2,3.4,2.2,3.4,3.4c-0.1,21.5-0.6,42.9-0.7,64.4c-0.1,14.3,0.5,28.6,0.7,42.9c0.1,11.7,0.1,23.3,0.1,35
		c0,1.3-0.1,2.6-0.3,5.7c-2.7-1.8-4.3-3.2-6.1-4.1c-1.8-0.9-3.8-2.1-5.7-2.1c-6.3,0-12.5,0.4-18.8,0.8c-3,0.2-6.1-0.2-7.7,3.8
		c-0.5,1.3-3.6,2-5.6,2.2c-5,0.3-10-0.1-15,0.1c-9.5,0.5-19.1,1-28.6,2.1c-3.8,0.4-7.4,2.5-11.1,3.9c-3.9-8.8-1.4-16.5-1.2-24.2
		c0.2-7.2-0.1-14.5-0.1-21.7c0-8.4,0-16.8,0.3-25.2c0.3-9.4,1.5-18.8,1.4-28.2c-0.3-25.6-1.1-51.2-1.5-76.8c-0.2-10.4,0-20.9,0-30.9
		c-0.3-0.2,0.3,0,0.3,0.3c-0.6,6.9,3.5,9.6,9.3,11.7c6.2,2.2,11.8,5.8,18,8c3.6,1.2,7.8,0.9,11.7,1c3.8,0.1,7.1,0.1,7.8,5.3
		C428.4,279.6,430.6,281.7,432.3,284.5z"/>
	<path fill="#F2F2F2" d="M263.4,276.8c2.9,2,5.2,4.2,5.8,3.9c2.9-1.9,5.5-4.2,7.7-6.9c0.8-1,0.1-3.2,0.1-4.9c0-2.4-0.1-4.7,3.3-5.1
		c0.9-0.1,2-0.8,2.4-1.6c3.5-6.7,9.1-4.9,14.6-3.7c1.3,0.3,2.6,0.6,3.9,0.5c5.1-0.6,6.6,1.5,7.2,6.7c0.6,5,4,9.7,5.7,14.6
		c8.2,23.8,16.2,47.6,24.4,71.4c10.6,30.6,21.2,61.2,31.9,91.8c1.1,3.3,2.4,6.5,3.2,9.8c0.3,1.2-0.8,2.8-1.2,4.2
		c-0.3,0.9-0.9,1.8-0.9,2.7c-0.1,4.2,0,8.5,0,12.9c-4.2,0.6-6.4,2.3-8,6.3c-2.5,6.3-9.4,4.6-14.7,5.7c-1.9,0.4-3.9,0.1-5.9,0.1
		c-0.6,3.8-1.1,7.3-1.7,10.8c-3.6,0.3-6.7,0.5-10.1,0.7c-0.7-2.6-1.2-5.2-2-7.8c-1-3.1-2.9-4.7-6.6-4.9c-2.8-0.1-6.5-0.1-6.5-5
		c0-0.9-2.9-1.7-4.2-2.9c-1.3-1.1-3.3-2.6-3.3-3.9c0.1-19.5,0.5-38.9,0.7-58.4c0.1-7.4,0-14.8,0.7-22.3
		c8.5,20.9,16.9,41.8,25.4,62.7c0.4-0.2,0.8-0.3,1.3-0.5c-2-5.2-3.9-10.5-6-15.7c-6.8-16.8-13.7-33.6-20.4-50.4
		c-0.8-1.9-1.1-4.1-1.1-6.2c-0.1-9,0-18,0.2-27c0-3.1-1-5.1-4.3-5.4c-1.3-0.1-2.5-0.8-3.8-0.9c-8-0.7-12.4-4.9-15.4-12.5
		c-4.2-10.7-10.7-20.5-14.8-31.2C267.3,295.8,265.9,286.5,263.4,276.8z"/>
	<path fill="#F2F2F2" d="M1253.4,394.1c-0.1-5-1.8-7.1-6.8-5.3c-1.6,0.6-3.9-0.8-5.8-0.5c-3.8,0.6-8.2,0.8-8,6.7
		c-1.5,0-2.7-0.1-3.8,0c-6.8,1-8,2.5-7.9,9.2c0,2.5-0.4,5.1,0.1,7.5c1.1,6.3-2.3,10-6.3,14.2c-9.4,9.6-18.4,19.5-27.2,29.6
		c-8.4,9.7-16.4,19.9-24.5,29.9c-0.4,0.5-1,0.8-2.3,1.9c-1.2-16.4-2.4-32-3.6-47.9c-13-1-26.3-1.9-40.8-3c0.9-2.1,1.4-4.5,2.8-6.1
		c10.9-12.5,22.3-24.6,33.1-37.2c10.1-11.8,19.6-24.1,29.5-36.1c4.8-5.7,9.9-11.1,15-16.5c3.5-3.7,6.6-3.5,10.7-0.3
		c1.1,0.9,3.2,1.1,4.7,0.9c8-0.8,16-1.9,24.1-2.5c1.6-0.1,3.5,1,4.9,2.1c6.5,5.2,14.1,7.4,22.3,8.3c2,0.2,4.8,1.3,5.7,2.9
		c3.5,6,8.5,7.9,15.1,7.1c2.1-0.3,4.3,0,6.4,0c0.3,0.4,0.6,0.8,0.9,1.2c-2.1,2.3-4,4.8-6.3,6.7c-4.4,3.5-9.3,6.3-13.5,10.1
		c-5.5,5-10.3,10.8-15.5,16.1C1255.8,393.7,1254.6,393.7,1253.4,394.1z"/>
	<path fill="#F2F2F2" d="M1189.3,517.7c-3.8-0.6-7.7-0.9-11.3-1.9c-1-0.3-1.9-2.8-1.9-4.4c-0.3-7.7-0.2-7.8-7.8-8.3
		c-3.3-0.2-4.5-1.7-4.5-5c0-2.8-1-5.7-1.4-7.7c6.1-7.6,11.9-15.7,18.6-23.1c13.1-14.4,23.4-31.4,40-42.9c0.3,0.6,0.9,1.2,0.9,1.9
		c0.4,21.4,0.8,42.9,1,64.3c0.1,4.8-3.2,6.6-8.3,5c-3-1-5.4-2.8-9.2-1.7c-4.5,1.2-7.9,2.3-7.5,7.8c0,0.7-0.6,2-1.1,2
		C1188.4,504.5,1191.2,511.7,1189.3,517.7z"/>
	<path fill="#F2F2F2" d="M288.1,345.3c-14.2,1.3-27.4,2.5-40.5,3.6c-0.9,0.1-2.3-0.5-2.7-1.2c-1.6-2.4-3.1-5-4.3-7.7
		c-0.3-0.6,0.6-1.8,0.9-2.8c0.8,0.4,1.6,1,2.5,1.3c1.3,0.4,2.9,1.3,4,0.9c3.2-1.1,6.2-3,9.4-4.2c3.4-1.3,2.8-3.3,1.7-5.9
		c-1.2-2.7-2.5-4.5-5.8-2.8c-1.4,0.7-3,1.1-4.6,1.6c-0.2-0.5-0.4-1.1-0.7-1.6c3.3-1.4,6.5-3,9.8-4.3c4.9-1.9,5.3-3.4,1.9-7.9
		c-1.5,0.7-3.1,1.3-4.7,2c-0.2-0.2-0.3-0.5-0.5-0.7c2.8-2.4,7.1-4.4,8-7.4c0.9-3,0.1-7.8-5-9.8c1.7-0.8,2.9-1.4,3.6-1.7
		C273.7,311.3,279.5,329,288.1,345.3z"/>
	<path fill="#F2F2F2" d="M1279,374.2c0.6,2.9,0.9,4.5,1.2,6.2c-2.1,0.8-3.9,1.4-5.6,2c-0.7,2.8-0.5,6.7-2.1,7.6
		c-2,1.1-5.4-0.2-8.3-0.5c-0.2-0.5-0.4-1.1-0.6-1.6C1268.5,383.7,1273.4,379.3,1279,374.2z"/>
	<path fill="#F2F2F2" d="M1477.9,452.8c-4.8,0.6-6-1.5-6-5.4c-0.1-8.4-0.2-8.4,7.2-9.4C1478.7,443,1478.4,447.7,1477.9,452.8z"/>
	<path fill="#F2F2F2" d="M1686.2,447.4c-0.4,1.2-0.6,3-1.1,3c-5.9,0.6-11.8,1-17.8,1.4c-0.1-0.7-0.2-1.4-0.3-2.1
		C1673.2,449,1679.4,448.2,1686.2,447.4z"/>
	<path fill="#F2F2F2" d="M1679,439c4.2-1,8.4-2,12.6-3C1691.3,439.5,1687.2,440.8,1679,439z"/>
	<path fill="#F2F2F2" d="M1573.8,455.5c3-5.7,6.6-2.8,9.7-3c0.1,0.6,0.2,1.2,0.3,1.8C1580.9,454.6,1577.9,455,1573.8,455.5z"/>
</g>
</svg>
