<?xml version="1.0" encoding="utf-8"?>
<!-- Generator: Adobe Illustrator 18.1.1, SVG Export Plug-In . SVG Version: 6.00 Build 0)  -->
<svg version="1.1" id="Icons" xmlns="http://www.w3.org/2000/svg" xmlns:xlink="http://www.w3.org/1999/xlink" x="0px" y="0px"
	 viewBox="-249 101 100 100" enable-background="new -249 101 100 100" xml:space="preserve">
<path id="Behance" d="M-162.7,130.9h-22.6v-5.6h22.6L-162.7,130.9L-162.7,130.9z M-200.3,153.9c1.5,2.3,2.2,5,2.2,8.2
	c0,3.3-0.8,6.3-2.5,8.9c-1.1,1.7-2.4,3.2-4,4.4c-1.8,1.4-3.9,2.3-6.3,2.8c-2.4,0.5-5.1,0.8-7.9,0.8H-244v-56h27
	c6.8,0.1,11.7,2.1,14.5,6c1.7,2.4,2.6,5.2,2.6,8.6c0,3.4-0.9,6.2-2.6,8.2c-1,1.2-2.4,2.2-4.3,3.2
	C-203.9,150-201.7,151.6-200.3,153.9z M-231.1,145.1h11.8c2.4,0,4.4-0.5,5.9-1.4c1.5-0.9,2.3-2.6,2.3-4.9c0-2.6-1-4.3-3-5.2
	c-1.7-0.6-3.9-0.9-6.6-0.9h-10.4V145.1z M-209.9,161.3c0-2.9-1.2-4.9-3.6-6c-1.3-0.6-3.2-0.9-5.6-0.9h-12v14.9h11.8
	c2.4,0,4.3-0.3,5.7-1C-211.1,167.1-209.9,164.7-209.9,161.3z M-154.4,152.2c0.3,1.8,0.4,4.5,0.3,8h-29.2c0.2,4,1.6,6.9,4.2,8.5
	c1.6,1,3.5,1.5,5.8,1.5c2.4,0,4.3-0.6,5.8-1.8c0.8-0.7,1.5-1.6,2.2-2.8h10.7c-0.3,2.4-1.6,4.8-3.9,7.3c-3.6,3.9-8.6,5.9-15.1,5.9
	c-5.3,0-10-1.6-14.1-4.9c-4.1-3.3-6.1-8.6-6.1-16.1c0-7,1.8-12.3,5.5-16c3.7-3.7,8.5-5.6,14.3-5.6c3.5,0,6.6,0.6,9.4,1.9
	c2.8,1.3,5.1,3.2,6.9,5.9C-155.9,146.3-154.8,149-154.4,152.2z M-164.9,153.2c-0.2-2.8-1.1-4.9-2.8-6.3c-1.7-1.4-3.7-2.2-6.2-2.2
	c-2.7,0-4.8,0.8-6.3,2.3c-1.5,1.5-2.4,3.6-2.8,6.2C-183,153.2-164.9,153.2-164.9,153.2z"/>
</svg>
