<?xml version="1.0" encoding="utf-8"?>
<!-- Generator: Adobe Illustrator 18.1.1, SVG Export Plug-In . SVG Version: 6.00 Build 0)  -->
<svg version="1.1" id="Layer_1" xmlns="http://www.w3.org/2000/svg" xmlns:xlink="http://www.w3.org/1999/xlink" x="0px" y="0px"
	 viewBox="0 0 389.5 376.4" enable-background="new 0 0 389.5 376.4" xml:space="preserve">
<g>
	<polygon fill="#1A1A1A" points="385,188 385,376 306.3,376 306.2,375.9 289.4,346.8 272.7,376 272.6,376 117.6,376 101,347.1 
		84.2,376 8,376 8,188 	"/>
	<rect x="8" y="200" fill="#808080" width="377" height="16.5"/>
	<g>
		<path fill="#CCCCCC" d="M274.6,369.7l-1.8-6.7c-2.5-9.7-62.4-238.8-66.2-259.7c-2.8-15.7,9.6-23.7,18.7-29.5
			C235.7,67,242,62.4,242,52.2C242,28,210.8,18,194,18c-11.7,0-50,2.6-50,35.5c0,13.3,6.7,17.5,17.7,23.2c9.1,4.7,22.9,11.9,18,29.9
			c-6.4,23.4-60.3,253.8-60.9,256.1l-1.6,6.9L0,369.7l0-18l102.9,0c9.3-39.6,53.5-228.2,59.4-249.8c0.9-3.3,1.1-4-8.9-9.2
			C142.5,87,126,78.4,126,53.5c0-19.4,8.8-34.5,25.6-43.7C166.9,1.3,184.8,0,194,0c26.6,0,66,16.6,66,52.2
			c0,20.5-14.4,29.8-24.9,36.6c-9.4,6.1-11.3,8.1-10.7,11.3c3.2,18.3,53.9,212.7,64.1,251.6l101,0l0,18L274.6,369.7z"/>
	</g>
	<g>
		<linearGradient id="SVGID_1_" gradientUnits="userSpaceOnUse" x1="194.7544" y1="5" x2="194.7544" y2="364.7163">
			<stop  offset="0" style="stop-color:#FFFFFF"/>
			<stop  offset="1" style="stop-color:#000000"/>
		</linearGradient>
		<path fill="url(#SVGID_1_)" d="M278.4,364.7l-0.8-3c-2.5-9.7-62.4-238.6-66.1-259.3c-2.2-12.4,7.3-18.5,16.5-24.5
			c9.3-6,19-12.3,19-25.7c0-26.8-31.6-39.2-53-39.2c-12.9,0-55,2.9-55,40.5c0,17.1,10.4,22.4,20.4,27.6c9.1,4.7,19.3,10,15.5,24.2
			c-6.4,23.5-60.4,254-60.9,256.3l-0.7,3.1L0,364.7l0-8l106.9,0c6.7-28.8,54.1-231.1,60.3-253.5c2-7.3-1.4-9.7-11.4-15
			C145.3,82.8,131,75.4,131,53.5C131,17.7,163.6,5,194,5c24.6,0,61,15,61,47.2c0,17.8-12.5,25.9-22.6,32.4
			c-9.1,5.9-14.1,9.5-12.9,16.4c3.4,19.1,57.9,228.1,65.2,255.7l104.9,0l0,8L278.4,364.7z"/>
	</g>
	<polygon fill="#333333" points="105.9,339 103.2,344.5 99,352.8 87.2,376.4 3,376.3 3,339 	"/>
	<polygon fill="#333333" points="388,339 388,376.3 303.7,376.4 292,353 285,339 	"/>
	<polygon fill="#333333" points="273,376.3 117.6,376 129,352.8 133,344.5 135.7,339 254,339 256.8,344.5 257.1,345 261,352.8 
		261.1,353 	"/>
	<polygon fill="#999999" points="3,345 103.2,345 99,353 3,353 	"/>
	<polygon fill="#999999" points="261,352.8 261.1,353 129,353 133,345 257.1,345 	"/>
	<polygon fill="#999999" points="388,345 388,353 292,353 288,345 	"/>
</g>
</svg>
