<?xml version="1.0" encoding="utf-8"?>
<!-- Generator: Adobe Illustrator 18.1.1, SVG Export Plug-In . SVG Version: 6.00 Build 0)  -->
<svg version="1.1" id="Layer_1" xmlns="http://www.w3.org/2000/svg" xmlns:xlink="http://www.w3.org/1999/xlink" x="0px" y="0px"
	 viewBox="0 0 599.8 59.9" enable-background="new 0 0 599.8 59.9" xml:space="preserve">
<g>
	<rect x="0" y="34.6" fill="#CCCCCC" width="599.8" height="6"/>
	<g>
		<polygon fill="#1A1A1A" points="132.8,29.5 132.8,59.5 120.6,59.5 120.6,59.7 117.9,55.1 115.2,59.6 115.2,59.5 90.6,59.5 
			87.9,54.9 85.2,59.5 72.8,59.5 72.8,29.5 		"/>
		<rect x="73.1" y="31.8" fill="#808080" width="60" height="2.6"/>
		<g>
			<path fill="#CCCCCC" d="M115.5,58.9l-0.3-1.1c-0.4-1.6-9.9-38-10.5-41.3c-0.4-2.5,1.5-3.8,3-4.7c1.6-1.1,2.7-1.8,2.7-3.4
				c0-3.9-5-5.4-7.6-5.4c-1.9,0-8,0.4-8,5.6c0,2.1,1.1,2.8,2.8,3.7c1.5,0.8,3.6,1.9,2.9,4.8c-1,3.7-9.6,40.4-9.7,40.8l-0.3,1.1
				l-18.7,0l0-2.9l16.4,0c1.5-6.3,8.5-36.3,9.5-39.8c0.1-0.5,0.2-0.6-1.4-1.5c-1.7-0.9-4.4-2.3-4.4-6.2c0-3.1,1.4-5.5,4.1-7
				c2.4-1.3,5.3-1.6,6.8-1.6c4.2,0,10.5,2.6,10.5,8.3c0,3.3-2.3,4.7-4,5.8c-1.5,1-1.8,1.3-1.7,1.8c0.5,2.9,8.6,33.9,10.2,40.1
				l16.1,0l0,2.9L115.5,58.9z"/>
		</g>
		<g>
			<linearGradient id="SVGID_1_" gradientUnits="userSpaceOnUse" x1="102.8333" y1="0.796" x2="102.8333" y2="58.0651">
				<stop  offset="0" style="stop-color:#FFFFFF"/>
				<stop  offset="1" style="stop-color:#000000"/>
			</linearGradient>
			<path fill="url(#SVGID_1_)" d="M116.2,58.1l-0.1-0.5c-0.4-1.5-9.9-38-10.5-41.3c-0.4-2,1.2-2.9,2.6-3.9c1.5-1,3-2,3-4.1
				c0-4.3-5-6.2-8.4-6.2c-2.1,0-8.8,0.5-8.8,6.4c0,2.7,1.7,3.6,3.2,4.4c1.4,0.7,3.1,1.6,2.5,3.8c-1,3.7-9.6,40.4-9.7,40.8l-0.1,0.5
				l-18,0v-1.3l17,0c1.1-4.6,8.6-36.8,9.6-40.4c0.3-1.2-0.2-1.6-1.8-2.4c-1.7-0.9-3.9-2-3.9-5.5c0-5.7,5.2-7.7,10-7.7
				c3.9,0,9.7,2.4,9.7,7.5c0,2.8-2,4.1-3.6,5.2c-1.4,0.9-2.3,1.5-2.1,2.6c0.5,3,9.2,36.3,10.4,40.7l16.7,0v1.3L116.2,58.1z"/>
		</g>
		<polygon fill="#333333" points="88.7,53.5 88.3,54.6 87.6,56 85.5,59.9 71.8,59.9 71.8,53.5 		"/>
		<polygon fill="#333333" points="133.8,53.5 133.8,59.9 120.3,59.9 118.4,56 117.2,53.5 		"/>
		<polygon fill="#333333" points="115.3,59.9 90.6,59.9 92.4,56.2 93,54.6 93.4,53.5 112.3,53.5 112.7,54.6 112.8,54.8 113.4,56.1 
			113.4,56.2 		"/>
		<polygon fill="#999999" points="71.8,54.5 88.3,54.5 87.6,56.5 71.8,56.5 		"/>
		<polygon fill="#999999" points="113.4,56.1 113.4,56.5 92.4,56.5 93,54.5 112.8,54.5 		"/>
		<polygon fill="#999999" points="133.8,54.5 133.8,56.5 118.3,56.5 117.7,54.5 		"/>
	</g>
	<g>
		<polygon fill="#1A1A1A" points="519.8,29.5 519.8,59.5 507.6,59.5 507.6,59.7 504.9,55.1 502.2,59.6 502.2,59.5 477.6,59.5 
			474.9,54.9 472.2,59.5 459.8,59.5 459.8,29.5 		"/>
		<rect x="460.1" y="31.8" fill="#808080" width="60" height="2.6"/>
		<g>
			<path fill="#CCCCCC" d="M502.5,58.9l-0.3-1.1c-0.4-1.6-9.9-38-10.5-41.3c-0.4-2.5,1.5-3.8,3-4.7c1.6-1.1,2.7-1.8,2.7-3.4
				c0-3.9-5-5.4-7.6-5.4c-1.9,0-8,0.4-8,5.6c0,2.1,1.1,2.8,2.8,3.7c1.5,0.8,3.6,1.9,2.9,4.8c-1,3.7-9.6,40.4-9.7,40.8l-0.3,1.1
				l-18.7,0l0-2.9l16.4,0c1.5-6.3,8.5-36.3,9.5-39.8c0.1-0.5,0.2-0.6-1.4-1.5c-1.7-0.9-4.4-2.3-4.4-6.2c0-3.1,1.4-5.5,4.1-7
				c2.4-1.3,5.3-1.6,6.8-1.6c4.2,0,10.5,2.6,10.5,8.3c0,3.3-2.3,4.7-4,5.8c-1.5,1-1.8,1.3-1.7,1.8c0.5,2.9,8.6,33.9,10.2,40.1
				l16.1,0l0,2.9L502.5,58.9z"/>
		</g>
		<g>
			<linearGradient id="SVGID_2_" gradientUnits="userSpaceOnUse" x1="489.8333" y1="0.796" x2="489.8333" y2="58.0651">
				<stop  offset="0" style="stop-color:#FFFFFF"/>
				<stop  offset="1" style="stop-color:#000000"/>
			</linearGradient>
			<path fill="url(#SVGID_2_)" d="M503.2,58.1l-0.1-0.5c-0.4-1.5-9.9-38-10.5-41.3c-0.4-2,1.2-2.9,2.6-3.9c1.5-1,3-2,3-4.1
				c0-4.3-5-6.2-8.4-6.2c-2.1,0-8.8,0.5-8.8,6.4c0,2.7,1.7,3.6,3.2,4.4c1.4,0.7,3.1,1.6,2.5,3.8c-1,3.7-9.6,40.4-9.7,40.8l-0.1,0.5
				l-18,0v-1.3l17,0c1.1-4.6,8.6-36.8,9.6-40.4c0.3-1.2-0.2-1.6-1.8-2.4c-1.7-0.9-3.9-2-3.9-5.5c0-5.7,5.2-7.7,10-7.7
				c3.9,0,9.7,2.4,9.7,7.5c0,2.8-2,4.1-3.6,5.2c-1.4,0.9-2.3,1.5-2.1,2.6c0.5,3,9.2,36.3,10.4,40.7l16.7,0v1.3L503.2,58.1z"/>
		</g>
		<polygon fill="#333333" points="475.7,53.5 475.3,54.6 474.6,56 472.5,59.9 458.8,59.9 458.8,53.5 		"/>
		<polygon fill="#333333" points="520.8,53.5 520.8,59.9 507.3,59.9 505.4,56 504.2,53.5 		"/>
		<polygon fill="#333333" points="502.3,59.9 477.6,59.9 479.4,56.2 480,54.6 480.4,53.5 499.3,53.5 499.7,54.6 499.8,54.8 
			500.4,56.1 500.4,56.2 		"/>
		<polygon fill="#999999" points="458.8,54.5 475.3,54.5 474.6,56.5 458.8,56.5 		"/>
		<polygon fill="#999999" points="500.4,56.1 500.4,56.5 479.4,56.5 480,54.5 499.8,54.5 		"/>
		<polygon fill="#999999" points="520.8,54.5 520.8,56.5 505.3,56.5 504.7,54.5 		"/>
	</g>
</g>
</svg>
